<svg xmlns="http://www.w3.org/2000/svg" viewBox="0 0 549.72 546.84"><defs><style>.cls-1{fill:#fcd7d2;}.cls-2{fill:#fff;}.cls-3{fill:#020202;}</style></defs><title>BuildCV</title><g id="Layer_2" data-name="Layer 2"><g id="Layer_1-2" data-name="Layer 1"><circle class="cls-1" cx="273.42" cy="273.42" r="273.42"/><path class="cls-2" d="M338.26,185.23c-1.42-1.74-1.53-4.22-3.25-5.8a11.49,11.49,0,0,0-2.43-6.81c-.1-.11,0-.4.05-.6s.21-.26.37,0a.77.77,0,0,1,.12.59c-.24.49-.34,1.44-1.1,1.09-1.48-.67-1.34.81-2,1.26l-.09.1a8.54,8.54,0,0,0-3.21,4.36,10.42,10.42,0,0,0-1.62,1.92c-1.9,2.9-2.52,6.29-3.85,9.38a13.24,13.24,0,0,0-.82,7.81c.17.95.23,1.88.31,2.83.28,3.18.2,6.38.63,9.57a44.63,44.63,0,0,1,.63,6.36,153.6,153.6,0,0,0,.34,15.63c.58,6.06.63,12.14,1.23,18.18a38.12,38.12,0,0,0,1.75,8.76,14.92,14.92,0,0,0,7.24,8.45A32.88,32.88,0,0,0,351,272.58c4.43-.23,8.85-.63,13.29-.67,1.27,0,2.09.39,2.31,1.65A2.47,2.47,0,0,1,365,276.4a5.83,5.83,0,0,1-3.16.15,22.73,22.73,0,0,0-5.71.08c-.94.1-1.2.55-1,1.51,1,6.74,2.08,13.48,2.94,20.25.53,4.11,1.56,8.21.9,12.41-.16,1,.46,1.26,1.21,1.52,1.68.59,3.4.16,5.1.25a61.87,61.87,0,0,0,11.22-.21c7-.9,12.91-4.19,18.84-7.61a19.34,19.34,0,0,0,6.46-6.51c1.06-1.61.17-2.15-.56-3.05.71-.71,1.72.76,2.4-.31-1.44-1-1.78-1.22-2-1s.28,1-.33,1.33a2.5,2.5,0,0,1-1.83-.34A21.27,21.27,0,0,1,390,283.83c-4-10.26-4.63-21.14-5.08-32-.12-3,.14-6.11,0-9.07a97.93,97.93,0,0,0-.55-9.82,3.23,3.23,0,0,1,1.21-3.44c3.27-2.09,4.27-5.6,5.29-8.9a17.62,17.62,0,0,0,.09-10.73c-.79-2.42-2.21-4.52-4.94-4.89s-5.38-.19-7.42,2c-.68.72-1.28,1.14-2.17.52s-1.87,0-2.8-.06c-1.3,0-2.82.51-3.42-1.36-.06-.19-.67-.43-.72-.38-1.57,1.84-2.93-.07-4.34-.29a17,17,0,0,1-5.78-1.49c-3.38-1.92-7.15-3-10.42-5.16-2.67-3.22-4.64-6.83-6.11-7.13C342.86,191.09,339.9,186.61,338.26,185.23Z"/><path class="cls-2" d="M281.75,502.26v.16H293c3.12,0,6.24,0,9.36,0,.8,0,1.53-.15,1.63-1.06.21-1.75,1-3.5.51-5.25-.73-2.6-1.27-5.3-2.18-7.81-2.59-7.14-4.82-14.41-6.77-21.7-2.75-10.25-5.94-20.36-8.73-30.59-.55-2-1.14-4-1.75-6-1.08-3.57-2.36-7.1-3.23-10.73a104.4,104.4,0,0,0-2.9-10.45c-1.77-5-3.12-10.13-4.63-15.19-2.5-8.36-4.88-16.78-7.29-25.17-2.06-7.18-3.9-14.45-6.37-21.51a6.58,6.58,0,0,0-6.49-4.76c-2.5,0-5,0-7.51,0-21.77-.06-43.54-.19-65.3-.18-18.16,0-36.32.13-54.47.26-7.38,0-14.77.57-22.13.27-8.65-.35-17.28-.06-25.92-.16-6.1-.07-12.22-.15-18.31.06-3.13.11-6.24-.12-9.34-.08-2.57,0-5.15,0-7.71.08-5.24.15-6.2,1.24-5.52,5.46a22.5,22.5,0,0,0,.56,2.43C40.06,356,42.05,361.5,44.05,367c3.32,9.08,5.67,18.49,8.23,27.81,3.36,12.23,6.36,24.55,10.3,36.62a227.86,227.86,0,0,1,6.58,26.9c1.86,9.43,5,18.47,7.65,27.67,1.13,4,3.4,7.58,2.13,12-.29,1,.2,1.64,1.57,1.62q9.6-.1,19.21,0c16.15.23,32.3.54,48.45.75,14,.18,28,.43,42,.64,12.49.18,25,.26,37.46.47Q254.71,501.91,281.75,502.26Z"/><path class="cls-2" d="M331.83,324.36c2.16,2.89,3,3.05,5.89,1.72,5.29-2.45,9.24-6.79,14.07-9.88a2.06,2.06,0,0,0,.75-1c.85-2.37,2-4.59,1.85-7.32-.53-8-2-15.84-2.67-23.8-.41-4.65-2.57-6.46-7.31-6.78a20.13,20.13,0,0,1-5.08-.47,20.57,20.57,0,0,0-8.23-.93c-2.46.22-4.6-.7-6.86-1.26-1-.26-1.29-1-1.29-1.93s.6-1.5,1.53-1.75c.57-.14,1.29.19,1.89-.75-3.19-3.06-4.88-7.14-6.61-11.28a59.1,59.1,0,0,0-1.95,7.46c-.6,3-1.18,6-3.79,8.16a18.32,18.32,0,0,0-2.51,3.29c-3.33,4.42-6.27,9.14-9.95,13.3-2.89,3.27-6.33,6.16-8.36,10.05-4.73,9.07-10.66,17.54-13.87,27.39-1.34,4.11-2.78,8.19-4.23,12.44,11.57,4.09,22.87,8.11,34.08,12.73a11.78,11.78,0,0,0,.7-1.53c1.28-4.62,2.68-9.21,3.76-13.88,1-4.13,3.3-7.21,6.15-10.21,4.06-4.27,8.81-7.75,12.89-12a37.84,37.84,0,0,1,9.14-7.5c.77-.4,1.53-1,2.35-.35s.53,1.8.31,2.71c-.17.74-.9,1.15-1.41,1.7C339.4,316.53,335.27,319.94,331.83,324.36Z"/><path class="cls-2" d="M328,465.29a3.78,3.78,0,0,0-2.42.39,46.37,46.37,0,0,0-5.17,3.2c-3.82,2.52-7.59,5.12-11.33,7.75-1.76,1.24-2.77,2.69-1.79,5.13A33.63,33.63,0,0,1,309.8,490c.33,2.65,1.74,3.63,4.36,3.54a47.5,47.5,0,0,1,5.42.51c6,.48,11.92.9,17.88,1.41q15,1.29,30,2.67,11.63,1,23.24,2.18c1.55.15,2-.18,1.55-1.79-.66-2.47-1.62-4.86-2.23-7.34-1.49-6.06-5.64-10.43-9.45-15-1.19-1.43-3.12-2.18-4.34-3.72a2.55,2.55,0,0,0-2-1,43.32,43.32,0,0,1-9.13-1.37c-5.53-1.22-11.17-1.61-16.74-2.54A132.08,132.08,0,0,0,328,465.29Z"/><path class="cls-2" d="M353.11,322.49c2.62.46,4.23,2.05,6.55,2.5a61.9,61.9,0,0,0,19.4.15,52,52,0,0,0,22.12-8.58c4.92-3.24,9.67-6.61,13.2-11.44a12.74,12.74,0,0,0,2.41-4.44c.22-.91.14-1.62-1.06-1.9-2.21-.52-2.64-.46-3.83,1.63a15.62,15.62,0,0,1-2.47,3.34,54.78,54.78,0,0,1-19.48,13c-2,.76-3.92,1.62-6,2.26-4.71,1.48-9.52,1.1-14.31,1.43a31.3,31.3,0,0,1-9.46-1.06C356,318.38,356,318.26,353.11,322.49Z"/><path class="cls-2" d="M312.64,504c1.46.16,2.67.39,3.87.4,7.5.1,15,.14,22.49.22,3.65,0,7.29.22,10.93.26,3.31,0,6.65,0,10,0,1.42,0,2.84-.06,4.2-.13a1.06,1.06,0,0,0,.06-2.12c-3.4-.39-6.81-.75-10.23-1-6.14-.48-12.27-1.1-18.4-1.67-3.35-.31-6.69-.78-10.05-.93-3.66-.15-7.25-.74-10.88-1.16-1.26-.14-2.19.05-2,1.74C312.75,501,312.64,502.41,312.64,504Z"/><path class="cls-2" d="M306.41,366a2.19,2.19,0,0,0,2.4-1.75c.61-1.73-.05-2.8-2.18-3.51s-4.12-1.09-6.08-1.88c-6.39-2.56-12.89-4.88-19-8.16a78.59,78.59,0,0,0-7.29-3.16c-1.15-.48-2.39-.67-3.2.49s-.42,2.49.43,3.55a7.24,7.24,0,0,0,2.69,1.67c8.59,4.19,17.73,7.09,26.4,11.11A36.18,36.18,0,0,0,306.41,366Z"/><path class="cls-2" d="M372.26,206.32c.28-.12.61-.24.38-.63-.14-.24-.4-.59-.59-.57a.62.62,0,0,0-.54.86C371.6,206.32,371.94,206.34,372.26,206.32Z"/><path class="cls-3" d="M196.69,50l11.49.09a15.07,15.07,0,0,1,2.23.1c4.16.68,3.71,1.18,3.46,4.88-.09,1.27-.9,2-2.32,2.19-4.35.72-8.72.45-13.08.46-6.81,0-13.62-.09-20.43-.17-1.71,0-3.38.56-5.09.24-4-.54-8-.2-12-.24-5,0-10,.39-15-.22a25.32,25.32,0,0,0-2.85.25c-2.61,0-4.41-1.55-4.29-3.6s.3-2.26,2.59-2.63c5.59-.9,11.23-.46,16.84-.63,7.67-.24,15.33-.15,23-.44C186.32,50.13,191.51,50.24,196.69,50Z"/><path class="cls-3" d="M59.73,147.38c6.68-1,13.42-.71,20.14-.9,3.81-.11,7.62-.17,11.43-.23,5-.07,10-.27,15-.34a3.51,3.51,0,0,1,3.19,3.33c0,2.54-.92,3.67-3.16,3.68-6.4,0-12.82-.19-19.21.09-7.49.33-15-.13-22.45.09-.54,0-1.07,0-1.61,0-4.23-.17-4.23-.17-4.73-4.59Z"/><path class="cls-3" d="M71.11,63.07c-4.48.09-5.56-1-5,4.75.15,1.55.22,3.26-1.46,4.28s-3.3.48-3.76-1.67a19.16,19.16,0,0,1-.44-5.4c.09-1.25-.3-1.86-1.83-1.78s-3.18-.1-4.78-.08c-2.12,0-3.44-1.14-3.56-2.9s.44-2.28,2.11-2.75A25.33,25.33,0,0,1,59.07,57c1.4,0,1.87-.54,1.84-1.9A32.25,32.25,0,0,1,61.16,51a2.1,2.1,0,0,1,2.29-2.11c1.41-.06,1.88.7,2.24,1.77a13.56,13.56,0,0,1,.47,3.8c.1,2.4.51,2.83,2.87,2.44a27.5,27.5,0,0,1,6.66-.1c2.2.17,2.63.76,2.64,3.1s-.47,2.85-2.69,3.09A14.26,14.26,0,0,1,71.11,63.07Z"/><path class="cls-3" d="M135.59,78.38c1.16,1.62.49,3.46.57,5.2.06,1.18-1,1.06-1.88,1-2.81,0-5.62,0-8.43,0a2.72,2.72,0,0,0-1.5-.42c-3.11-.37-4.08-1.16-4-4.16.09-3.17-.07-6.33-.18-9.5,0-1.16.33-1.83,1.63-1.74.74,0,1.49,0,2.24,0,2.4,0,2.28.08,2.61,2.43a37.87,37.87,0,0,1,.19,8A58.21,58.21,0,0,0,135.59,78.38Z"/><path class="cls-3" d="M136,33.41c-2.77-.2-5.33.08-7.85-.47-1.24-.28-1.88.14-2,1.64-.14,1.84.32,3.59.31,5.4,0,1.26-.24,1.92-1.69,2.09-4.64.53-4.63.59-4.66-4.15,0-1.17,0-2.35-.11-3.52-.3-4.55,1.61-7,6.23-7.44a73.13,73.13,0,0,1,8.62.21c.8,0,1.13.47,1.14,1.22C136.05,30,136,31.56,136,33.41Z"/><path class="cls-3" d="M233.47,39.84c0,1.59-.23,2.85-2.41,2.47-1.19-.21-2.5.38-3.59-.57.51-1.65-1.14-3.29.14-5.07.48-.66-.73-1.11-1.5-1.08-1.71.08-3.41.19-5.11.36-1.39.15-2-.29-1.77-1.77a5,5,0,0,0,0-1.28c-.19-3.56-.19-3.52,3.19-3.94,1.79-.22,3.59-.24,5.39-.5,2.94-.41,4.81,1.45,5,4.4C233,35.19,233.26,37.51,233.47,39.84Z"/><path class="cls-3" d="M85.61,83.9c-5.42,3.88-10.45,6.4-16.41,6.51-1.22,0-2.72,1.16-3.56-.06-.56-.81-.2-2.26-.22-3.42,0-2.31,0-2.27,2.17-2.65a30.16,30.16,0,0,0,11.63-4.06c1.09-.71,1.74-.68,2.62.44A27.59,27.59,0,0,0,85.61,83.9Z"/><path class="cls-3" d="M85.35,34.75a37,37,0,0,0-5.21,5.09,18.44,18.44,0,0,0-10.65-4.5c-1.79-.19-2.18-.91-2-2.42a1.74,1.74,0,0,0,0-.32c.14-4.35.17-4.59,4.41-4A25.94,25.94,0,0,1,85.35,34.75Z"/><path class="cls-3" d="M40.28,58.08c-1.11,0-2.16,0-3.2,0-2.35.14-2.4,0-2.2-2.46.44-5.24,2.6-9.81,5.39-14.13.58-.89,1.12-1.78,1.64-2.71A2.06,2.06,0,0,1,45,38.38c1.31,1.08,1.9,2.66,1.08,3.45-3.61,3.49-3.81,8.35-5.17,12.73A25.08,25.08,0,0,0,40.28,58.08Z"/><path class="cls-3" d="M90.18,39.43a41.6,41.6,0,0,1,6.68,15.1c.29,1.23.06,2.07-1.5,2.08s-3.1.56-4.45.16-.77-2.41-1.36-3.64c-1.22-2.58-1.93-5.41-3.91-7.6-.64-.71-.43-1.22.09-1.93A15.07,15.07,0,0,1,90.18,39.43Z"/><path class="cls-3" d="M45.81,130a14.84,14.84,0,0,1-.08,4.52.7.7,0,0,1-.86.43c-1.34-.43-3,.63-4-.38s0-2.4-.1-3.65a3.15,3.15,0,0,0-1.08-2.53c-1.11-.84-.88-2.11-.74-3.25a1.64,1.64,0,0,1,1.68-1.6c2.65,0,5.28-.45,7.93-.15,2.26.26,2.26.25,2.44,2.61,0,.64.08,1.27.09,1.91,0,1.15-.43,1.8-1.7,1.74A6.77,6.77,0,0,0,45.81,130Z"/><path class="cls-3" d="M56.19,123.36c4.71,0,9.18,0,13.64,0,1.56,0,2.39.47,2.17,2.24a31.72,31.72,0,0,0,0,3.91,88.22,88.22,0,0,1-13.57.2c-1.55-.08-2.36-.5-2.23-2.2C56.26,126.24,56.19,125,56.19,123.36Z"/><path class="cls-3" d="M163.4,27.83a92.5,92.5,0,0,0,9.75.58c.83,0,1.14.38,1.18,1.12,0,.1,0,.21,0,.32.07,6.46.51,5.59-5,5-2.55-.25-5.1-.28-7.63-.39-2-.1-2.33-.92-2.37-2.46,0-.31,0-.63,0-.95C159.19,27.8,159.19,27.8,163.4,27.83Z"/><path class="cls-3" d="M96.42,64.19a26.59,26.59,0,0,1-6.31,15c-1.7-.54-2.19-2.49-3.63-3.38-.25-.15-.22-.53-.14-.87a82.26,82.26,0,0,1,3.25-9.65,1.55,1.55,0,0,1,1.73-1.09C93,64.24,94.66,64.19,96.42,64.19Z"/><path class="cls-3" d="M199.44,29.51c4.27,0,8.49,0,12.7,0,.76,0,1.21.31,1.13,1.14,0,.11,0,.21,0,.32.09,5.78,1.38,5.5-5.13,5.32a40.8,40.8,0,0,0-6.35,0c-2,.25-2.29-.11-2.34-2C199.41,32.74,199.44,31.18,199.44,29.51Z"/><path class="cls-3" d="M120.15,62.85c0-4.72,0-9.18,0-13.65,0-.56.08-1.38.58-1.28,1.7.32,3.41-.52,5.08.12.61.24.69.73.69,1.29,0,4.05,0,8.11,0,12.16,0,1.16-.53,1.44-1.59,1.38C123.45,62.8,122,62.85,120.15,62.85Z"/><path class="cls-3" d="M180.25,29.07c4.17-.58,8.21.33,12.26.06,1-.06,1.59.39,1.55,1.54-.06,1.68,0,3.37,0,5.09-4,.49-8-.3-12.07-.17-1.51,0-2.05-.73-2.14-2.14A14,14,0,0,1,180.25,29.07Z"/><path class="cls-3" d="M45.52,157.39c-5,.23-5.05.23-5.18-4.43-.08-3.07,0-6.16.07-9.23.09-2.72.16-2.72,3-2.83.43,0,.86,0,1.28,0,1.2-.08,1.34.56,1.3,1.59-.12,3.68-.25,7.36-.15,11A31.49,31.49,0,0,1,45.52,157.39Z"/><path class="cls-3" d="M45.79,74.9l-4.3,4.54c-3.53-3.64-5-8.09-6.12-12.66-.43-1.76-.13-1.93,1.83-2a14.31,14.31,0,0,0,1.6,0c1.82-.24,2.56.49,3.05,2.31A28.12,28.12,0,0,0,45.79,74.9Z"/><path class="cls-3" d="M49.05,33.75c.37-.64,1.12-.66,1.33-1,2-3.63,5.5-3.8,9-4,.72,0,1.44-.2,2.13-.3.69,1,.07,1.94.21,2.86.4,2.58-.11,4.38-3.22,4.81-1.45.19-2.58,1.33-4.37,1.32a4.32,4.32,0,0,1-4.26-2.53A11.12,11.12,0,0,0,49.05,33.75Z"/><path class="cls-3" d="M59.11,89.8a14.58,14.58,0,0,1-7.36-2.13A32.76,32.76,0,0,0,47.06,85c-1-.37-1.35-1-.56-1.91A14.57,14.57,0,0,1,49.69,80a1.27,1.27,0,0,1,1.7-.07c1.89,1.44,4.23,1.93,6.33,2.92.88.42,1.43.75,1.4,1.79C59.08,86.36,59.11,88.05,59.11,89.8Z"/><path class="cls-3" d="M154.18,33.83a104.12,104.12,0,0,0-10.73-.43c-1.21,0-1.8-.5-1.55-1.77a3.87,3.87,0,0,0,0-1c-.18-3.61,0-3.78,3.51-3.7,2.34.05,4.69.08,7,.08,1.32,0,1.93.44,1.8,1.89S154.18,31.93,154.18,33.83Z"/><path class="cls-3" d="M79,123.37c2.54,0,5.09.22,7.63.07,1.82-.11,2.21.71,2.12,2.21-.08,1.28-.16,2.55-.25,4-3.46.89-6.93.14-10.37.14-1.73,0-.74-1.68-1.17-2.51a13.12,13.12,0,0,0,.13-2.16C77,123.62,77.84,123.38,79,123.37Z"/><path class="cls-3" d="M46,164.13c-.78,3.14-.14,6.34-.33,9.51-.15,2.43-.1,2.44-2.4,2.48l-2.87.07V163C42.4,163.3,44.42,162.18,46,164.13Z"/><path class="cls-3" d="M96.69,170.3c-5.18.38-10.64,0-16.09.08-6.51.05-13,.12-19.53-.33-2-.14-3.24-1.13-3.2-2.72s.93-2.36,3.06-2.47c5-.26,10-.43,15-.55,5.94-.14,11.88-.21,17.82-.28,8.86-.12,17.73-.28,26.6-.31,5.51,0,11-.11,16.53,0,6.05.13,12.12-.33,18.19-.33,12.61,0,25.22-.21,37.83-.26,3.72,0,7.42-.18,11.12-.42a4,4,0,0,1,3.79,6.15c-.45.79-1,1.61-2.28,1.41-4.09-.65-8.22-.14-12.33-.22-5.73-.11-11.48-.25-17.2,0-11,.4-22,.22-32.95.34-9.29.11-18.59,0-27.88,0-5.55,0-11.09.14-16.63.19A14.43,14.43,0,0,1,96.69,170.3Z"/><path class="cls-3" d="M139.63,238c-8.91.15-16.9.2-24.89,0a70.08,70.08,0,0,0-9.27.34c-1.51.17-3.1-.26-4.71-.26-12.92,0-25.84-.15-38.76-.27-2.19,0-2.68-.44-3.09-2.37-.51-2.35-.11-3,2.27-3.66,1.48-.44,3-.15,4.46-.22,6.69-.31,13.39-.27,20.08-.3,5.1,0,10.19-.26,15.29-.34,3.84-.05,7.69,0,11.53,0,5.43,0,10.86-.2,16.28-.24,4.24,0,8.47-.13,12.7-.12,9.16,0,18.32-.19,27.48-.32,4-.06,5.31,1.73,4.31,5.59-.48,1.84-1.58,2.27-3.27,2.25-5.86-.07-11.72-.08-17.57-.1Z"/><path class="cls-3" d="M223.75,81.93a1.71,1.71,0,0,1-.32,0c-1.12-.2-2.78.77-3.29-.3a8.56,8.56,0,0,1-.4-5.23c.17-.89.76-.87,1.4-.9,1.49,0,3-.09,4.47-.18,1.2-.08,1.88-.39,1.7-2-.55-4.88-.46-4.87,4.56-4.34,1,.11,1.53.43,1.59,1.53.07,1.58.33,3.16.44,4.74.2,2.9-1.07,4.81-3.91,5.85a14.8,14.8,0,0,1-3.07.82,23.92,23.92,0,0,1-3.17,0Z"/><path class="cls-3" d="M164.35,124c2.66,0,5.33.07,8,0,1.43,0,1.9.57,1.81,1.87,0,.42-.07.85-.06,1.28.09,3.28.08,3.1-3.1,3.31-4.36.28-8.71-.07-13.06.13a11.1,11.1,0,0,1-1.91-.15c-.72-.1-1.22-.48-1.06-1.28.32-1.65-.57-3.79.62-4.88.84-.77,2.84-.5,4.3-.36A31.81,31.81,0,0,0,164.35,124Z"/><path class="cls-3" d="M228.19,226.23a21.44,21.44,0,0,1-.21-6.56c.28-1.53,0-2.7-2-2.69-1.6,0-2.37-.71-1.95-2.41a5.49,5.49,0,0,0-.1-1.26c-.09-2.8-.09-2.79,2.59-2.94,1.48-.08,3-.2,4.45-.27s2.28.67,2.31,2.31c.07,3.92.07,7.84.47,11.76.2,1.89-.33,2.32-2.32,2.31-.95,0-1.9,0-2.85,0C228.5,226.43,228.41,226.34,228.19,226.23Z"/><path class="cls-3" d="M112.52,130c-5.81,0-11.21-.07-16.6,0-1.56,0-2.06-.33-2-1.92.11-5.32-1-4.63,4.7-4.69q5.91-.06,11.82.07c2.3,0,2.27.13,2.13,2.58C112.46,127.34,112.52,128.61,112.52,130Z"/><path class="cls-3" d="M155.83,193.57c-.86-7.26-.46-6.49,5.13-6.39,3.5,0,7,0,10.51-.12,1.5,0,2.56.2,2.27,2.06a2.77,2.77,0,0,0,.1.61c.3,3.58-.12,4.14-3.7,4.06C165.37,193.69,160.59,194.06,155.83,193.57Z"/><path class="cls-3" d="M50,272.15c.85,6.3.85,6.3-5.28,5.88H44.4c-4.85-.32-4.69-.33-5-5.21-.14-2.23-.28-4.45-.28-6.68,0-.53-.16-1.25.11-1.56,1.31-1.47,3.11,0,4.66-.67.91-.41,1.29.49,1.29,1.3,0,1.48-.09,3-.13,4.45,0,1.65.55,2.6,2.42,2.37A14.08,14.08,0,0,1,50,272.15Z"/><path class="cls-3" d="M102.73,194.2c-2.24,0-4.48,0-6.72,0-1.07,0-1.78-.38-1.44-1.48.48-1.56-1-3.39.3-4.58,1.12-1,2.88-.1,4.36-.35,3.91-.66,7.87.22,11.8-.24.37,0,1.11.26,1.12.42a23.85,23.85,0,0,1,0,5.07c-.22,1.32-1.67,1.11-2.68,1.15-2.23.08-4.46,0-6.7,0Z"/><path class="cls-3" d="M37.93,213.67c4.19-1.07,8.1-.3,11.55-1.44,1,.43.9,1.18,1,1.74.45,2.36.2,2.62-2.16,2.56-2.94-.08-3,0-3,2.92,0,1.91,0,3.83,0,5.74,0,1.27-.31,2-1.76,2-4.7.1-4,.77-4-3.93C39.64,220.07,40.16,216.85,37.93,213.67Z"/><path class="cls-3" d="M196.76,124.13c0,1.7.06,3.07,0,4.44-.11,2.13-.45,2.36-2.39,2.3-4.44-.16-8.89-.32-13.33-.33-1.28,0-1.71-.32-1.64-1.58.08-1.57-.82-3.54.16-4.61s3-.11,4.54-.24C188.24,123.73,192.37,124.22,196.76,124.13Z"/><path class="cls-3" d="M164.65,277.8c-2.24,0-4.06,0-5.87,0-3.05,0-3.05.05-3-3.13,0-.53.05-1.07,0-1.6,0-1.21.47-1.69,1.72-1.68,4.81,0,9.62.25,14.42-.13,1.28-.1,1.7.44,1.67,1.67-.15,5.43.94,4.69-4.65,4.9C167.41,277.9,165.81,277.4,164.65,277.8Z"/><path class="cls-3" d="M173.6,210.38v6.11a1.75,1.75,0,0,1-.71.28c-5.1,0-10.21,0-15.32,0-1.32,0-1.8-.4-1.85-1.84-.14-4.39-.22-4.47,4.07-4.56C164.25,210.3,168.71,210.38,173.6,210.38Z"/><path class="cls-3" d="M210.38,124.15c2.24,0,4.47,0,6.71,0,1,0,1.46.28,1.53,1.45.33,5.35.37,5.46-5,5.25a68.2,68.2,0,0,0-9.59,0c-1.36.14-2-.23-1.74-1.76a19.06,19.06,0,0,0-.26-3.16c0-1.26.41-1.94,1.9-1.84,2.12.15,4.27,0,6.4,0Z"/><path class="cls-3" d="M112,210.33c-.22,2.18,1,4.44-.3,5.83-1.15,1.22-3.42.48-5.19.54-3.39.11-6.79,0-10.18,0-1.3,0-1.84-.36-1.78-1.87.19-4.54.1-4.52,4.67-4.48C103.34,210.36,107.47,210.33,112,210.33Z"/><path class="cls-3" d="M224.12,271.49c3.54-.4,3.5-.4,3.65-3.87.06-1.38.32-2.75.48-4.1,1.08-.69,2.1.07,3.15-.07,2-.29,2.13-.14,2,2A25.25,25.25,0,0,0,234,273c.72,3,.19,3.42-2.79,4.28a19.58,19.58,0,0,1-5.38.37,1.54,1.54,0,0,1-1.68-1.84C224.17,274.45,224.12,273.07,224.12,271.49Z"/><path class="cls-3" d="M214,193.45c-3.38,0-6.76-.08-10.13,0-1.27,0-1.46-.51-1.43-1.47s.09-1.71.12-2.57c.08-2.35.56-3,2.72-2.78a77.25,77.25,0,0,0,10.43.05c2.22-.07,2.3.1,2.52,2.27C218.66,193.46,218.57,193.55,214,193.45Z"/><path class="cls-3" d="M71.77,188.06c.1.5.25,1,.31,1.52.54,4.35.14,4.8-4.15,4.83-3.07,0-6.14.07-9.22.08-1.47,0-2.25-.4-2.17-2.25.19-4.15.05-4.16,4.35-4.17C64.49,188.05,68.08,188.06,71.77,188.06Z"/><path class="cls-3" d="M56.76,278.06c.51-2.13-1.06-4.4.43-5.74,1.27-1.14,3.5-.25,5.3-.34,2.67-.14,5.35-.07,8-.14,1.33,0,2,.41,1.84,1.85-.11,1.28,0,2.57,0,4.21A145.88,145.88,0,0,1,56.76,278.06Z"/><path class="cls-3" d="M202.51,277.51c-.78-2,.1-3.92-.42-6.07,5.2,0,10.24-.49,15.56-.08.66,1.53.1,3.25.21,4.88s-1.53,1.55-2.39,1.4c-2.13-.35-4.22.32-6.34,0A22.6,22.6,0,0,0,202.51,277.51Z"/><path class="cls-3" d="M196,193.75c-5,0-9.74,0-14.53,0-1.41,0-2.18-.68-2-2.24.2-1.36.31-2.74.5-4.46H195.3c.87,0,1.11.57.95,1.29C195.91,189.93,196.17,191.54,196,193.75Z"/><path class="cls-3" d="M180,216.82a15.07,15.07,0,0,1,0-6.41c4.85,0,9.62,0,14.4,0,1.26,0,1.74.47,1.75,1.64,0,.1,0,.21,0,.31.28,4.35.21,4.45-4.13,4.48C188.16,216.84,184.24,216.82,180,216.82Z"/><path class="cls-3" d="M95.31,272c4.67-.61,9.31.17,13.92-.41,2.46-.3,2.7,0,2.63,2.54,0,.32,0,.64-.06,1-.18,3.1-.18,3-3.17,2.95-3.3-.08-6.6,0-9.89,0-3.5,0-3.51,0-3.62-3.63,0-.64,0-1.28,0-1.92A1.37,1.37,0,0,1,95.31,272Z"/><path class="cls-3" d="M188,271.25c1.92,0,3.85.11,5.75,0,1.62-.13,2.12.48,2,2-.4,4.81,1,4.5-4.41,4.54l-9,0c-2.22,0-2.22,0-2.43-2.28,0-.42-.1-.85-.11-1.27,0-2.73,0-2.77,2.71-2.81,1.81,0,3.62,0,5.44,0Z"/><path class="cls-3" d="M233.54,135.58a4.17,4.17,0,0,1-1.17.2c-1.16-.21-2.48.77-3.42-.05s-.39-2.19-.48-3.3-.58-1.41-1.59-1.43-2.64.13-3-1.1a9.59,9.59,0,0,1-.23-5.05.94.94,0,0,1,1.26-.67c2.64.7,5.28-.25,7.92,0,1.07.12,1.44.39,1.37,1.56C234,129.06,233.35,132.29,233.54,135.58Z"/><path class="cls-3" d="M206.64,210.35c3.5,0,6.58.05,9.66,0,1.25,0,1.74.43,1.7,1.64-.15,5.11,1.29,5-4.39,5.08-3.26.06-6.52-.53-9.8.08-.83.16-1.39-.4-1.34-1.35l0-1C202.67,209.54,201.42,210.51,206.64,210.35Z"/><path class="cls-3" d="M135.78,123.71c4.3,0,8.54,0,12.78,0a1.51,1.51,0,0,1,1.39.63c.29.48,0,5.24-.33,5.67a1.7,1.7,0,0,1-1.47.4c-3.74,0-7.48-.09-11.21-.11-1,0-1.35-.53-1.19-1.4C136,127.33,135.72,125.73,135.78,123.71Z"/><path class="cls-3" d="M64.43,216.49c-1.92,0-3.85-.07-5.77,0-1.35.06-1.84-.4-2-1.78-.38-3.1-.44-3,2.45-3.91a10.52,10.52,0,0,1,3.13-.44c2.77,0,5.54,0,8.31-.09,1.11,0,1.57.44,1.53,1.49-.06,1.39.26,3-.32,4.11-.78,1.5-2.52.21-3.81.45A17.2,17.2,0,0,1,64.43,216.49Z"/><path class="cls-3" d="M40.29,182.29l1.65-.15c3.57-.27,3.57-.27,3.65,3.35.07,2.85.07,2.85,3,2.7,1.88-.09,2,0,2,1.9a3.16,3.16,0,0,1,0,.32c-.11,3.88-.11,3.86-4,3.34-1.9-.25-3.81-.48-5.72-.61a1.45,1.45,0,0,1-1.47-2C40.68,188.3,39.88,185.28,40.29,182.29Z"/><path class="cls-3" d="M149.76,193.53c-3,.7-5.93.35-8.78.35-.75,0-1.5-.08-2.25,0-2.58.18-2.59.2-2.89-2.25a11.09,11.09,0,0,1-.06-1.91c.12-2.3.27-2.39,2.61-2.38,3.09,0,6.18,0,9.27-.1,1.64-.05,2.35.47,2.13,2.23A32.83,32.83,0,0,0,149.76,193.53Z"/><path class="cls-3" d="M200,76.41a103.77,103.77,0,0,1,13.18-.61c.17,2,.83,4.15-.07,5.74-1.13,2-3.52.62-5.33.9-2.51.39-5.08.37-7.67.53C199.48,80.67,200,78.58,200,76.41Z"/><path class="cls-3" d="M159.54,84.15,159.33,81a6,6,0,0,0,.15-.61c.42-2.57.42-2.53,3.07-2.65,1.54-.08,3.12.3,4.62-.33a40.15,40.15,0,0,0,6.3,0c.16,7.39,1.47,6.9-6.06,6.68C164.78,84,162.17,84.51,159.54,84.15Z"/><path class="cls-3" d="M180.09,83.36V79.61c0-2.29,0-2.41,2.18-2.45,3.19,0,6.35-.36,9.52-.63,2-.18,2.11.06,2.14,2.1,0,.32,0,.63,0,1-.14,3.44-.14,3.45-3.51,3.58S183.69,84.25,180.09,83.36Z"/><path class="cls-3" d="M124.58,130.16a8.9,8.9,0,0,1-3.14.15c-4-.18-4-.26-3.77-4.26.14-2.27.18-2.24,2.67-2.26,2.66,0,5.32-.24,8-.28,2.27,0,2.53.29,2.57,2.56,0,.11,0,.22,0,.32-.12,3.75-.56,4.15-4.38,4C125.9,130.33,125.27,130.23,124.58,130.16Z"/><path class="cls-3" d="M124.15,194.13h-4.6c-1.37,0-1.75-.63-1.7-2,.14-4.89.08-4.85,5-4.57a18.14,18.14,0,0,0,5.4-.14c1.39-.34,2.08.21,2.05,1.89-.11,6,.7,4.26-5,4.93A6,6,0,0,1,124.15,194.13Z"/><path class="cls-3" d="M142.82,277.89c-1.7,0-3.39-.05-5.09,0-1.14,0-1.49-.4-1.42-1.5.33-5.07-1.31-5,4.9-4.89,2.12,0,4.24-.16,6.35-.15,1.87,0,2.14.34,2.18,2.23.11,4,.11,4-4.07,4.2A9.09,9.09,0,0,1,142.82,277.89Z"/><path class="cls-3" d="M143.37,216.7h-4.91a4.56,4.56,0,0,1-.64,0c-3-.49-1.09-2.85-1.57-4.29-.36-1.09-.2-2.09,1.47-2,3.51.07,7,0,10.53,0,1.53,0,1.76.47,1.66,4,0,1,.42,2.56-1.57,2.42A22.49,22.49,0,0,0,143.37,216.7Z"/><path class="cls-3" d="M227.12,59.79a6.88,6.88,0,0,0,.25-3.4V49.67c1.13-1,2-.44,2.79-.41,3.34.08,3.33.1,3.36,3.48,0,.63.09,1.27.13,1.91a6,6,0,0,0-.12,3.19,4.55,4.55,0,0,0-.09.63c-.16,3.92-.16,3.92-4,3.85C227.35,62.27,227.35,62.27,227.12,59.79Z"/><path class="cls-3" d="M232.79,187.05c-.25,1.5.75,3.75-.37,4.74s-3.35.93-5.1,1.28c-.51.11-1.09,0-1.58.14-1.61.53-1.83-.41-1.84-1.62,0-.32.08-.64.09-1,0-1.15-.34-2.47.11-3.4s2-.35,3-.55c.74-.15,1.13-.47,1.11-1.25a3.57,3.57,0,0,1,.08-1.27c.29-.87-.63-2.19.58-2.57a9.12,9.12,0,0,1,3.46-.06c.84.09.86,1,.74,1.52A21.46,21.46,0,0,0,232.79,187.05Z"/><path class="cls-3" d="M130.41,216.26c-3.68.92-7.09.16-10.45.53-1.31.15-1.86-.44-2-1.79-.5-5.53-.53-4.59,4.48-4.7,1.8,0,3.59,0,5.39,0,2.58,0,2.58,0,2.57,2.69C130.4,214.05,130.41,215.11,130.41,216.26Z"/><path class="cls-3" d="M118.22,271.87c3.45-.69,6.86-.11,10.24-.34.4,0,1.09,0,1.2.21a10,10,0,0,1,.48,4.95c-.07,1.2-1.22,1.21-2.24,1.2-3.08-.05-6.16,0-9.42,0C118,275.87,118.42,273.87,118.22,271.87Z"/><path class="cls-3" d="M228.38,148.88c0-1.71.06-3.42,0-5.13-.06-1.19.49-1.52,1.52-1.45.75,0,1.49.12,2.24.14.91,0,1.4.47,1.4,1.37,0,3.75,0,7.49,0,11.24,0,.72-.31,1.22-1.13,1.23l-1,0c-3.27-.08-3.42.49-3.13-2.94.12-1.49,0-3,0-4.49Z"/><path class="cls-3" d="M154.18,83.55c-.49,1.14-1.72.63-2.5,1.11-2.43.22-4.81-.48-7.25-.22-1.66.18-2.07-.36-2-2,.15-3.92.15-3.87,4.16-4.15,2.12-.15,4.23.49,6.36,0,.71-.15,1.22.31,1,1.16A8.11,8.11,0,0,0,154.18,83.55Z"/><path class="cls-3" d="M78.53,275.47c-.27-3.67.44-4.51,3.18-3.66,1.88.59,3.52-.53,5.35,0,1.07.3,1.66.42,1.76,1.66.38,4.35.43,4.33-4,4.53-1.27.05-2.55.36-3.82.33-2.14,0-2.45-.43-2.49-2.57C78.52,275.44,78.53,275.11,78.53,275.47Z"/><path class="cls-3" d="M77.8,194.56c0-1.19,0-1.82,0-2.46.08-4.23.08-4.25,4.26-4.33,1.71,0,3.43,0,5.14,0,1.06,0,1.56.47,1.5,1.55,0,.43.08.86.08,1.28,0,3.35,0,3.21-3.42,3.68C82.9,194.66,80.49,193.92,77.8,194.56Z"/><path class="cls-3" d="M83.29,210.3a10.53,10.53,0,0,1,1.59,0c1.22.17,2.9-.77,3.57.51.79,1.5.22,3.34,0,5-.07.68-.62.78-1.17.78l-8.27-.11a.54.54,0,0,1-.31-.05c-1.72-1.34-.53-3.27-.94-4.89-.23-.9.44-1.3,1.34-1.29,1.39,0,2.77,0,4.15,0Z"/><path class="cls-3" d="M39.6,243.79c0-2.88.06-5.52,0-8.16,0-1.5.45-2.22,2-2.07.41,0,.84-.08,1.27-.08,2.38,0,2.45,0,2.5,2.49,0,2.11,0,4.23,0,6.35,0,1.11-.47,1.51-1.53,1.48C42.49,243.77,41.12,243.79,39.6,243.79Z"/><path class="cls-3" d="M228.16,168.8v-2.56c0-3.54.59-4,4.06-3.61,1.15.14,1.56.75,1.28,1.69-.86,2.81-.62,5.68-.63,8.52,0,1.44-.3,2.12-2,2-2.72-.17-2.73-.05-2.74-2.87V168.8Z"/><path class="cls-3" d="M228.2,233.25c5.29-.33,5.29-.33,5.28,4.85,0,.43,0,.85,0,1.28,0,3,0,3-2.93,3-2.32-.07-2.34-.07-2.37-2.52C228.18,237.7,228.2,235.59,228.2,233.25Z"/><path class="cls-3" d="M44.86,258.48H43.27c-4.46-.05-4.46-.05-4-4.61.11-1,.3-1.9.37-2.86s.51-1.43,1.61-1.46c4.92-.18,4.09-.45,4,3.92C45.24,255.07,45,256.66,44.86,258.48Z"/><path class="cls-3" d="M233.5,249.11c0,1.81-.12,3.39,0,5,.18,2.15,0,2.31-1.92,2.4-2.83.14-3.34-.15-3.53-2.21C227.46,247.76,228.35,248.39,233.5,249.11Z"/><path class="cls-3" d="M169.71,507.55c-6.7-.18-13.39-.43-20.09-.53-7.49-.1-15-.06-22.48-.09-9.19-.05-18.38,0-27.57-.19-7.8-.12-15.58-.42-23.37-.65a3.07,3.07,0,0,1-3.08-2.31,9.43,9.43,0,0,1-.09-5.66,3.35,3.35,0,0,0-.2-3.05c-2.94-4.34-3.93-9.44-5.18-14.38q-2.87-11.32-6.17-22.5c-2.66-9-5.08-18-7.43-27.11-.61-2.37-1.49-4.66-2.18-7-2.37-8-4.36-16-6.43-24.06-1-3.81-2.14-7.58-3.22-11.36,0-.09-.22-.14-.22-.22-.63-7.73-4.22-14.71-5.57-22.28a80.49,80.49,0,0,0-3-10.44c-1-3-1.51-6-2.24-9-1.34-5.49,1-8.62,6.41-10.29a14.34,14.34,0,0,1,4.37-.61c7.26,0,14.55.28,21.76-.3,11.33-.92,22.63-.37,33.94-.1q15.54.38,31.09.26c4.28,0,8.57.27,12.84.09,8.43-.35,16.85-.89,25.28-1.42a127.4,127.4,0,0,1,16.58,0,256.91,256.91,0,0,0,35.85-.45c3.94-.28,7.9-.29,11.85-.19a2.76,2.76,0,0,0,3.09-2c1.59-3.84,2.58-7.92,4.55-11.61a111.39,111.39,0,0,1,11.5-17.63,39.76,39.76,0,0,1,11.59-9.29,34.93,34.93,0,0,1,8.43-3,4.53,4.53,0,0,0,3.61-3.07c2.18-6.44,7.34-10.27,12.59-14l.3.28c.07.77.23,1.13,1.13.61,3.1-1.82,6.24-3.56,9.37-5.31,2.12-1.17,4.55-1.76,6.39-3.43a2.68,2.68,0,0,0,1.74-1.4,1.54,1.54,0,0,0-2,1h-2c2.69-2,4.94-4,7.81-4.86,2.45-.75,2.59-.58,3.54-2.2,1.6-2.74,3.11-5.53,4.67-8.29a6.34,6.34,0,0,0,.67-3.69c-.62-11-.66-22-.54-33a16.83,16.83,0,0,0-1.7-7c-2.26-5.16-2.83-10.6-3-16.17a43.78,43.78,0,0,1,2.46-15.62,46.33,46.33,0,0,1,6.42-12.46,42.46,42.46,0,0,1,9.76-9.67c2.25-1.6,4.87-2.68,6.76-4.78a1.68,1.68,0,0,1,.75-.52c6.18-1.52,12.18-3.8,18.58-4.41a20.19,20.19,0,0,0,5.79-1.69c1.82-.75,4.19-.27,6.31-.17a39.4,39.4,0,0,1,4.05.87c1.63.24,1.79.91,1.47,2.26-.09.4-1.21.83,0,1.39.93.45.74-.32,1.12-.63,1.14-.92,2.38.26,3.16.81,2,1.39,1.88,1.52,4.11,1.87a8.74,8.74,0,0,1,1.71.66,1,1,0,0,0,1.36-.46c.19-.28-.14-1,.52-.81a1.59,1.59,0,0,1,1.25.9c-.53.24-1.38-.37-1.63.47a.88.88,0,0,0,.85,1.08c1.51.06.79-.94.7-1.63,7.82,3.59,12.92,9.85,17.13,17.09,3.31,5.68,6.13,11.6,6.85,18.13.67,6.05,3,11.61,4,17.53.64,3.88,1.22,7.76,1.83,11.63.2,1.25.42,2.5.7,4.1.79-1.16.33-2.16.73-3.13a4.23,4.23,0,0,1,.32.92,61,61,0,0,0,1,8.32,17.92,17.92,0,0,1,.35,6.27,7.38,7.38,0,0,0,.71,4.63c1.26,2.34,1,5.2,2.06,7.7,1.27,3.16,2.74,6.23,4.29,9.26a22.21,22.21,0,0,1,1.18,2.27,7.88,7.88,0,0,0,4.78,5c1.18.42,1.81,1.47,2.74,2.16,4.91,3.63,10.5,5.7,16.27,7.31,4.49,1.26,8.8,3,13.18,4.54.94.33.44,2.2,2.17,1.41,1.3-.58,1.18,1.43,2,2,1.17.85,2,2.21,3.75,2.07a1.7,1.7,0,0,1,1.18.39c2.6,2.59,5.59,4.8,7.68,7.92A27.22,27.22,0,0,1,487.3,296c.33,2.15-.45,4.38.2,6.57.17.58,0,1.2.49,1.78,5.08,6.64,8.47,14.26,12.49,21.52,3.32,6,6.11,12.21,9.09,18.34,2.05,4.2,3.71,8.6,5.45,13q2.84,7.11,5.48,14.32c3,8.11,5.53,16.35,8,24.66,1.78,6.12,3.58,12.26,5.61,18.33,1.08,3.24,2,6.53,3,9.81a5.94,5.94,0,0,0,1.07,2.29,17.31,17.31,0,0,0,1.79,6.11c2.33,5.15,6.82,23.59,8.27,32.58,2.2,13.66,2.27,24-1.44,32.47s-17,19.23-56.85,19.23-75.72-7.24-80.23-7.49a6.74,6.74,0,0,1-.35-1.56,61.59,61.59,0,0,0-2.88-20.3,31.53,31.53,0,0,0-8.38-13.68,2.89,2.89,0,0,0-2.26-1,39,39,0,0,0-6.43.87,2.52,2.52,0,0,0,1.2,1.4c6.54,4.91,11,11.16,12.47,19.34a86,86,0,0,1,1.07,15c-4.58-.31-9.11.57-13.71.52-8.92-.11-17.84-.44-26.76-.54-15.37-.16-30.74-.45-46.11-.61-5.53-.06-11.06-.34-16.59,0a7.75,7.75,0,0,0-1.84-.46c-5.61,0-11.23,0-16.85,0-6.49-.1-13-.26-19.48-.29-7.57,0-15.13-.13-22.69-.15-5.51,0-11,0-16.55.06-4.36,0-8.71-.46-13.08-.34l-3.51.12c-7.7-.09-15.41-.2-23.12-.28C179.12,507.45,174.41,507.26,169.71,507.55ZM338.26,185.23c-1.42-1.74-1.53-4.22-3.25-5.8a11.49,11.49,0,0,0-2.43-6.81c-.1-.11,0-.4.05-.6s.21-.26.37,0a.77.77,0,0,1,.12.59c-.24.49-.34,1.44-1.1,1.09-1.48-.67-1.34.81-2,1.26l-.09.1a8.54,8.54,0,0,0-3.21,4.36,10.42,10.42,0,0,0-1.62,1.92c-1.9,2.9-2.52,6.29-3.85,9.38a13.24,13.24,0,0,0-.82,7.81c.17.95.23,1.88.31,2.83.28,3.18.2,6.38.63,9.57a44.63,44.63,0,0,1,.63,6.36,153.6,153.6,0,0,0,.34,15.63c.58,6.06.63,12.14,1.23,18.18a38.12,38.12,0,0,0,1.75,8.76,14.92,14.92,0,0,0,7.24,8.45A32.88,32.88,0,0,0,351,272.58c4.43-.23,8.85-.63,13.29-.67,1.27,0,2.09.39,2.31,1.65A2.47,2.47,0,0,1,365,276.4a5.83,5.83,0,0,1-3.16.15,22.73,22.73,0,0,0-5.71.08c-.94.1-1.2.55-1,1.51,1,6.74,2.08,13.48,2.94,20.25.53,4.11,1.56,8.21.9,12.41-.16,1,.46,1.26,1.21,1.52,1.68.59,3.4.16,5.1.25a61.87,61.87,0,0,0,11.22-.21c7-.9,12.91-4.19,18.84-7.61a19.34,19.34,0,0,0,6.46-6.51c1.06-1.61.17-2.15-.56-3.05.71-.71,1.72.76,2.4-.31-1.44-1-1.78-1.22-2-1s.28,1-.33,1.33a2.5,2.5,0,0,1-1.83-.34A21.27,21.27,0,0,1,390,283.83c-4-10.26-4.63-21.14-5.08-32-.12-3,.14-6.11,0-9.07a97.93,97.93,0,0,0-.55-9.82,3.23,3.23,0,0,1,1.21-3.44c3.27-2.09,4.27-5.6,5.29-8.9a17.62,17.62,0,0,0,.09-10.73c-.79-2.42-2.21-4.52-4.94-4.89s-5.38-.19-7.42,2c-.68.72-1.28,1.14-2.17.52s-1.87,0-2.8-.06c-1.3,0-2.82.51-3.42-1.36-.06-.19-.67-.43-.72-.38-1.57,1.84-2.93-.07-4.34-.29a17,17,0,0,1-5.78-1.49c-3.38-1.92-7.15-3-10.42-5.16-2.67-3.22-4.64-6.83-6.11-7.13C342.86,191.09,339.9,186.61,338.26,185.23Zm-58.6,94.51c1.23.68,1.35-.42,1.78-1-.84-.05-1.53.12-1.71,1.06-.29,0-.52.1-.5.43,0,0,.18.11.26.09C279.81,280.21,279.88,280,279.66,279.74Zm2.09,222.52v.16H293c3.12,0,6.24,0,9.36,0,.8,0,1.53-.15,1.63-1.06.21-1.75,1-3.5.51-5.25-.73-2.6-1.27-5.3-2.18-7.81-2.59-7.14-4.82-14.41-6.77-21.7-2.75-10.25-5.94-20.36-8.73-30.59-.55-2-1.14-4-1.75-6-1.08-3.57-2.36-7.1-3.23-10.73a104.4,104.4,0,0,0-2.9-10.45c-1.77-5-3.12-10.13-4.63-15.19-2.5-8.36-4.88-16.78-7.29-25.17-2.06-7.18-3.9-14.45-6.37-21.51a6.58,6.58,0,0,0-6.49-4.76c-2.5,0-5,0-7.51,0-21.77-.06-43.54-.19-65.3-.18-18.16,0-36.32.13-54.47.26-7.38,0-14.77.57-22.13.27-8.65-.35-17.28-.06-25.92-.16-6.1-.07-12.22-.15-18.31.06-3.13.11-6.24-.12-9.34-.08-2.57,0-5.15,0-7.71.08-5.24.15-6.2,1.24-5.52,5.46a22.5,22.5,0,0,0,.56,2.43C40.06,356,42.05,361.5,44.05,367c3.32,9.08,5.67,18.49,8.23,27.81,3.36,12.23,6.36,24.55,10.3,36.62a227.86,227.86,0,0,1,6.58,26.9c1.86,9.43,5,18.47,7.65,27.67,1.13,4,3.4,7.58,2.13,12-.29,1,.2,1.64,1.57,1.62q9.6-.1,19.21,0c16.15.23,32.3.54,48.45.75,14,.18,28,.43,42,.64,12.49.18,25,.26,37.46.47Q254.71,501.91,281.75,502.26Zm50.08-177.9c2.16,2.89,3,3.05,5.89,1.72,5.29-2.45,9.24-6.79,14.07-9.88a2.06,2.06,0,0,0,.75-1c.85-2.37,2-4.59,1.85-7.32-.53-8-2-15.84-2.67-23.8-.41-4.65-2.57-6.46-7.31-6.78a20.13,20.13,0,0,1-5.08-.47,20.57,20.57,0,0,0-8.23-.93c-2.46.22-4.6-.7-6.86-1.26-1-.26-1.29-1-1.29-1.93s.6-1.5,1.53-1.75c.57-.14,1.29.19,1.89-.75-3.19-3.06-4.88-7.14-6.61-11.28a59.1,59.1,0,0,0-1.95,7.46c-.6,3-1.18,6-3.79,8.16a18.32,18.32,0,0,0-2.51,3.29c-3.33,4.42-6.27,9.14-9.95,13.3-2.89,3.27-6.33,6.16-8.36,10.05-4.73,9.07-10.66,17.54-13.87,27.39-1.34,4.11-2.78,8.19-4.23,12.44,11.57,4.09,22.87,8.11,34.08,12.73a11.78,11.78,0,0,0,.7-1.53c1.28-4.62,2.68-9.21,3.76-13.88,1-4.13,3.3-7.21,6.15-10.21,4.06-4.27,8.81-7.75,12.89-12a37.84,37.84,0,0,1,9.14-7.5c.77-.4,1.53-1,2.35-.35s.53,1.8.31,2.71c-.17.74-.9,1.15-1.41,1.7C339.4,316.53,335.27,319.94,331.83,324.36ZM328,465.29a3.78,3.78,0,0,0-2.42.39,46.37,46.37,0,0,0-5.17,3.2c-3.82,2.52-7.59,5.12-11.33,7.75-1.76,1.24-2.77,2.69-1.79,5.13A33.63,33.63,0,0,1,309.8,490c.33,2.65,1.74,3.63,4.36,3.54a47.5,47.5,0,0,1,5.42.51c6,.48,11.92.9,17.88,1.41q15,1.29,30,2.67,11.63,1,23.24,2.18c1.55.15,2-.18,1.55-1.79-.66-2.47-1.62-4.86-2.23-7.34-1.49-6.06-5.64-10.43-9.45-15-1.19-1.43-3.12-2.18-4.34-3.72a2.55,2.55,0,0,0-2-1,43.32,43.32,0,0,1-9.13-1.37c-5.53-1.22-11.17-1.61-16.74-2.54A132.08,132.08,0,0,0,328,465.29Zm25.08-142.8c2.62.46,4.23,2.05,6.55,2.5a61.9,61.9,0,0,0,19.4.15,52,52,0,0,0,22.12-8.58c4.92-3.24,9.67-6.61,13.2-11.44a12.74,12.74,0,0,0,2.41-4.44c.22-.91.14-1.62-1.06-1.9-2.21-.52-2.64-.46-3.83,1.63a15.62,15.62,0,0,1-2.47,3.34,54.78,54.78,0,0,1-19.48,13c-2,.76-3.92,1.62-6,2.26-4.71,1.48-9.52,1.1-14.31,1.43a31.3,31.3,0,0,1-9.46-1.06C356,318.38,356,318.26,353.11,322.49ZM312.64,504c1.46.16,2.67.39,3.87.4,7.5.1,15,.14,22.49.22,3.65,0,7.29.22,10.93.26,3.31,0,6.65,0,10,0,1.42,0,2.84-.06,4.2-.13a1.06,1.06,0,0,0,.06-2.12c-3.4-.39-6.81-.75-10.23-1-6.14-.48-12.27-1.1-18.4-1.67-3.35-.31-6.69-.78-10.05-.93-3.66-.15-7.25-.74-10.88-1.16-1.26-.14-2.19.05-2,1.74C312.75,501,312.64,502.41,312.64,504Zm-6.23-138a2.19,2.19,0,0,0,2.4-1.75c.61-1.73-.05-2.8-2.18-3.51s-4.12-1.09-6.08-1.88c-6.39-2.56-12.89-4.88-19-8.16a78.59,78.59,0,0,0-7.29-3.16c-1.15-.48-2.39-.67-3.2.49s-.42,2.49.43,3.55a7.24,7.24,0,0,0,2.69,1.67c8.59,4.19,17.73,7.09,26.4,11.11A36.18,36.18,0,0,0,306.41,366Zm176.14-74.93c1.25,2.71.6,5.15.5,7.6-.06,1.33.7,2.28,2.76,2.36-1.49-1.84.52-3.95-1-5.29S485.84,292,482.55,291.09Zm-8.79-8.41a8.61,8.61,0,0,0-1.76-1.54Zm-167.82-19a9.27,9.27,0,0,0,1.75-.79c.32-.25,1-.43.65-1.14C307.3,261.75,306.58,262.15,305.94,263.67Zm66.32-57.35c.28-.12.61-.24.38-.63-.14-.24-.4-.59-.59-.57a.62.62,0,0,0-.54.86C371.6,206.32,371.94,206.34,372.26,206.32Zm18.25-56.15c.14-.13.63.08.5-.24a1.85,1.85,0,0,0-.86-.84c-.44-.23-.51.2-.51.49C389.64,150.13,390,150.3,390.51,150.17Zm-39.28-3.84a1.43,1.43,0,0,0,1.77-.19A1.5,1.5,0,0,0,351.23,146.33ZM282.63,278c.31-.07.61-.14.58-.52a.3.3,0,0,0-.47-.26.87.87,0,0,0-.41.39C282.3,277.65,282.52,277.83,282.63,278ZM386.36,148.75a6.56,6.56,0,0,0-.89-.35,2.7,2.7,0,0,0-.23.48,5.53,5.53,0,0,0,.84.35S386.25,148.94,386.36,148.75Zm79.8,123-.21-.36c-.07.06-.2.14-.19.19a2.81,2.81,0,0,0,.19.39ZM384.35,148.42l.23-.21a1.88,1.88,0,0,0-.41-.19c-.05,0-.14.12-.2.19Zm76.38,121.19c0,.07-.12.16-.1.21s.16.24.19.23c.26-.13.3-.29.12-.43S460.8,269.61,460.73,269.61Z"/><path class="cls-3" d="M296.24,267.27c1.62-.6,2.77-2.34,5.29-2-1.87,1.08-3.13,2.34-5,2.33A2.78,2.78,0,0,1,296.24,267.27Z"/><path class="cls-3" d="M288.06,272.05c.5-.94,1.62-.94,2.33-1.56l.35.39a4.12,4.12,0,0,1-2.3,1.62A1.82,1.82,0,0,0,288.06,272.05Z"/><path class="cls-3" d="M296.5,267.61c-.59,1.09-1.37,1.73-2.67,1.18l.06.07a4.72,4.72,0,0,1,2.35-1.59A2.78,2.78,0,0,0,296.5,267.61Z"/><path class="cls-3" d="M419,211.46a2.52,2.52,0,0,1,0-2.67A2.66,2.66,0,0,1,419,211.46Z"/><path class="cls-3" d="M291.93,270.12c-.08.75-.67.69-1.19.76l-.35-.39c.5-.27.89-1.07,1.6-.32Z"/><path class="cls-3" d="M293.83,268.79c-.26.84-.66,1.31-1.49.53l.09.06a2.05,2.05,0,0,1,1.46-.52Z"/><path class="cls-3" d="M286.53,273.11a.75.75,0,0,1,.94-.38l-.07-.07c.19.53-.13.68-.57.73Z"/><path class="cls-3" d="M287.47,272.73c-.15-.53.17-.65.59-.68a1.82,1.82,0,0,1,.38.45.8.8,0,0,1-1,.16Z"/><path class="cls-3" d="M292.34,269.32c.11.14.35.31.33.41-.1.34-.42.39-.74.39l.06.05c-.41-.58.18-.59.44-.79Z"/><path class="cls-3" d="M187.64,485.35c9.92,0,19.86-.34,29.78.07,20.58.87,41.17.44,61.76,1.1,1.8.05,3.59.35,5.4.22s2.78,2.32,2.29,5.24c-.23,1.4-.89,1.23-1.51,1.24-3.75,0-7.5.06-11.25.06q-19.42,0-38.85,0c-8.08,0-16.17.24-24.24-.23-6.18-.37-12.34.05-18.51-.13-13.77-.4-27.55-.2-41.32-.48-8.51-.18-17-.1-25.55-.76-8.87-.69-17.76-.45-26.64-.65-1.59,0-3.18-.28-4.77-.39-1-.06-1.71-.3-1.57-2.3.12-1.69.39-3.05,1.68-3,.22,0,.43,0,.64,0,12.83-.07,25.66-.47,38.5-.13,8.22.22,16.44,0,24.67,0q14.74,0,29.49,0Z"/><path class="cls-3" d="M155.83,436.63c-8.87-.22-17.49-6.91-17.39-18.05a17.85,17.85,0,1,1,35.7.57C173.76,428.93,166.62,436.71,155.83,436.63Zm.37-4.86a13,13,0,0,0,.78-26c-7.47-.51-13.23,4.41-13.88,12.3C142.58,424.41,148.07,432,156.2,431.77Z"/><path class="cls-3" d="M339.45,212.35c-.43,4.68-.94,9.35-1.25,14-.24,3.78,0,3.88,3.91,4a18.39,18.39,0,0,0,2.57,0c1.77-.2,2.23,1,2.48,2.29.29,1.56-1.06,1.63-2,1.94-3.62,1.16-8.25,0-10.27-2.39a7.29,7.29,0,0,1-1.47-5.41c.11-2.24.55-4.46.81-6.69.44-3.59.84-7.19,1.26-10.79.15-1.26.48-2.38,2.09-2.28s2,1.06,2,2.41v2.89Z"/><path class="cls-3" d="M344.23,249.49a11.54,11.54,0,0,1-3.75-.05,3.45,3.45,0,0,1-3.07-2c-1.1-2.29-.2-3.79,2.36-3.78a19,19,0,0,1,2.2.35c6.73.83,12.65-.6,17.18-6.07.87-1,1.83-2.24,3.43-1.85,1.14.27,1.84,2.54,1.55,4.24a3.14,3.14,0,0,1-1,1.6A22.05,22.05,0,0,1,345,249.57C344.74,249.56,344.53,249.52,344.23,249.49Z"/><path class="cls-3" d="M352.3,214.7a4.59,4.59,0,0,1-3.93-3.56,4,4,0,0,1,3.79-3.94,4.15,4.15,0,0,1,4,3.51C356.28,212.56,354.3,214.62,352.3,214.7Z"/><path class="cls-3" d="M331.87,211.45a3.62,3.62,0,0,1-3.83,3.42,3.73,3.73,0,0,1-3.3-3.71,3.57,3.57,0,0,1,7.13.29Z"/></g></g></svg>