<svg viewBox="0 0 282 246" xmlns="http://www.w3.org/2000/svg">
  <path
    d="M201.68,104.24 C201.42,103.08 201.75,101.75 201.13,100.53 C200.51,99.31 200,98 199.32,96.86 C198.657528,95.5851715 197.726055,94.4694512 196.59,93.59 C194.74,92.34 193.09,90.65 190.59,90.69 C189.66,89.8 188.59,90.69 187.59,90.48 C184.91,89.97 182.18,90.48 179.47,90.29 C176.31,90.07 173.15,90.48 169.98,90.29 C167.859683,90.1299332 165.730317,90.1299332 163.61,90.29 C161.84,90.46 160.11,90.29 158.36,90.29 C155.86,90.36 153.36,90.05 150.85,90.14 C147.49,90.27 144.14,89.94 140.78,90.21 C139.8937,90.3989186 138.975229,90.3749287 138.1,90.14 C136.26,89.25 134.34,89.83 132.57,89.88 C130.8,89.93 128.85,89.88 127,89.98 C122.87,90.24 118.71,90.07 114.57,90.06 C114.234551,90.0819127 113.897699,90.0549645 113.57,89.98 C111.854499,89.6037394 110.083203,89.5562334 108.35,89.84 C106.163305,90.1403851 103.950871,90.2074286 101.75,90.04 C98.3523677,89.6773385 94.9300822,89.603741 91.52,89.82 C88.36,89.89 85.18,89.72 82.02,89.82 C80.7254478,90.0284054 79.3983863,89.8690194 78.19,89.36 C77.8806345,89.2025499 77.5225074,89.1703185 77.19,89.27 C74.92,89.97 72.6,89.66 70.31,89.68 C67.4757337,89.8004367 64.6363667,89.6900726 61.82,89.35 C60.7240385,89.1664131 59.6012028,89.224432 58.53,89.52 C57.4683917,89.8499419 56.3287066,89.8289015 55.28,89.46 C54.4907493,89.1237154 53.6142908,89.0500929 52.78,89.25 C49.93,90.09 47.01,89.39 44.13,89.49 C42.72,89.49 41.2,89.23 39.72,89.29 C36.62,89.42 33.55,88.78 30.46,88.93 C29.72,88.93 29.13,88.38 28.37,88.55 C26.4890715,88.9947368 24.6856176,89.7194893 23.02,90.7 C20.6446884,92.0253314 18.3506084,93.4912719 16.15,95.09 C14.6798763,95.9969868 13.4541892,97.2501403 12.58,98.74 C11.4245698,101.342598 10.6176052,104.086277 10.18,106.9 C9.89522985,107.753414 9.70410646,108.635264 9.61,109.53 C9.74381775,111.213619 10.2750204,112.841497 11.16,114.28 C11.53,115.01 11.5,115.89 12.16,116.52 C13.69,117.91 14.75,119.75 16.42,121.03 C17.8149864,122.2683 19.4157607,123.253132 21.15,123.94 C22.76,124.44 24.15,125.29 25.72,125.94 C27.48,126.63 27.97,127.81 27.58,129.67 C27.42,130.43 27.29,131.2 27.09,131.96 C26.78,133.15 26.73,134.56 26.03,135.47 C24.57,137.4 24.03,139.66 23.03,141.77 C22.51,142.9 22.48,144.2 21.79,145.24 C20.2,147.6 20.08,150.55 18.62,152.96 C18.27,153.53 18.82,153.78 19.34,153.7 C19.6566446,153.635132 19.9501426,153.486657 20.19,153.27 C23.76,150.27 28,148.38 31.65,145.55 C34.79,143.1 38.47,141.35 41.17,138.31 C41.37,138.08 41.76,138.03 42,137.82 C43.4,136.66 45.2,136.11 46.51,134.82 C47.6270556,133.643533 48.8790472,132.603004 50.24,131.72 C51.0448568,131.262007 51.6851166,130.562269 52.07,129.72 C52.5792048,128.552496 53.6902572,127.760535 54.96,127.66 C56.18,127.5 57.37,127.23 58.59,127.07 C60.2,126.87 61.85,127.01 63.43,126.8 C66.52,126.4 69.61,127.08 72.69,126.5 C75.38,126 78.05,127.18 80.79,126.86 C83.96,126.49 87.14,127.06 90.33,127.02 C93.13,127.02 95.97,126.71 98.75,127.4 C99.0071409,127.454529 99.2728591,127.454529 99.53,127.4 C103.04,126.58 106.62,127.83 110.16,126.91 C112.71,126.25 115.38,126.97 118.01,126.75 C121.81,126.43 125.66,126.66 129.46,126.22 C130.81,126.06 132.13,126.76 133.28,126.47 C135.277129,125.887248 137.381979,125.774305 139.43,126.14 C139.75214,126.154883 140.073478,126.096769 140.37,125.97 C142.77,125.3 145.3,126.02 147.69,125.29 C149.26,125.98 150.87,125.61 152.48,125.58 C156.03,125.5 159.58,125.71 163.12,125.58 C165.01,125.5 166.82,126.02 168.72,125.93 C171.695397,125.681766 174.6887,125.748805 177.65,126.13 C178.790931,126.440277 180.004496,126.34121 181.08,125.85 C181.68378,125.596243 182.352417,125.540231 182.99,125.69 C184.28,125.97 185.62,126.69 186.84,125.48 C186.9,125.42 187.11,125.48 187.21,125.48 C188.27,126.08 189.1,125.39 189.94,124.97 C192.36,123.8 194.22,121.84 196.39,120.32 C196.683868,120.065218 196.91633,119.747293 197.07,119.39 C197.83,117.96 198.65,116.53 199.27,115.06 C200.813034,111.658836 201.63366,107.974532 201.68,104.24 L201.68,104.24 Z"
    fill="#FFFFFF"
  />
  <path
    d="M259.26,69.66 C259.392759,69.385194 259.392759,69.064806 259.26,68.79 C257.96,64.98 255.9,61.5 254.17,57.89 C253.077335,55.4060554 252.187757,52.8376497 251.51,50.21 C251.199995,49.0317509 251.68459,47.7879578 252.71,47.13 C254.81,45.48 257.36,45.13 259.83,44.89 C262.049224,44.74076 264.098451,43.6488093 265.46,41.89 C265.70854,41.5285901 265.993352,41.1935172 266.31,40.89 C269.68,37.89 270.91,33.83 270.81,29.57 C270.74,26.7 270.57,23.68 268.92,21.01 C267.63,18.94 266.8,16.59 265.25,14.66 C264.65,13.91 264.09,13.25 263,13.49 C262.474446,13.5857371 261.934347,13.4303661 261.54,13.07 C260.844312,12.5860985 260.058932,12.2461074 259.23,12.07 C257.152063,11.56057 255.039823,11.2029598 252.91,11 C251.91,10.87 251.11,10.29 250.08,10.38 C248.20153,10.4784106 246.31804,10.3508302 244.47,10 C244.030037,9.88384187 243.572965,9.84659897 243.12,9.89 C240.12,10.47 237.06,9.97 234.03,9.83 C231.51,9.71 228.98,9.6 226.48,9.56 C223.48,9.56 220.48,9.56 217.53,9.73 C213.252366,9.90517077 208.968091,9.82502845 204.7,9.49 C201.98,9.3 199.24,9.28 196.54,9.3 C193.13,9.3 189.71,9 186.3,9.35 C183.3,9.65 180.3,9.27 177.36,9.35 C175.87,9.4 174.36,9.91 172.92,9.63 C170.39,9.14 167.92,9.92 165.4,9.75 C163.7,9.63 161.92,9.18 160.19,9.7 C157.52,8.54 154.65,10.52 151.98,9.18 C151.81,9.09 151.49,9.29 151.24,9.34 C148.69,9.86 146.11,9.6 143.54,9.66 C142.152578,9.54026697 140.757422,9.54026697 139.37,9.66 C136.88,10.18 134.45,9.49 132.01,9.79 C131.32,9.87 130.66,9.21 129.92,9.46 C128.11,10.09 126.31,9.65 124.53,9.36 C123.575748,9.1702615 122.599885,9.11305573 121.63,9.19 C117.93,9.66 114.26,9.03 110.57,9.01 C107.15,9.01 103.72,8.6 100.3,8.36 C99.9103399,8.27917885 99.5064491,8.4037433 99.23,8.69 C98.55,9.48 97.51,9.52 96.67,9.96 C94.34,11.19 91.5,11.17 89.41,12.96 C89.1413667,13.1431948 88.8250969,13.2439841 88.5,13.25 C87.8556254,13.3419466 87.2422047,13.5852588 86.71,13.96 C84.35,15.31 83,17.56 81.62,19.73 C80.318034,21.9063677 79.3505616,24.2660565 78.75,26.73 C78.01,29.4 78.69,31.89 79.56,34.28 C80.2979041,35.8591574 81.2138457,37.3488207 82.29,38.72 C82.672851,39.4855744 83.313925,40.09123 84.1,40.43 C84.5363051,40.5800405 84.8957047,40.8963121 85.1,41.31 C85.781297,42.2776945 86.7506933,43.0056166 87.87,43.39 C90.3,44.49 93.15,44.47 95.41,46.12 C95.67,46.31 96.17,46.19 96.56,46.2 C99.75,46.26 102.85,47.2 106.06,47.08 C107.72,48.03 109.61,47.53 111.37,47.8 C112.50465,48.0366476 113.660942,48.1539526 114.82,48.15 C118.816975,47.9299931 122.823025,47.9299931 126.82,48.15 C127.402646,48.1900484 127.987354,48.1900484 128.57,48.15 C132.687909,47.7120718 136.830375,47.5483776 140.97,47.66 C141.979165,47.7845966 143.003386,47.6855887 143.97,47.37 C144.717783,47.1540996 145.5063,47.1198163 146.27,47.27 C147.68292,47.4598321 149.118252,47.3988982 150.51,47.09 C151.827439,46.8263578 153.166533,46.685753 154.51,46.67 C157.44,46.49 160.37,46.6 163.31,46.4 C168.31,46.07 173.31,46.02 178.31,45.98 C182.2,45.98 186.09,46.23 189.98,46.13 C192.51,46.06 194.98,46.2 197.55,46.29 C199.292552,46.4876891 201.047717,46.5512093 202.8,46.48 C204.28571,46.3367925 205.780535,46.3133836 207.27,46.41 C212.81,46.6 218.34,47.24 223.89,46.66 C224.32,46.66 224.62,46.87 224.97,47.01 C226.41,47.59 227.84,48.22 229.32,48.65 C230.8,49.08 232.2,49.33 233.04,50.81 C233.396583,51.2759469 233.841789,51.6667773 234.35,51.96 C236.35,53.46 238.35,55.01 240.45,56.43 C242.55,57.85 244.18,59.93 246.66,60.93 C248.66,61.73 250.18,63.34 251.85,64.67 C253.7,66.15 256.01,67.08 257.36,69.2 C257.82,69.78 258.59,69.74 259.26,69.66 Z"
    fill="#FFFFFF"
  />
  <path
    d="M259.47,231.29 C258.95,230.34 259.22,229.29 258.47,228.65 C257.865105,228.04778 257.42445,227.300732 257.19,226.48 C256.41,224.28 255.08,222.34 254.28,220.12 C253.82037,218.623314 252.983572,217.269974 251.85,216.19 C251.056502,215.660973 250.661409,214.704849 250.85,213.77 C251.017101,213.084394 250.99985,212.366785 250.8,211.69 C250.49,210.19 251.61,208.36 253.03,208.34 C255.1,208.34 256.93,207.41 258.92,207.14 C259.441013,207.106491 259.944262,206.937593 260.38,206.65 C262.23,205.3 264.38,204.34 265.71,202.33 C265.892903,202.061585 266.107819,201.816446 266.35,201.6 C267.920845,200.045686 269.02281,198.080861 269.53,195.93 C270.01,194.29 269.93,192.58 270.39,190.93 C270.738846,189.55213 270.626441,188.097896 270.07,186.79 C269.27,184.79 268.65,182.63 267.07,180.94 C266.02,179.8 265.3,178.35 264.24,177.23 C263.18,176.11 262.36,174.4 260.9,173.78 C258.83,172.89 256.74,171.42 254.25,172.6 C253.923847,172.697849 253.576153,172.697849 253.25,172.6 C249.9,172.36 246.53,172.96 243.18,172.51 C242.985246,172.496774 242.789617,172.513638 242.6,172.56 C240.03,173.09 237.44,172.56 234.85,172.63 C232.47,172.72 229.99,172.49 227.56,172.35 C224.56,172.17 221.49,172.43 218.46,172.35 C213.04,172.2 207.62,172.17 202.19,172.22 C200.96,172.22 199.74,172.28 198.51,172.22 C196.91,172.16 195.29,172.68 193.74,171.88 C193.61898,171.826512 193.48102,171.826512 193.36,171.88 C192.42,172.43 191.46,172.05 190.5,172.01 C188.96,171.95 187.43,171.38 185.88,172.01 C185.567477,172.090482 185.237155,172.065883 184.94,171.94 C183.18,171.34 181.33,171.58 179.55,171.51 C176.45,171.4 173.33,171.31 170.23,171.28 C168.01,171.28 165.71,171.62 163.49,170.89 C163.044942,170.791232 162.580192,170.833164 162.16,171.01 C161.294559,171.319191 160.361552,171.388302 159.46,171.21 C157.799791,171.002519 156.120209,171.002519 154.46,171.21 C153.032629,171.283569 151.601708,171.246793 150.18,171.1 C149.665264,171.045259 149.147428,171.025214 148.63,171.04 C142.56,171.56 136.46,171.73 130.45,172.83 C129.05,173.09 127.82,173.93 126.45,174.15 C126.258043,174.205284 126.096072,174.334861 126,174.51 C125,176.16 123.55,177.51 122.58,179.22 C120.58,182.78 118.58,186.28 118.43,190.54 C118.35,193.92 118.5,197.17 121.04,199.79 C121.276428,200.103935 121.483942,200.438635 121.66,200.79 C122.414847,202.165097 123.47126,203.351424 124.75,204.26 C126.93,205.49 129.01,207.06 131.56,207.51 C133.49,207.86 135.24,209.29 137.38,208.51 C137.81,208.35 138.24,208.69 138.66,208.88 C140.52,209.69 142.46,210.43 144.5,210.02 C148.09,209.31 151.78,210.02 155.35,209.19 C155.928869,209.112104 156.51656,209.128991 157.09,209.24 C158.754863,209.415906 160.435493,209.375571 162.09,209.12 C162.600944,209.049964 163.119056,209.049964 163.63,209.12 C164.99,209.23 166.36,209.31 167.71,209.29 C170.76,209.29 173.79,208.82 176.85,208.97 C178.579141,209.168975 180.319889,209.249163 182.06,209.21 C185.533342,208.994974 189.016658,208.994974 192.49,209.21 C193.658633,209.28999 194.831367,209.28999 196,209.21 C198.582871,208.973219 201.176665,208.87641 203.77,208.92 C205.77,208.92 207.68,209.15 209.6,209.1 C212.6,209.03 215.53,209.1 218.5,208.97 C219.91,208.9 221.34,208.97 222.76,208.97 C224.18,208.97 225.84,208.71 227.14,209.6 C229.264869,210.859674 231.23783,212.359527 233.02,214.07 C233.965422,215.120729 235.076855,216.009199 236.31,216.7 C237.79,217.54 238.92,218.99 240.31,219.7 C242.181398,220.699516 243.947029,221.885538 245.58,223.24 C247.71,224.78 250.17,225.6 252.31,227.09 C253.93,228.22 255.77,229.09 257.15,230.54 C257.731698,231.189774 258.618019,231.4763 259.47,231.29 Z"
    fill="#FFFFFF"
  />
  <path
    d="M211.47,102.7 C211.644874,106.101063 211.307778,109.5091 210.47,112.81 C209.750449,115.783068 208.493087,118.599425 206.76,121.12 C205.91,122.44 205.35,123.88 204.5,125.19 C202.81,127.79 200.22,129.49 198.21,131.76 C197.852654,132.143851 197.384051,132.406129 196.87,132.51 C196.12083,132.706507 195.433085,133.088206 194.87,133.62 C194.603672,133.9149 194.255536,134.123781 193.87,134.22 C192.12,134.38 190.55,135.22 188.81,135.45 C187.598412,135.657399 186.367338,135.727842 185.14,135.66 C183.04,135.4 181.03,135.95 178.97,135.97 C176.91,135.99 174.85,135.51 172.77,135.91 C170.726738,136.349866 168.613262,136.349866 166.57,135.91 C166.507043,135.900238 166.442957,135.900238 166.38,135.91 C163.81,136.36 161.25,135.52 158.68,135.91 C157.19,136.12 155.68,135.64 154.21,135.73 C149.71,136.03 145.21,136.08 140.7,135.94 C137.81,135.85 135.05,136.28 132.22,136.46 C129.76,136.61 127.29,136.7 124.82,136.61 C122.7,136.53 120.57,136.61 118.45,136.54 C116.77,136.54 115.01,136.64 113.28,136.68 C109.47,136.77 105.67,136.83 101.87,136.83 C99.05,136.83 96.19,136.22 93.37,136.93 C92.6572426,136.951469 91.9446938,136.880887 91.25,136.72 C86.58,136.55 81.91,136.5 77.25,136.2 C73.88,135.99 70.52,136.26 67.15,135.99 C65.04,135.82 62.9,136.33 60.76,136.18 C60.2,136.18 60,136.57 59.68,136.89 C58.8733456,137.917307 57.7912982,138.694161 56.56,139.13 C56.2509347,139.231699 55.9861687,139.436452 55.81,139.71 C55.018947,140.636392 54.0669814,141.412193 53,142 C48.73,144.94 44.55,148 40.54,151.28 C40.33,151.44 40.18,151.69 39.96,151.8 C37.28,153.03 35.11,155.06 32.6,156.53 C30.96,157.53 29.49,158.66 27.94,159.72 C24.68,161.98 21.09,163.72 17.79,165.87 C17.0972686,166.350907 16.3796007,166.794859 15.64,167.2 C12.64,168.76 12.64,168.75 9.17,168.2 C7.05,167.88 6.11,166.32 5.79,164.2 C5.25,160.56 7.28,157.77 8.45,154.72 C9.40438257,152.092864 10.6240168,149.569829 12.09,147.19 C12.2766015,146.845013 12.3986045,146.468837 12.45,146.08 C12.89,143.47 14.24,141.24 15.45,138.97 C16.0314057,137.881015 16.5489472,136.759118 17,135.61 C17.33,134.8 17.08,134.44 16.34,134.13 C15.23,133.66 14.42,132.61 13.02,132.66 C12.39,132.66 11.94,131.93 11.62,131.39 C10.6696791,129.918922 9.32529768,128.74432 7.74,128 C6.86080729,127.548059 6.15712898,126.816233 5.74,125.92 C5.23878246,124.86184 4.63239678,123.856781 3.93,122.92 C1.46,119.46 0.86,115.38 0.11,111.4 C-0.0812650515,109.620908 0.106175456,107.821479 0.66,106.12 C1.14,104.12 1.6,102.12 1.96,100.18 C2.20394994,98.9030509 2.66027582,97.6760413 3.31,96.55 C4.74350938,94.018078 6.41793159,91.6303519 8.31,89.42 C8.92392215,88.7450265 9.65164929,88.1831534 10.46,87.76 C11.1879773,87.3352046 11.8923478,86.871188 12.57,86.37 C15.682108,83.9566786 19.2503778,82.1980556 23.06,81.2 C24.58,80.86 26.06,80.54 27.64,80.27 C28.3491249,80.2024908 29.0437911,80.0271381 29.7,79.75 C30.1091869,79.5386113 30.57674,79.4683026 31.03,79.55 C33.0144459,79.8593567 35.0392412,79.7949159 37,79.36 C38.6543598,79.0993965 40.3365432,79.0657529 42,79.26 C43.81,79.43 45.59,79.72 47.37,79.08 C47.6017001,78.9632578 47.8617869,78.9144081 48.12,78.94 C50.93,79.67 53.79,78.67 56.62,79.29 C57.580297,79.3276174 58.5419282,79.267306 59.49,79.11 C61.22,79.11 62.95,79.19 64.68,79.23 C65.128886,79.2747797 65.581114,79.2747797 66.03,79.23 C68.15,78.79 70.3,79.23 72.42,78.93 C73.42,78.8 74.26,79.53 75.28,79.38 C79.19,78.82 83.12,79.38 87.03,79.27 C89.8,79.17 92.56,79.27 95.33,79.42 C97.22,79.53 99.15,78.97 101.11,79.06 C104.11,79.2 107.11,79.22 110.11,79.3 C110.176592,79.3044494 110.243408,79.3044494 110.31,79.3 C112.77,78.57 115.31,79.17 117.79,78.98 C118.192909,78.943937 118.598503,78.950641 119,79 C121.688327,79.2614708 124.392037,79.3283115 127.09,79.2 C129.09,79.2 131.21,79.2 133.25,79.2 C135.75,79.2 138.25,78.59 140.77,79.5 C141.012844,79.5845907 141.277156,79.5845907 141.52,79.5 C143.69,78.63 145.86,79.14 148.04,79.5 C148.16,79.5 148.31,79.6 148.42,79.57 C150.53,78.93 152.65,79.57 154.76,79.57 C157.26,79.57 159.76,79.4 162.24,79.29 C164.53,79.18 166.84,80.19 169.12,79.22 C169.561544,79.1069259 170.027715,79.1384714 170.45,79.31 C171.383982,79.6046265 172.386018,79.6046265 173.32,79.31 C175.1,78.69 176.8,79.31 178.52,79.18 C180.307597,78.9144081 182.1319,79.0511881 183.86,79.58 C184.817788,79.7413333 185.799875,79.679739 186.73,79.4 C188.6,79.09 190.35,79.04 191.68,80.71 C192.111716,81.1109453 192.65637,81.369307 193.24,81.45 C194.248287,81.6877438 195.225028,82.0435328 196.15,82.51 C196.41655,82.6995329 196.74761,82.775101 197.07,82.72 C198.34,82.21 199.07,83.13 200.07,83.6 C202.61,84.82 204.27,87.01 206.21,88.9 C208.090302,90.9332544 209.461201,93.3837364 210.21,96.05 C210.7591,97.4986214 211.157862,98.9998419 211.4,100.53 C211.563147,101.242039 211.586917,101.978927 211.47,102.7 Z M201.68,104.24 C201.42,103.08 201.75,101.75 201.13,100.53 C200.51,99.31 200,98 199.32,96.86 C198.657528,95.5851715 197.726055,94.4694512 196.59,93.59 C194.74,92.34 193.09,90.65 190.59,90.69 C189.66,89.8 188.59,90.69 187.59,90.48 C184.91,89.97 182.18,90.48 179.47,90.29 C176.31,90.07 173.15,90.48 169.98,90.29 C167.859683,90.1299332 165.730317,90.1299332 163.61,90.29 C161.84,90.46 160.11,90.29 158.36,90.29 C155.86,90.36 153.36,90.05 150.85,90.14 C147.49,90.27 144.14,89.94 140.78,90.21 C139.8937,90.3989186 138.975229,90.3749287 138.1,90.14 C136.26,89.25 134.34,89.83 132.57,89.88 C130.8,89.93 128.85,89.88 127,89.98 C122.87,90.24 118.71,90.07 114.57,90.06 C114.234551,90.0819127 113.897699,90.0549645 113.57,89.98 C111.854499,89.6037394 110.083203,89.5562334 108.35,89.84 C106.163305,90.1403851 103.950871,90.2074286 101.75,90.04 C98.3523677,89.6773385 94.9300822,89.603741 91.52,89.82 C88.36,89.89 85.18,89.72 82.02,89.82 C80.7254478,90.0284054 79.3983863,89.8690194 78.19,89.36 C77.8806345,89.2025499 77.5225074,89.1703185 77.19,89.27 C74.92,89.97 72.6,89.66 70.31,89.68 C67.4757337,89.8004367 64.6363667,89.6900726 61.82,89.35 C60.7240385,89.1664131 59.6012028,89.224432 58.53,89.52 C57.4683917,89.8499419 56.3287066,89.8289015 55.28,89.46 C54.4907493,89.1237154 53.6142908,89.0500929 52.78,89.25 C49.93,90.09 47.01,89.39 44.13,89.49 C42.72,89.49 41.2,89.23 39.72,89.29 C36.62,89.42 33.55,88.78 30.46,88.93 C29.72,88.93 29.13,88.38 28.37,88.55 C26.4890715,88.9947368 24.6856176,89.7194893 23.02,90.7 C20.6446884,92.0253314 18.3506084,93.4912719 16.15,95.09 C14.6798763,95.9969868 13.4541892,97.2501403 12.58,98.74 C11.4245698,101.342598 10.6176052,104.086277 10.18,106.9 C9.89522985,107.753414 9.70410646,108.635264 9.61,109.53 C9.74381775,111.213619 10.2750204,112.841497 11.16,114.28 C11.53,115.01 11.5,115.89 12.16,116.52 C13.69,117.91 14.75,119.75 16.42,121.03 C17.8149864,122.2683 19.4157607,123.253132 21.15,123.94 C22.76,124.44 24.15,125.29 25.72,125.94 C27.48,126.63 27.97,127.81 27.58,129.67 C27.42,130.43 27.29,131.2 27.09,131.96 C26.78,133.15 26.73,134.56 26.03,135.47 C24.57,137.4 24.03,139.66 23.03,141.77 C22.51,142.9 22.48,144.2 21.79,145.24 C20.2,147.6 20.08,150.55 18.62,152.96 C18.27,153.53 18.82,153.78 19.34,153.7 C19.6566446,153.635132 19.9501426,153.486657 20.19,153.27 C23.76,150.27 28,148.38 31.65,145.55 C34.79,143.1 38.47,141.35 41.17,138.31 C41.37,138.08 41.76,138.03 42,137.82 C43.4,136.66 45.2,136.11 46.51,134.82 C47.6270556,133.643533 48.8790472,132.603004 50.24,131.72 C51.0448568,131.262007 51.6851166,130.562269 52.07,129.72 C52.5792048,128.552496 53.6902572,127.760535 54.96,127.66 C56.18,127.5 57.37,127.23 58.59,127.07 C60.2,126.87 61.85,127.01 63.43,126.8 C66.52,126.4 69.61,127.08 72.69,126.5 C75.38,126 78.05,127.18 80.79,126.86 C83.96,126.49 87.14,127.06 90.33,127.02 C93.13,127.02 95.97,126.71 98.75,127.4 C99.0071409,127.454529 99.2728591,127.454529 99.53,127.4 C103.04,126.58 106.62,127.83 110.16,126.91 C112.71,126.25 115.38,126.97 118.01,126.75 C121.81,126.43 125.66,126.66 129.46,126.22 C130.81,126.06 132.13,126.76 133.28,126.47 C135.277129,125.887248 137.381979,125.774305 139.43,126.14 C139.75214,126.154883 140.073478,126.096769 140.37,125.97 C142.77,125.3 145.3,126.02 147.69,125.29 C149.26,125.98 150.87,125.61 152.48,125.58 C156.03,125.5 159.58,125.71 163.12,125.58 C165.01,125.5 166.82,126.02 168.72,125.93 C171.695397,125.681766 174.6887,125.748805 177.65,126.13 C178.790931,126.440277 180.004496,126.34121 181.08,125.85 C181.68378,125.596243 182.352417,125.540231 182.99,125.69 C184.28,125.97 185.62,126.69 186.84,125.48 C186.9,125.42 187.11,125.48 187.21,125.48 C188.27,126.08 189.1,125.39 189.94,124.97 C192.36,123.8 194.22,121.84 196.39,120.32 C196.683868,120.065218 196.91633,119.747293 197.07,119.39 C197.83,117.96 198.65,116.53 199.27,115.06 C200.813034,111.658836 201.63366,107.974532 201.68,104.24 L201.68,104.24 Z"
    fill="#000000"
  />
  <path
    d="M101.08,0.27 C103.801639,-0.0647732467 106.552347,-0.091609423 109.28,0.19 C113.28,0.47 117.17,0.04 121.11,0.13 C123.245322,0.119322305 125.378296,0.273110363 127.49,0.59 C129.092677,0.750135434 130.707323,0.750135434 132.31,0.59 C133.481876,0.574872253 134.653687,0.624949625 135.82,0.74 C137.679456,0.90999523 139.550544,0.90999523 141.41,0.74 C141.789357,0.645367788 142.179021,0.598339353 142.57,0.6 C145.85,1.15 149.17,0.68 152.45,0.7 C156.45,0.7 160.45,1.15 164.5,0.87 C166.42,0.74 168.35,1.22 170.26,0.63 C171.07,0.38 171.88,0.92 172.76,0.83 C175.411291,0.471437 178.08464,0.301011034 180.76,0.32 C182.562778,0.225106377 184.36977,0.245146955 186.17,0.38 C187.638626,0.469871991 189.111374,0.469871991 190.58,0.38 C192.83,0.46 195.07,0.18 197.31,0.09 C200.5,-0.03 203.64,0.4 206.82,0.33 C209.01,0.33 211.22,0.7 213.43,0.61 C215.18,0.54 216.93,0.68 218.67,0.61 C221.385055,0.402017436 224.110664,0.368615362 226.83,0.51 C229.11,0.7 231.32,0.45 233.56,0.51 C235.551028,0.74307674 237.555918,0.836638275 239.56,0.79 C242.98,0.46 246.38,0.95 249.8,0.79 C251.681199,0.723609838 253.562504,0.91880781 255.39,1.37 C258.18,2.02 261.09,1.8 263.83,2.53 C266.57,3.26 269.42,3.88 271.53,6.31 C272.849606,7.70087957 274.037982,9.21061992 275.08,10.82 C275.545104,11.6540597 276.154556,12.3989459 276.88,13.02 C277.44719,13.5549246 277.831975,14.2545348 277.98,15.02 C278.52,17.36 279.98,19.33 280.52,21.68 C280.715172,22.2774169 280.816378,22.901521 280.82,23.53 C280.7,25.03 281.28,26.45 281.39,27.93 C281.504625,30.0228038 281.316006,32.1211854 280.83,34.16 C280.522965,36.2839474 279.791794,38.3244247 278.68,40.16 C278.521006,40.5183498 278.445768,40.9082206 278.46,41.3 C278.444677,41.7570461 278.317642,42.2033832 278.09,42.6 C276.41,45.01 274.95,47.6 272.96,49.76 C271.447128,51.5320687 269.448073,52.821894 267.21,53.47 C265.92,53.78 264.89,54.8 263.5,55.03 C262.8,55.15 263.08,56.03 263.28,56.36 C264.53,58.72 264.92,61.36 266.37,63.7 C267.758535,66.0956175 268.949157,68.6006059 269.93,71.19 C271.164541,73.6766662 271.811179,76.4137574 271.82,79.19 C271.82,80.19 272.3,81.31 272.21,82.45 C272.02,84.67 270.88,85.71 268.63,85.51 C265.63,85.25 263.16,83.89 260.63,82.39 C257.92,80.78 255.79,78.28 252.63,77.32 C252.152368,77.0970019 251.741924,76.752091 251.44,76.32 C249.914209,74.9258312 248.282656,73.6520167 246.56,72.51 C244.13,70.69 241.24,69.51 239.18,67.2 C238.680921,66.6892086 238.08632,66.2814822 237.43,66 C235.519152,65.1619177 233.843397,63.8673288 232.55,62.23 C232.06,61.55 231.31,61.32 230.75,60.79 C229.58,59.66 228.06,59 226.97,57.74 C226.15107,56.9345124 224.927563,56.7016514 223.87,57.15 C222.26,57.62 220.68,57.27 219.1,57.35 C216.44,57.49 213.76,56.13 211.1,57.49 C210.467145,57.6982128 209.774448,57.6139164 209.21,57.26 C207.748408,56.6801111 206.1278,56.641103 204.64,57.15 C203.569251,57.4397166 202.440749,57.4397166 201.37,57.15 C200.44,56.88 199.57,57.27 198.67,57.15 C195.679584,56.856332 192.672888,56.7627903 189.67,56.87 C187.77,56.95 185.79,56.98 183.85,56.87 C182.359306,56.8304664 180.867844,56.9107244 179.39,57.11 C177.861085,57.4133942 176.282416,57.3551787 174.78,56.94 C174.280793,56.7885957 173.752208,56.7611367 173.24,56.86 C168.97,57.68 164.66,57.41 160.35,57.47 C157.825621,57.4251929 155.300873,57.5354002 152.79,57.8 C149.33,58.28 145.79,58.05 142.35,58.61 C140.88,58.85 139.42,58.17 137.91,58.17 C136.91,58.17 135.99,58.17 135.01,58.17 C133.47179,58.4115327 131.902234,58.3674631 130.38,58.04 C129.32,57.73 128.25,58.26 127.11,58.15 C124.82,57.94 122.49,58 120.19,57.89 C117.89,57.78 115.39,58.24 113.03,57.77 C109.67,57.08 106.23,57.08 102.86,56.48 C102.60136,56.4451141 102.340933,56.4250812 102.08,56.42 C101.3,56.35 100.6,56.9 99.78,56.68 C95.78,55.61 91.54,55.48 87.66,53.94 C86.41,53.45 85.14,52.94 83.9,52.41 C80.45,50.91 77.71,48.41 74.9,46.07 C74.1585326,45.5084332 73.5364164,44.8047279 73.07,44 C71.75,41.27 69.99,38.74 69.15,35.8 C68.77,34.5 68.98,33.04 68.65,31.73 C67.91,28.85 68.55,26.09 69.18,23.34 C69.5046434,22.2224292 69.9331791,21.1376982 70.46,20.1 C71.4514982,17.6278362 72.6665369,15.2513142 74.09,13 C74.6232161,12.1181095 75.3605933,11.3773026 76.24,10.84 C77.24,10.29 77.81,9.2 78.66,8.41 C80.45,6.75 82.72,5.93 84.66,4.49 C85.3189634,4.06064629 86.062347,3.77761493 86.84,3.66 C88.9456242,3.24149911 90.9559484,2.43804744 92.77,1.29 C92.9030858,1.1595007 93.0636713,1.060416 93.24,1 C95.7,1 98,-0.13 101.08,0.27 Z M259.26,69.66 C259.392759,69.385194 259.392759,69.064806 259.26,68.79 C257.96,64.98 255.9,61.5 254.17,57.89 C253.077335,55.4060554 252.187757,52.8376497 251.51,50.21 C251.199995,49.0317509 251.68459,47.7879578 252.71,47.13 C254.81,45.48 257.36,45.13 259.83,44.89 C262.049224,44.74076 264.098451,43.6488093 265.46,41.89 C265.70854,41.5285901 265.993352,41.1935172 266.31,40.89 C269.68,37.89 270.91,33.83 270.81,29.57 C270.74,26.7 270.57,23.68 268.92,21.01 C267.63,18.94 266.8,16.59 265.25,14.66 C264.65,13.91 264.09,13.25 263,13.49 C262.474446,13.5857371 261.934347,13.4303661 261.54,13.07 C260.844312,12.5860985 260.058932,12.2461074 259.23,12.07 C257.152063,11.56057 255.039823,11.2029598 252.91,11 C251.91,10.87 251.11,10.29 250.08,10.38 C248.20153,10.4784106 246.31804,10.3508302 244.47,10 C244.030037,9.88384187 243.572965,9.84659897 243.12,9.89 C240.12,10.47 237.06,9.97 234.03,9.83 C231.51,9.71 228.98,9.6 226.48,9.56 C223.48,9.56 220.48,9.56 217.53,9.73 C213.252366,9.90517077 208.968091,9.82502845 204.7,9.49 C201.98,9.3 199.24,9.28 196.54,9.3 C193.13,9.3 189.71,9 186.3,9.35 C183.3,9.65 180.3,9.27 177.36,9.35 C175.87,9.4 174.36,9.91 172.92,9.63 C170.39,9.14 167.92,9.92 165.4,9.75 C163.7,9.63 161.92,9.18 160.19,9.7 C157.52,8.54 154.65,10.52 151.98,9.18 C151.81,9.09 151.49,9.29 151.24,9.34 C148.69,9.86 146.11,9.6 143.54,9.66 C142.152578,9.54026697 140.757422,9.54026697 139.37,9.66 C136.88,10.18 134.45,9.49 132.01,9.79 C131.32,9.87 130.66,9.21 129.92,9.46 C128.11,10.09 126.31,9.65 124.53,9.36 C123.575748,9.1702615 122.599885,9.11305573 121.63,9.19 C117.93,9.66 114.26,9.03 110.57,9.01 C107.15,9.01 103.72,8.6 100.3,8.36 C99.9103399,8.27917885 99.5064491,8.4037433 99.23,8.69 C98.55,9.48 97.51,9.52 96.67,9.96 C94.34,11.19 91.5,11.17 89.41,12.96 C89.1413667,13.1431948 88.8250969,13.2439841 88.5,13.25 C87.8556254,13.3419466 87.2422047,13.5852588 86.71,13.96 C84.35,15.31 83,17.56 81.62,19.73 C80.318034,21.9063677 79.3505616,24.2660565 78.75,26.73 C78.01,29.4 78.69,31.89 79.56,34.28 C80.2979041,35.8591574 81.2138457,37.3488207 82.29,38.72 C82.672851,39.4855744 83.313925,40.09123 84.1,40.43 C84.5363051,40.5800405 84.8957047,40.8963121 85.1,41.31 C85.781297,42.2776945 86.7506933,43.0056166 87.87,43.39 C90.3,44.49 93.15,44.47 95.41,46.12 C95.67,46.31 96.17,46.19 96.56,46.2 C99.75,46.26 102.85,47.2 106.06,47.08 C107.72,48.03 109.61,47.53 111.37,47.8 C112.50465,48.0366476 113.660942,48.1539526 114.82,48.15 C118.816975,47.9299931 122.823025,47.9299931 126.82,48.15 C127.402646,48.1900484 127.987354,48.1900484 128.57,48.15 C132.687909,47.7120718 136.830375,47.5483776 140.97,47.66 C141.979165,47.7845966 143.003386,47.6855887 143.97,47.37 C144.717783,47.1540996 145.5063,47.1198163 146.27,47.27 C147.68292,47.4598321 149.118252,47.3988982 150.51,47.09 C151.827439,46.8263578 153.166533,46.685753 154.51,46.67 C157.44,46.49 160.37,46.6 163.31,46.4 C168.31,46.07 173.31,46.02 178.31,45.98 C182.2,45.98 186.09,46.23 189.98,46.13 C192.51,46.06 194.98,46.2 197.55,46.29 C199.292552,46.4876891 201.047717,46.5512093 202.8,46.48 C204.28571,46.3367925 205.780535,46.3133836 207.27,46.41 C212.81,46.6 218.34,47.24 223.89,46.66 C224.32,46.66 224.62,46.87 224.97,47.01 C226.41,47.59 227.84,48.22 229.32,48.65 C230.8,49.08 232.2,49.33 233.04,50.81 C233.396583,51.2759469 233.841789,51.6667773 234.35,51.96 C236.35,53.46 238.35,55.01 240.45,56.43 C242.55,57.85 244.18,59.93 246.66,60.93 C248.66,61.73 250.18,63.34 251.85,64.67 C253.7,66.15 256.01,67.08 257.36,69.2 C257.82,69.78 258.59,69.74 259.26,69.66 Z"
    fill="#000000"
  />
  <path
    d="M109.72,196.7 C109.73483,196.513628 109.73483,196.326372 109.72,196.14 C108.96,193.44 109.27,190.67 109.44,187.98 C109.554026,184.778692 110.596326,181.679588 112.44,179.06 C112.871875,178.564856 113.210658,177.9957 113.44,177.38 C113.62629,176.41743 114.246175,175.594606 115.12,175.15 C115.699771,174.825109 116.124882,174.281111 116.3,173.64 C116.91,171.71 118.46,170.64 119.95,169.45 C120.25,169.21 120.7,169.1 120.95,168.8 C122.13,167.04 123.86,166.17 125.73,165.29 C126.924103,164.832071 128.150879,164.464372 129.4,164.19 C130.914232,163.750318 132.449478,163.386532 134,163.1 C135.582169,162.79958 137.18222,162.602496 138.79,162.51 C141.58,162.32 144.37,162.51 147.16,162.51 C148.81,162.51 150.29,161.93 151.92,161.9 C154.46,161.9 156.98,162.11 159.51,162.22 C160.458539,162.318362 161.415495,162.301573 162.36,162.17 C163.345504,161.818395 164.433092,161.894526 165.36,162.38 C165.651422,162.529611 165.991922,162.551345 166.3,162.44 C167.99,161.78 169.75,162.2 171.45,162.19 C176.45,162.19 181.45,162.45 186.38,162.8 C187.91,162.91 189.48,162.49 190.99,163.13 C191.37,163.3 191.75,163.05 192.09,162.87 C192.552301,162.612029 193.093528,162.533693 193.61,162.65 C195.79,163.26 197.98,162.7 200.16,162.82 C202.55,162.96 204.94,162.63 207.32,162.9 C207.90355,162.968932 208.494978,162.921346 209.06,162.76 C209.61748,162.549627 210.23252,162.549627 210.79,162.76 C212.19,163.41 213.56,162.97 214.98,162.87 C216.642056,162.716445 218.31099,162.649687 219.98,162.67 C222.3,162.74 224.63,162.97 226.98,162.93 C228.34,162.93 229.7,163.13 230.98,163.13 C232.51,163.13 234.07,163.19 235.62,163.05 C236.654725,162.960276 237.695275,162.960276 238.73,163.05 C242.08,163.35 245.45,163.15 248.81,163.24 C250.63,163.29 252.51,162.76 254.41,162.93 C257.05,163.17 259.65,163.73 262.26,164.14 C263.041346,164.250588 263.777754,164.572118 264.39,165.07 C264.670998,165.353425 265.013033,165.568907 265.39,165.7 C267.64,166.19 268.88,168.09 270.57,169.35 C272.26,170.61 273.42,172.87 275.14,174.35 C275.76,174.89 275.61,175.84 276.06,176.47 C277.59,178.59 278.2,181.14 279.35,183.47 C279.474409,183.83639 279.558244,184.215324 279.6,184.6 C280.009448,187.12227 280.09012,189.686984 279.84,192.23 C279.702179,193.491923 279.471554,194.741974 279.15,195.97 C279.064742,196.214668 278.997889,196.465366 278.95,196.72 C278.9,199.79 276.95,202.15 275.83,204.79 C275.370737,205.570173 274.782381,206.266733 274.09,206.85 C271.82,209.2 269.84,211.85 266.69,213.27 C265.55,213.78 264.54,214.58 263.33,215.09 C261.75,215.76 261.33,216.19 262.45,217.85 C263.76,219.77 264.86,221.85 266.04,223.85 C266.157889,224.005881 266.246029,224.18216 266.3,224.37 C266.65,226.43 267.88,228.03 269.03,229.68 C270.035767,231.031684 270.775552,232.562158 271.21,234.19 C271.414575,234.948541 271.847475,235.625819 272.45,236.13 C273.322166,236.759143 273.719163,237.858825 273.45,238.9 C273.11,240.55 273.36,242.46 271.86,243.68 C270.844027,244.462275 269.771042,245.16757 268.65,245.79 C268.369903,245.965218 268.030718,246.019343 267.71,245.94 C266.06,245.29 264.22,245.44 262.63,244.34 C259.94,242.47 257.04,240.91 254.23,239.2 C252.927108,238.463166 251.709707,237.584491 250.6,236.58 C250.178223,236.173527 249.657782,235.88401 249.09,235.74 C248.707474,235.655646 248.3444,235.499559 248.02,235.28 C243.43,232.02 238.48,229.28 234.02,225.82 C230.58,223.11 226.76,220.9 223.14,218.43 C222.14,217.72 221,218.12 219.93,218.05 C215.8,217.8 211.66,218.05 207.54,217.56 C207.284886,217.520075 207.025114,217.520075 206.77,217.56 C204.19,218.03 201.61,217.68 199.03,217.56 C198.514111,217.519898 197.995889,217.519898 197.48,217.56 C194.63,217.87 191.79,217.48 188.96,217.56 C187.15,217.62 185.35,217.28 183.54,217.56 C182.892398,217.624522 182.238847,217.594203 181.6,217.47 C180.31523,217.259527 179.00477,217.259527 177.72,217.47 C175.92,217.84 174.12,217.3 172.3,217.38 C168.67,217.54 165.04,217.38 161.41,217.38 C159.59,217.38 157.77,217.44 155.96,217.38 C153.284689,217.362735 150.611462,217.533153 147.96,217.89 C145.651918,218.138406 143.331308,218.251932 141.01,218.23 C139.77,218.23 138.56,218.41 137.33,218.47 C135.197385,218.423118 133.087891,218.017446 131.09,217.27 C128.79,216.6 126.42,216.27 124.17,215.37 C123.166848,215.090264 122.269066,214.51958 121.59,213.73 C121.079772,212.969748 120.301096,212.43039 119.41,212.22 C118.569006,212.03955 117.818431,211.568671 117.29,210.89 C115.53,208.49 113.4,206.37 111.89,203.76 C110.914128,201.786195 110.149872,199.71466 109.61,197.58 C109.534978,197.283254 109.574241,196.969149 109.72,196.7 Z M259.47,231.29 C258.95,230.34 259.22,229.29 258.47,228.65 C257.865105,228.04778 257.42445,227.300732 257.19,226.48 C256.41,224.28 255.08,222.34 254.28,220.12 C253.82037,218.623314 252.983572,217.269974 251.85,216.19 C251.056502,215.660973 250.661409,214.704849 250.85,213.77 C251.017101,213.084394 250.99985,212.366785 250.8,211.69 C250.49,210.19 251.61,208.36 253.03,208.34 C255.1,208.34 256.93,207.41 258.92,207.14 C259.441013,207.106491 259.944262,206.937593 260.38,206.65 C262.23,205.3 264.38,204.34 265.71,202.33 C265.892903,202.061585 266.107819,201.816446 266.35,201.6 C267.920845,200.045686 269.02281,198.080861 269.53,195.93 C270.01,194.29 269.93,192.58 270.39,190.93 C270.738846,189.55213 270.626441,188.097896 270.07,186.79 C269.27,184.79 268.65,182.63 267.07,180.94 C266.02,179.8 265.3,178.35 264.24,177.23 C263.18,176.11 262.36,174.4 260.9,173.78 C258.83,172.89 256.74,171.42 254.25,172.6 C253.923847,172.697849 253.576153,172.697849 253.25,172.6 C249.9,172.36 246.53,172.96 243.18,172.51 C242.985246,172.496774 242.789617,172.513638 242.6,172.56 C240.03,173.09 237.44,172.56 234.85,172.63 C232.47,172.72 229.99,172.49 227.56,172.35 C224.56,172.17 221.49,172.43 218.46,172.35 C213.04,172.2 207.62,172.17 202.19,172.22 C200.96,172.22 199.74,172.28 198.51,172.22 C196.91,172.16 195.29,172.68 193.74,171.88 C193.61898,171.826512 193.48102,171.826512 193.36,171.88 C192.42,172.43 191.46,172.05 190.5,172.01 C188.96,171.95 187.43,171.38 185.88,172.01 C185.567477,172.090482 185.237155,172.065883 184.94,171.94 C183.18,171.34 181.33,171.58 179.55,171.51 C176.45,171.4 173.33,171.31 170.23,171.28 C168.01,171.28 165.71,171.62 163.49,170.89 C163.044942,170.791232 162.580192,170.833164 162.16,171.01 C161.294559,171.319191 160.361552,171.388302 159.46,171.21 C157.799791,171.002519 156.120209,171.002519 154.46,171.21 C153.032629,171.283569 151.601708,171.246793 150.18,171.1 C149.665264,171.045259 149.147428,171.025214 148.63,171.04 C142.56,171.56 136.46,171.73 130.45,172.83 C129.05,173.09 127.82,173.93 126.45,174.15 C126.258043,174.205284 126.096072,174.334861 126,174.51 C125,176.16 123.55,177.51 122.58,179.22 C120.58,182.78 118.58,186.28 118.43,190.54 C118.35,193.92 118.5,197.17 121.04,199.79 C121.276428,200.103935 121.483942,200.438635 121.66,200.79 C122.414847,202.165097 123.47126,203.351424 124.75,204.26 C126.93,205.49 129.01,207.06 131.56,207.51 C133.49,207.86 135.24,209.29 137.38,208.51 C137.81,208.35 138.24,208.69 138.66,208.88 C140.52,209.69 142.46,210.43 144.5,210.02 C148.09,209.31 151.78,210.02 155.35,209.19 C155.928869,209.112104 156.51656,209.128991 157.09,209.24 C158.754863,209.415906 160.435493,209.375571 162.09,209.12 C162.600944,209.049964 163.119056,209.049964 163.63,209.12 C164.99,209.23 166.36,209.31 167.71,209.29 C170.76,209.29 173.79,208.82 176.85,208.97 C178.579141,209.168975 180.319889,209.249163 182.06,209.21 C185.533342,208.994974 189.016658,208.994974 192.49,209.21 C193.658633,209.28999 194.831367,209.28999 196,209.21 C198.582871,208.973219 201.176665,208.87641 203.77,208.92 C205.77,208.92 207.68,209.15 209.6,209.1 C212.6,209.03 215.53,209.1 218.5,208.97 C219.91,208.9 221.34,208.97 222.76,208.97 C224.18,208.97 225.84,208.71 227.14,209.6 C229.264869,210.859674 231.23783,212.359527 233.02,214.07 C233.965422,215.120729 235.076855,216.009199 236.31,216.7 C237.79,217.54 238.92,218.99 240.31,219.7 C242.181398,220.699516 243.947029,221.885538 245.58,223.24 C247.71,224.78 250.17,225.6 252.31,227.09 C253.93,228.22 255.77,229.09 257.15,230.54 C257.731698,231.189774 258.618019,231.4763 259.47,231.29 Z"
    fill="#000000"
  />
</svg>
