<svg xmlns="http://www.w3.org/2000/svg" viewBox="0 0 550.73 546.84"><defs><style>.cls-1{fill:#ffeab0;}.cls-2{fill:#fff;}.cls-3{fill:#020101;}</style></defs><title>GetJobRecommendations</title><g id="Layer_2" data-name="Layer 2"><g id="Layer_1-2" data-name="Layer 1"><circle class="cls-1" cx="277.31" cy="273.42" r="273.42"/><path class="cls-2" d="M304.41,201.31l-.09-.07c.38.69.23,1.47,1,2.18a12,12,0,0,1,2.79,4.24c.82,2,2.24,3.58,3.23,5.47a2.32,2.32,0,0,0,.85-2.14c.29-9.23-.44-18.43-1-27.62a5.11,5.11,0,0,0-.8-2.76c-2.7-3.72-5.16-7.62-8.16-11.14-.8-.93-1.3-1-2.37-.41-5.26,3-10.64,5.84-16,8.68-6.27,3.32-13,5.27-19.65,7.53a3.85,3.85,0,0,0-2.6,2,62.9,62.9,0,0,1-2.92,6.08c-2,3.28-4.34,6.29-8.44,7.18-2,.44-2.26.33-3-1.64-1.15-2.87-1.93-5.88-4.43-8.08a5.61,5.61,0,0,0-5.29-1.31c-3,.65-4.18,3.21-5.28,5.62-2.09,4.53-1.56,9.24-.29,13.86a11.49,11.49,0,0,0,1.7,3.77,7.8,7.8,0,0,0,5.09,3c2.47.56,3,3,.86,4.49-1.2.84-1.06,1.75-1,2.75.13,12-.33,23.94,0,35.91a63.66,63.66,0,0,1-.11,10.61c-.62,4.35-.63,8.72-1.07,13.08a36.58,36.58,0,0,1-3.12,10.68,3,3,0,0,1-1.21,1.47c-2.44,1.27-4.49,3.2-7.24,4-2.52.71-2.87,1.47-1.84,3.86a28.44,28.44,0,0,0,5.15,8.42,56.62,56.62,0,0,0,20.21,13.83,90.94,90.94,0,0,0,11.58,3.67,57.8,57.8,0,0,0,9.84,1.23A40,40,0,0,0,293.61,325c6.26-3.48,10.47-8.7,10.35-16.41-.07-4.29-.09-4.31-4.27-4.51A8.6,8.6,0,0,1,293.8,302a13,13,0,0,1-4-9c-.3-5.53-.21-11.09-.5-16.63-.17-3.08.18-6.13.14-9.2,0-1.41-.43-2-1.88-1.74a14.09,14.09,0,0,1-5.75-.41,57.18,57.18,0,0,1-10.92-4.32,6,6,0,0,1-2.48-2.79,2,2,0,0,1,.09-2.41,2.37,2.37,0,0,1,2.61-.74,50.39,50.39,0,0,1,6.83,2.79,15.73,15.73,0,0,0,10.2,1.92c1.38-.17,2.77-.29,4.15-.47,7.18-1,12.44-4.42,14.74-11.59.52-1.63.95-3.29,1.33-5a131.81,131.81,0,0,0,3-21.2c-.66.15-1,.75-1.4,1.22a16.15,16.15,0,0,1-13.46,5.47c-2-.11-3-1.15-3-3,0-1.52.56-1.95,3-1.82a13.15,13.15,0,0,0,9.42-3.27c2-1.65,2.28-2.77.88-4.86-3.91-5.86-7.57-11.87-11.06-18-.89-1.57-.78-3.84.14-4.48s2.06.08,3.7,1.7C301.72,196.27,302.34,199.26,304.41,201.31Z"/><path class="cls-2" d="M459.38,291.37c-2.33.11-4.34-1-6.47-.93-3.63.16-7.26.18-10.9.46-7.49.6-15,.2-22.53.23-11.71.05-23.42.13-35.13,0-1.54,0-3.14-.27-4.75.43-6.15,2.71-11.21,7-16.44,11.06-3.1,2.38-5.76,5.34-8.63,8a139.62,139.62,0,0,0-13,13.67,134.38,134.38,0,0,0-11.42,15.8,47.53,47.53,0,0,0-4.81,11.53,175.15,175.15,0,0,0,28.11.41,58.93,58.93,0,0,1,16,.93c3.32.7,5.42,3.19,6,6.7s-.23,6.56-3.37,8.75c-1.14.79-2.46.67-3.65,1.15-4.62,1.83-9.56,2.15-14.42,2.7a110.69,110.69,0,0,1-11.24.34,7.33,7.33,0,0,0-3,.86c7.45,3.48,15.54,4.81,23.3,7.14a11.88,11.88,0,0,1,5.17,3c2.31,2.33,1.88,5.32,1.3,8.17-1,5-3.23,9.55-5.5,14-3,5.86-7.85,9.51-14.65,9.91-5.14.3-10.28.55-15.42.55a222.17,222.17,0,0,1-26.06-1.44c-.58,2.1-1.16,4.14-1.68,6.2-.39,1.55,0,2.05,1.47,1.92,9.65-.78,19.32-.25,29-.5,6-.15,12,0,18,.08,5.22.06,10.44-.07,15.66,0a103.53,103.53,0,0,0,10.86,0c3-.26,6,.11,8.94,0,6.27-.22,12.56-.07,18.84,0,1.31,0,1.92-.36,2.09-1.72.29-2.42.73-4.82,1.14-7.41a40.87,40.87,0,0,0-5.11-.74,26.4,26.4,0,0,1-11.39-2.83c-3.85-1.89-6.41-4.37-6.62-8.88-.08-1.91-.55-3.8-.81-5.7a46,46,0,0,1-.38-9.95c.27-3.18,1.45-4.77,4.47-5.51a30.4,30.4,0,0,1,5.06-.87c5.14-.38,10.26-.89,15.39-1.37,1.76-.16,4-.66,4.12-2.37s-2.18-1.87-3.64-2.32c-.51-.16-1.06-.16-1.58-.29-6-1.5-12.24-2.23-18.26-3.89a11.78,11.78,0,0,1-5.91-4.18c-1.57-1.9-1-4.78.66-6.71,2.73-3.19,6.46-4.06,10.28-4.56A84.2,84.2,0,0,1,411,353c5.25.09,10.5.06,15.74.17,1.74,0,2.53-.66,3.13-2.31a61.85,61.85,0,0,1,6.67-12.31c2-3.08,4.16-6.11,6.16-9.19,2.39-3.7,5.21-7.07,7.85-10.54a145.34,145.34,0,0,1,12.81-14.4A115.42,115.42,0,0,1,477.84,292c.53-.38,1.48-.47,1.39-1.57-2.25-.33-4.5.23-6.71,0a7.26,7.26,0,0,0-5.81,2.1c-4.06,3.52-7.61,7.56-11.49,11.26-1.09,1-2.28,2-3.29,3.09-3.17,3.5-6.47,6.66-11.24,8.06-4.06,1.2-7.93-1.23-7.93-5.42a8.42,8.42,0,0,1,1.27-4.26c2.13-3.67,5.84-5.82,8.59-8.9.81-.91,2-.71,3-.76,2-.09,3.25,1.91,1.95,3.47a37.24,37.24,0,0,1-6.57,6.53,6.53,6.53,0,0,0-2.86,4.19c3.54.11,5.09-2.45,7.31-4.24C450.68,301.4,454.23,295.69,459.38,291.37Z"/><path class="cls-2" d="M323.14,341.5c-5.18-.36-9.77.22-14.13,2.9-6.25,3.83-12.33,7.94-18.65,11.66-5.61,3.3-10.93,7.07-16.53,10.42-5.95,3.56-11.51,7.77-17.23,11.72-2.18,1.5-2.13,1.51-.7,3.92q3.71,6.19,7.32,12.43c4.26,7.32,8.29,14.76,13.43,21.54.92,1.22,1.59,1.5,2.82.44,3-2.58,6.31-4.81,9-7.77a3.26,3.26,0,0,1,2.56-1.15c1.7,0,3.45-.11,5.08,0,4,.34,8.06.9,12.09,1.33,7.24.77,14.48,1.28,21.74,1.39,6.7.09,13.42-.26,20.13-.25a8.84,8.84,0,0,0,7.76-4.39,44.5,44.5,0,0,0,6.29-14.61c.7-3.13.15-4.28-2.93-5.08s-6.24-2.22-9.63-2.15a6.35,6.35,0,0,1-2.51-.49c-3.83-1.63-7.76-2.89-11.72-4.13a14.93,14.93,0,0,1-4.14-1.65c-2.09-1.43-2.85-3.19-1.84-5.42a5.84,5.84,0,0,1,4.17-3.58c6.72-1.63,13.61-1.72,20.41-2.57a65.07,65.07,0,0,0,11.34-2.09c1.15-.36,2.27-.94,2.36-2.33s-1.19-2.19-2.23-2.9a3.08,3.08,0,0,0-1.56-.31c-3.63-.12-7.27-.27-10.91-.29-4.28,0-8.57,0-12.85.09-8.37.09-16.72-1.1-25.1-.53a14.12,14.12,0,0,1-2.89-.21c-1.63-.25-2.2-1.08-2.38-2.9s.73-2.12,2.21-2.42,3.22,0,4.81-.32c1.16-.23,1.78-.6,1.95-2C321,347.06,322.08,344.47,323.14,341.5Z"/><path class="cls-2" d="M392.72,361.81c2.93,2.06,6.16,2.56,9.32,3a89.78,89.78,0,0,1,16.84,3.94c3.08,1.06,3.7,3.81,3.76,6.49a5.12,5.12,0,0,1-3,4.84,31.34,31.34,0,0,1-12.86,3.37c-3.31.23-6.63.5-9.93.85-3,.3-3.86,1.16-3.57,4,.36,3.61,1.41,7.17,1.5,10.77.09,3.86,2.82,5.24,5.43,6.32,3.44,1.41,7.27,1.57,11,1.86,4.81.36,9.62.75,14.41,1.26,3.11.33,5.37-.95,7.29-3.22s2.9-5.47,4.45-8.12c1.8-3.06,3.09-6.32,4.59-9.49,3.28-7,4.92-14.59,8.82-21.31a29.25,29.25,0,0,0,1.83-4.43,5.28,5.28,0,0,0-.4-4.56c-1.28-2.54-3.2-4.51-4.92-6.64-2.2-2.73-5.51-2.94-8.69-3.31-.62-.07-1,.33-1.25.82-.87,1.51-1.75,3-2.71,4.67,2.13.15,3.85.17,5.54.44,1.52.23,2.05,1.42,2,2.85s-1.1,1.5-2.23,1.73a30.43,30.43,0,0,1-5.13.22c-10.4.29-20.79.32-31.19-.17a24.71,24.71,0,0,0-7.28,1.16A5,5,0,0,0,392.72,361.81Z"/><path class="cls-2" d="M276.16,342.69c0-2.24-1.92-4-4.45-4-1.89,0-3.48,1.85-3.56,4.17-.1,2.66,1.26,4.47,3.41,4.52A4.6,4.6,0,0,0,276.16,342.69Z"/><path class="cls-2" d="M358.76,78c0,9.56,0,19.11,0,28.67,0,4.6,4.1,8.82,8.7,8.66,6.73-.23,13.47,0,20.21-.27,7-.28,14.08-.06,21.12-.1,7.5,0,15-.2,22.48-.17,13.6,0,27.2-.26,40.8-.2,5.3,0,10.64-.13,15.95-.25,6.52-.16,13.05.27,19.56,0,8.91-.33,17.82-.18,26.72-.27a13,13,0,0,1,2.25.11c2.4.41,3.55-.23,4.43-2.34a19.65,19.65,0,0,0,1.19-8.11c-.2-8.69-1.48-17.32-1.43-26,0-9.31-.07-18.62.33-27.92.28-6.41.83-12.83.74-19.24-.08-5.09-1.67-6-5.86-5.87-6.31.24-12.64.13-19,.16-7.62,0-15.24-.14-22.84.17-6.6.28-13.21.28-19.81.43-7.37.17-14.76,0-22.14.12-7.84.09-15.68.12-23.52.24-7.05.11-14.09.38-21.14.24-4.49-.09-9,0-13.47,0-4.72-.05-9.43.27-14.15.3-3.74,0-7.51-.47-11.22-.17-4.62.37-8,2.63-8.59,7.18-.48,3.5-.74,7-1,10.54C358.34,55.31,358.88,66.68,358.76,78Z"/><path class="cls-2" d="M183.12,133.14c.06-12.32-.32-24.64.19-36.95a32.79,32.79,0,0,0-.33-5.14,5,5,0,0,0-2.7-4A10.14,10.14,0,0,0,175,86c-4.66-.1-9.33.23-14,0-5.76-.26-11.52.05-17.28-.06-2.88-.05-5.82.23-8.64.06-4.92-.29-9.83,0-14.74-.09q-9.57-.09-19.15.1c-5.3.1-10.64-.13-16-.19-7-.09-13.91-.1-20.87-.12-7.42,0-14.84,0-22.25,0s-15,0-22.53,0c-2.89,0-5.77-.41-8.66.08a5.86,5.86,0,0,0-5.05,6.78A20,20,0,0,1,6,95.46c0,4.77-.23,9.55,0,14.31.53,12.53.06,25.07.38,37.61.18,7.1-.11,14.26-.15,21.39,0,2.89.26,5.79.23,8.68,0,3.53-.12,3.54,3.3,4.7a8.8,8.8,0,0,0,1.86.49,105.78,105.78,0,0,0,15.71.44c6.29-.21,12.57-.2,18.85-.32,11.27-.21,22.54-.08,33.82-.19q12.12-.1,24.26-.49c4.48-.14,9,.12,13.44,0,7.18-.25,14.37-.12,21.56-.22,12.43-.19,24.87-.13,37.3-.08,3.61,0,5.13-.84,5.91-5.2.88-4.89.53-9.84.62-14.75C183.24,152.24,183.12,142.69,183.12,133.14Z"/><path class="cls-3" d="M107,415.39c.81-1.47.53-3.11.71-4.67.67-5.85,1.47-11.69,1.88-17.58a151.42,151.42,0,0,1,2-15.28c.66-3.78.69-7.67,1-11.51a75.65,75.65,0,0,1,7.06-25.27A70,70,0,0,1,127,329.4c2.82-3.82,6.59-6.68,10.25-9.62,8.93-7.17,19.29-11.74,29.75-16a63.28,63.28,0,0,1,11.33-3.21c3.09-.65,6.08-1.8,9.18-2.55,6.19-1.5,12.47-1.92,18.76-2.47,5.52-.49,11.09-.26,16.55-1.55a19.21,19.21,0,0,0,6.61-3.18c2.2-1.55,3-4.29,3.12-6.84.34-7.49.36-15,.53-22.49,0-.75-.44-1.1-.85-1.6-4.25-5.08-8.76-10.06-11.46-16.15-2.08-4.68-5.35-8.68-6.9-13.66-2.66-8.59-5.69-17-6.29-26.15a54.61,54.61,0,0,1,.7-12.39,43.83,43.83,0,0,1,3.21-10.34c2-4.71,3.52-9.62,5.59-14.34,2.46-5.59,5.27-11,8.19-16.32.91-1.67,2.05-3.22,3-4.88,3.48-6.15,8.84-9.6,15.54-11.56a33.38,33.38,0,0,1,16.46-1.12,56.69,56.69,0,0,1,12.25,3.6,10.07,10.07,0,0,0,8.34-.12c8.65-3.42,16.69-2.19,24.32,2.94,2.38,1.6,5.08,2.69,7.2,4.7.63.59,1.47,1,1.69,1.89.75,3,2.81,5.47,3.43,8.59s2.36,5.92,3.33,9c1.25,3.92,1.58,7.94,2.3,11.91.55,3,.86,6.13,1.33,9.19a6.61,6.61,0,0,1-.7,4.29c-1.56,3.06-3.54,5.87-5.34,8.74-1.68,2.68-1.51,5.25-1.38,7.95.29,5.76,1.24,11.49.52,17.28a39,39,0,0,0-.08,4.19,33.61,33.61,0,0,1-1.79,11.35c-1.42,3.81-2.13,7.85-3.35,11.75a16.67,16.67,0,0,1-7.81,10.1c-2.49,1.43-4.61,3.51-7.65,3.78-1,.09-1.19.69-1.21,1.55,0,1.61-.11,3.22-.2,4.83a155.7,155.7,0,0,0,.53,21.7,7.46,7.46,0,0,0,1.8,4,19.26,19.26,0,0,0,4.72,1.08c6.64-.53,13.26-.1,19.9.05,5.39.12,10.63,1,15.95,1.54a32.55,32.55,0,0,1,12.77,3.67,3.16,3.16,0,0,0,4.26-.55A99.41,99.41,0,0,1,370,290.45c2-1.24,4.13-2.23,6-3.66a6.34,6.34,0,0,1,3.71-.94c4.82,0,9.65.08,14.46-.09,7.78-.28,15.55,0,23.33-.28,3.51-.14,7.06-.19,10.57-.05,4.64.2,9.2-1,13.83-.66a2.58,2.58,0,0,0,2-.81,73.11,73.11,0,0,1,8.72-7.06c5.44-3.75,11.31-6.09,18-5.93,2.51.07,5,2.81,5.2,5.65a9.78,9.78,0,0,1-.28,3.84c-.35,1.1-.6,2.24-.9,3.39a11.57,11.57,0,0,0,4.76.43c2.38-.3,4.63.54,6.8,1.53,1,.46,1.09,1.18.89,2.11-.6,2.71-1.29,5-4.17,6.63-5.1,2.95-9.17,7.36-13.35,11.51-3.95,3.92-7.62,8.1-11.34,12.23-3.21,3.58-6,7.45-8.9,11.26-2.14,2.8-4.22,5.64-6.11,8.62-.79,1.26-1.85,2.36-2.27,3.94.85.27,1.7.84,2.46.74,3.72-.48,5.7,2.11,7.75,4.37a59.08,59.08,0,0,1,5.17,6.95c2.3,3.44,2,7.15.42,10.42-2.14,4.41-2.54,9-2.46,13.61.08,4.21-.74,8.32-.88,12.49-.16,4.71-.59,9.41-1.09,14.1-.52,4.89-.83,9.81-1.55,14.69-.79,5.29-1.12,10.65-1.69,16-.42,3.83-.39,7.66-.54,11.5-.49,4.35-1.19,8.7-1.41,13.07-.34,6.63-1.64,13.12-2.61,19.65a111.5,111.5,0,0,1-4.13,17.43c-.67,2.11-1.64,4.17-1.58,6.65,7.57,0,15.07-.09,22.56,0,5.14.08,10.28-.14,15.41.23a50.31,50.31,0,0,0,5.47-.26,7.67,7.67,0,0,1,3.17.43c1.75.71,2.2,1.68,1.92,3.84-.22,1.68-1.21,2.06-2.7,2q-6.4-.18-12.82-.25c-5.94-.07-11.88-.1-17.83-.13-5.53,0-11.06,0-16.59-.07-1.08,0-1.43.56-1.84,1.42a32.07,32.07,0,0,1-3.6,6c-3.3,4.23-8,6-12.86,7.21a49.28,49.28,0,0,1-15.94.78,24.32,24.32,0,0,1-11.52-4.3c-3.53-2.37-7.3-4.4-10.25-7.55-.44-.46-1.15-.87-1.27-1.4-.54-2.47-2.45-2.41-4.25-2.42q-14.81,0-29.59,0c-9.65,0-19.29.14-28.94.15-8.24,0-16.48-.12-24.72-.15q-17.84-.06-35.67-.06c-8.35,0-16.7.14-25.05.12-4,0-8-.34-12.08-.37s-7.85.2-11.78.21-7.9,0-11.83-.2-7.94.08-11.9,0a3.45,3.45,0,0,0-2.3.92,40.65,40.65,0,0,1-4.35,3.32c-7.6,4.41-15.48,8.11-24.48,8.45a75.19,75.19,0,0,1-23.91-2.44c-5.48-1.57-10.53-4.21-14-9-1-1.4-2.29-1.34-3.65-1.35H87.83q-15.15,0-30.3-.05c-.91,0-2,.47-2.61-.66a10,10,0,0,1-1-3.68c-.06-.5.43-.64.84-.81a11.72,11.72,0,0,1,5-1c12.87.64,25.74.32,38.61.36,3.94,0,7.9.38,12.11,0a61.65,61.65,0,0,1-4-11.43,118,118,0,0,1-2.58-18c-.18-2.75-.62-5.47-.72-8.23a152.89,152.89,0,0,1,.32-15.89c.53-7.76.87-15.56,2.18-23.27C106.3,422.65,106.55,419,107,415.39ZM304.41,201.31l-.09-.07c.38.69.23,1.47,1,2.18a12,12,0,0,1,2.79,4.24c.82,2,2.24,3.58,3.23,5.47a2.32,2.32,0,0,0,.85-2.14c.29-9.23-.44-18.43-1-27.62a5.11,5.11,0,0,0-.8-2.76c-2.7-3.72-5.16-7.62-8.16-11.14-.8-.93-1.3-1-2.37-.41-5.26,3-10.64,5.84-16,8.68-6.27,3.32-13,5.27-19.65,7.53a3.85,3.85,0,0,0-2.6,2,62.9,62.9,0,0,1-2.92,6.08c-2,3.28-4.34,6.29-8.44,7.18-2,.44-2.26.33-3-1.64-1.15-2.87-1.93-5.88-4.43-8.08a5.61,5.61,0,0,0-5.29-1.31c-3,.65-4.18,3.21-5.28,5.62-2.09,4.53-1.56,9.24-.29,13.86a11.49,11.49,0,0,0,1.7,3.77,7.8,7.8,0,0,0,5.09,3c2.47.56,3,3,.86,4.49-1.2.84-1.06,1.75-1,2.75.13,12-.33,23.94,0,35.91a63.66,63.66,0,0,1-.11,10.61c-.62,4.35-.63,8.72-1.07,13.08a36.58,36.58,0,0,1-3.12,10.68,3,3,0,0,1-1.21,1.47c-2.44,1.27-4.49,3.2-7.24,4-2.52.71-2.87,1.47-1.84,3.86a28.44,28.44,0,0,0,5.15,8.42,56.62,56.62,0,0,0,20.21,13.83,90.94,90.94,0,0,0,11.58,3.67,57.8,57.8,0,0,0,9.84,1.23A40,40,0,0,0,293.61,325c6.26-3.48,10.47-8.7,10.35-16.41-.07-4.29-.09-4.31-4.27-4.51A8.6,8.6,0,0,1,293.8,302a13,13,0,0,1-4-9c-.3-5.53-.21-11.09-.5-16.63-.17-3.08.18-6.13.14-9.2,0-1.41-.43-2-1.88-1.74a14.09,14.09,0,0,1-5.75-.41,57.18,57.18,0,0,1-10.92-4.32,6,6,0,0,1-2.48-2.79,2,2,0,0,1,.09-2.41,2.37,2.37,0,0,1,2.61-.74,50.39,50.39,0,0,1,6.83,2.79,15.73,15.73,0,0,0,10.2,1.92c1.38-.17,2.77-.29,4.15-.47,7.18-1,12.44-4.42,14.74-11.59.52-1.63.95-3.29,1.33-5a131.81,131.81,0,0,0,3-21.2c-.66.15-1,.75-1.4,1.22a16.15,16.15,0,0,1-13.46,5.47c-2-.11-3-1.15-3-3,0-1.52.56-1.95,3-1.82a13.15,13.15,0,0,0,9.42-3.27c2-1.65,2.28-2.77.88-4.86-3.91-5.86-7.57-11.87-11.06-18-.89-1.57-.78-3.84.14-4.48s2.06.08,3.7,1.7C301.72,196.27,302.34,199.26,304.41,201.31Zm155,90.06c-2.33.11-4.34-1-6.47-.93-3.63.16-7.26.18-10.9.46-7.49.6-15,.2-22.53.23-11.71.05-23.42.13-35.13,0-1.54,0-3.14-.27-4.75.43-6.15,2.71-11.21,7-16.44,11.06-3.1,2.38-5.76,5.34-8.63,8a139.62,139.62,0,0,0-13,13.67,134.38,134.38,0,0,0-11.42,15.8,47.53,47.53,0,0,0-4.81,11.53,175.15,175.15,0,0,0,28.11.41,58.93,58.93,0,0,1,16,.93c3.32.7,5.42,3.19,6,6.7s-.23,6.56-3.37,8.75c-1.14.79-2.46.67-3.65,1.15-4.62,1.83-9.56,2.15-14.42,2.7a110.69,110.69,0,0,1-11.24.34,7.33,7.33,0,0,0-3,.86c7.45,3.48,15.54,4.81,23.3,7.14a11.88,11.88,0,0,1,5.17,3c2.31,2.33,1.88,5.32,1.3,8.17-1,5-3.23,9.55-5.5,14-3,5.86-7.85,9.51-14.65,9.91-5.14.3-10.28.55-15.42.55a222.17,222.17,0,0,1-26.06-1.44c-.58,2.1-1.16,4.14-1.68,6.2-.39,1.55,0,2.05,1.47,1.92,9.65-.78,19.32-.25,29-.5,6-.15,12,0,18,.08,5.22.06,10.44-.07,15.66,0a103.53,103.53,0,0,0,10.86,0c3-.26,6,.11,8.94,0,6.27-.22,12.56-.07,18.84,0,1.31,0,1.92-.36,2.09-1.72.29-2.42.73-4.82,1.14-7.41a40.87,40.87,0,0,0-5.11-.74,26.4,26.4,0,0,1-11.39-2.83c-3.85-1.89-6.41-4.37-6.62-8.88-.08-1.91-.55-3.8-.81-5.7a46,46,0,0,1-.38-9.95c.27-3.18,1.45-4.77,4.47-5.51a30.4,30.4,0,0,1,5.06-.87c5.14-.38,10.26-.89,15.39-1.37,1.76-.16,4-.66,4.12-2.37s-2.18-1.87-3.64-2.32c-.51-.16-1.06-.16-1.58-.29-6-1.5-12.24-2.23-18.26-3.89a11.78,11.78,0,0,1-5.91-4.18c-1.57-1.9-1-4.78.66-6.71,2.73-3.19,6.46-4.06,10.28-4.56A84.2,84.2,0,0,1,411,353c5.25.09,10.5.06,15.74.17,1.74,0,2.53-.66,3.13-2.31a61.85,61.85,0,0,1,6.67-12.31c2-3.08,4.16-6.11,6.16-9.19,2.39-3.7,5.21-7.07,7.85-10.54a145.34,145.34,0,0,1,12.81-14.4A115.42,115.42,0,0,1,477.84,292c.53-.38,1.48-.47,1.39-1.57-2.25-.33-4.5.23-6.71,0a7.26,7.26,0,0,0-5.81,2.1c-4.06,3.52-7.61,7.56-11.49,11.26-1.09,1-2.28,2-3.29,3.09-3.17,3.5-6.47,6.66-11.24,8.06-4.06,1.2-7.93-1.23-7.93-5.42a8.42,8.42,0,0,1,1.27-4.26c2.13-3.67,5.84-5.82,8.59-8.9.81-.91,2-.71,3-.76,2-.09,3.25,1.91,1.95,3.47a37.24,37.24,0,0,1-6.57,6.53,6.53,6.53,0,0,0-2.86,4.19c3.54.11,5.09-2.45,7.31-4.24C450.68,301.4,454.23,295.69,459.38,291.37ZM323.14,341.5c-5.18-.36-9.77.22-14.13,2.9-6.25,3.83-12.33,7.94-18.65,11.66-5.61,3.3-10.93,7.07-16.53,10.42-5.95,3.56-11.51,7.77-17.23,11.72-2.18,1.5-2.13,1.51-.7,3.92q3.71,6.19,7.32,12.43c4.26,7.32,8.29,14.76,13.43,21.54.92,1.22,1.59,1.5,2.82.44,3-2.58,6.31-4.81,9-7.77a3.26,3.26,0,0,1,2.56-1.15c1.7,0,3.45-.11,5.08,0,4,.34,8.06.9,12.09,1.33,7.24.77,14.48,1.28,21.74,1.39,6.7.09,13.42-.26,20.13-.25a8.84,8.84,0,0,0,7.76-4.39,44.5,44.5,0,0,0,6.29-14.61c.7-3.13.15-4.28-2.93-5.08s-6.24-2.22-9.63-2.15a6.35,6.35,0,0,1-2.51-.49c-3.83-1.63-7.76-2.89-11.72-4.13a14.93,14.93,0,0,1-4.14-1.65c-2.09-1.43-2.85-3.19-1.84-5.42a5.84,5.84,0,0,1,4.17-3.58c6.72-1.63,13.61-1.72,20.41-2.57a65.07,65.07,0,0,0,11.34-2.09c1.15-.36,2.27-.94,2.36-2.33s-1.19-2.19-2.23-2.9a3.08,3.08,0,0,0-1.56-.31c-3.63-.12-7.27-.27-10.91-.29-4.28,0-8.57,0-12.85.09-8.37.09-16.72-1.1-25.1-.53a14.12,14.12,0,0,1-2.89-.21c-1.63-.25-2.2-1.08-2.38-2.9s.73-2.12,2.21-2.42,3.22,0,4.81-.32c1.16-.23,1.78-.6,1.95-2C321,347.06,322.08,344.47,323.14,341.5Zm69.58,20.31c2.93,2.06,6.16,2.56,9.32,3a89.78,89.78,0,0,1,16.84,3.94c3.08,1.06,3.7,3.81,3.76,6.49a5.12,5.12,0,0,1-3,4.84,31.34,31.34,0,0,1-12.86,3.37c-3.31.23-6.63.5-9.93.85-3,.3-3.86,1.16-3.57,4,.36,3.61,1.41,7.17,1.5,10.77.09,3.86,2.82,5.24,5.43,6.32,3.44,1.41,7.27,1.57,11,1.86,4.81.36,9.62.75,14.41,1.26,3.11.33,5.37-.95,7.29-3.22s2.9-5.47,4.45-8.12c1.8-3.06,3.09-6.32,4.59-9.49,3.28-7,4.92-14.59,8.82-21.31a29.25,29.25,0,0,0,1.83-4.43,5.28,5.28,0,0,0-.4-4.56c-1.28-2.54-3.2-4.51-4.92-6.64-2.2-2.73-5.51-2.94-8.69-3.31-.62-.07-1,.33-1.25.82-.87,1.51-1.75,3-2.71,4.67,2.13.15,3.85.17,5.54.44,1.52.23,2.05,1.42,2,2.85s-1.1,1.5-2.23,1.73a30.43,30.43,0,0,1-5.13.22c-10.4.29-20.79.32-31.19-.17a24.71,24.71,0,0,0-7.28,1.16A5,5,0,0,0,392.72,361.81Zm60.42-77.55c3.47.8,7,.22,10.47.34a6.44,6.44,0,0,0,6.52-5.69c.21-1.33-.31-1.92-1.78-1.91a6.57,6.57,0,0,0-1.59.18,38.54,38.54,0,0,0-12.4,5.79C453.91,283.27,453.07,283.39,453.14,284.26Zm-177,58.43c0-2.24-1.92-4-4.45-4-1.89,0-3.48,1.85-3.56,4.17-.1,2.66,1.26,4.47,3.41,4.52A4.6,4.6,0,0,0,276.16,342.69Zm99.29,160.77c-1.43-3.28-2.83-6.5-4.44-10.22,0,2.52-.07,4.42,0,6.33C371.19,503.54,371.22,503.54,375.45,503.46Z"/><path class="cls-3" d="M476.88,19.21a2.55,2.55,0,0,0,.88.32c3.67-.12,7.33-.28,11-.43,6.54,0,13.08.12,19.62.09,7.07,0,14.13-.19,21.2-.21,2.78,0,5.5-1.16,8.27-.57,3.48.75,6.72,1.91,8.26,5.66a23.9,23.9,0,0,1,1.44,12.23,66.79,66.79,0,0,0-.41,9.59c.09,4.25-.31,8.53,0,12.76s.06,8.33,0,12.47c-.1,5.83.39,11.65,0,17.48a78.88,78.88,0,0,0,.35,8.27,101.3,101.3,0,0,1-.3,10.59,41.47,41.47,0,0,0-.25,4.17c-.74,2.81-1.78,5.45-4.14,7.38a4.39,4.39,0,0,1-3.22,1.17c-2.77-.2-5.54.17-8.34,0-9.85-.41-19.72,0-29.58,0-5.88,0-11.75,0-17.63,0-11.13.12-22.26.32-33.38.43-6.86.06-13.73,0-20.59,0-8,0-16.11.19-24.16.26-6.41.06-12.82-.07-19.22.12-4.91.15-9.8,0-14.73.61-7.19.86-13.48-1.36-17.65-7.87a6.59,6.59,0,0,1-1.11-3.64c0-4.71-.13-9.41.33-14.13.4-4.15.2-8.37.21-12.56,0-7.29,0-14.58,0-21.87,0-5.78-.1-11.57.22-17.33.23-4.06-.14-8.1.09-12.17.3-5.29,8.23-11.56,13-11.48,7.41.14,14.83,0,22.25-.15,8.25-.11,16.51-.34,24.77-.43,5-.06,10,.24,15,0,3.87-.17,7.72-.17,11.59-.2l31.53-.25c.2,0,.39-.17.58-.27ZM358.76,78c0,9.56,0,19.11,0,28.67,0,4.6,4.1,8.82,8.7,8.66,6.73-.23,13.47,0,20.21-.27,7-.28,14.08-.06,21.12-.1,7.5,0,15-.2,22.48-.17,13.6,0,27.2-.26,40.8-.2,5.3,0,10.64-.13,15.95-.25,6.52-.16,13.05.27,19.56,0,8.91-.33,17.82-.18,26.72-.27a13,13,0,0,1,2.25.11c2.4.41,3.55-.23,4.43-2.34a19.65,19.65,0,0,0,1.19-8.11c-.2-8.69-1.48-17.32-1.43-26,0-9.31-.07-18.62.33-27.92.28-6.41.83-12.83.74-19.24-.08-5.09-1.67-6-5.86-5.87-6.31.24-12.64.13-19,.16-7.62,0-15.24-.14-22.84.17-6.6.28-13.21.28-19.81.43-7.37.17-14.76,0-22.14.12-7.84.09-15.68.12-23.52.24-7.05.11-14.09.38-21.14.24-4.49-.09-9,0-13.47,0-4.72-.05-9.43.27-14.15.3-3.74,0-7.51-.47-11.22-.17-4.62.37-8,2.63-8.59,7.18-.48,3.5-.74,7-1,10.54C358.34,55.31,358.88,66.68,358.76,78Z"/><path class="cls-3" d="M71.87,79.87c8.45.3,16.9.23,25.36.12,3,0,6,.12,8.91.34a48.17,48.17,0,0,0,6.37-.19c4.61-.29,9.18.28,13.77.12,6.08-.22,12.17-.12,18.24-.08,8.25.06,16.5.09,24.75.15,2.14,0,4.36.39,6.41,0,3.22-.67,5.49,1.13,8,2.35,3.55,1.73,4.56,5,4.61,8.56.07,5.69-.08,11.38-.07,17.07,0,9.56.09,19.12.1,28.68,0,6.76,0,13.51-.06,20.27,0,5.26.22,10.53-.1,15.77a25.16,25.16,0,0,1-5.34,13.64.8.8,0,0,1-.72.39c-4.85.12-9.7.31-14.55.38q-17.49.27-35,.43c-8.9.08-17.81.15-26.72.06-6-.06-11.88.32-17.83.06-5-.22-10,.25-15,.29-8.87.06-17.75,0-26.62,0-5.68,0-11.36.16-17,.24a73.75,73.75,0,0,0-8.67-.1,61.15,61.15,0,0,1-11.24-.1c-2.84-.23-5.33-2-7.8-3.48-.84-.5-.87-1.68-1.06-2.62a36.91,36.91,0,0,1-.51-9.31c.29-5.26.07-10.51.24-15.76.29-8.74-.14-17.47.16-26.2.22-6.51-.08-13-.13-19.54-.06-6-.28-12-.09-18,.14-4.61,1.37-8.84,5.63-11.66a16.51,16.51,0,0,1,7.88-2.35,65.63,65.63,0,0,1,11.55.25c4.28.37,8.58.4,12.87.44,7.81.06,15.62,0,23.43,0C65,80.05,68.45,79.94,71.87,79.87Zm111.25,53.27c.06-12.32-.32-24.64.19-36.95a32.79,32.79,0,0,0-.33-5.14,5,5,0,0,0-2.7-4A10.14,10.14,0,0,0,175,86c-4.66-.1-9.33.23-14,0-5.76-.26-11.52.05-17.28-.06-2.88-.05-5.82.23-8.64.06-4.92-.29-9.83,0-14.74-.09q-9.57-.09-19.15.1c-5.3.1-10.64-.13-16-.19-7-.09-13.91-.1-20.87-.12-7.42,0-14.84,0-22.25,0s-15,0-22.53,0c-2.89,0-5.77-.41-8.66.08a5.86,5.86,0,0,0-5.05,6.78A20,20,0,0,1,6,95.46c0,4.77-.23,9.55,0,14.31.53,12.53.06,25.07.38,37.61.18,7.1-.11,14.26-.15,21.39,0,2.89.26,5.79.23,8.68,0,3.53-.12,3.54,3.3,4.7a8.8,8.8,0,0,0,1.86.49,105.78,105.78,0,0,0,15.71.44c6.29-.21,12.57-.2,18.85-.32,11.27-.21,22.54-.08,33.82-.19q12.12-.1,24.26-.49c4.48-.14,9,.12,13.44,0,7.18-.25,14.37-.12,21.56-.22,12.43-.19,24.87-.13,37.3-.08,3.61,0,5.13-.84,5.91-5.2.88-4.89.53-9.84.62-14.75C183.24,152.24,183.12,142.69,183.12,133.14Z"/><path class="cls-3" d="M20.83,214.92c0,6.16.27,12.33-.08,18.47-.33,5.83.15,11.65-.35,17.47,0,.42,0,.86,0,1.28a2.29,2.29,0,0,1-1.91,1.93c-1,.3-1.63-.3-2.16-1a6.9,6.9,0,0,1-1.09-4.29c0-4.06.35-8.12.48-12.18.12-3.52-.09-7-.17-10.53s.13-7,0-10.55c-.11-4.24.11-8.5-.2-12.74-.14-1.84.88-2.19,2.18-2.54a1.89,1.89,0,0,1,2.64,1.59c.35,2.42.47,4.88.58,7.32.09,1.92,0,3.85,0,5.78Z"/><path class="cls-3" d="M386.08,157.22c0,6.43,0,12.86,0,19.29-.06,9.2-.39,18.4-.19,27.59.17,7.71-.12,15.42.05,23.13.1,4.47.05,9,0,13.43,0,1.85-1.52,3.1-4,3.2-1.48.06-1.76-1.28-2.11-2.37-.67-2.09-.45-4.26-.46-6.38,0-7-.14-13.91.29-20.83.29-4.57,0-9.14.05-13.68,0-14.22.34-28.43.38-42.64,0-5.23-.18-10.47.31-15.7.22-2.33-.47-4.68,0-7,.31-1.42.44-2.84,2.32-2.92a3.51,3.51,0,0,1,3.16,3.05,6.12,6.12,0,0,1,0,1v20.91Z"/><path class="cls-3" d="M103.43,261.56c-.09-7.28.52-14.56.2-21.85-.12-2.78.07-5.57.15-8.36.18-6.6.45-13.2.56-19.81,0-2.89.65-5.75.42-8.66a3.54,3.54,0,0,1,.45-1.84,2.09,2.09,0,0,1,2.21-1c1,.15.88,1.08.92,1.79.55,9.08.3,18.17.41,27.26.12,9.85.13,19.71.16,29.56s-.08,19.51,0,29.26c0,4.59.19,9.18-.14,13.76-.16,2.37-.71,3-2.72,3.11s-2.9-.61-3.07-2.86a48.29,48.29,0,0,1-.09-7.7c.41-5.34,0-10.68.16-16C103.25,272.65,103.9,267.12,103.43,261.56Z"/><path class="cls-3" d="M502.39,158.7c-.64,8.57.43,17.14,0,25.73-.17,3.45,0,7,0,10.55,0,6,.43,12-.26,18a5.39,5.39,0,0,1-2.1,4.16c-1.29.89-2.16.75-2.88-.63a8.63,8.63,0,0,1-.78-4.4c.16-5.67.18-11.37.05-17-.2-8.69.21-17.37.07-26.06-.11-7.26.12-14.52.26-21.77,0-1.23-.17-2.75,1.58-3.11a3.1,3.1,0,0,1,3.71,2.7,65.75,65.75,0,0,1,.34,6.75C502.43,155.27,502.39,157,502.39,158.7Z"/><path class="cls-3" d="M475.07,158.12c.06,3.86,0,7.73.29,11.59.12,1.49-.17,3-.18,4.5a3.07,3.07,0,0,1-2.79,3.26c-1.75.39-2.07.27-2.49-1.4a17.79,17.79,0,0,1-.22-4.78c.22-7.93.4-15.87.59-23.8,0-1.52.38-2.8,2.25-2.93,1.08-.08,1.89.13,2.18,1.35a12.54,12.54,0,0,1,.4,3.18C475,152.1,475.07,155.11,475.07,158.12Z"/><path class="cls-3" d="M37.09,208c-.14,2.24-.23,4.49-.43,6.72-.07.85-.27,1.87-1.29,2a2,2,0,0,1-2-1.27,7.82,7.82,0,0,1-1.22-2.93c-.17-2.68-.33-5.36-.32-8a3,3,0,0,1,3.51-2.81,1.65,1.65,0,0,1,1.41,1.53A33.65,33.65,0,0,1,37.09,208Z"/><path class="cls-3" d="M305.84,233.7c-.44,3.29-2.5,5.3-4.06,7.58a4,4,0,0,1-2.74,1.53c-4.33.75-8.56.5-12.24-2.16-2.56-1.85-3.38-4.86-4.49-7.63-.28-.69.3-1,.84-1a7.74,7.74,0,0,1,2.55.17c4.41,1.36,8.93.68,13.4.81C301.32,233,303.59,232.76,305.84,233.7Z"/><path class="cls-3" d="M243,201.45c.1,1.53,0,2.36-.59,3.07-.89,1.11-2,1-2.87-.12s-.74-2.43-1.08-3.65c-.4-1.38-1-2.2-2.67-2a1.45,1.45,0,0,1-1.58-2.13,4.23,4.23,0,0,1,5.14-1.79,4.75,4.75,0,0,1,2.8,3.27C242.43,199.41,242.82,200.74,243,201.45Z"/><path class="cls-3" d="M278.64,198.35a4.08,4.08,0,0,1,4.34-3.8,3.82,3.82,0,0,1,3.18,4.12c-.15,2.19-2.2,4.41-4,4.33C280.15,202.91,278.57,200.81,278.64,198.35Z"/><path class="cls-3" d="M304.41,201.31c.56-1.27-.06-2.67.48-4a2.59,2.59,0,0,1,2.88-1.94c1.52.12,2.68.6,3.11,2.22.46,1.77-.1,3.78-1.46,4.57a3.11,3.11,0,0,1-4.29-.73c-.27-.31-.51-.25-.81-.2Z"/><path class="cls-3" d="M332.4,392c2.52,0,4.6,1.27,6.94,1.58,1.23.16,1.08,1.59.9,2.71s-.34,2.25-1.77,2.24a34.4,34.4,0,0,1-9.09-1.79c-1.44-.41-1.48-3-.22-4A4.32,4.32,0,0,1,332.4,392Z"/><path class="cls-3" d="M408.93,398.45c-1.72-.4-3.77.32-5.79-.37-1.18-.4-1.92-.93-1.82-2.23a2.13,2.13,0,0,1,2.09-2.07c1.81-.2,3.63-.24,5.44-.44,2.12-.22,4.27.06,6.37-.64a2.44,2.44,0,0,1,3.09,1.07c.67,1.31,0,2.4-1.07,3.34a6,6,0,0,1-4.17,1.34Z"/><path class="cls-3" d="M471.3,59.12H446.78c-6.73,0-13.46.05-20.2.05A27.91,27.91,0,0,1,423.7,59c-2-.21-2.9-1.13-2.9-3a2.82,2.82,0,0,1,3-3c6.39-.09,12.77-.59,19.18-.25a69.88,69.88,0,0,0,7.65-.22c7.16-.43,14.31-.19,21.46-.28,11.1-.16,22.21,0,33.31-.08a69.47,69.47,0,0,0,7.36-.33,26.51,26.51,0,0,1,5.12.12c1.48.12,2.81.27,3.15,2.05a4.11,4.11,0,0,1-2.35,4.71,7.5,7.5,0,0,1-3.13.64c-5-.08-10-.22-15.08-.23-6.86,0-13.72,0-20.57.16C476.66,59.28,473.45,58.75,471.3,59.12Z"/><path class="cls-3" d="M388.79,37.36c4.39,0,8.78-.08,13.17,0,2.58.06,2.71.39,3.27,2.93.49,2.25.14,4.5.13,6.73,0,6.41.06,12.81.44,19.21a9,9,0,0,1-.23,2.87c-.62,2.44-1.48,3.21-4,3.41s-4.68-.11-7,0c-4.24.23-8.5,0-12.76-.06-2,0-4,.22-6,.06-3.77-.29-4.84-1.17-5-4.8a94.48,94.48,0,0,1,.08-9.52,77.57,77.57,0,0,0-.06-8.35c-.18-3.18.18-6.39.3-9.59.07-1.7,1.13-2.42,2.62-2.75a31.71,31.71,0,0,1,6.08-.31c3-.06,6,0,9,0ZM387.7,66c2.91.59,5.68.06,8.45.08,3.47,0,3.47-.06,3.35-3.69,0-.64,0-1.28,0-1.93,0-5,0-10.06,0-15.09,0-2.1-.26-2.3-2.13-2.2a78.27,78.27,0,0,1-10.83,0,61.82,61.82,0,0,0-8.59.33c-.6,0-1.48,0-1.63.71a24.3,24.3,0,0,0-.24,3.52c0,.8.58.93,1.18,1.25a.93.93,0,0,1,0,1.75c-1.14.42-1,1.24-1,2,0,3.74.06,7.49,0,11.23-.05,1.76.81,2.29,2.31,2.18C381.64,66,384.75,66.56,387.7,66Z"/><path class="cls-3" d="M447,89.07c-6.33.64-13.37,0-20.41.22a26.54,26.54,0,0,1-4.17-.26c-1.9-.24-2.55-1.12-2.38-3,.13-1.6.95-2.33,2.82-2.34,11.43-.06,22.85-.79,34.28-.49,1.06,0,2.13-.23,3.2-.21,2.22,0,3,.9,3,3.21,0,1.83-1.11,2.87-3.07,2.87Z"/><path class="cls-3" d="M72.43,112.43c9.81-.25,19.61-.57,29.42-.73,8.45-.15,16.9-.09,25.34-.17,5.77-.06,11.53-.26,17.3-.32s11.47-.08,17.2-.07c2,0,4.47,3.55,3.85,5.47-.23.71-.93.85-1.5,1.09-2.85,1.22-5.91.92-8.87,1-6.5.14-13,0-19.51,0s-13,.14-19.55,0c-7.08-.18-14.16,0-21.24.06-5.78,0-11.59.29-17.34-.12a51.92,51.92,0,0,0-8.56-.33c-2.89.26-4.36-1.93-3.51-4.59a1.86,1.86,0,0,1,2.13-1.49c1.61.1,3.22,0,4.84,0Z"/><path class="cls-3" d="M18.45,114.54c-.29-3.08.32-6.92-.06-10.77-.12-1.14.39-2.33.39-3.49,0-1.9.89-2.5,2.61-2.13.41.08,1,.46,1.18.07,1.4-2.49,3.84-1.52,5.78-1.58,6.52-.21,13.06-.15,19.58-.09,3.36,0,5.11,1.75,5.15,5.12.1,8.42.08,16.84.09,25.27a7.88,7.88,0,0,1-.24,2.22c-.44,1.48-1,2.53-3.08,2.43-4-.17-7.93.11-11.9.16s-7.64.07-11.47.09c-1.9,0-3.81,0-5.71,0A1.77,1.77,0,0,1,19,130.65a8.24,8.24,0,0,1-.6-3.45C18.48,123.23,18.45,119.27,18.45,114.54ZM23,102.76c.78,3.92.13,7.84.27,11.75.11,3.31-.28,6.64.13,10,.28,2.25.62,2.77,2.66,2.78,3.09,0,6.23.36,9.18-1a4.69,4.69,0,0,1,2.21-.31c2.45.1,4.9.13,7.36.13s2.72-.31,2.72-2.71c0-1.51-.43-3.27.19-4.46,1.63-3.08.9-6.31,1.22-9.46a9.23,9.23,0,0,0-1.26-5.83c-.59-1-.93-1.34-2.06-1.34a34.89,34.89,0,0,1-8.87-.61,8.58,8.58,0,0,0-5.68.33,9.91,9.91,0,0,1-4.43.61A9.63,9.63,0,0,0,23,102.76Z"/><path class="cls-3" d="M112,158.57c-12.07,0-24.13,0-36.19,0a37.94,37.94,0,0,1-5.74-.41c-1.93-.27-2.59-1.17-2.55-3s.41-2.19,2.61-2.45c4.78-.58,9.59-.36,14.39-.45q9.6-.18,19.21-.26c7.19-.07,14.39-.67,21.59-.21,2.14.13,4,3.35,2.94,5.17-.37.64-1,.69-1.61.87-3.67,1.05-7.42.44-11.14.64a34.48,34.48,0,0,1-3.51-.16Z"/></g></g></svg>