<svg xmlns="http://www.w3.org/2000/svg" viewBox="0 0 250.17 258.93"><defs><style>.cls-1{fill:#fff;}</style></defs><title>Languages</title><g id="Layer_2" data-name="Layer 2"><g id="Layer_1-2" data-name="Layer 1"><path class="cls-1" d="M109.64,106.94a2.19,2.19,0,0,0,.22-1.42c-.22-1.85-.57-3.68-.76-5.54-.35-3.36-1.15-6.68-1.78-10a5.26,5.26,0,0,0-.56-1.66,6.49,6.49,0,0,1-.94-2.75A9.88,9.88,0,0,0,104,80.2c-1-1.32-1.21-3-2.14-4.34-2.07-2.94-4.41-5.45-8.26-5.92a10.6,10.6,0,0,1-2.23-.68A2.34,2.34,0,0,0,90.28,69c-2.17.31-4.33-.34-6.54.06a14.51,14.51,0,0,0-5.91,2.1c-1.37,1-2.65,2.23-4,3.36-1.48,1.28-2.46,3-3.84,4.38a10.86,10.86,0,0,0-2.78,4.39c-.43,1.32-.65,1.37-1.75.54-2.85-2.15-5.68-4.33-8.51-6.5-1.47-1.12-1.47-1.54-.67-3.23a42,42,0,0,1,5.56-8.39c.85-1.05,1.92-1.88,2.75-3s2.25-1.64,3.44-2.29c1.64-.91,3-2.15,4.74-3s3.38-1.85,5.15-2.66c1.18-.54,2.51-.21,3.56-.65a13.54,13.54,0,0,1,3.92-.87,38.14,38.14,0,0,1,10-.17c.64.11,1.19-.51,1.84,0,1.64,1.36,4.08.59,5.68,2.09,1.41-.55,2,.6,2.66,1.38a3.75,3.75,0,0,0,1.62,1.06c2.59.9,3.87,3.32,5.63,5.11,1.33,1.37,1.88,3.48,2.92,5.17.71,1.16,1.17,2.46,1.93,3.56a18.57,18.57,0,0,1,2.78,7.13,43.76,43.76,0,0,0,1,4.52,26.77,26.77,0,0,1,1.17,6.78c.09,2.8.35,5.6.53,8.4,0,.54.34,1.07.81.68,1.12-.89,2.67-1.35,3.35-2.61A8.68,8.68,0,0,1,130,93.61c.83-.63,1.68-1.23,2.45-1.93s1.48-1.61,2.79-1.34c.39.08.69-.27,1-.53a7,7,0,0,1,3.32-1.94c.4-.06.76-.46,1.13-.72a37.41,37.41,0,0,1,7.69-4.05c1.5-.6,3.4-.7,4.51-1.69C155,79.53,158,80,160,78.28c1.43,0,2.62-.67,3.9-1.11a11.6,11.6,0,0,1,3.63-.66,39.79,39.79,0,0,0,4.08-.08c.9-.11,1.19-.35,1.19-1.3a13.17,13.17,0,0,0-1-4.3c-.85-2.47-1.64-4.94-2.55-7.38-.78-2.12-2.06-4.05-2.45-6.32a1.11,1.11,0,0,0-.16-.35,19.82,19.82,0,0,1-2.46-5.2,24.39,24.39,0,0,0-4.56-8,12.15,12.15,0,0,1-.64-1.19c-1.13-1.64-2.27-3.28-3.45-4.89-.37-.51-1.18-.61-1.45-1.26-.86-2.06-2.94-3.08-4.1-4.86-.57-.88-1.76-.64-2.26-1.38-1.31-1.92-3.84-2.34-5.11-4.28a.84.84,0,0,0-.5-.28c-2.3-.47-3.8-2.32-5.71-3.46-2.19-1.3-4.17-3-6.55-4a14.22,14.22,0,0,1-2.66-1.36A21.51,21.51,0,0,0,118,12.79a10.22,10.22,0,0,1-2.8-.79,8,8,0,0,0-1.86-.51,33.05,33.05,0,0,0-5.6-.59c-.84,0-1.58-.57-2.48-.32a6.86,6.86,0,0,1-3.81-.19,4.82,4.82,0,0,0-2.88-.07c-1.82.62-3.69.25-5.52.57-1.38.24-2.87-.12-4.25.14-3.08.57-6.2.25-9.3.63-2.53.3-5.17,0-7.62.82-2.25.74-4.71.56-6.84,1.89a20.68,20.68,0,0,1-3.86,1.34c-1.21.44-2,1.88-3.6,1.46-.15,0-.4.3-.6.46a3.28,3.28,0,0,1-1.36.73c-1.79.34-3.13,1.57-4.5,2.56-2.26,1.62-4.58,3.18-6.79,4.87a76.68,76.68,0,0,1-6.63,5,5,5,0,0,0-.9,1,10.36,10.36,0,0,1-1.19,1.28,34.59,34.59,0,0,0-7.81,8.07,2.5,2.5,0,0,1-.82.83,4.75,4.75,0,0,0-2,2.57,7.44,7.44,0,0,1-.74,1.36,71.33,71.33,0,0,0-6.25,10,49.89,49.89,0,0,0-3.25,7.9c-.88,2.83-1.45,5.75-2.57,8.51a2,2,0,0,0-.06,1,5.22,5.22,0,0,1-.24,2.12A49.8,49.8,0,0,0,10.2,83.8a22.51,22.51,0,0,1-.45,4.44,10.67,10.67,0,0,0-.2,3.49c.08,1.66.23,3.34.34,5a75,75,0,0,0,1.56,12.1c.54,2.33,1.13,4.66,1.88,6.9,1.18,3.55,1.15,7.46,3.22,10.74.09.16.06.39.13.57,1,2.23,1.6,4.63,3,6.66A8.39,8.39,0,0,1,20.8,136,21.24,21.24,0,0,0,26.08,145c2.14,2,3.84,4.48,6,6.55s4,4.3,6.14,6.35a18.06,18.06,0,0,0,4,3.07,10,10,0,0,1,3.3,2.63,5,5,0,0,1-.52,6.31c-.43.39-1,.75-1.11,1.33a26.22,26.22,0,0,1-1.9,4.26c-1.1,2.5-1.85,5.14-3.22,7.51a33.64,33.64,0,0,0-3.63,7.87,4.29,4.29,0,0,1-.54,1.24c-1.69,2.48-2.7,5.29-4,8a6.25,6.25,0,0,1-.56,1.23c-2.35,2.9-3.33,6.56-5.47,9.61-1.92,2.73-3.36,5.81-5.31,8.55a4,4,0,0,0-1,2,31.93,31.93,0,0,1,3.38-1.39,51,51,0,0,0,6.78-2.31c3.7-1.68,7.56-3,11.12-5s7.22-3.4,10.67-5.52a56.12,56.12,0,0,1,8.85-4.83,2.76,2.76,0,0,0,1.18-.65c1.55-2,4-2.79,6.1-3.63,2.59-1,4.21-3.17,6.55-4.41a11,11,0,0,0,2.44-1.42c1.89-1.74,3.63-3.64,6.08-4.63a2,2,0,0,0,.73-.64,3.74,3.74,0,0,1,2.6-1.86,1.14,1.14,0,0,0,.72-.6,9.31,9.31,0,0,1,2.05-2.32A7.78,7.78,0,0,1,91,179.91a18.82,18.82,0,0,1,6-.53,3,3,0,0,0,1.73-.09,3.35,3.35,0,0,1,2.65-.12,1.61,1.61,0,0,0,1.14.06,9.12,9.12,0,0,1,3.2-.79c.33,0,.69-.16.67-.56-.06-1.24-.63-2.44-.27-3.71-.88-.66-.63-1.78-1.07-2.62-1-2-1.13-4.21-1.56-6.35s-.32-4.66-1-6.91a2.77,2.77,0,0,1-.08-1.34c.3-1.7,0-3.42.16-5.13a13.36,13.36,0,0,0,.17-2.51,44,44,0,0,1,.46-6.88c0-.43.41-.86,0-1.24s-1-.13-1.46.08a15.27,15.27,0,0,1-2.3,1c-2.19.56-4.14,1.71-6.4,2.21-1.44.31-2.87,1-4.41,1.18a14.17,14.17,0,0,0-2.64.66c-2.83,1-5.81,1.11-8.75,1.41a13.64,13.64,0,0,1-5.19-.41,11.17,11.17,0,0,0-3.48-.29A11.35,11.35,0,0,1,63,145.4a28,28,0,0,1-3.53-1.6,16.8,16.8,0,0,1-7.16-11.48,19,19,0,0,1,.87-9.33,26.12,26.12,0,0,1,2.06-4.59c.88-1.52,2.21-2.69,3-4.26a7.88,7.88,0,0,1,2.5-2.88,21.41,21.41,0,0,0,2.51-1.78c2.36-2.23,5.3-3.5,8.19-4.76a26.8,26.8,0,0,1,10.34-2.29c4.47-.06,9,0,13.41.35a1.88,1.88,0,0,1,.92.29,3.17,3.17,0,0,0,2.41.52,2.81,2.81,0,0,1,1.69.35,15.56,15.56,0,0,0,4.12,1.13,8.65,8.65,0,0,1,2.93,1A7.63,7.63,0,0,0,109.64,106.94Z"/><path class="cls-1" d="M231.78,244.38c0-.26.05-.43,0-.51-3-3.75-4.86-8.26-7.56-12.22a29.07,29.07,0,0,1-1.71-3c-1.91-3.68-3.52-7.5-5.57-11.12a54.16,54.16,0,0,1-3.69-9.13,5.36,5.36,0,0,1,1.54-5.84,3,3,0,0,0,.91-1.24c.66-2.22,2.59-3.38,4.2-4.73,1.81-1.52,4.16-2.46,4.86-5.06.07-.27.4-.5.63-.72a23,23,0,0,0,4.08-4.91c1.15-1.94,2.69-3.63,4-5.5.93-1.37,1.64-3,3.22-3.83.29-.16.33-.52.42-.84q1-3.45,2-6.88a37.71,37.71,0,0,0,1.73-8.1c.2-2.46.14-4.9.15-7.35a61.92,61.92,0,0,0-.62-9.22c-.44-3.05-2-5.84-1.89-9-1.11-2.28-1.57-4.84-2.63-7.07-1.61-3.4-2.81-7-4.72-10.24a5.49,5.49,0,0,1-.94-2.75,4.44,4.44,0,0,0-1.57-3.23c-.46-.47-.89-1-1.31-1.44a19.82,19.82,0,0,1-2.21-3c-.61-1-1.87-1.47-2.45-2.43A21.37,21.37,0,0,0,216.71,99a21,21,0,0,1-3.62-2.9c-1.56-1.83-3.74-2.73-5.51-4.21a2.81,2.81,0,0,0-.85-.46c-2.79-1-5.58-1.91-8.38-2.82-2-.67-4.12-1.16-6.09-2-1.28-.52-2.67-.42-3.91-1.07-2.32-1.21-4.91-1-7.42-1.26a1.2,1.2,0,0,0-.75.18A4.15,4.15,0,0,1,177,85a7.68,7.68,0,0,0-4.36.48,3.36,3.36,0,0,1-1.91.22,7.39,7.39,0,0,0-3.61.55c-1.13.33-2.17,1.17-3.25,1.22a8.39,8.39,0,0,0-3.77,1.4,11.23,11.23,0,0,1-1.77.79c-1.77.58-3.39,1.52-5.14,2.19s-3.44,2.25-5.64,2.33a2.66,2.66,0,0,0-1.65,1,11.44,11.44,0,0,1-3.34,2.32c-3.35,1.51-6,4-8.7,6.39a12.41,12.41,0,0,0-2.23,1.84,47.07,47.07,0,0,1-4,4.24,27.63,27.63,0,0,0-3.78,4.18c-1.35,2.24-3.66,3.91-4.06,6.72a15.08,15.08,0,0,0-2.94,6.57c-.57,2.58-1.7,5-2.3,7.62a35,35,0,0,0-1.37,7.14c0,2-1,3.84-.47,5.84-1.3,1.2.21,2.85-.68,4.19-.42.64.52,1.42.17,2.25a4.65,4.65,0,0,0,0,2.69c.74,4.07,1.46,8.14,2.37,12.18a41.65,41.65,0,0,0,1.58,5c.9,2.48,2.67,4.6,3,7.31a2.28,2.28,0,0,0,.36.69l3.66,5.95c1.28,2.09,2.52,4.2,4,6.16a46.28,46.28,0,0,0,6,6c.94.88,2.19,1.57,3.24,2.43,1.54,1.26,3.56,1.87,4.77,3.57a.59.59,0,0,0,.33.18,61.08,61.08,0,0,1,7.11,3.05,11.88,11.88,0,0,0,4.37,1.54,3.94,3.94,0,0,1,2.16.83,3.29,3.29,0,0,0,1.42.58,50.42,50.42,0,0,1,6.12,1.91,37.14,37.14,0,0,0,7.05,2c2.3.28,4.66.12,6.9,1a3.39,3.39,0,0,0,1.92.05,12.56,12.56,0,0,1,3.39-.27c2,.05,3.57,1.2,5.21,2.16a1.31,1.31,0,0,1,.57,1.18,2.26,2.26,0,0,0,1.17,1.92,26.29,26.29,0,0,1,5,4.08,1.81,1.81,0,0,0,.85.43,7.67,7.67,0,0,1,2.2,1.23c1.08.7,2.1,1.52,3.13,2.29,1.85,1.37,4.07,2.28,5.59,4.1a2,2,0,0,0,1.2.63c2.48.44,4.43,2.54,7.14,2.3.2,0,.42.28.66.39a68.26,68.26,0,0,0,7.1,3.17,54.76,54.76,0,0,1,6.89,2.66A7.27,7.27,0,0,0,231.78,244.38Z"/><path class="cls-1" d="M86.61,117.16a17.24,17.24,0,0,0-6,.77,7.37,7.37,0,0,0-3.89,2,11.8,11.8,0,0,1-3.32,2.29c-.22.13-.57.1-.71.26-1.52,1.82-3.19,3.54-4.15,5.74-1.08,2.49.1,4.09,2.35,4,1.55-.08,3.14.73,4.68-.2.2-.11.55.06.77,0,1.8-.72,3.93,0,5.6-1.34a1.15,1.15,0,0,1,.75-.08c2.37.29,4.41-1.21,6.72-1.22a.33.33,0,0,0,.18-.08c2.19-1.33,4.76-1.64,7.12-2.52a39.4,39.4,0,0,0,5-2c1.11-.61,2.09-1.48,3.46-1.55a2.11,2.11,0,0,0,1-.55c.53-.44.45-.9-.13-1.24a5.85,5.85,0,0,0-.91-.34,21.14,21.14,0,0,1-3.57-1.33,6,6,0,0,0-3.5-.91,2.14,2.14,0,0,1-.94,0c-3-1.07-6-2.09-9.21-1.62A7.86,7.86,0,0,1,86.61,117.16Z"/><path d="M249.93,147.07c.07,1.22.16,2.43.23,3.64.1,1.79-.49,3.55-.16,5.36.38,2.18-.47,4.28-.61,6.41a44.86,44.86,0,0,1-1.07,7.41,51.6,51.6,0,0,1-3.45,10.26,3.13,3.13,0,0,1-.7,1.16c-1.63,1.29-2.31,3.24-3.38,4.9-.78,1.21-1.33,2.6-2.16,3.84a108.87,108.87,0,0,1-9.26,11.7,64.67,64.67,0,0,1-4.83,4.52,3.74,3.74,0,0,1-.81.52c-1.36.69-1.48,1-.7,2.32,2.32,3.89,4.29,8,6.35,12a34.7,34.7,0,0,0,2.61,4.74,7.05,7.05,0,0,1,1,2.1,5.3,5.3,0,0,0,1.69,2.78,1.78,1.78,0,0,1,.47.61c2.36,4.9,6.09,8.8,9.43,13a9.54,9.54,0,0,1,1.3,1.92,6.16,6.16,0,0,0,1.56,2.22c2.76,2.28,2.64,5.3,2.1,8.34-.33,1.85-1.61,2.46-3.5,2-.19,0-.38-.18-.56-.16-3.28.37-6.25-1-9.24-1.92a43.86,43.86,0,0,1-9-3.49,3,3,0,0,0-1.49-.4,1.82,1.82,0,0,1-1.13-.18c-1.51-1.08-3.43-1.13-5-2.06-1.36-.81-3-.87-4.44-1.41a43.25,43.25,0,0,1-6.29-3,5.76,5.76,0,0,0-2.17-.82,12.89,12.89,0,0,1-6-2.58c-3.25-2.25-6.51-4.48-9.81-6.66-1.43-1-2.75-2.1-4.2-3.09-1.95-1.33-3.81-2.8-5.68-4.25a3.9,3.9,0,0,0-3.15-.63,9.05,9.05,0,0,1-2.32.08A53.46,53.46,0,0,1,162,225.86c-1.69-.57-3.42-1.13-5.08-1.87a31,31,0,0,0-4.79-1.49c-2.81-.73-5.47-1.88-8.24-2.71a14.6,14.6,0,0,1-4.13-2.13c-1.74-1.25-3.69-2.12-5.48-3.29a75.54,75.54,0,0,1-7.09-5.08,6.51,6.51,0,0,1-1.16-1.3c-.33-.48-.72-1.12-1.26-1.17-1.39-.13-1.85-1.26-2.54-2.12-1.55-1.91-3-3.89-4.53-5.81-.51-.62-.68-1.4-1.14-2a5.26,5.26,0,0,0-.51-.83c-2.28-2.24-3.36-5.18-4.67-8a1.26,1.26,0,0,0-1.51-.89,1.12,1.12,0,0,0-.37.09c-2.13,1.3-4.56.74-6.84,1.13a3.26,3.26,0,0,1-1.54.08c-1.85-.64-3.59.47-5.4.23-.41-.06-.71.23-1,.55a12.52,12.52,0,0,1-4.64,3.7,5.36,5.36,0,0,0-1.67,1.3c-1.68,1.81-3.93,2.88-5.88,4.3s-3.79,3-5.86,4.34c-1.58,1-3.62,1.52-4.73,3.28-.21.34-.75.49-1.16.68a11.66,11.66,0,0,0-2.89,1.95,23.37,23.37,0,0,1-5,3,65,65,0,0,1-8.41,4,2.27,2.27,0,0,0-1,.58c-.91,1.23-2.39,1.52-3.61,2.15s-2.23,1-3.35,1.55a138.66,138.66,0,0,1-16,6.28c-1.06.34-2.23.23-3.25.54a85.41,85.41,0,0,0-8.73,2.68,55.45,55.45,0,0,1-5.87,2.11A11.92,11.92,0,0,1,7,231.53a1,1,0,0,1-.82-1c-.45-2.45-.92-4.89-.22-7.39a8.27,8.27,0,0,1,1.56-2.44A7.53,7.53,0,0,0,8.72,219a9.08,9.08,0,0,1,2.39-3.52,7.74,7.74,0,0,0,1.54-2.23c1.88-3.94,4.59-7.36,6.91-11A44.49,44.49,0,0,0,23,195.72c1.11-2.67,1.94-5.53,3.91-7.78a3.34,3.34,0,0,0,.56-1.44,4,4,0,0,1,.67-1.81c1.06-1,1.26-2.37,1.74-3.61a9.69,9.69,0,0,1,1.43-2.52c1.18-1.49,1.53-3.41,2.31-5.11.6-1.3.95-2.71,1.56-4a1.55,1.55,0,0,0-.54-2.18c-.52-.4-1.1-.71-1.6-1.1A57.16,57.16,0,0,1,26,159.25c-1.59-1.72-3.29-3.3-4.94-4.95a13.85,13.85,0,0,1-3.14-3.92,2.48,2.48,0,0,0-.58-.78c-1.74-1.59-2.47-3.75-3.45-5.79-1.86-3.85-3.08-8-5.32-11.66A6.32,6.32,0,0,1,8,130.91c-1.09-3.38-2.14-6.78-3.26-10.16s-1.61-6.63-2.58-9.87c-1.09-3.63-.92-7.39-1.79-11C.88,97.39,0,95,0,92.48s0-5.06.24-7.55a104.16,104.16,0,0,1,2-12.62A50,50,0,0,1,4.05,65c.81-2.13,1.13-4.4,2-6.51.51-1.28,1.32-2.44,1.85-3.71.44-1.07.74-2.18,1.28-3.23,1.85-3.57,3.83-7,6-10.46A75.58,75.58,0,0,1,23.55,30.4a22.91,22.91,0,0,1,4.77-4.28,2.26,2.26,0,0,0,1-.92A8.11,8.11,0,0,1,32,22.39a48.31,48.31,0,0,0,5.85-5.12,1.71,1.71,0,0,1,.62-.44,20.1,20.1,0,0,0,4.21-2.7A40.81,40.81,0,0,1,51.54,9a37.75,37.75,0,0,0,3.74-1.93A44.13,44.13,0,0,1,63.17,4c1.31-.44,2.78-.28,4.13-.76A33,33,0,0,1,73.54,2a20.38,20.38,0,0,1,5-.57,10.19,10.19,0,0,0,2.33-.19,4.26,4.26,0,0,1,2.84.07,1,1,0,0,0,.77.06c2.35-1,4.87-.24,7.3-.67A27.38,27.38,0,0,1,97,.27,6.72,6.72,0,0,0,99.88.08c.12,0,.3-.11.38-.06,2.4,1.39,5.17-.66,7.56.82a1.2,1.2,0,0,0,1,.05c1.6-.64,3.22.08,4.82-.12a1.89,1.89,0,0,1,1.08.4c.28.16.68.47.87.38,1.75-.81,3,1,4.55.87s3,.89,4.54,1a2,2,0,0,1,1.27.44c1.11,1.3,2.7,1.46,4.16,1.94A14.26,14.26,0,0,1,134,7.94a69,69,0,0,0,8.65,5.12,44.76,44.76,0,0,1,7.1,4.7c2,1.57,3.79,3.31,5.79,4.82,1.28,1,2.74,1.71,3.48,3.28a3.1,3.1,0,0,0,1.2,1.26c2.52,1.5,3.78,4.14,5.71,6.17a33.75,33.75,0,0,1,4.62,7.15A38.44,38.44,0,0,1,173,44.61c.71,1.72,1.7,3.33,2.44,5.06,1.15,2.65,2,5.43,3.4,8a21,21,0,0,1,1.58,4.94A5.78,5.78,0,0,0,181,64a18.7,18.7,0,0,1,2,6c.26,1.23.91,2.31.82,3.7-.07,1.12,1.23,1.36,2.22,1.43a17.09,17.09,0,0,1,4.18.7c2.25.76,4.6,1.21,6.82,2s4.4.88,6.49,1.77c.8.33,1.37,1,2.2,1.21,1.24.33,2.49.68,3.71,1A16.94,16.94,0,0,1,216,85.36a15.09,15.09,0,0,0,3.08,2.34,17.22,17.22,0,0,1,3.08,2.61c2.34,2,5.25,3.4,6.91,6.15.39.64,1.19.84,1.61,1.41,1.89,2.56,4.32,4.71,5.8,7.61.88,1.72,1.43,3.63,2.76,5.13.45.51.37,1.23.56,1.84a65.78,65.78,0,0,0,3.49,7.93,74.28,74.28,0,0,1,3.12,8.32c1,2.91,1.43,5.91,2.19,8.85A53.43,53.43,0,0,1,249.93,147.07ZM109.64,106.94a2.19,2.19,0,0,0,.22-1.42c-.22-1.85-.57-3.68-.76-5.54-.35-3.36-1.15-6.68-1.78-10a5.26,5.26,0,0,0-.56-1.66,6.49,6.49,0,0,1-.94-2.75A9.88,9.88,0,0,0,104,80.2c-1-1.32-1.21-3-2.14-4.34-2.07-2.94-4.41-5.45-8.26-5.92a10.6,10.6,0,0,1-2.23-.68A2.34,2.34,0,0,0,90.28,69c-2.17.31-4.33-.34-6.54.06a14.51,14.51,0,0,0-5.91,2.1c-1.37,1-2.65,2.23-4,3.36-1.48,1.28-2.46,3-3.84,4.38a10.86,10.86,0,0,0-2.78,4.39c-.43,1.32-.65,1.37-1.75.54-2.85-2.15-5.68-4.33-8.51-6.5-1.47-1.12-1.47-1.54-.67-3.23a42,42,0,0,1,5.56-8.39c.85-1.05,1.92-1.88,2.75-3s2.25-1.64,3.44-2.29c1.64-.91,3-2.15,4.74-3s3.38-1.85,5.15-2.66c1.18-.54,2.51-.21,3.56-.65a13.54,13.54,0,0,1,3.92-.87,38.14,38.14,0,0,1,10-.17c.64.11,1.19-.51,1.84,0,1.64,1.36,4.08.59,5.68,2.09,1.41-.55,2,.6,2.66,1.38a3.75,3.75,0,0,0,1.62,1.06c2.59.9,3.87,3.32,5.63,5.11,1.33,1.37,1.88,3.48,2.92,5.17.71,1.16,1.17,2.46,1.93,3.56a18.57,18.57,0,0,1,2.78,7.13,43.76,43.76,0,0,0,1,4.52,26.77,26.77,0,0,1,1.17,6.78c.09,2.8.35,5.6.53,8.4,0,.54.34,1.07.81.68,1.12-.89,2.67-1.35,3.35-2.61A8.68,8.68,0,0,1,130,93.61c.83-.63,1.68-1.23,2.45-1.93s1.48-1.61,2.79-1.34c.39.08.69-.27,1-.53a7,7,0,0,1,3.32-1.94c.4-.06.76-.46,1.13-.72a37.41,37.41,0,0,1,7.69-4.05c1.5-.6,3.4-.7,4.51-1.69C155,79.53,158,80,160,78.28c1.43,0,2.62-.67,3.9-1.11a11.6,11.6,0,0,1,3.63-.66,39.79,39.79,0,0,0,4.08-.08c.9-.11,1.19-.35,1.19-1.3a13.17,13.17,0,0,0-1-4.3c-.85-2.47-1.64-4.94-2.55-7.38-.78-2.12-2.06-4.05-2.45-6.32a1.11,1.11,0,0,0-.16-.35,19.82,19.82,0,0,1-2.46-5.2,24.39,24.39,0,0,0-4.56-8,12.15,12.15,0,0,1-.64-1.19c-1.13-1.64-2.27-3.28-3.45-4.89-.37-.51-1.18-.61-1.45-1.26-.86-2.06-2.94-3.08-4.1-4.86-.57-.88-1.76-.64-2.26-1.38-1.31-1.92-3.84-2.34-5.11-4.28a.84.84,0,0,0-.5-.28c-2.3-.47-3.8-2.32-5.71-3.46-2.19-1.3-4.17-3-6.55-4a14.22,14.22,0,0,1-2.66-1.36A21.51,21.51,0,0,0,118,12.79a10.22,10.22,0,0,1-2.8-.79,8,8,0,0,0-1.86-.51,33.05,33.05,0,0,0-5.6-.59c-.84,0-1.58-.57-2.48-.32a6.86,6.86,0,0,1-3.81-.19,4.82,4.82,0,0,0-2.88-.07c-1.82.62-3.69.25-5.52.57-1.38.24-2.87-.12-4.25.14-3.08.57-6.2.25-9.3.63-2.53.3-5.17,0-7.62.82-2.25.74-4.71.56-6.84,1.89a20.68,20.68,0,0,1-3.86,1.34c-1.21.44-2,1.88-3.6,1.46-.15,0-.4.3-.6.46a3.28,3.28,0,0,1-1.36.73c-1.79.34-3.13,1.57-4.5,2.56-2.26,1.62-4.58,3.18-6.79,4.87a76.68,76.68,0,0,1-6.63,5,5,5,0,0,0-.9,1,10.36,10.36,0,0,1-1.19,1.28,34.59,34.59,0,0,0-7.81,8.07,2.5,2.5,0,0,1-.82.83,4.75,4.75,0,0,0-2,2.57,7.44,7.44,0,0,1-.74,1.36,71.33,71.33,0,0,0-6.25,10,49.89,49.89,0,0,0-3.25,7.9c-.88,2.83-1.45,5.75-2.57,8.51a2,2,0,0,0-.06,1,5.22,5.22,0,0,1-.24,2.12A49.8,49.8,0,0,0,10.2,83.8a22.51,22.51,0,0,1-.45,4.44,10.67,10.67,0,0,0-.2,3.49c.08,1.66.23,3.34.34,5a75,75,0,0,0,1.56,12.1c.54,2.33,1.13,4.66,1.88,6.9,1.18,3.55,1.15,7.46,3.22,10.74.09.16.06.39.13.57,1,2.23,1.6,4.63,3,6.66A8.39,8.39,0,0,1,20.8,136,21.24,21.24,0,0,0,26.08,145c2.14,2,3.84,4.48,6,6.55s4,4.3,6.14,6.35a18.06,18.06,0,0,0,4,3.07,10,10,0,0,1,3.3,2.63,5,5,0,0,1-.52,6.31c-.43.39-1,.75-1.11,1.33a26.22,26.22,0,0,1-1.9,4.26c-1.1,2.5-1.85,5.14-3.22,7.51a33.64,33.64,0,0,0-3.63,7.87,4.29,4.29,0,0,1-.54,1.24c-1.69,2.48-2.7,5.29-4,8a6.25,6.25,0,0,1-.56,1.23c-2.35,2.9-3.33,6.56-5.47,9.61-1.92,2.73-3.36,5.81-5.31,8.55a4,4,0,0,0-1,2,31.93,31.93,0,0,1,3.38-1.39,51,51,0,0,0,6.78-2.31c3.7-1.68,7.56-3,11.12-5s7.22-3.4,10.67-5.52a56.12,56.12,0,0,1,8.85-4.83,2.76,2.76,0,0,0,1.18-.65c1.55-2,4-2.79,6.1-3.63,2.59-1,4.21-3.17,6.55-4.41a11,11,0,0,0,2.44-1.42c1.89-1.74,3.63-3.64,6.08-4.63a2,2,0,0,0,.73-.64,3.74,3.74,0,0,1,2.6-1.86,1.14,1.14,0,0,0,.72-.6,9.31,9.31,0,0,1,2.05-2.32A7.78,7.78,0,0,1,91,179.91a18.82,18.82,0,0,1,6-.53,3,3,0,0,0,1.73-.09,3.35,3.35,0,0,1,2.65-.12,1.61,1.61,0,0,0,1.14.06,9.12,9.12,0,0,1,3.2-.79c.33,0,.69-.16.67-.56-.06-1.24-.63-2.44-.27-3.71-.88-.66-.63-1.78-1.07-2.62-1-2-1.13-4.21-1.56-6.35s-.32-4.66-1-6.91a2.77,2.77,0,0,1-.08-1.34c.3-1.7,0-3.42.16-5.13a13.36,13.36,0,0,0,.17-2.51,44,44,0,0,1,.46-6.88c0-.43.41-.86,0-1.24s-1-.13-1.46.08a15.27,15.27,0,0,1-2.3,1c-2.19.56-4.14,1.71-6.4,2.21-1.44.31-2.87,1-4.41,1.18a14.17,14.17,0,0,0-2.64.66c-2.83,1-5.81,1.11-8.75,1.41a13.64,13.64,0,0,1-5.19-.41,11.17,11.17,0,0,0-3.48-.29A11.35,11.35,0,0,1,63,145.4a28,28,0,0,1-3.53-1.6,16.8,16.8,0,0,1-7.16-11.48,19,19,0,0,1,.87-9.33,26.12,26.12,0,0,1,2.06-4.59c.88-1.52,2.21-2.69,3-4.26a7.88,7.88,0,0,1,2.5-2.88,21.41,21.41,0,0,0,2.51-1.78c2.36-2.23,5.3-3.5,8.19-4.76a26.8,26.8,0,0,1,10.34-2.29c4.47-.06,9,0,13.41.35a1.88,1.88,0,0,1,.92.29,3.17,3.17,0,0,0,2.41.52,2.81,2.81,0,0,1,1.69.35,15.56,15.56,0,0,0,4.12,1.13,8.65,8.65,0,0,1,2.93,1A7.63,7.63,0,0,0,109.64,106.94ZM231.78,244.38c0-.26.05-.43,0-.51-3-3.75-4.86-8.26-7.56-12.22a29.07,29.07,0,0,1-1.71-3c-1.91-3.68-3.52-7.5-5.57-11.12a54.16,54.16,0,0,1-3.69-9.13,5.36,5.36,0,0,1,1.54-5.84,3,3,0,0,0,.91-1.24c.66-2.22,2.59-3.38,4.2-4.73,1.81-1.52,4.16-2.46,4.86-5.06.07-.27.4-.5.63-.72a23,23,0,0,0,4.08-4.91c1.15-1.94,2.69-3.63,4-5.5.93-1.37,1.64-3,3.22-3.83.29-.16.33-.52.42-.84q1-3.45,2-6.88a37.71,37.71,0,0,0,1.73-8.1c.2-2.46.14-4.9.15-7.35a61.92,61.92,0,0,0-.62-9.22c-.44-3.05-2-5.84-1.89-9-1.11-2.28-1.57-4.84-2.63-7.07-1.61-3.4-2.81-7-4.72-10.24a5.49,5.49,0,0,1-.94-2.75,4.44,4.44,0,0,0-1.57-3.23c-.46-.47-.89-1-1.31-1.44a19.82,19.82,0,0,1-2.21-3c-.61-1-1.87-1.47-2.45-2.43A21.37,21.37,0,0,0,216.71,99a21,21,0,0,1-3.62-2.9c-1.56-1.83-3.74-2.73-5.51-4.21a2.81,2.81,0,0,0-.85-.46c-2.79-1-5.58-1.91-8.38-2.82-2-.67-4.12-1.16-6.09-2-1.28-.52-2.67-.42-3.91-1.07-2.32-1.21-4.91-1-7.42-1.26a1.2,1.2,0,0,0-.75.18A4.15,4.15,0,0,1,177,85a7.68,7.68,0,0,0-4.36.48,3.36,3.36,0,0,1-1.91.22,7.39,7.39,0,0,0-3.61.55c-1.13.33-2.17,1.17-3.25,1.22a8.39,8.39,0,0,0-3.77,1.4,11.23,11.23,0,0,1-1.77.79c-1.77.58-3.39,1.52-5.14,2.19s-3.44,2.25-5.64,2.33a2.66,2.66,0,0,0-1.65,1,11.44,11.44,0,0,1-3.34,2.32c-3.35,1.51-6,4-8.7,6.39a12.41,12.41,0,0,0-2.23,1.84,47.07,47.07,0,0,1-4,4.24,27.63,27.63,0,0,0-3.78,4.18c-1.35,2.24-3.66,3.91-4.06,6.72a15.08,15.08,0,0,0-2.94,6.57c-.57,2.58-1.7,5-2.3,7.62a35,35,0,0,0-1.37,7.14c0,2-1,3.84-.47,5.84-1.3,1.2.21,2.85-.68,4.19-.42.64.52,1.42.17,2.25a4.65,4.65,0,0,0,0,2.69c.74,4.07,1.46,8.14,2.37,12.18a41.65,41.65,0,0,0,1.58,5c.9,2.48,2.67,4.6,3,7.31a2.28,2.28,0,0,0,.36.69l3.66,5.95c1.28,2.09,2.52,4.2,4,6.16a46.28,46.28,0,0,0,6,6c.94.88,2.19,1.57,3.24,2.43,1.54,1.26,3.56,1.87,4.77,3.57a.59.59,0,0,0,.33.18,61.08,61.08,0,0,1,7.11,3.05,11.88,11.88,0,0,0,4.37,1.54,3.94,3.94,0,0,1,2.16.83,3.29,3.29,0,0,0,1.42.58,50.42,50.42,0,0,1,6.12,1.91,37.14,37.14,0,0,0,7.05,2c2.3.28,4.66.12,6.9,1a3.39,3.39,0,0,0,1.92.05,12.56,12.56,0,0,1,3.39-.27c2,.05,3.57,1.2,5.21,2.16a1.31,1.31,0,0,1,.57,1.18,2.26,2.26,0,0,0,1.17,1.92,26.29,26.29,0,0,1,5,4.08,1.81,1.81,0,0,0,.85.43,7.67,7.67,0,0,1,2.2,1.23c1.08.7,2.1,1.52,3.13,2.29,1.85,1.37,4.07,2.28,5.59,4.1a2,2,0,0,0,1.2.63c2.48.44,4.43,2.54,7.14,2.3.2,0,.42.28.66.39a68.26,68.26,0,0,0,7.1,3.17,54.76,54.76,0,0,1,6.89,2.66A7.27,7.27,0,0,0,231.78,244.38ZM86.61,117.16a17.24,17.24,0,0,0-6,.77,7.37,7.37,0,0,0-3.89,2,11.8,11.8,0,0,1-3.32,2.29c-.22.13-.57.1-.71.26-1.52,1.82-3.19,3.54-4.15,5.74-1.08,2.49.1,4.09,2.35,4,1.55-.08,3.14.73,4.68-.2.2-.11.55.06.77,0,1.8-.72,3.93,0,5.6-1.34a1.15,1.15,0,0,1,.75-.08c2.37.29,4.41-1.21,6.72-1.22a.33.33,0,0,0,.18-.08c2.19-1.33,4.76-1.64,7.12-2.52a39.4,39.4,0,0,0,5-2c1.11-.61,2.09-1.48,3.46-1.55a2.11,2.11,0,0,0,1-.55c.53-.44.45-.9-.13-1.24a5.85,5.85,0,0,0-.91-.34,21.14,21.14,0,0,1-3.57-1.33,6,6,0,0,0-3.5-.91,2.14,2.14,0,0,1-.94,0c-3-1.07-6-2.09-9.21-1.62A7.86,7.86,0,0,1,86.61,117.16Z"/><path d="M123.94,31.25a1.8,1.8,0,0,1-1.25,1.42c-2.56.92-4.92,2.27-7.48,3.18-3,1.09-5.68,3-8.6,4.33-2.48,1.12-4.7,2.69-7.21,3.74a1.72,1.72,0,0,1-1.83-.06c-1.81-1.27-3.79-2.25-5.67-3.4-1.39-.86-1.47-1.52-.34-2.82a36.65,36.65,0,0,1,4.8-4.26c.2-.16.51-.22.66-.41,1.68-2.25,4.2-3.56,6.16-5.49a25.12,25.12,0,0,1,5.65-4.1A9,9,0,0,0,111.58,21a2.85,2.85,0,0,1,2.16-1.17,2,2,0,0,1,1.88.76c2.57,3.26,5.19,6.48,7.8,9.72A2.13,2.13,0,0,1,123.94,31.25Z"/><path d="M176.43,182.78a14.59,14.59,0,0,0-6,.2,22,22,0,0,0-5.14,1.59c-1.67.84-3.64,1.79-3.91,4.16a1.49,1.49,0,0,0,.72,1.66,11.13,11.13,0,0,0,6.63,1.69c2.25-.19,4.41-1.13,6.72-.76A3.18,3.18,0,0,0,177,191c3.09-1.17,6-2.71,9.23-3.6a15.56,15.56,0,0,0,3.26-1.74,3.22,3.22,0,0,1,2.05-.45,8.13,8.13,0,0,0,2.91-.13,2.43,2.43,0,0,1,2.42.86,8,8,0,0,1,1.77,3.21c.52,1.78-.57,3.13-1.63,4.34a3.32,3.32,0,0,1-2.7,1.36c-.31,0-.8,0-.91.2-1,1.68-2.89,1.16-4.26,1.88a11.72,11.72,0,0,1-4.7,1.13c-1.09.08-1.87,1-2.94,1.34s-2.09.65-3.14,1a36.58,36.58,0,0,1-11.33,1.3,19.6,19.6,0,0,1-7.83-1.69c-1.55-.75-3.34-1-4.31-2.66-.68-1.17-1.24-2.43-2-3.54a9.2,9.2,0,0,1-1-7.87c.61-2.28,1.45-4.73,3.87-6a6.13,6.13,0,0,0,1.64-1.65,5.34,5.34,0,0,1,2.7-1.79c2.58-.86,5.13-1.79,7.7-2.68a3.09,3.09,0,0,1,1.31-.28c1.59.2,3.06-.52,4.62-.47a1.68,1.68,0,0,0,1.2-.56c.51-.46,0-.81-.18-1.2a1.75,1.75,0,0,1,.05-1.13,12.33,12.33,0,0,0,.28-1.72,1.71,1.71,0,0,0-1.28-2.09,8,8,0,0,0-2.8-.68,10.21,10.21,0,0,1-4.78-1.48c-3.17-1.69-6.37-3.46-8.79-6.28a13,13,0,0,1-1.47-2.93c-.88-1.78-1.89-3.49-2.63-5.36s-.52-4-.73-5.91a22.4,22.4,0,0,1,1.81-10.78c1.3-3.26,2.77-6.6,5.76-8.86a4.63,4.63,0,0,0,.87-1,8.78,8.78,0,0,1,2.57-2.36,14.22,14.22,0,0,0,3.91-2.86,2.32,2.32,0,0,1,1.17-.66,18.32,18.32,0,0,0,4.92-2.26,15.23,15.23,0,0,1,4.07-1.27c2.68-.68,5.38-1.51,8.22-1.17a22.35,22.35,0,0,0,4.84.09,13.72,13.72,0,0,1,4.39.66,29.17,29.17,0,0,1,4,1.42c1.42.57,1.75,1.32,1.26,2.79-.76,2.28-1.52,4.56-2.39,6.79-.52,1.34-1,2.69-1.38,4.06-.65,2.1-1.52,2.47-3.65,1.66a16.35,16.35,0,0,0-8.39-1c-2.35.36-4.69.82-7,1.22a2.42,2.42,0,0,0-1.18.63c-.36.28-.69.67-1.16.69-1.79.08-2.69,1.41-3.68,2.59a35.83,35.83,0,0,0-2.52,3.2,9.69,9.69,0,0,0-1.33,6.88c.24,1.88,2.47,3.91,4.38,4.26a6,6,0,0,1,1.14.21c2.42,1,5,1,7.54,1.19a8.58,8.58,0,0,1,3,.52c.28.13.73.25.94.11,1.54-1,3.37-.77,5-1.21a26.89,26.89,0,0,1,7.84-1.07,1.19,1.19,0,0,1,1.26.92c.59,1.72,1.26,3.41,1.79,5.15.67,2.23,1.21,4.51,2,6.7.41,1.09.09,1.28-.94,1.83-1.81.95-4,.95-5.62,2.34a.79.79,0,0,1-.5.23c-1.77-.26-3.3.54-4.89,1.06a23.59,23.59,0,0,1-5.15.72c-.83.07-1,.3-1.05,1.15a36.45,36.45,0,0,0,.17,7.46,10.16,10.16,0,0,1-.59,4c-.51,1.69-2.9,3.14-4.77,3.13Z"/></g></g></svg>