<svg viewBox="0 0 255 214" xmlns="http://www.w3.org/2000/svg">
  <path
    d="M10.72,194.68 C10.31,196.17 11.11,197.44 10.99,198.82 C10.89,199.97 11.19,200.12 12.39,200 C14.8330187,199.798206 17.2907164,199.861912 19.72,200.19 C20.24,200.25 20.72,200.48 21.25,200.25 C22.2416602,199.91589 23.3034587,199.846942 24.33,200.05 C26.01,200.17 27.71,200.11 29.33,200.26 C33.87,200.68 38.42,200.31 42.95,200.74 C45.64,201 48.35,201 51.05,201.15 C52.05,201.15 52.97,200.97 53.96,200.99 C56.02,200.99 57.96,201.8 60.12,201.49 C61.2767342,201.338219 62.444825,201.291362 63.61,201.35 C66.33,201.45 69.02,201.77 71.75,201.79 C74.05,201.79 76.35,201.73 78.66,201.84 C80.76,201.94 82.91,202.02 85.04,201.95 C85.9341675,202.089183 86.835704,202.175997 87.74,202.21 C91.19,201.65 94.58,202.36 97.99,202.48 C99.61,202.54 101.31,202.99 102.83,202.64 C105.62,201.99 108.34,203.34 111.08,202.57 C111.471735,202.548196 111.861231,202.642093 112.2,202.84 C112.553336,202.998745 112.933143,203.090306 113.32,203.11 C115.56,203.11 117.8,202.98 120.02,202.86 C122.24,202.74 124.52,203.42 126.8,203.07 C127.83274,202.953446 128.876919,202.987129 129.9,203.17 C132.52,203.55 135.18,202.99 137.79,203.62 C137.915889,203.639848 138.044111,203.639848 138.17,203.62 C139.53,203.48 139.85,203.17 139.87,201.78 C139.87,200.1 139.63,198.41 140.07,196.78 C140.215408,196.147509 140.27594,195.498471 140.25,194.85 C140.25,191.69 139.97,188.54 140.25,185.38 C140.34,184.38 139.92,183.44 139.99,182.49 C140.207679,179.82907 140.254441,177.156917 140.13,174.49 C140.02,172.56 140.13,170.63 140.04,168.7 C139.95,166.77 140.46,164.76 140.23,162.7 C140.029963,159.406368 140.029963,156.103632 140.23,152.81 C140.29,148.69 140.23,144.56 140.51,140.44 C140.72,137.24 140.64,134.02 140.68,130.82 C140.68,129.33 140.79,127.82 140.68,126.37 C140.6,124.63 140.04,122.91 140.62,121.15 C140.689188,120.700445 140.668797,120.241645 140.56,119.8 C140.48,118.89 140.31,117.99 140.29,117.09 C140.046723,113.054282 140.163853,109.004908 140.64,104.99 C140.8,103.99 141.26,102.87 140.95,101.99 C140.44,100.53 140.7,99.06 140.51,97.61 C140.304379,95.5116858 140.354748,93.3961506 140.66,91.31 C140.94,88.86 140.03,86.41 140.9,84.02 C140.11,81.43 140.7,78.81 140.73,76.2 C140.73,74.74 140.39,73.2 141.14,71.82 C140.5,70.61 140.83,69.23 140.87,68.05 C140.95,65.6 141.01,63.17 140.97,60.71 C140.832238,59.7147446 140.832238,58.7052554 140.97,57.71 C141.62,55.38 141.22,53.06 140.97,50.8 C140.72,48.37 141.87,45.96 140.9,43.57 C140.9,43.51 140.9,43.44 140.9,43.38 C141.519691,41.7661983 141.494626,39.9758213 140.83,38.38 C140.60351,37.7929591 140.666486,37.1335574 141,36.6 C141.248155,36.001605 141.30066,35.3400469 141.15,34.71 C140.721338,31.8830361 140.758496,29.0049547 141.26,26.19 C141.340153,25.8108566 141.340153,25.4191434 141.26,25.04 C141.050722,24.1467174 141.08875,23.2132982 141.37,22.34 C141.723081,20.7538693 141.657605,19.1031807 141.18,17.55 C141.16305,17.3182184 141.035265,17.1088704 140.836864,16.9878457 C140.638463,16.866821 140.393845,16.8490031 140.18,16.94 C137.42,17.59 134.65,16.85 131.88,16.94 C130.028769,16.9762624 128.177327,16.8793457 126.34,16.65 C124.474184,16.4445317 122.595946,16.3743484 120.72,16.44 C118.72,16.49 116.72,15.93 114.72,16.12 C112.422412,16.3801859 110.105228,16.4203683 107.8,16.24 C106.274261,16.0524957 104.736669,15.9789587 103.2,16.02 C100.77,16.15 98.34,16.15 95.92,16.09 C93.7239268,15.9246924 91.5197641,15.8946356 89.32,16 C85.9693098,16.3078135 82.6042402,16.4313329 79.24,16.37 C78.36,16.37 77.44,16.29 76.58,16.21 C75.0478988,16.0897128 73.5076608,16.2941692 72.06,16.81 C71.6236008,16.9664653 71.1463992,16.9664653 70.71,16.81 C69.820801,16.610542 68.9111957,16.5165607 68,16.53 C66.12,16.27 64.25,16.67 62.39,16.36 C60.9796239,16.1235128 59.5493999,16.0263781 58.12,16.07 C56.96,16.07 55.79,16.28 54.65,16.24 C50.9,16.09 47.18,15.4 43.4,15.59 C43.13992,15.6105079 42.8783401,15.5799337 42.63,15.5 C41.07,14.98 39.41,15.1 37.81,14.8 C36.5976223,14.5689338 35.3585172,14.5116925 34.13,14.63 C32.1507283,14.8993372 30.1406648,14.8419068 28.18,14.46 C26.8,14.14 25.38,14.8 24.06,14.07 C23.9,13.98 23.54,14.07 23.33,14.24 C22.6153292,14.5603257 21.8086165,14.6100789 21.06,14.38 C19,14.12 16.97,13.62 14.86,13.94 C14.06,14.06 13.76,14.35 13.64,15.12 C13.45,16.41 13.64,17.7 13.53,18.98 C13.38,21.98 12.96,24.98 13.31,27.98 C13.63,30.62 13.06,33.19 13.25,35.83 C13.282222,37.9990963 13.1619255,40.1677747 12.89,42.32 C12.79,43.86 13.11,45.39 12.89,46.94 C12.676269,47.6069503 12.5551375,48.3000916 12.53,49 C12.84,52.08 12.26,55.16 12.45,58.27 C12.62,61.12 12.3,64 12.45,66.88 C12.6,69.76 12.31,72.64 12.45,75.51 C12.5,76.8 12,78 12,79.12 C12.2411935,81.0011395 12.3813946,82.8938539 12.42,84.79 C12.35,86.79 12.49,88.79 12.42,90.79 C12.3600692,91.9292123 12.3600692,93.0707877 12.42,94.21 C12.5098818,95.7386799 12.5098818,97.2713201 12.42,98.8 C12.4506549,100.429094 12.3469705,102.057942 12.11,103.67 C11.7200652,105.021467 11.8083671,106.466086 12.36,107.76 C12.5930864,108.448584 12.5682116,109.198379 12.29,109.87 C12.1210237,110.361793 12.0430839,110.880262 12.06,111.4 C12.43,114.69 11.77,117.95 11.78,121.23 C11.78,124.73 11.35,128.23 11.27,131.74 C11.16,136.37 10.91,141.01 10.87,145.65 C10.87,147 10.41,148.29 10.49,149.65 C10.6664757,150.395173 10.7735993,151.155081 10.81,151.92 C10.31,155.62 10.73,159.35 10.59,163.06 C10.46,166.38 10.82,169.71 10.59,173.06 C10.5,174.32 9.95,175.63 10.46,176.89 C10.8234831,178.008275 10.8753411,179.204464 10.61,180.35 C10.5265938,180.993112 10.4931603,181.641721 10.51,182.29 C10.51,184.36 10.59,186.43 10.51,188.5 C10.43,190.57 10.21,192.7 10.72,194.68 Z"
    fill="#FFFFFF"
  />
  <path
    d="M222.16,194 C222.211463,192.877768 222.161258,191.753182 222.01,190.64 C222.01,189.86 221.51,189.74 221.01,190.12 C219.59,191.12 217.85,191.65 216.6,192.95 C216.110365,193.474846 215.518121,193.8935 214.86,194.18 C213.125152,194.885169 211.452605,195.734823 209.86,196.72 C208.589506,197.566133 206.973984,197.702018 205.58,197.08 C203.656873,196.160439 201.985696,194.787809 200.71,193.08 C199.895571,192.227145 199.283756,191.201757 198.92,190.08 C198.837966,189.688749 198.626618,189.336501 198.32,189.08 C196.61,187.68 196.2,185.57 195.45,183.68 C195.060108,182.497989 195.060108,181.222011 195.45,180.04 C195.60435,179.170804 196.357224,178.535698 197.24,178.53 C198.533735,178.423225 199.832298,178.386505 201.13,178.42 C202.390044,178.360543 203.544911,179.119686 203.99,180.3 C204.308308,181.233285 204.900792,182.048822 205.69,182.64 C206.442602,183.140838 207.019573,183.864674 207.34,184.71 C207.519909,185.125782 207.774058,185.505311 208.09,185.83 C208.293128,186.123958 208.619446,186.308982 208.975993,186.332362 C209.332539,186.355742 209.680225,186.214915 209.92,185.95 C211.33,184.82 212.92,183.95 214.37,182.84 C216.61,181.07 219.08,179.62 221.37,177.91 C222.028283,177.462447 222.406927,176.705158 222.37,175.91 C222.275864,173.188079 222.534684,170.46543 223.14,167.81 C223.43,166.61 223.26,166.48 222.14,166.29 C220.272984,166.092946 218.388807,166.126532 216.53,166.39 C212.869668,166.654196 209.198372,166.734297 205.53,166.63 C203.66,166.63 201.85,166.05 199.99,166.14 C198.887354,166.211283 197.78073,166.089453 196.72,165.78 C196.156045,165.629162 195.573664,165.558469 194.99,165.57 C192.407213,165.605044 189.825732,165.434506 187.27,165.06 C185.62,164.78 185.27,164.98 185.22,166.62 C185.14991,167.067271 185.14991,167.522729 185.22,167.97 C185.575844,169.628641 185.663623,171.333585 185.48,173.02 C185.38,174.96 185.2,176.9 185.25,178.85 C185.32,181.62 184.96,184.37 184.97,187.15 C184.97,190.15 185.11,193.08 184.97,196.05 C184.88,197.96 185.26,199.89 184.88,201.82 C184.79,202.28 184.88,202.95 185.48,202.82 C186.77,202.48 187.89,203.3 189.12,203.16 C191.7,202.85 194.3,203.62 196.88,203.01 C197.268877,202.947917 197.667376,202.99643 198.03,203.15 C198.783097,203.332854 199.555028,203.426828 200.33,203.43 C201.690703,203.408911 203.046514,203.261613 204.38,202.99 C206.71,202.79 209.01,203.28 211.31,203.18 C213.88,203.08 216.5,203.46 219.04,202.78 C219.284299,202.704498 219.545701,202.704498 219.79,202.78 C221,203.35 221.24,202.6 221.46,201.66 C222,199.2 222.71,196.66 222.16,194 Z"
    fill="#FFFFFF"
  />
  <path
    d="M186,43.92 C186,46.87 186,49 186,51.12 C186,52.05 186.35,52.46 187.26,52.39 C187.713361,52.4114576 188.167532,52.3710868 188.61,52.27 C189.528401,51.9302564 190.526347,51.8676674 191.48,52.09 C196.04,52.81 200.66,52.46 205.24,52.95 C208.790236,53.2325597 212.361961,53.0645576 215.87,52.45 C217.143713,52.2211962 218.443779,52.1774115 219.73,52.32 C221.46,52.55 222.18,51.66 221.91,49.94 C221.67,48.39 221.1,46.85 221.26,45.3 C221.46,43.3 221.26,41.3 221.74,39.38 C221.857094,38.9249728 221.669431,38.4461197 221.274349,38.1918143 C220.879268,37.9375089 220.36569,37.9649886 220,38.26 C218.897777,38.9818405 217.889983,39.838465 217,40.81 C215.29,43.23 213.09,44.57 210,43.99 C209.870441,43.9748595 209.739559,43.9748595 209.61,43.99 C207.683449,43.9914544 205.88606,43.0213156 204.83,41.41 C203.83,40.04 202.83,38.73 201.78,37.41 C200.508048,35.7027547 199.352117,33.9120638 198.32,32.05 C197.17,30.13 197.5,28.2 198.46,26.31 C198.685433,25.8352514 199.061665,25.4484705 199.53,25.21 C200.71,24.66 205.2,25.53 205.95,26.63 C206.7,27.73 207.55,28.29 208.17,29.31 C208.79,30.33 209.72,31.39 210.38,32.51 C210.75,33.12 211.23,33.41 211.97,32.83 C212.97,32.03 214.1,31.37 215.1,30.53 C216.45,29.4 217.42,27.82 218.94,26.97 C220.46,26.12 221.12,24.43 222.27,23.23 C222.495834,22.9085576 222.611599,22.5226723 222.6,22.13 C222.67,20.71 222.69,19.28 222.73,17.86 C222.73,17.27 222.59,16.86 221.89,16.8 C221.209141,16.6063415 220.507404,16.4955407 219.8,16.47 C218.185931,16.6397869 216.562206,16.6999249 214.94,16.65 C209.402212,16.9917432 203.844074,16.7739741 198.35,16 C197.327455,15.8072272 196.280204,15.7835796 195.25,15.93 C194.297492,16.1348523 193.309668,16.1074127 192.37,15.85 C190.48,15.32 188.65,15.73 186.82,15.99 C185.67,16.16 185.31,16.55 185.53,17.7 C185.760274,18.9628496 185.82749,20.2500348 185.73,21.53 C185.57,23.81 186.06,26.05 186.03,28.33 C185.905327,29.9935578 185.865276,31.6623766 185.91,33.33 C186.26,37.14 185.49,40.94 186,43.92 Z"
    fill="#FFFFFF"
  />
  <path
    d="M221.61,111.1 C219.69,112.54 217.46,113.71 215.97,115.49 C214.48,117.27 212.88,117.27 211.12,117.32 C209.813949,117.364112 208.5324,116.958111 207.49,116.17 C206.367767,115.284037 205.430088,114.186681 204.73,112.94 C203.52,110.59 201.73,108.58 200.73,106.08 C200,104.23 198.8,102.68 198.93,100.4 C199.04,98.47 200.08,96.75 202.45,96.68 C203.02,96.68 203.59,96.98 204.17,96.68 C204.98,96.26 205.54,96.68 206.03,97.28 C207.559862,99.0514409 208.919217,100.963242 210.09,102.99 C210.575168,103.889052 211.259221,104.665451 212.09,105.26 C213.18,106.01 213.5,105.99 214.46,105.12 C215.84,103.86 217.21,102.57 218.6,101.32 C219.179905,100.798753 219.794663,100.317639 220.44,99.88 C222.44,98.5 224.24,96.98 224.08,94.17 C224.131371,93.3913151 224.265459,92.6203075 224.48,91.87 C224.59,91.23 224.71,90.59 224.79,89.95 C224.87,89.31 224.7,88.95 223.97,88.95 C222.87,88.95 221.8,88.68 220.67,88.83 C219.329427,89.0694045 217.959865,89.0997642 216.61,88.92 C213.98,88.44 211.27,88.92 208.69,88.12 C207.3,87.71 206,88.3 204.69,88.3 C201.14,88.3 197.6,88.11 194.04,88.17 C191.873772,88.3466774 189.694912,88.293044 187.54,88.01 C186.73,87.85 186.47,88.16 186.39,89.06 C186.13,92.34 186.39,95.63 186.21,98.91 C186.076777,100.265722 186.043469,101.629385 186.11,102.99 C186.33,105.33 186.28,107.68 186.44,109.99 C186.68,113.53 186.91,117.09 186.89,120.65 C186.837044,121.010499 186.945324,121.376045 187.186079,121.649543 C187.426835,121.923041 187.775695,122.076807 188.14,122.07 C189.42049,122.262376 190.718,122.316019 192.01,122.23 C193.432401,122.126713 194.862234,122.241369 196.25,122.57 C197.755548,122.990215 199.330957,123.099099 200.88,122.89 C201.261448,122.800161 201.658552,122.800161 202.04,122.89 C204.18,123.58 206.45,122.34 208.56,123.4 C208.69,123.46 208.93,123.32 209.12,123.3 C212.140997,122.965095 215.18268,122.854792 218.22,122.97 C220.65,123.03 222.37,121.55 221.89,119.2 C221.52,117.36 222.06,115.66 222.17,113.91 C222.325538,112.936501 222.126847,111.9395 221.61,111.1 L221.61,111.1 Z"
    fill="#FFFFFF"
  />
  <path
    d="M15.73,3.19 C18.1,2.61 20.73,3.81 23.47,3.52 C25.39,3.32 27.33,4 29.24,3.37 C29.5697709,3.26966939 29.9245914,3.29095862 30.24,3.43 C32.67,4.43 35.24,3.82 37.71,4.02 C40.04,4.21 42.37,4.24 44.71,4.65 C47.0534924,5.1151729 49.4417098,5.31642717 51.83,5.25 C52.6752102,5.25208435 53.5197202,5.29881613 54.36,5.39 C57.4138005,5.68706019 60.4824513,5.80392937 63.55,5.74 C65.3190037,5.46018957 67.1209963,5.46018957 68.89,5.74 C69.8453452,5.91544494 70.8246548,5.91544494 71.78,5.74 C74.1,5.45 76.45,5.74 78.78,5.28 C79.2343616,5.23885262 79.692264,5.26242113 80.14,5.35 C80.46,5.35 80.79,5.58 81.14,5.53 C83.51,5.15 85.93,5.53 88.29,5.15 C89.1389708,5.00942801 90.0004402,4.95914769 90.86,5 C93.05,5.13 95.24,4.45 97.43,5.05 C99.02,4.16 100.73,5.61 102.32,4.79 C103.83,5.63 105.49,4.38 107.01,5.12 C107.187028,5.20536012 107.385284,5.23666372 107.58,5.21 C110.627977,4.68995739 113.742023,4.68995739 116.79,5.21 C117.177153,5.25775506 117.567765,5.15383072 117.88,4.92 C118.450995,4.57070728 119.156557,4.52217656 119.77,4.79 C122.08,5.69 124.5,4.95 126.85,5.36 C127.816848,5.38460919 128.780062,5.48828844 129.73,5.67 C129.976522,5.75924528 130.242629,5.77998088 130.5,5.73 C132.78,5.16 135.06,5.84 137.33,5.73 C138.873851,5.67991048 140.419262,5.70995086 141.96,5.82 C143.37,5.92 144.83,6.06 146.17,6.28 C147.618667,6.49455404 149.019311,6.95805203 150.31,7.65 C151.7,8.43 151.62,10.01 151.48,11.34 C151.175372,14.0754312 151.085096,16.8304943 151.21,19.58 C151.39,22.86 151.21,26.13 151.21,29.41 C151.350098,31.2139507 151.350098,33.0260493 151.21,34.83 C150.82,37.34 151.39,39.83 151.29,42.28 C151.19,44.73 150.99,47.28 151.12,49.82 C151.044341,51.4870651 151.077746,53.1572932 151.22,54.82 C151.38,55.67 150.84,56.27 150.83,57.08 C150.83,60.2 151.07,63.32 150.77,66.46 C150.580272,68.7380791 150.520175,71.0251005 150.59,73.31 C150.65,76.31 150.11,79.31 150.45,82.16 C150.76,84.82 150.45,87.45 150.75,90.09 C150.854666,91.8203219 150.814526,93.5563647 150.63,95.28 C150.43,99.21 150.71,103.13 150.44,107.05 C150.37,108.05 150.12,109.05 150,110.05 C149.73,112.49 150.48,114.86 150.14,117.32 C149.96,118.63 150.67,120.15 150.35,121.52 C149.89,123.52 150.6,125.31 150.51,127.21 C150.42,129.11 150.51,131.13 150.27,133.03 C150.134174,135.144359 150.194431,137.266753 150.45,139.37 C150.478394,139.827272 150.38159,140.283634 150.17,140.69 C149.83471,141.472214 149.757642,142.340979 149.95,143.17 C150.47006,145.578917 150.47006,148.071083 149.95,150.48 C149.73,151.39 150.59,152.35 149.86,153.26 C150.47,156.8 149.86,160.37 150.03,163.91 C150.18,167 149.98,170.09 149.98,173.18 C150.094992,175.098278 150.094992,177.021722 149.98,178.94 C149.854676,179.999641 149.854676,181.070359 149.98,182.13 C149.998249,183.259882 150.075018,184.388061 150.21,185.51 C150.253516,185.896545 150.202026,186.287869 150.06,186.65 C149.47,188.7 149.93,190.78 150.06,192.81 C150.325258,195.630122 150.274946,198.471039 149.91,201.28 C149.797386,201.979883 149.834882,202.695712 150.02,203.38 C150.494452,205.064787 150.20956,206.872754 149.24,208.33 C148.75,209.17 148.94,210.17 148.64,211.09 C148.341648,211.795971 147.966025,212.466726 147.52,213.09 C147.20654,213.614876 146.602613,213.893 146,213.79 C144.87428,213.66531 143.739427,213.645224 142.61,213.73 C141.663759,213.712075 140.718331,213.79589 139.79,213.98 C139.219086,214.125185 138.620914,214.125185 138.05,213.98 C136.05,213.36 133.96,213.76 131.9,213.74 C129.34,213.74 126.73,213.93 124.2,213.28 C122.87454,213.075079 121.52546,213.075079 120.2,213.28 C117.8,213.4 115.46,212.97 113.08,212.92 C111.42,212.92 109.78,212.35 108.08,212.67 C107.170063,212.691019 106.260735,212.607132 105.37,212.42 C104.03,212.33 102.65,212.56 101.31,212.42 C97.52,212.03 93.71,212.26 89.91,212.12 C88.2960811,212.217698 86.6776342,212.028089 85.13,211.56 C84.5105923,211.340081 83.8418792,211.298503 83.2,211.44 C80.4475372,211.870814 77.6385488,211.779216 74.92,211.17 C74.7291337,211.126321 74.5308663,211.126321 74.34,211.17 C72.72,211.82 71.13,211.08 69.53,211.11 C66.32,211.11 63.12,210.89 59.91,210.87 C58.28,210.87 56.56,211.17 54.91,210.59 C54.4616056,210.537091 54.0072918,210.567604 53.57,210.68 C53.0671628,210.8069 52.546425,210.847477 52.03,210.8 C48.95,209.88 45.82,210.75 42.72,210.4 C40.23,210.12 37.72,210.17 35.18,210.01 C32.47,209.84 29.72,209.93 27,209.78 C24.54,209.64 22.07,209.89 19.62,209.48 C18.87,209.35 18.07,209.57 17.3,209.48 C14.53,209.2 11.75,209.18 8.98,208.94 C7.52,208.81 6.13,208.46 4.69,208.28 C2.69,208.02 2.11,207.43 1.78,205.47 C1.73721905,204.493647 1.38724998,203.55573 0.78,202.79 C0.540259307,202.477271 0.445642975,202.076971 0.52,201.69 C0.687307153,199.137117 0.593487189,196.573821 0.24,194.04 C0.02,192.72 0.77,191.46 0.24,190.19 C0.91,187.45 -0.53,184.66 0.46,181.93 C-0.12,181.12 0.94,180.34 0.64,179.77 C0.41788927,179.128199 0.33937482,178.445465 0.41,177.77 C-1.12701515e-13,174.41 0.69,171.04 0.41,167.71 C0.13,164.38 0.6,161.35 0.41,158.16 C0.27,155.25 0.49,152.32 0.49,149.4 C0.402708632,147.960893 0.575469339,146.517833 1,145.14 C1.26004211,144.2044 1.26004211,143.2156 1,142.28 C0.6,140.53 1.44,138.95 1.21,137.28 C0.81,134.39 1.69,131.58 1.71,128.69 C1.68398728,126.214084 1.85116108,123.739912 2.21,121.29 C2.48891221,119.218216 2.63254974,117.130461 2.64,115.04 C2.69,113.04 3.2,111.04 3,109.04 C2.82014571,107.74957 2.82014571,106.44043 3,105.15 C3.55,102 3,98.79 3.65,95.65 C3.67951338,95.5216751 3.67951338,95.3883249 3.65,95.26 C2.55,91.15 3.4,86.97 3.23,82.83 C3.06,80.87 3,78.94 3.05,77 C3.05,76.27 3.3,75.62 3.27,74.91 C3.16,72.58 2.74,70.25 3.17,67.91 C2.17,65.2 3.03,62.4 2.81,59.66 C3.7,58.08 2.09,56.33 3.15,54.77 C2.59,53.24 2.84,51.63 2.69,50.06 C2.62695357,49.370256 2.67421269,48.6748718 2.83,48 C3.19768431,45.9004361 3.2717262,43.7599523 3.05,41.64 C3.01018212,40.0229513 3.09040234,38.4051769 3.29,36.8 C3.39,35.8 3.45,34.88 3.49,33.91 C3.58,31.41 3.44,28.91 3.49,26.42 C3.37627861,23.5834477 3.51347906,20.7423946 3.9,17.93 C4.19405909,15.8184272 4.36434993,13.6914612 4.41,11.56 C4.48,10.56 4.67,9.65 4.76,8.7 C5.02111774,6.61029151 6.24122015,4.7616515 8.06,3.7 C8.2313798,3.61897463 8.42106758,3.58448595 8.61,3.6 C10.87,3.61 13.1,3 15.73,3.19 Z M10.73,194.68 C10.32,196.17 11.12,197.44 11,198.82 C10.9,199.97 11.2,200.12 12.4,200 C14.8430187,199.798206 17.3007164,199.861912 19.73,200.19 C20.25,200.25 20.73,200.48 21.26,200.25 C22.2516602,199.91589 23.3134587,199.846942 24.34,200.05 C26.02,200.17 27.72,200.11 29.34,200.26 C33.88,200.68 38.43,200.31 42.96,200.74 C45.65,201 48.36,201 51.06,201.15 C52.06,201.15 52.98,200.97 53.97,200.99 C56.03,200.99 57.97,201.8 60.13,201.49 C61.2867342,201.338219 62.454825,201.291362 63.62,201.35 C66.34,201.45 69.03,201.77 71.76,201.79 C74.06,201.79 76.36,201.73 78.67,201.84 C80.77,201.94 82.92,202.02 85.05,201.95 C85.9441675,202.089183 86.845704,202.175997 87.75,202.21 C91.2,201.65 94.59,202.36 98,202.48 C99.62,202.54 101.32,202.99 102.84,202.64 C105.63,201.99 108.35,203.34 111.09,202.57 C111.481735,202.548196 111.871231,202.642093 112.21,202.84 C112.563336,202.998745 112.943143,203.090306 113.33,203.11 C115.57,203.11 117.81,202.98 120.03,202.86 C122.25,202.74 124.53,203.42 126.81,203.07 C127.84274,202.953446 128.886919,202.987129 129.91,203.17 C132.53,203.55 135.19,202.99 137.8,203.62 C137.925889,203.639848 138.054111,203.639848 138.18,203.62 C139.54,203.48 139.86,203.17 139.88,201.78 C139.88,200.1 139.64,198.41 140.08,196.78 C140.225408,196.147509 140.28594,195.498471 140.26,194.85 C140.26,191.69 139.98,188.54 140.26,185.38 C140.35,184.38 139.93,183.44 140,182.49 C140.217679,179.82907 140.264441,177.156917 140.14,174.49 C140.03,172.56 140.14,170.63 140.05,168.7 C139.96,166.77 140.47,164.76 140.24,162.7 C140.039963,159.406368 140.039963,156.103632 140.24,152.81 C140.3,148.69 140.24,144.56 140.52,140.44 C140.73,137.24 140.65,134.02 140.69,130.82 C140.69,129.33 140.8,127.82 140.69,126.37 C140.61,124.63 140.05,122.91 140.63,121.15 C140.699188,120.700445 140.678797,120.241645 140.57,119.8 C140.49,118.89 140.32,117.99 140.3,117.09 C140.056723,113.054282 140.173853,109.004908 140.65,104.99 C140.81,103.99 141.27,102.87 140.96,101.99 C140.45,100.53 140.71,99.06 140.52,97.61 C140.314379,95.5116858 140.364748,93.3961506 140.67,91.31 C140.95,88.86 140.04,86.41 140.91,84.02 C140.12,81.43 140.71,78.81 140.74,76.2 C140.74,74.74 140.4,73.2 141.15,71.82 C140.51,70.61 140.84,69.23 140.88,68.05 C140.96,65.6 141.02,63.17 140.98,60.71 C140.842238,59.7147446 140.842238,58.7052554 140.98,57.71 C141.63,55.38 141.23,53.06 140.98,50.8 C140.73,48.37 141.88,45.96 140.91,43.57 C140.91,43.51 140.91,43.44 140.91,43.38 C141.529691,41.7661983 141.504626,39.9758213 140.84,38.38 C140.610527,37.7945085 140.669792,37.1351831 141,36.6 C141.248155,36.001605 141.30066,35.3400469 141.15,34.71 C140.721338,31.8830361 140.758496,29.0049547 141.26,26.19 C141.340153,25.8108566 141.340153,25.4191434 141.26,25.04 C141.050722,24.1467174 141.08875,23.2132982 141.37,22.34 C141.723081,20.7538693 141.657605,19.1031807 141.18,17.55 C141.16305,17.3182184 141.035265,17.1088704 140.836864,16.9878457 C140.638463,16.866821 140.393845,16.8490031 140.18,16.94 C137.42,17.59 134.65,16.85 131.88,16.94 C130.028769,16.9762624 128.177327,16.8793457 126.34,16.65 C124.474184,16.4445317 122.595946,16.3743484 120.72,16.44 C118.72,16.49 116.72,15.93 114.72,16.12 C112.422412,16.3801859 110.105228,16.4203683 107.8,16.24 C106.274261,16.0524957 104.736669,15.9789587 103.2,16.02 C100.77,16.15 98.34,16.15 95.92,16.09 C93.7239268,15.9246924 91.5197641,15.8946356 89.32,16 C85.9693098,16.3078135 82.6042402,16.4313329 79.24,16.37 C78.36,16.37 77.44,16.29 76.58,16.21 C75.0478988,16.0897128 73.5076608,16.2941692 72.06,16.81 C71.6236008,16.9664653 71.1463992,16.9664653 70.71,16.81 C69.820801,16.610542 68.9111957,16.5165607 68,16.53 C66.12,16.27 64.25,16.67 62.39,16.36 C60.9796239,16.1235128 59.5493999,16.0263781 58.12,16.07 C56.96,16.07 55.79,16.28 54.65,16.24 C50.9,16.09 47.18,15.4 43.4,15.59 C43.13992,15.6105079 42.8783401,15.5799337 42.63,15.5 C41.07,14.98 39.41,15.1 37.81,14.8 C36.5976223,14.5689338 35.3585172,14.5116925 34.13,14.63 C32.1507283,14.8993372 30.1406648,14.8419068 28.18,14.46 C26.8,14.14 25.38,14.8 24.06,14.07 C23.9,13.98 23.54,14.07 23.33,14.24 C22.6153292,14.5603257 21.8086165,14.6100789 21.06,14.38 C19,14.12 16.97,13.62 14.86,13.94 C14.06,14.06 13.76,14.35 13.64,15.12 C13.45,16.41 13.64,17.7 13.53,18.98 C13.38,21.98 12.96,24.98 13.31,27.98 C13.63,30.62 13.06,33.19 13.25,35.83 C13.282222,37.9990963 13.1619255,40.1677747 12.89,42.32 C12.79,43.86 13.11,45.39 12.89,46.94 C12.676269,47.6069503 12.5551375,48.3000916 12.53,49 C12.84,52.08 12.26,55.16 12.45,58.27 C12.62,61.12 12.3,64 12.45,66.88 C12.6,69.76 12.31,72.64 12.45,75.51 C12.5,76.8 12,78 12,79.12 C12.2411935,81.0011395 12.3813946,82.8938539 12.42,84.79 C12.35,86.79 12.49,88.79 12.42,90.79 C12.3600692,91.9292123 12.3600692,93.0707877 12.42,94.21 C12.5098818,95.7386799 12.5098818,97.2713201 12.42,98.8 C12.4506549,100.429094 12.3469705,102.057942 12.11,103.67 C11.7200652,105.021467 11.8083671,106.466086 12.36,107.76 C12.5930864,108.448584 12.5682116,109.198379 12.29,109.87 C12.1210237,110.361793 12.0430839,110.880262 12.06,111.4 C12.43,114.69 11.77,117.95 11.78,121.23 C11.78,124.73 11.35,128.23 11.27,131.74 C11.16,136.37 10.91,141.01 10.87,145.65 C10.87,147 10.41,148.29 10.49,149.65 C10.6664757,150.395173 10.7735993,151.155081 10.81,151.92 C10.31,155.62 10.73,159.35 10.59,163.06 C10.46,166.38 10.82,169.71 10.59,173.06 C10.5,174.32 9.95,175.63 10.46,176.89 C10.8234831,178.008275 10.8753411,179.204464 10.61,180.35 C10.5265938,180.993112 10.4931603,181.641721 10.51,182.29 C10.51,184.36 10.59,186.43 10.51,188.5 C10.43,190.57 10.21,192.7 10.72,194.68 L10.73,194.68 Z"
    fill="#000000"
  />
  <path
    d="M231.4,168 C231.33,168.45 231.28,168.71 231.25,169 C231.163241,169.468024 231.418403,169.932335 231.86,170.11 C232.34,170.29 232.58,169.9 232.75,169.56 C233.109166,169.021576 233.597316,168.581553 234.17,168.28 C237.17,166.16 239.92,163.84 243.02,161.93 C243.39,161.7 243.61,161.25 243.94,160.93 C245.744752,158.921232 248.441113,157.958515 251.11,158.37 C252.389953,158.470189 253.405156,159.48964 253.5,160.77 C253.5,160.83 253.5,160.9 253.5,160.96 C253.78,165.21 253.76,165.18 250.04,167.78 C247.525842,169.328653 245.138368,171.074117 242.9,173 C241.08,174.74 238.9,176 237.34,178.13 C236.379347,179.190387 235.221045,180.05317 233.93,180.67 C231.58,182.04 230.93,183.88 231.47,186.55 C232.27,190.29 231.93,194.14 232.13,197.94 C232.243049,199.985343 232.108744,202.036853 231.73,204.05 C231.722139,204.43362 231.59257,204.804816 231.36,205.11 C230.530487,206.014179 230.161866,207.249061 230.36,208.46 C230.49,210.23 230.09,210.62 228.47,211.13 C227.535635,211.412488 226.617572,211.746329 225.72,212.13 C224.748392,212.45228 223.740823,212.653793 222.72,212.73 C220.23,213.21 217.72,212.64 215.25,213.26 C214.608525,213.374318 213.949813,213.347014 213.32,213.18 C211.853843,212.897064 210.35269,212.84309 208.87,213.02 C208.286434,213.104806 207.69078,213.025155 207.15,212.79 C206.682295,212.54472 206.138526,212.487482 205.63,212.63 C204.253137,213.029002 202.797268,213.070304 201.4,212.75 C200.03,212.55 198.67,212.93 197.32,212.75 C192.8,212.26 188.25,212.52 183.73,212.19 C183.019997,212.115045 182.32356,211.943459 181.66,211.68 C180.749529,211.335882 179.783306,211.162979 178.81,211.17 C177.953858,211.233871 177.111374,210.927886 176.495765,210.329484 C175.880157,209.731082 175.550418,208.897609 175.59,208.04 C175.59,207.14 175.8,206.23 175.87,205.33 C175.94,204.43 176.18,203.33 175.35,202.38 C174.73,201.69 175.35,200.83 175.25,200 C174.943535,197.155408 175.0581,194.281175 175.59,191.47 C175.82859,189.382324 175.922148,187.280618 175.87,185.18 C175.895671,181.44891 176.253754,177.727528 176.94,174.06 C177.124486,173.047315 177.21155,172.019287 177.2,170.99 C177.15,168.65 177.53,166.34 177.53,163.99 C177.608171,161.909633 178.01312,159.854513 178.73,157.9 C179.12881,156.67664 180.26335,155.843839 181.55,155.83 C183.42,155.83 185.32,155.97 187.09,155.11 C187.65062,154.947591 188.249662,154.979305 188.79,155.2 C191.01,155.72 193.26,155.09 195.51,155.7 C197.21,156.15 199.12,155.79 200.94,155.84 C202.48,155.84 204.03,155.98 205.57,156.09 C206.783346,156.238166 208.011168,156.221347 209.22,156.04 C210.569153,155.927146 211.926356,155.953955 213.27,156.12 C213.653379,156.189587 214.047892,156.165574 214.42,156.05 C215.9,155.24 217.42,155.62 218.97,155.69 C220.254099,155.908735 221.570102,155.850776 222.83,155.52 C223.47,155.27 224.1,155.69 224.72,155.83 C228.105581,156.570883 230.643169,159.385958 231.03,162.83 C231.23,164.66 231.05,166.43 231.4,168 Z M222.16,194 C222.211463,192.877768 222.161258,191.753182 222.01,190.64 C222.01,189.86 221.51,189.74 221.01,190.12 C219.59,191.12 217.85,191.65 216.6,192.95 C216.110365,193.474846 215.518121,193.8935 214.86,194.18 C213.125152,194.885169 211.452605,195.734823 209.86,196.72 C208.589506,197.566133 206.973984,197.702018 205.58,197.08 C203.656873,196.160439 201.985696,194.787809 200.71,193.08 C199.895571,192.227145 199.283756,191.201757 198.92,190.08 C198.837966,189.688749 198.626618,189.336501 198.32,189.08 C196.61,187.68 196.2,185.57 195.45,183.68 C195.060108,182.497989 195.060108,181.222011 195.45,180.04 C195.60435,179.170804 196.357224,178.535698 197.24,178.53 C198.533735,178.423225 199.832298,178.386505 201.13,178.42 C202.390044,178.360543 203.544911,179.119686 203.99,180.3 C204.308308,181.233285 204.900792,182.048822 205.69,182.64 C206.442602,183.140838 207.019573,183.864674 207.34,184.71 C207.519909,185.125782 207.774058,185.505311 208.09,185.83 C208.293128,186.123958 208.619446,186.308982 208.975993,186.332362 C209.332539,186.355742 209.680225,186.214915 209.92,185.95 C211.33,184.82 212.92,183.95 214.37,182.84 C216.61,181.07 219.08,179.62 221.37,177.91 C222.028283,177.462447 222.406927,176.705158 222.37,175.91 C222.275864,173.188079 222.534684,170.46543 223.14,167.81 C223.43,166.61 223.26,166.48 222.14,166.29 C220.272984,166.092946 218.388807,166.126532 216.53,166.39 C212.869668,166.654196 209.198372,166.734297 205.53,166.63 C203.66,166.63 201.85,166.05 199.99,166.14 C198.887354,166.211283 197.78073,166.089453 196.72,165.78 C196.156045,165.629162 195.573664,165.558469 194.99,165.57 C192.407213,165.605044 189.825732,165.434506 187.27,165.06 C185.62,164.78 185.27,164.98 185.22,166.62 C185.14991,167.067271 185.14991,167.522729 185.22,167.97 C185.575844,169.628641 185.663623,171.333585 185.48,173.02 C185.38,174.96 185.2,176.9 185.25,178.85 C185.32,181.62 184.96,184.37 184.97,187.15 C184.97,190.15 185.11,193.08 184.97,196.05 C184.88,197.96 185.26,199.89 184.88,201.82 C184.79,202.28 184.88,202.95 185.48,202.82 C186.77,202.48 187.89,203.3 189.12,203.16 C191.7,202.85 194.3,203.62 196.88,203.01 C197.268877,202.947917 197.667376,202.99643 198.03,203.15 C198.783097,203.332854 199.555028,203.426828 200.33,203.43 C201.690703,203.408911 203.046514,203.261613 204.38,202.99 C206.71,202.79 209.01,203.28 211.31,203.18 C213.88,203.08 216.5,203.46 219.04,202.78 C219.284299,202.704498 219.545701,202.704498 219.79,202.78 C221,203.35 221.24,202.6 221.46,201.66 C222,199.2 222.71,196.66 222.16,194 Z"
    fill="#000000"
  />
  <path
    d="M231.35,14.36 C231.61,14.25 231.84,14.22 231.95,14.1 C233.59,12.1 235.95,10.77 237.43,8.6 C237.5,8.5 237.57,8.32 237.67,8.3 C239.17,8.03 239.91,6.69 241.07,5.95 C241.974579,5.34185932 242.769226,4.58440862 243.42,3.71 C245.07,1.66 247,-1.03259415e-15 249.93,-1.03259415e-15 C251.132998,-0.0464385711 252.247235,0.630765557 252.76,1.72 C253.1,2.35 253.4,3 253.76,3.6 C254.239778,4.31202297 254.308205,5.22437834 253.94,6 C253.506875,7.23051174 252.80288,8.34801854 251.88,9.27 C250.16,10.67 248.63,12.27 246.88,13.56 C245.404607,14.7113414 244.023548,15.9787059 242.75,17.35 C241.57725,18.5843426 240.324543,19.7401732 239,20.81 C237.765205,21.8414928 236.63325,22.9901922 235.62,24.24 C235.102798,24.8955987 234.508518,25.4865204 233.85,26 C232.146733,27.1697522 231.182446,29.1476788 231.31,31.21 C231.37,35.88 231.39,40.56 231.85,45.21 C231.980167,45.9812127 231.980167,46.7687873 231.85,47.54 C231.624593,48.1577034 231.675588,48.8424959 231.99,49.42 C232.55,50.28 231.68,51.2 231.99,52.06 C232.48,53.27 232.1,54.42 231.9,55.61 C231.48,58.06 229.76,59.61 228.02,61 C226.958402,61.6870682 225.645092,61.8631545 224.44,61.48 C222.965558,61.2017279 221.447078,61.2632879 220,61.66 C217.87,62.17 215.75,61.9 213.65,62.13 C211.16,62.39 208.78,62.84 206.21,62.21 C204.9,61.89 203.3,62.57 201.79,62.39 C198.91,62.06 196.02,61.76 193.14,61.48 C191.02,61.27 188.93,60.74 186.78,61.08 C185.352567,61.1484402 183.922033,61.1116742 182.5,60.97 C182.237534,61.0092155 181.969905,60.9485531 181.75,60.8 C180.29,59.07 177.58,58.69 176.87,56.05 C176.57255,55.0791225 176.444016,54.0643791 176.49,53.05 C176.49,52.46 176.78,51.8 176.42,51.35 C175.902952,50.5913966 175.752536,49.6412096 176.01,48.76 C176.49,45.76 176.01,42.76 176.54,39.76 C176.88,37.69 176.54,35.53 176.67,33.42 C176.9,28.78 176.61,24.14 177,19.49 C177.21,16.91 177.24,14.32 177.52,11.73 C177.69,10.18 178.81,9.25 179.36,7.97 C179.91,6.69 181.58,6.81 182.9,6.5 C184.973681,6.06934415 187.070507,5.75882701 189.18,5.57 C192.188125,5.06985738 195.252006,4.99915242 198.28,5.36 C199.82,5.62 201.36,5.81 202.89,6.11 C204.033683,6.35508968 205.216317,6.35508968 206.36,6.11 C206.732918,6.03484804 207.117082,6.03484804 207.49,6.11 C210.18,6.52 212.91,6.29 215.61,6.72 C217.027275,6.83204871 218.453162,6.75470107 219.85,6.49 C222.064147,6.26629305 224.30064,6.50117591 226.42,7.18 C228.432147,7.64767215 230.023411,9.18512482 230.56,11.18 C230.706421,12.2656678 230.971334,13.3320284 231.35,14.36 L231.35,14.36 Z M186,43.92 C186,46.87 186,49 186,51.12 C186,52.05 186.35,52.46 187.26,52.39 C187.713361,52.4114576 188.167532,52.3710868 188.61,52.27 C189.528401,51.9302564 190.526347,51.8676674 191.48,52.09 C196.04,52.81 200.66,52.46 205.24,52.95 C208.790236,53.2325597 212.361961,53.0645576 215.87,52.45 C217.143713,52.2211962 218.443779,52.1774115 219.73,52.32 C221.46,52.55 222.18,51.66 221.91,49.94 C221.67,48.39 221.1,46.85 221.26,45.3 C221.46,43.3 221.26,41.3 221.74,39.38 C221.857094,38.9249728 221.669431,38.4461197 221.274349,38.1918143 C220.879268,37.9375089 220.36569,37.9649886 220,38.26 C218.897777,38.9818405 217.889983,39.838465 217,40.81 C215.29,43.23 213.09,44.57 210,43.99 C209.870441,43.9748595 209.739559,43.9748595 209.61,43.99 C207.683449,43.9914544 205.88606,43.0213156 204.83,41.41 C203.83,40.04 202.83,38.73 201.78,37.41 C200.508048,35.7027547 199.352117,33.9120638 198.32,32.05 C197.17,30.13 197.5,28.2 198.46,26.31 C198.685433,25.8352514 199.061665,25.4484705 199.53,25.21 C200.71,24.66 205.2,25.53 205.95,26.63 C206.7,27.73 207.55,28.29 208.17,29.31 C208.79,30.33 209.72,31.39 210.38,32.51 C210.75,33.12 211.23,33.41 211.97,32.83 C212.97,32.03 214.1,31.37 215.1,30.53 C216.45,29.4 217.42,27.82 218.94,26.97 C220.46,26.12 221.12,24.43 222.27,23.23 C222.495834,22.9085576 222.611599,22.5226723 222.6,22.13 C222.67,20.71 222.69,19.28 222.73,17.86 C222.73,17.27 222.59,16.86 221.89,16.8 C221.209141,16.6063415 220.507404,16.4955407 219.8,16.47 C218.185931,16.6397869 216.562206,16.6999249 214.94,16.65 C209.402212,16.9917432 203.844074,16.7739741 198.35,16 C197.327455,15.8072272 196.280204,15.7835796 195.25,15.93 C194.297492,16.1348523 193.309668,16.1074127 192.37,15.85 C190.48,15.32 188.65,15.73 186.82,15.99 C185.67,16.16 185.31,16.55 185.53,17.7 C185.760274,18.9628496 185.82749,20.2500348 185.73,21.53 C185.57,23.81 186.06,26.05 186.03,28.33 C185.905327,29.9935578 185.865276,31.6623766 185.91,33.33 C186.26,37.14 185.49,40.94 186,43.92 Z"
    fill="#000000"
  />
  <path
    d="M233.24,87.6 C233.808183,87.5876108 234.339144,87.3147561 234.68,86.86 C235.758279,85.731449 236.907266,84.6726437 238.12,83.69 C240.39,81.69 242.61,79.63 244.72,77.46 C246.782793,75.3055887 249.778963,74.3131072 252.72,74.81 C253.884339,74.8905506 254.801817,75.8338732 254.85,77 C255.105848,78.9299388 254.832799,80.8931301 254.06,82.68 C253.687027,83.5210936 253.023013,84.199312 252.19,84.59 C250.02603,85.6493045 248.165025,87.2385541 246.78,89.21 C245.787371,90.4112874 244.663747,91.4980163 243.43,92.45 C241.84,93.84 240.14,95.11 238.59,96.55 C237.6974,97.4024144 236.737634,98.1815972 235.72,98.88 C234.406194,99.6342377 233.505188,100.943455 233.27,102.44 C233.11,103.72 232.89,104.98 232.83,106.29 C232.72,108.79 232.47,111.29 232.25,113.79 C232.145968,114.987648 232.220108,116.194102 232.47,117.37 C233.1448,120.340323 233.317186,123.402711 232.98,126.43 C232.651351,129.535786 230.100159,131.933906 226.98,132.07 C223.26,132.31 219.51,132.37 215.84,132.9 C213.92,133.17 212.14,132.52 210.28,132.82 C208.476282,133.020116 206.652778,132.949333 204.87,132.61 C203.41,132.41 201.95,132.94 200.47,132.7 C200.03,132.63 199.47,132.85 199.13,132.7 C196.86,131.48 194.39,132.35 192.06,131.95 C191.348387,131.907835 190.642116,131.800723 189.95,131.63 C189.660675,131.480731 189.333279,131.421522 189.01,131.46 C186.72,132.29 184.5,131.25 182.27,131.1 C180.27,130.95 178.64,129.48 177.35,127.87 C177.089644,127.412352 176.987699,126.881536 177.06,126.36 C176.906729,123.975171 176.923438,121.582456 177.11,119.2 C177.194917,118.302003 177.194917,117.397997 177.11,116.5 C177.08198,114.880816 177.148761,113.26138 177.31,111.65 C177.4,110.18 176.86,108.74 177.14,107.25 C177.54,105.1 176.81,102.92 177.14,100.78 C177.397941,98.4259637 177.501496,96.057566 177.45,93.69 C177.55,91.63 177.87,89.57 178.09,87.51 C178.163341,87.1807008 178.163341,86.8392992 178.09,86.51 C177.39,84.51 178.28,82.8 178.76,81.01 C179.19,79.43 180.58,78.88 182.06,78.7 C184.41,78.42 186.84,78.8 189.13,78.44 C191.13,78.13 193.13,78.88 195.06,78.29 C195.870695,77.997442 196.76703,78.059133 197.53,78.46 C198.28,78.89 199.06,78.34 199.82,78.46 C202.46,78.77 205.11,78.14 207.74,78.69 C208.122984,78.7654675 208.517016,78.7654675 208.9,78.69 C212.17,78.09 215.45,78.69 218.72,78.61 C220.847607,78.6834183 222.977662,78.6366773 225.1,78.47 C227.99,78.07 231.52,80.65 232.22,83.62 C232.61,84.88 232.93,86.25 233.24,87.6 Z M221.61,111.1 C219.69,112.54 217.46,113.71 215.97,115.49 C214.48,117.27 212.88,117.27 211.12,117.32 C209.813949,117.364112 208.5324,116.958111 207.49,116.17 C206.367767,115.284037 205.430088,114.186681 204.73,112.94 C203.52,110.59 201.73,108.58 200.73,106.08 C200,104.23 198.8,102.68 198.93,100.4 C199.04,98.47 200.08,96.75 202.45,96.68 C203.02,96.68 203.59,96.98 204.17,96.68 C204.98,96.26 205.54,96.68 206.03,97.28 C207.559862,99.0514409 208.919217,100.963242 210.09,102.99 C210.575168,103.889052 211.259221,104.665451 212.09,105.26 C213.18,106.01 213.5,105.99 214.46,105.12 C215.84,103.86 217.21,102.57 218.6,101.32 C219.179905,100.798753 219.794663,100.317639 220.44,99.88 C222.44,98.5 224.24,96.98 224.08,94.17 C224.131371,93.3913151 224.265459,92.6203075 224.48,91.87 C224.59,91.23 224.71,90.59 224.79,89.95 C224.87,89.31 224.7,88.95 223.97,88.95 C222.87,88.95 221.8,88.68 220.67,88.83 C219.329427,89.0694045 217.959865,89.0997642 216.61,88.92 C213.98,88.44 211.27,88.92 208.69,88.12 C207.3,87.71 206,88.3 204.69,88.3 C201.14,88.3 197.6,88.11 194.04,88.17 C191.873772,88.3466774 189.694912,88.293044 187.54,88.01 C186.73,87.85 186.47,88.16 186.39,89.06 C186.13,92.34 186.39,95.63 186.21,98.91 C186.076777,100.265722 186.043469,101.629385 186.11,102.99 C186.33,105.33 186.28,107.68 186.44,109.99 C186.68,113.53 186.91,117.09 186.89,120.65 C186.837044,121.010499 186.945324,121.376045 187.186079,121.649543 C187.426835,121.923041 187.775695,122.076807 188.14,122.07 C189.42049,122.262376 190.718,122.316019 192.01,122.23 C193.432401,122.126713 194.862234,122.241369 196.25,122.57 C197.755548,122.990215 199.330957,123.099099 200.88,122.89 C201.261448,122.800161 201.658552,122.800161 202.04,122.89 C204.18,123.58 206.45,122.34 208.56,123.4 C208.69,123.46 208.93,123.32 209.12,123.3 C212.140997,122.965095 215.18268,122.854792 218.22,122.97 C220.65,123.03 222.37,121.55 221.89,119.2 C221.52,117.36 222.06,115.66 222.17,113.91 C222.325538,112.936501 222.126847,111.9395 221.61,111.1 L221.61,111.1 Z"
    fill="#000000"
  />
  <path
    d="M122.58,100.87 C122.624994,102.428219 122.534655,103.987404 122.31,105.53 C122,107.07 120.94,107.95 119.47,107.6 C118,107.25 116.23,107.6 114.75,106.72 C114.439889,106.563822 114.080997,106.535111 113.75,106.64 C111.775351,107.12482 109.709219,107.093828 107.75,106.55 C104.38,105.85 100.89,106.64 97.61,105.49 C97.0998278,105.35037 96.5563591,105.4001 96.08,105.63 C94.8813937,106.125108 93.5533714,106.21294 92.3,105.88 C91.4848323,105.685005 90.6351677,105.685005 89.82,105.88 C86.82,106.54 83.87,106.24 80.9,106.05 C79.0298523,105.981606 77.157437,106.008307 75.29,106.13 C73.34,106.2 71.38,106.06 69.42,106.05 C67.28,106.05 65.15,106.05 63.01,106.05 C61.89,106.05 60.91,105.51 59.76,105.55 C56.35,105.67 52.93,105.55 49.51,105.55 C49.2477809,105.553593 48.9860305,105.526747 48.73,105.47 C46.21,104.82 43.56,105.32 41.09,104.84 C39.1408144,104.462343 37.1644775,104.241635 35.18,104.18 C34.1827556,103.994618 33.4821991,103.09206 33.55,102.08 C33.55,100.14 33.55,98.2 33.55,96.27 C33.55,94.99 33.88,94.45 35.1,94.54 C37.41,94.7 39.73,93.54 42.03,94.54 C42.34,94.68 42.66,94.54 43.03,94.46 C44.6594749,94.0740995 46.3630055,94.1362974 47.96,94.64 C48.3848314,94.7975396 48.8376245,94.8656288 49.29,94.84 C50.5732262,94.7375493 51.86436,94.8047958 53.13,95.04 C54.194778,95.2166731 55.2847197,95.1689881 56.33,94.9 C56.9403333,94.7164574 57.5974533,94.770027 58.17,95.05 C58.4828643,95.1923415 58.8283422,95.2476179 59.17,95.21 C62.91,94.93 66.65,95.57 70.39,95.21 C71.98,95.93 73.67,95.35 75.3,95.45 C77.358106,95.5749265 79.421894,95.5749265 81.48,95.45 C83.29,95.34 85.12,95.45 86.9,95.36 C89.3,95.18 91.69,95.47 94.05,95.21 C96.7092031,94.9278443 99.3907969,94.9278443 102.05,95.21 C102.43627,95.2347789 102.82373,95.2347789 103.21,95.21 C104.75,95.21 106.31,95.39 107.82,95.43 C110.04,95.49 112.21,96.53 114.48,95.78 C115.051431,95.610051 115.664696,95.6490447 116.21,95.89 C117.83,96.66 119.51,96.48 121.21,96.44 C122.46,96.44 122.56,96.5 122.61,97.69 C122.66,98.88 122.58,99.82 122.58,100.87 Z"
    fill="#000000"
  />
  <path
    d="M37.48,124.28 C39.26,124.46 41.13,123.92 42.85,124.78 C43.2251451,124.876874 43.6143518,124.907334 44,124.87 C46.3231312,125.140797 48.6613454,125.261048 51,125.23 C53.12,125.07 55.22,125.59 57.32,125.23 C57.8965081,125.139993 58.4834919,125.139993 59.06,125.23 C61.4209177,125.451936 63.8006163,125.367907 66.14,124.98 C67.6482256,124.726289 69.1934572,124.801333 70.67,125.2 C71.45,125.43 71.8,124.92 72.43,124.98 C74.816626,125.077975 77.2068862,124.920412 79.56,124.51 C80.0174004,124.485113 80.4722651,124.592752 80.87,124.82 C82.0517793,125.386406 83.3651348,125.621427 84.67,125.5 C87.1083163,125.209479 89.5777788,125.320959 91.98,125.83 C92.9205369,126.01963 93.8894631,126.01963 94.83,125.83 C96.0299594,125.606576 97.2688058,125.731502 98.4,126.19 C99.0526429,126.496108 99.7911479,126.566778 100.49,126.39 C100.867469,126.295174 101.262531,126.295174 101.64,126.39 C104.455236,127.012257 107.352226,127.177703 110.22,126.88 C110.411244,126.839807 110.608756,126.839807 110.8,126.88 C112.72,127.75 114.8,126.96 116.8,127.43 C117.67,127.63 118.52,126.96 119.47,127.06 C120.74,127.2 121.08,127.41 121.14,128.66 C121.14,129.31 121.06,129.96 121.04,130.6 C120.820125,132.665812 120.719958,134.742616 120.74,136.82 C120.794741,137.115304 120.726356,137.42015 120.55072,137.663775 C120.375084,137.9074 120.10747,138.068615 119.81,138.11 C118.23,138.44 116.65,138.93 115.05,138.11 C114.885104,138.007694 114.694004,137.955576 114.5,137.96 C112.43,138.42 110.38,137.38 108.33,137.96 C107.692772,138.085342 107.037228,138.085342 106.4,137.96 C104.22,137.67 102.02,137.73 99.85,137.24 C98.8430072,136.974025 97.7978613,136.882702 96.76,136.97 C95.15,137.15 93.6,136.54 91.98,136.45 C89.98,136.34 87.78,136.72 85.87,135.62 C85.7512687,135.565411 85.6197746,135.544648 85.49,135.56 C81.7,135.94 77.93,134.56 74.12,135.44 C72.27,135.87 70.4,135.2 68.53,135.21 C67.6865108,135.103737 66.8304507,135.249894 66.07,135.63 C65.4699263,135.899723 64.7948222,135.952741 64.16,135.78 C62.6130871,135.65842 61.0601796,135.631703 59.51,135.7 C56.87,135.7 54.23,135.47 51.59,135.5 C48.95,135.53 46.22,134.92 43.51,134.97 C42.9891385,134.953314 42.4791895,134.816415 42.02,134.57 C41.2679049,134.162896 40.3804047,134.086825 39.57,134.36 C38.9384063,134.537848 38.266966,134.513368 37.65,134.29 C36.1678876,133.79836 34.6107758,133.571563 33.05,133.62 C32.25,133.69 31.78,133.26 31.89,132.44 C32.18,130.25 32.06,128.03 32.48,125.85 C32.5051614,125.390644 32.7244381,124.96365 33.0831132,124.675565 C33.4417883,124.38748 33.9060319,124.265477 34.36,124.34 C35.41,124.31 36.45,124.28 37.48,124.28 Z"
    fill="#000000"
  />
  <path
    d="M124.81,45.38 C124.74,46.53 124.62,47.95 124.56,49.38 C124.577818,50.1709829 124.01828,50.8576893 123.24,51 C120.608003,51.8670723 117.807049,52.0933427 115.07,51.66 C113.860117,51.5167334 112.635255,51.5639733 111.44,51.8 C110.496315,52.0428008 109.502248,52.0045674 108.58,51.69 C107.997873,51.380455 107.326675,51.2815416 106.68,51.41 C104.48,52.18 102.21,51.41 99.97,51.83 C97.2334654,52.2234177 94.4515904,52.1761529 91.73,51.69 C89.73,51.39 87.73,52.07 85.73,51.77 C83,51.35 80.29,52.03 77.58,51.84 C75.41,51.69 73.22,52.02 71.02,51.43 C69.97,51.15 68.82,50.98 67.71,50.78 C66.7157923,50.7047759 65.87963,50.005294 65.63,49.04 C65.4520072,48.5660504 65.2415067,48.1049542 65,47.66 C64.92,47.48 64.73,47.19 64.76,47.16 C65.76,46.4 65.28,45.81 64.76,44.92 C64.24,44.03 66.05,41.79 67.02,41.63 C68.51,41.39 69.89,40.22 71.51,41.09 C72.8595,40.6289352 74.3006753,40.5019746 75.71,40.72 C78.62,40.92 81.53,40.06 84.43,40.84 C84.9249174,41.0154097 85.4650826,41.0154097 85.96,40.84 C87.58,40.11 89.25,40.33 90.96,40.42 C94.76,40.63 98.55,40.34 102.35,40.32 C103.129076,40.2566692 103.913257,40.3242711 104.67,40.52 C104.846845,40.6074133 105.042922,40.6486925 105.24,40.64 C107.61,40.12 110,40.64 112.37,40.52 C114.37,40.46 116.29,40.44 118.27,40.52 C119.941764,40.5463019 121.610875,40.6631397 123.27,40.87 C124.39,41.06 124.75,41.19 124.82,42.27 C124.86,43.28 124.81,44.19 124.81,45.38 Z"
    fill="#000000"
  />
  <path
    d="M30.47,160.72 C30.4159819,160.466713 30.3858498,160.208917 30.38,159.95 C30.56,156.95 30.83,156.95 33.04,156.17 C36.1203131,155.162611 39.350151,154.689127 42.59,154.77 C44.59,154.77 46.77,155.02 48.83,154.99 C51.2246778,154.986428 53.6176745,154.86294 56,154.62 C56.39,154.57 56.83,154.37 57.15,154.48 C59.93,155.48 62.81,154.56 65.65,154.96 C67.65,155.23 69.77,154.9 71.8,155.03 C74.28,155.18 76.71,154.83 79.16,154.78 C79.6782376,154.811762 80.1864386,154.937118 80.66,155.15 C81.0117709,155.31686 81.4030032,155.382642 81.79,155.34 C84.15,154.62 86.3,155.34 88.45,156.15 C89.0770647,156.329259 89.7281296,156.41022 90.38,156.39 C91.88,156.45 93.75,158.39 93.57,159.88 C93.49,160.53 93.01,161.14 94.07,161.36 C94.31,161.36 94.32,161.64 94.2,161.81 C93.58,162.68 93.52,163.81 93.04,164.68 C92.7072468,165.414596 91.9764428,165.887469 91.17,165.89 C90.4520118,165.913673 89.7441099,166.066092 89.08,166.34 C87.01,167.06 85.01,166.44 83.08,165.92 C82.71,165.82 82.38,165.53 81.98,165.6 C78.98,166.15 76.06,165.6 73.1,165.78 C70.9320852,166.018953 68.7496068,166.099167 66.57,166.02 C63.27,165.68 59.86,166.17 56.66,164.9 C56.0383304,164.679812 55.3566237,164.701227 54.75,164.96 C54.3470513,165.172431 53.9107778,165.314473 53.46,165.38 C51.34,165.38 49.21,165.43 47.11,165.24 C44.1149191,164.791102 41.0882301,164.587094 38.06,164.63 C36.1267391,164.689463 34.1917078,164.609255 32.27,164.39 C31.01,164.3 30.81,164.01 30.63,162.66 C30.63,162.34 30.54,162.02 30.52,161.66 C30.5,161.3 30.47,161 30.47,160.72 Z"
    fill="#000000"
  />
  <path
    d="M38.21,29.57 C39.8453605,29.117095 41.5963964,29.3864851 43.02,30.31 C43.1857202,30.4122793 43.36872,30.4834459 43.56,30.52 C47.56,31.47 49.89,34.44 51.73,37.67 C54.0750654,41.6596788 54.1848201,46.579716 52.02,50.67 C51.68,51.37 51.39,52.1 51.1,52.82 C50.81,53.54 50.44,54.5 49.39,54.82 C49.0371264,54.9867502 48.7388835,55.2503137 48.53,55.58 C46.3,58.26 43.12,59 39.97,59.71 C39.0014194,59.8595013 38.0129829,59.818741 37.06,59.59 C34.37,59.09 31.7,58.59 29.6,56.49 C28.47,55.36 26.96,54.67 26.17,53.12 C24.3138021,49.5790916 23.8193026,45.4807942 24.78,41.6 C25.1277262,40.2847305 25.3915903,38.9487095 25.57,37.6 C25.7745007,35.7694175 26.7965362,34.129749 28.35,33.14 C29.0210568,32.7443473 29.6224258,32.2409541 30.13,31.65 C30.4272228,31.2089784 30.8813941,30.8978532 31.4,30.78 C33.71,30.26 35.86,28.9 38.21,29.57 Z M37.27,50 C41.65,50.18 44.4,46.83 43.09,43.14 C42.6759768,41.7289857 41.6525145,40.577132 40.3,40 C38.4975827,39.2676248 36.4320871,39.6807239 35.05,41.05 C34.28,41.84 33.6,42.71 32.86,43.53 C32.3644288,43.9536753 32.0790945,44.5730095 32.0790945,45.225 C32.0790945,45.8769905 32.3644288,46.4963247 32.86,46.92 C33.38,47.5 33.97,48.02 34.49,48.59 C35.28,49.52 36.09,50.37 37.27,50 Z"
    fill="#000000"
  />
</svg>
