<svg width="280px" height="225px" viewBox="0 0 280 225" xmlns="http://www.w3.org/2000/svg">
    <title>SendCV</title>
    <g id="Home" stroke="none" stroke-width="1" fill="none" fill-rule="evenodd">
        <g transform="translate(-980.000000, -1212.000000)" fill-rule="nonzero" id="3-Features">
            <g transform="translate(140.000000, 960.000000)">
                <g id="3" transform="translate(800.000000, 252.000000)">
                    <g id="SendCV" transform="translate(40.408306, 0.000000)">
                        <g id="Group-18" transform="translate(0.000000, 0.000000)">
                            <circle id="Oval" fill="#B7C2F3" cx="137.423952" cy="112.254545" r="112.254545"></circle>
                            <path d="M73.8614892,118.778299 C75.1424276,118.778299 76.3494657,118.778299 77.5565038,118.778299 C80.6302086,118.731769 83.7039134,118.678397 86.7776182,118.618182 C89.2320895,118.504588 91.6909592,118.526518 94.1430141,118.683871 C94.8779114,118.74956 95.5758587,118.991789 96.3271783,118.975367 C97.3987326,118.950733 97.3782047,118.975367 97.6040111,117.96129 C97.8749789,116.729619 98.0145683,115.497947 98.2157414,114.245748 C98.5565038,112.295601 98.9834833,110.357771 99.3653015,108.41173 C99.5048909,107.693255 99.5746856,106.962463 99.7389085,106.248094 C99.8365519,105.747494 100.309774,105.411543 100.814568,105.484457 C101.405771,105.53783 101.537149,106.042815 101.569994,106.539589 C101.569994,106.790029 101.467354,107.044575 101.459143,107.29912 C101.422193,108.41173 100.941841,109.470968 101.023952,110.661584 C101.503294,110.533246 101.972585,110.369955 102.428058,110.173021 C104.156504,109.659824 105.055624,108.481525 105.359436,106.748974 C105.675565,104.917889 105.852105,103.053959 106.016328,101.218768 C106.229818,98.8005865 106.426885,96.3741935 106.582897,93.9601173 C106.706064,92.2480938 106.829231,90.5278592 106.886709,88.8117302 C106.919554,87.768915 106.886709,86.7260997 106.886709,85.629912 C106.340668,85.9214076 106.151812,86.5290323 105.507237,86.5331378 C105.397669,86.2528669 105.272949,85.9787579 105.13363,85.7120235 C104.583483,84.8005865 103.376445,84.4187683 102.551225,84.9278592 C101.908296,85.3027625 101.391062,85.8600033 101.065008,86.5290323 C99.9688205,88.9020528 101.11017,92.5929619 103.351812,93.9683284 C103.828162,94.2320172 104.009758,94.8258346 103.762369,95.3108504 C103.671517,95.5323945 103.496047,95.7085476 103.274858,95.8002602 C103.053669,95.8919728 102.805034,95.891668 102.58407,95.7994135 C101.601101,95.5052328 100.75896,94.8630457 100.215155,93.9929619 C99.9729261,94.5102639 99.4843631,94.5759531 99.2298176,94.9290323 C98.3512252,96.1607038 97.7928675,97.5894428 96.6843631,98.6568915 C96.5160346,98.8211144 96.5817238,99.0674487 96.5570903,99.2768328 C96.4298176,100.319648 96.1465331,100.607038 95.0790845,100.668622 C93.9107659,100.743749 92.7472546,100.880794 91.593454,101.079179 C90.6550602,101.251888 89.7080349,101.373864 88.7565038,101.444575 C86.5148616,101.563636 84.2403748,101.116129 82.0397883,101.892082 C81.9289378,101.929032 81.7811372,101.855132 81.6538645,101.863343 C80.2722201,101.945463 78.8863165,101.806873 77.5482927,101.452786 C76.2016651,107.290909 74.9864158,113.042815 73.8614892,118.778299 Z" id="Path" fill="#FFFFFF"></path>
                            <path d="M222.750052,199.859238 C222.750052,198.492082 222.963542,197.313783 222.80753,196.114956 C222.737735,195.60176 222.80753,195.031085 222.442134,194.612317 C221.387002,193.351906 220.701372,191.808211 219.157677,190.917302 C217.104891,189.68563 215.1219,188.593548 212.617501,188.704399 C210.975272,188.778299 209.353571,188.560704 207.719554,188.507331 C207.336738,188.439676 206.962335,188.330934 206.602838,188.182991 C206.242372,188.114456 205.99548,187.779899 206.036269,187.415249 C206.036269,187.004692 206.364715,186.824047 206.734216,186.778886 C207.204944,186.689947 207.684348,186.655507 208.162955,186.676246 C208.771949,186.740508 209.376891,186.522729 209.805184,186.085044 C210.753571,185.26393 211.74712,184.487977 212.716035,183.68739 C213.366692,183.11548 214.16204,182.733429 215.015155,182.582991 C216.117139,182.379569 217.196574,182.068801 218.238029,181.655132 C218.968095,181.376166 219.610235,180.906964 220.097853,180.296188 C220.386738,179.95604 220.497862,179.499366 220.39756,179.064516 C220.335976,178.740176 220.233337,178.530792 219.781724,178.674487 C218.245798,179.132519 216.666109,179.428367 215.068527,179.557185 C214.518381,179.614663 213.861489,179.516129 213.426299,179.782991 C212.547706,180.353666 211.587002,180.747801 210.679671,181.244575 C209.174295,182.065689 207.679866,182.916911 206.196387,183.79824 C204.845653,184.590616 203.322486,185.107918 202.090815,186.007038 C200.144774,187.390616 198.112516,188.618182 196.026885,189.86217 C199.138909,194.34956 200.189935,199.112023 198.169994,204.342522 C199.537149,204.707918 200.768821,205.237537 202.226299,205.134897 C204.985243,204.946041 207.124246,203.632258 209.000492,201.77654 C209.517794,201.263343 210.010463,200.725513 210.564715,200.23695 C212.206944,198.787683 213.90665,197.36305 214.690815,195.203519 C214.837924,194.839314 215.073585,194.517573 215.376445,194.267449 C215.606357,194.058065 215.84448,193.856891 216.19756,194.021114 C216.544886,194.136657 216.765158,194.478163 216.727178,194.842229 C216.727178,195.047507 216.612222,195.252786 216.751812,195.46217 C216.942322,195.574973 217.170312,195.606063 217.38407,195.548387 C218.389339,195.379321 219.392672,195.858819 219.892574,196.747214 C220.720064,197.892752 221.679115,198.937235 222.750052,199.859238 Z" id="Path" fill="#FFFFFF"></path>
                            <path d="M33.0479994,167.507331 C33.0767384,166.608211 32.8180874,166.246921 32.1653015,166.144282 C31.5125155,166.041642 31.4304041,166.616422 31.3113425,167.051613 C31.0896416,167.872727 30.798146,168.693842 30.5723396,169.514956 C29.6855361,172.766569 28.6468264,175.973021 27.6984393,179.212317 C26.8773249,182.086217 26.1177941,184.960117 25.3213132,187.834018 C24.709583,190.042815 24.0896416,192.259824 23.4450669,194.452199 C22.9975595,195.9261 22.7512252,197.453372 22.1518117,198.894428 C21.7683403,199.952949 21.4583185,201.036654 21.2239525,202.13783 C21.0884686,202.651026 20.9735126,203.221701 21.7043044,203.39824 C22.4350962,203.57478 22.5582633,202.901466 22.6691138,202.453959 C22.8360787,201.877974 23.0390189,201.313032 23.2767384,200.762463 C23.6400798,199.838781 23.9431591,198.892515 24.1840698,197.929619 C24.7752721,195.53607 25.4814305,193.179472 26.1958,190.822874 C26.7870024,188.876833 27.4931607,186.963636 28.0145683,185.001173 C28.8356827,181.995894 29.7389085,179.031672 30.6216065,176.055132 C31.2990258,173.780645 31.8902282,171.477419 32.5635419,169.202933 C32.7482927,168.599413 33.0726328,168.020528 33.0479994,167.507331 Z" id="Path" fill="#FFFFFF"></path>
                            <path d="M223.755917,205.036364 C223.775199,204.708277 223.677756,204.383952 223.480844,204.120821 C223.375618,203.931901 223.247366,203.756762 223.099026,203.599413 C220.767061,201.021114 217.687882,200.204106 214.391108,199.904399 C214.032261,199.891255 213.698046,200.086347 213.533043,200.405279 C212.301372,202.203519 210.400492,203.299707 208.823952,204.921408 C213.798829,204.649468 218.785818,204.687861 223.755917,205.036364 L223.755917,205.036364 Z" id="Path" fill="#FFFFFF"></path>
                            <path d="M108.652105,95.3765396 C109.284363,95.5900293 109.818087,95.314956 110.37234,95.2492669 C111.657384,95.0973607 112.035096,94.5513196 111.398733,92.9912023 C110.942741,91.9610896 110.415968,90.9637875 109.822193,90.0064516 C109.651696,89.5758775 109.340617,89.2156045 108.939495,88.9841642 C108.631577,91.143695 108.902545,93.2416422 108.652105,95.3765396 Z" id="Path" fill="#FFFFFF"></path>
                            <path d="M233.412222,128.093842 C235.465008,128.319648 237.312516,128.093842 239.160023,128.11437 C241.155331,128.134897 243.150639,128.11437 245.145947,128.069208 C247.141255,128.024047 249.08319,128.167742 251.05797,128.139003 C254.60929,128.077419 258.160609,128.139003 261.732457,128.167742 C263.674392,128.167742 265.616328,128.200587 267.562369,128.221114 C268.124832,128.221114 268.4697,128.163636 268.547706,127.4 C268.72014,125.568915 269.048586,123.750147 269.368821,121.935484 C269.779378,119.603519 270.284363,117.283871 270.707237,114.956012 C271.146533,112.53783 271.750052,110.152493 272.099026,107.709677 C272.333043,106.067449 272.739495,104.42522 273.072046,102.782991 C273.301958,101.645748 273.716621,100.529032 273.753571,99.3548387 C273.781504,98.486951 273.919459,97.6261161 274.164128,96.7929619 C274.453055,95.6615049 274.63586,94.5055737 274.71017,93.340176 C275.045542,89.3342717 275.655975,85.3561696 276.537149,81.4340176 C276.734216,80.6129032 276.652105,80.4856305 275.75709,80.3829912 C273.084363,80.08739 270.395213,80.1489736 267.71017,80.0914956 C266.030991,80.0504399 264.335389,80.0914956 262.664422,79.9560117 C261.149466,79.8164223 259.63451,79.7835777 258.148293,79.7835777 C256.33363,79.7835777 254.518967,79.8821114 252.700199,79.8246334 C251.05797,79.771261 249.415741,79.4140762 247.810463,79.9806452 C247.554795,80.0362058 247.290177,80.0362058 247.03451,79.9806452 C245.433337,79.8123167 243.828058,79.8615836 242.222779,79.8328446 C241.856507,79.751666 241.472972,79.8259947 241.163542,80.0381232 C241.237442,80.6170088 240.945947,81.1671554 240.830991,81.7542522 C240.293161,84.5542522 239.85797,87.3747801 239.213395,90.1501466 C238.655038,92.5560117 238.289642,94.9947214 237.981724,97.4293255 C237.63275,100.044575 237.201665,102.643402 236.811636,105.229912 C236.401079,108.009384 235.990521,110.792962 235.579964,113.572434 C235.439712,114.164435 235.330085,114.763275 235.251518,115.366569 C235.054635,118.126482 234.670565,120.869841 234.101958,123.577713 C233.814568,125.051613 233.642134,126.550147 233.412222,128.093842 Z" id="Path" fill="#FFFFFF"></path>
                            <path d="M257.171167,135.451026 L257.171167,135.422287 L258.989935,135.422287 C259.248586,135.422287 259.515448,135.459238 259.589348,135.093842 C259.869608,134.048424 260.229205,133.025907 260.665008,132.035191 C260.825126,131.706745 260.611636,131.550733 260.336562,131.476833 C260.127154,131.414416 259.910425,131.379905 259.691988,131.374194 C258.049759,131.353666 256.40753,131.209971 254.765301,131.320821 C253.300285,131.485956 251.824335,131.532637 250.351812,131.460411 C245.728938,131.049853 241.081431,131.111437 236.454451,130.750147 C235.038029,130.639296 234.845067,130.692669 233.424539,130.643402 C232.004011,130.594135 230.961196,130.438123 230.70665,129.797654 C230.341255,127.872141 230.887296,126 231.117208,124.152493 C231.379964,121.984751 231.404598,119.78827 231.913689,117.624633 C232.324246,115.797654 232.554158,113.90088 232.964715,112.049267 C233.404011,110.066276 233.826885,108.083284 234.130697,106.071554 C234.319554,104.839883 234.459143,103.579472 234.734216,102.356012 C235.181724,100.364809 235.395213,98.3325513 235.666181,96.3167155 C235.998733,93.828739 236.023366,91.3038123 236.450345,88.8158358 C236.684363,87.4568915 236.618674,87.4486804 235.272046,87.3131965 C235.017501,87.288563 233.539495,87.1859238 233.280844,87.1407625 C232.701958,87.0381232 232.45973,87.1982405 232.430991,87.8797654 C232.361196,90.1378299 231.802838,92.3384164 231.453865,94.5595308 C231.043307,97.2938416 230.090815,99.9214076 229.606357,102.655718 C228.961782,106.280938 228.107823,109.869208 227.500199,113.498534 C226.892574,117.127859 226.457384,120.68739 226.042721,124.296188 C225.93187,125.260997 225.480257,126.127273 225.426885,127.067449 C225.372638,128.190028 225.235412,129.307055 225.016328,130.409384 C224.704304,131.895601 224.535976,133.402346 224.150052,134.876246 C223.973513,135.541349 224.129524,135.648094 224.876738,135.697361 C226.346533,135.76305 227.824539,135.619355 229.294334,135.886217 C230.069191,135.996778 230.852232,136.039364 231.63451,136.01349 C233.880257,136.01349 236.1219,136.01349 238.367648,135.968328 C242.514275,135.8739 246.665008,136.029912 250.811636,135.767155 C252.926005,135.619355 255.048586,135.54956 257.171167,135.451026 Z" id="Path" fill="#FFFFFF"></path>
                            <path d="M175.002252,11.9061584 C174.612222,13.913783 174.230404,15.8187683 173.869114,17.7237537 C173.708996,18.5777126 173.610463,19.4398827 173.433923,20.2856305 C173.076738,22.0181818 172.633337,23.7302053 172.325419,25.4668622 C172.017501,27.2035191 171.820433,29.0715543 171.549466,30.8656891 C171.171753,33.3290323 170.75709,35.8293255 170.383483,38.3090909 C170.067354,40.3947214 169.862076,42.4967742 169.463835,44.5741935 C169.24047,45.49622 169.085407,46.4334636 168.999906,47.3782991 C168.865146,49.5274297 168.599156,51.6663148 168.203425,53.7829912 C167.895507,55.7002933 167.55885,57.6175953 167.226299,59.5307918 C167.144187,60.0070381 167.226299,60.228739 167.805184,60.2082111 C169.492574,60.1466276 171.179964,60.1630499 172.87146,60.1507331 C174.866768,60.1507331 176.866181,60.1260997 178.861489,60.0973607 C180.856797,60.0686217 182.880844,60.1917889 184.89668,60.171261 C188.493161,60.1302053 192.089642,60.2 195.686123,60.2205279 C197.547315,60.2205279 199.405771,60.228739 201.261489,60.2451613 C202.160609,60.2451613 202.152398,60.2451613 202.296093,59.3501466 C202.636856,57.2686217 203.035096,55.1953079 203.338909,53.1096774 C203.49492,52.0381232 203.749466,50.9953079 203.946533,49.9360704 C204.28319,48.0557185 204.615741,46.1794721 205.005771,44.311437 C205.293161,42.9237537 205.584656,41.5319648 205.789935,40.1237537 C206.056797,38.3337243 206.446826,36.5642229 206.836856,34.7865103 C207.091401,33.6123167 207.501958,32.4463343 207.526592,31.2269795 C207.57005,30.4024323 207.7078,29.5855751 207.937149,28.7923754 C208.098183,28.253914 208.222998,27.7052783 208.310756,27.1501466 C208.626885,24.5759531 208.721313,21.9730205 209.201665,19.4193548 C209.579378,17.4199413 209.743601,15.3794721 210.318381,13.4170088 C210.568821,12.5466276 210.507237,12.485044 209.583483,12.3741935 C206.90665,12.0621701 204.217501,12.1483871 201.532457,12.0744868 C199.849172,12.0293255 198.153571,12.1073314 196.482604,11.9431085 C194.967648,11.7912023 193.448586,11.7953079 191.937735,11.7747801 C190.082017,11.7501466 188.218087,11.8445748 186.354158,11.7994135 C184.773513,11.7624633 183.168234,11.343695 181.5958,11.9513196 C181.254276,12.0192371 180.90272,12.0192371 180.561196,11.9513196 C178.734216,11.9061584 176.915448,11.8076246 175.002252,11.9061584 Z" id="Path" fill="#FFFFFF"></path>
                            <path d="M194.060316,63.8046921 C193.842297,63.56386 193.526474,63.4354152 193.202252,63.4557185 C191.601079,63.4187683 189.999906,63.3859238 188.398733,63.373607 C186.345947,63.373607 184.338322,63.6199413 182.293747,63.4475073 C179.748293,63.2381232 177.190521,63.1190616 174.636856,63.0369501 C171.524832,62.9589443 169.652692,62.6715543 166.540668,62.6592375 C165.553204,62.5781257 164.710438,61.9132953 164.401665,60.9718475 C164.368821,59.1612903 164.861489,57.4082111 165.00929,55.6346041 C165.121066,53.6111006 165.341718,51.5950836 165.670287,49.5953079 C166.006944,47.8627566 166.253278,46.1096774 166.647413,44.3894428 C167.107237,42.3695015 167.509583,40.341349 167.842134,38.2967742 C168.05973,36.9706745 168.301958,35.6527859 168.511343,34.3266862 C168.847999,32.228739 169.274979,30.1390029 169.467941,28.0328446 C169.681431,25.6557185 169.816914,23.2785924 170.18231,20.9178886 C170.3958,19.5384164 170.362955,19.5384164 168.950639,19.3741935 C168.737149,19.3495601 167.30841,19.2592375 167.090815,19.2181818 C166.540668,19.1155425 166.2697,19.2181818 166.204011,19.9038123 C165.920727,22.3096774 165.538909,24.7032258 165.136562,27.0926686 C164.746533,29.4 163.904891,31.6087977 163.523073,33.916129 C162.849759,37.9683284 161.769994,41.9466276 161.232164,46.027566 C160.801079,49.2832845 160.259143,52.5266862 159.848586,55.7865103 C159.708996,56.9073314 159.368234,57.9829912 159.220433,59.0709677 C159.072633,60.1589443 159.002838,61.3043988 158.785243,62.4087977 C158.493747,63.8950147 158.202252,65.3853372 157.927178,66.8756598 C157.787589,67.631085 157.882017,67.6967742 158.715448,67.7296188 C159.886455,67.7007329 161.05817,67.7336231 162.225712,67.8281525 C164.689055,68.1360704 167.152398,68.0744868 169.615741,68.0744868 C171.955917,68.0744868 174.291988,67.9390029 176.636269,68.0087977 C178.668527,68.0703812 180.708996,68.0457478 182.741255,67.9513196 C184.383483,67.8692082 186.025712,67.8158358 187.639202,67.7049853 C189.252692,67.5941349 191.009876,67.5202346 192.697266,67.4832845 C193.013395,67.4832845 193.284363,67.4832845 193.399319,67.0727273 C193.588175,66.3953079 193.838615,64.457478 194.060316,63.8046921 Z" id="Path" fill="#FFFFFF"></path>
                            <path d="M73.0239525,94.3378299 C72.3652854,93.5901309 71.8353057,92.7382786 71.4556241,91.8170088 C71.2096743,91.1290836 71.0215343,90.421842 70.8931607,89.7026393 C70.6468264,88.4093842 70.2116358,87.1489736 69.8421343,85.8762463 C69.7270283,85.5535607 69.6418215,85.2209793 69.5875889,84.8826979 C69.365888,82.628739 68.9183807,80.3953079 68.8526915,78.1167155 C68.8239525,77.2217009 69.2632487,76.3800587 69.0497589,75.4768328 C68.9922809,75.2387097 69.1565038,75.1565982 69.4603161,75.1565982 C69.8421343,75.1565982 69.9899349,74.7788856 70.0884686,74.4504399 C70.2444804,73.9331378 69.7764452,74.0932551 69.5547443,73.970088 C69.3330434,73.8469208 69.3699936,73.6334311 69.480844,73.4199413 C70.0309906,72.3565982 70.1377355,71.1167155 70.7905214,70.086217 C70.918953,69.9105417 70.9827658,69.6958985 70.9711666,69.4785924 C70.7412546,68.571261 71.168234,67.9964809 71.6485859,67.2369501 C72.4095456,65.8679163 73.8135035,64.9788461 75.3764452,64.8762463 C77.4292311,64.6791789 79.5066504,64.3630499 81.6004921,64.5683284 C82.2204334,64.6258065 82.8937472,64.3178886 83.4315771,65.0158358 C83.2673543,63.6117302 83.768234,62.4087977 83.9653015,61.1607038 C84.0184873,60.9599796 84.0324275,60.750876 84.0063572,60.544868 C83.7723396,59.3747801 84.2198469,58.8328446 85.3037179,58.3360704 C86.2644217,57.8967742 87.3770317,58.0404692 88.2679408,57.4123167 C88.5002145,57.2724998 88.7987971,57.3153996 88.9823103,57.514956 C89.1808039,57.7000547 89.4789008,57.7286854 89.7089965,57.5847507 C90.1195537,57.1741935 90.4274716,57.1372434 90.8175009,57.6093842 C90.9447736,57.7612903 91.1993191,57.6750733 91.3799642,57.4944282 C91.8644217,57.0017595 91.880844,56.997654 92.3324569,57.4164223 C92.4186739,57.4985337 92.4350962,57.5970674 92.5911079,57.5601173 C93.3711666,57.3794721 94.1676475,57.7530792 94.8450669,57.6914956 C95.6661812,57.6217009 96.310756,57.8721408 97.0456534,57.9994135 C99.1518117,58.368915 101.106064,59.1941349 103.101372,59.9002933 C106.109166,60.8971524 108.928945,62.3903031 111.443894,64.3178886 C112.535976,65.1882698 113.669114,66.3296188 113.574686,68.0785924 C113.480257,69.827566 113.574686,71.6545455 113.040961,73.4651026 C112.712516,74.6187683 112.474392,75.8504399 112.150052,77.0369501 C112.084363,77.2709677 112.100785,77.6692082 111.665595,77.6568915 L111.690228,77.6568915 L111.599906,76.942522 C110.708996,77.6240469 110.725419,78.716129 110.331284,79.5741935 C109.801665,80.7319648 109.994627,82.1237537 109.19404,83.2692082 C108.894334,83.6797654 108.996973,84.3818182 109.321313,84.9894428 C110.142428,86.5249267 111.23451,87.883871 112.030991,89.4234604 C112.749466,90.8029326 113.45973,92.1577713 113.701958,93.7507331 C113.907237,95.1014663 113.521313,96.3824047 112.129524,97.0844575 C111.273869,97.5084627 110.346517,97.7688453 109.395213,97.8521994 C108.726005,97.9178886 108.533043,98.0656891 108.491988,98.7554252 C108.391717,101.172428 108.157338,103.582001 107.789935,105.973021 C107.551812,107.356598 107.477911,108.846921 106.558263,109.992375 C105.872633,110.846334 105.256797,111.761877 104.09492,112.17654 C103.080844,112.533724 102.070873,112.931965 101.052692,113.280938 C100.755727,113.333871 100.514146,113.550023 100.428645,113.839296 C99.9581862,115.369308 99.6432011,116.942858 99.4884686,118.53607 C99.4474129,118.946628 99.5172076,119.180645 100.03451,119.164223 C101.808261,119.08668 103.582332,119.310174 105.281431,119.82522 C106.303718,120.137243 107.420433,120.133138 108.496093,120.264516 C110.911279,120.519194 113.297399,120.998892 115.623366,121.697361 C115.937121,121.819564 116.265692,121.899636 116.600492,121.935484 C117.522411,121.969796 118.417749,122.25358 119.191108,122.756598 C120.767648,123.803519 122.533043,124.365982 124.249172,125.051613 C127.270205,126.250854 129.977524,128.124072 132.164715,130.528446 C133.860316,132.371848 135.576445,134.190616 137.140668,136.144868 C137.63962,136.800664 138.0715,137.504877 138.429818,138.246921 C139.55885,140.435191 140.503131,142.705572 141.484363,144.959531 C142.252254,146.608609 143.174654,148.181227 144.239202,149.656305 C145.380551,151.327273 146.673806,152.903812 147.650932,154.68563 C147.946326,155.217266 148.184416,155.778774 148.361196,156.360704 C148.919554,158.302639 150.089642,159.940762 150.960023,161.726686 C151.98231,163.824633 153.053865,165.893842 154.05973,168 C154.706569,169.320364 155.431814,170.600853 156.231577,171.834604 C156.910847,172.88956 157.522439,173.986587 158.062662,175.119062 C158.822193,176.76129 160.016914,178.08739 160.842134,179.659824 C161.006079,179.922398 161.272695,180.104115 161.577032,180.160704 C163.457384,180.669795 165.33363,181.178886 167.209876,181.708504 C168.663249,182.119062 170.10841,182.550147 171.561782,182.973021 C173.421606,183.519062 175.289642,184.036364 177.141255,184.615249 C179.329524,185.292669 181.546533,185.871554 183.734803,186.548974 C185.015741,186.95132 186.310365,187.316716 187.618674,187.645161 C189.466181,188.109091 191.260316,188.74956 193.079084,189.28739 C193.511184,189.466484 194.00744,189.385366 194.360023,189.078006 C195.431577,188.302053 196.642721,187.719062 197.775859,187.02522 C200.649759,185.268035 203.490815,183.461584 206.39756,181.729032 C208.364128,180.550733 210.223952,179.187683 212.354744,178.26393 C213.111095,177.964006 213.903293,177.763886 214.711343,177.668622 C216.164715,177.426393 217.585243,177.089736 219.046826,176.79824 C220.39756,176.527273 221.641548,176.568328 222.405184,177.972434 C222.450345,179.795308 222.023366,181.306158 220.282604,182.365396 C219.161782,183.046921 218.110756,183.740762 216.780551,183.909091 C215.620779,184.106689 214.550765,184.658908 213.717794,185.489736 C213.307237,185.859238 212.855624,186.183578 212.338322,186.594135 C213.244093,186.777504 214.162102,186.894142 215.08495,186.943109 C216.267465,186.952387 217.421124,187.309336 218.402252,187.969501 C219.863835,188.913783 221.276152,189.919648 222.310756,191.348387 C222.416576,191.486391 222.539339,191.610533 222.676152,191.717889 C224.53187,193.117889 224.581137,195.146041 224.618087,197.198827 C224.642721,198.455132 224.700199,199.703226 224.351225,200.939003 C224.254124,201.327407 224.357319,201.738649 224.626299,202.035191 C225.373513,202.958944 225.74712,204.087977 226.186416,205.15132 C226.288719,205.391067 226.363109,205.641786 226.408117,205.898534 C226.560023,206.83871 226.313689,207.130205 225.398146,207.007038 C222.30665,206.637537 219.198733,206.596481 216.090815,206.473314 C213.565888,206.391202 211.098439,206.924927 208.589935,206.793548 C206.99342,206.674222 205.388106,206.81285 203.835683,207.204106 C202.55885,207.548974 201.15885,207.401173 199.808117,207.265689 C199.550868,207.245852 199.301913,207.16568 199.081431,207.031672 C198.356886,206.646582 197.587376,206.352844 196.790521,206.157185 C196.515448,206.075073 196.236269,205.964223 196.108996,206.243402 C195.77234,206.994721 195.090815,206.961877 194.466768,207.019355 C189.855441,207.466708 185.21817,207.58607 180.589935,207.37654 C177.038615,207.2 173.48319,207.286217 169.915448,207.2 C166.963542,207.130205 164.015741,207.031672 161.063835,206.974194 C157.726005,206.908504 154.388175,207.187683 151.04624,207.043988 C149.716035,206.98651 148.381724,207.134311 147.055624,206.773021 C145.823952,206.432258 144.518381,206.604692 143.237442,206.407625 C141.10665,206.083284 139.542428,205.003519 138.150639,203.533724 C136.377032,201.698534 134.677325,199.805865 133.072046,197.822874 C131.791108,196.246334 130.313102,194.821701 128.917208,193.343695 C127.521313,191.865689 126.301958,190.256305 125.053865,188.663343 C124.479125,187.847391 123.742642,187.158424 122.890228,186.639296 C122.669936,186.218227 122.592144,185.73707 122.668527,185.268035 C123.189935,181.281525 123.719554,177.295015 124.228645,173.308504 C124.420545,172.110196 124.496165,170.896144 124.454451,169.683284 C124.429818,169.272727 124.339495,168.759531 123.760609,168.730792 C123.181724,168.702053 123.070873,169.141349 123.00929,169.601173 C122.7958,171.276246 122.598733,172.95132 122.372926,174.630499 C122.14712,176.309677 121.917208,178.054545 121.695507,179.766569 C121.420433,181.868622 121.153571,183.970674 120.874392,186.072727 C120.508996,188.995894 120.135389,191.914956 119.786416,194.834018 C119.49492,197.243988 119.211636,199.653959 118.965301,202.072141 C118.875777,202.754991 118.893786,203.447651 119.018674,204.124927 C119.17058,204.814663 119.215741,205.504399 118.80929,206.005279 C111.587589,214.824047 94.5001988,217.911437 82.368234,217.911437 C46.994627,217.911437 36.6034246,206.793548 3.95181174,206.793548 C3.6063226,206.771403 3.259453,206.786544 2.91720763,206.83871 C1.74301408,207.097361 0.930110856,206.522581 0.297852791,205.660411 C-0.047637133,205.141356 -0.0959328656,204.479237 0.170580064,203.915543 C0.954744287,202.092669 1.68964165,200.249267 2.57644517,198.463343 C4.4184784,194.754643 6.20577068,191.013099 7.938322,187.23871 C9.37116657,184.093842 10.623366,180.866862 12.0438938,177.717889 C13.5752721,174.322581 15.225712,170.980645 16.7899349,167.60176 C17.3688205,166.341349 17.7999056,165.019355 18.3664745,163.754839 C19.4790845,161.270968 20.5424276,158.77478 21.8890551,156.385337 C23.7011011,153.294883 25.2660899,150.066064 26.569407,146.729032 C27.2755654,144.832258 28.2773249,143.054545 29.110756,141.202933 C29.3488792,140.669208 29.8004921,140.316129 30.0673543,139.815249 C30.5148616,138.994135 30.9582633,138.148387 31.422193,137.323167 C32.4855361,135.434604 34.0045977,133.86217 35.1459466,132.035191 C35.9342164,130.77478 37.0098763,129.785337 37.8925742,128.62346 C39.1817238,126.919648 40.8978528,125.811144 42.8192604,124.953079 C44.4902282,124.209971 46.2884686,123.906158 48.0128088,123.364223 C50.225712,122.674487 52.4262985,121.943695 54.6925742,121.414076 C56.5482927,120.978886 58.3875889,120.629912 60.2843631,120.330205 C61.310756,120.165982 62.337149,120.051026 63.3758587,119.919648 C64.3324569,119.866276 65.3054774,119.919648 66.2004921,119.488563 C66.8368557,119.75132 67.4321636,119.488563 68.0479994,119.373607 C68.8280581,119.316129 69.6040111,119.25044 70.3840698,119.209384 C71.4309906,119.151906 71.4597296,119.168328 71.7101695,118.170674 C71.9893484,117.037537 72.2274716,115.892082 72.4697003,114.746628 C73.2004921,111.355425 73.9258098,107.962854 74.6456534,104.568915 C75.0562106,102.516129 75.4667677,100.487977 75.9306974,98.4639296 C76.0743924,97.8439883 75.7172076,97.4950147 75.4790845,97.0475073 C75.3230727,96.743695 74.764715,96.4316716 75.540668,96.0826979 C75.7746856,95.9800587 75.2204334,95.3231672 75.1999056,95.343695 C74.5060639,96.2222874 74.5183807,95.142522 74.4321636,94.998827 C73.7090405,93.7878557 73.1224632,92.5004149 72.68319,91.1601173 C72.2110493,89.829912 71.9852428,88.4052786 71.2667677,87.0545455 C70.9958,88.3560117 71.0779114,88.7912023 71.7224862,89.88739 C71.8456534,90.0967742 72.050932,90.2979472 71.9441871,90.597654 C71.7676475,91.0780059 72.0180874,91.4803519 72.2028381,91.8868035 C72.538999,92.6857626 72.8135057,93.5092829 73.0239525,94.3501466 L73.0239525,94.3378299 Z M73.8450669,118.778299 C75.1260053,118.778299 76.3330434,118.778299 77.5400815,118.778299 C80.6137863,118.731769 83.6874911,118.678397 86.7611959,118.618182 C89.2156673,118.504588 91.6745369,118.526518 94.1265918,118.683871 C94.8614892,118.74956 95.5594364,118.991789 96.310756,118.975367 C97.3823103,118.950733 97.3617824,118.975367 97.5875889,117.96129 C97.8585566,116.729619 97.998146,115.497947 98.1993191,114.245748 C98.5400815,112.295601 98.967061,110.357771 99.3488792,108.41173 C99.4884686,107.693255 99.5582633,106.962463 99.7224862,106.248094 C99.8201297,105.747494 100.293351,105.411543 100.798146,105.484457 C101.389348,105.53783 101.520727,106.042815 101.553571,106.539589 C101.553571,106.790029 101.450932,107.044575 101.442721,107.29912 C101.405771,108.41173 100.925419,109.470968 101.00753,110.661584 C101.486871,110.533246 101.956163,110.369955 102.411636,110.173021 C104.140082,109.659824 105.039202,108.481525 105.343014,106.748974 C105.659143,104.917889 105.835683,103.053959 105.999906,101.218768 C106.213395,98.8005865 106.410463,96.3741935 106.566474,93.9601173 C106.689642,92.2480938 106.812809,90.5278592 106.870287,88.8117302 C106.903131,87.768915 106.870287,86.7260997 106.870287,85.629912 C106.324246,85.9214076 106.135389,86.5290323 105.490815,86.5331378 C105.381246,86.2528669 105.256527,85.9787579 105.117208,85.7120235 C104.567061,84.8005865 103.360023,84.4187683 102.534803,84.9278592 C101.891873,85.3027625 101.37464,85.8600033 101.048586,86.5290323 C99.9523982,88.9020528 101.093747,92.5929619 103.335389,93.9683284 C103.81174,94.2320172 103.993336,94.8258346 103.745947,95.3108504 C103.655095,95.5323945 103.479625,95.7085476 103.258436,95.8002602 C103.037246,95.8919728 102.788611,95.891668 102.567648,95.7994135 C101.584679,95.5052328 100.742538,94.8630457 100.198733,93.9929619 C99.9565038,94.5102639 99.4679408,94.5759531 99.2133953,94.9290323 C98.3348029,96.1607038 97.7764452,97.5894428 96.6679408,98.6568915 C96.4996123,98.8211144 96.5653015,99.0674487 96.540668,99.2768328 C96.4133953,100.319648 96.1301109,100.607038 95.0626622,100.668622 C93.8943436,100.743749 92.7308323,100.880794 91.5770317,101.079179 C90.6386379,101.251888 89.6916126,101.373864 88.7400815,101.444575 C86.4984393,101.563636 84.2239525,101.116129 82.023366,101.892082 C81.9125155,101.929032 81.764715,101.855132 81.6374422,101.863343 C80.2557978,101.945463 78.8698942,101.806873 77.5318704,101.452786 C76.2016651,107.290909 74.9864158,113.042815 73.8614892,118.778299 L73.8450669,118.778299 Z M222.750052,199.859238 C222.750052,198.492082 222.963542,197.313783 222.80753,196.114956 C222.737735,195.60176 222.80753,195.031085 222.442134,194.612317 C221.387002,193.351906 220.701372,191.808211 219.157677,190.917302 C217.104891,189.68563 215.1219,188.593548 212.617501,188.704399 C210.975272,188.778299 209.353571,188.560704 207.719554,188.507331 C207.336738,188.439676 206.962335,188.330934 206.602838,188.182991 C206.242372,188.114456 205.99548,187.779899 206.036269,187.415249 C206.036269,187.004692 206.364715,186.824047 206.734216,186.778886 C207.204944,186.689947 207.684348,186.655507 208.162955,186.676246 C208.771949,186.740508 209.376891,186.522729 209.805184,186.085044 C210.753571,185.26393 211.74712,184.487977 212.716035,183.68739 C213.366692,183.11548 214.16204,182.733429 215.015155,182.582991 C216.117139,182.379569 217.196574,182.068801 218.238029,181.655132 C218.968095,181.376166 219.610235,180.906964 220.097853,180.296188 C220.386738,179.95604 220.497862,179.499366 220.39756,179.064516 C220.335976,178.740176 220.233337,178.530792 219.781724,178.674487 C218.245798,179.132519 216.666109,179.428367 215.068527,179.557185 C214.518381,179.614663 213.861489,179.516129 213.426299,179.782991 C212.547706,180.353666 211.587002,180.747801 210.679671,181.244575 C209.174295,182.065689 207.679866,182.916911 206.196387,183.79824 C204.845653,184.590616 203.322486,185.107918 202.090815,186.007038 C200.144774,187.390616 198.112516,188.618182 196.026885,189.86217 C199.138909,194.34956 200.189935,199.112023 198.169994,204.342522 C199.537149,204.707918 200.768821,205.237537 202.226299,205.134897 C204.985243,204.946041 207.124246,203.632258 209.000492,201.77654 C209.517794,201.263343 210.010463,200.725513 210.564715,200.23695 C212.206944,198.787683 213.90665,197.36305 214.690815,195.203519 C214.837924,194.839314 215.073585,194.517573 215.376445,194.267449 C215.606357,194.058065 215.84448,193.856891 216.19756,194.021114 C216.544886,194.136657 216.765158,194.478163 216.727178,194.842229 C216.727178,195.047507 216.612222,195.252786 216.751812,195.46217 C216.942322,195.574973 217.170312,195.606063 217.38407,195.548387 C218.389339,195.379321 219.392672,195.858819 219.892574,196.747214 C220.720064,197.892752 221.679115,198.937235 222.750052,199.859238 Z M33.0479994,167.507331 C33.0767384,166.608211 32.8180874,166.246921 32.1653015,166.144282 C31.5125155,166.041642 31.4304041,166.616422 31.3113425,167.051613 C31.0896416,167.872727 30.798146,168.693842 30.5723396,169.514956 C29.6855361,172.766569 28.6468264,175.973021 27.6984393,179.212317 C26.8773249,182.086217 26.1177941,184.960117 25.3213132,187.834018 C24.709583,190.042815 24.0896416,192.259824 23.4450669,194.452199 C22.9975595,195.9261 22.7512252,197.453372 22.1518117,198.894428 C21.7683403,199.952949 21.4583185,201.036654 21.2239525,202.13783 C21.0884686,202.651026 20.9735126,203.221701 21.7043044,203.39824 C22.4350962,203.57478 22.5582633,202.901466 22.6691138,202.453959 C22.8360787,201.877974 23.0390189,201.313032 23.2767384,200.762463 C23.6400798,199.838781 23.9431591,198.892515 24.1840698,197.929619 C24.7752721,195.53607 25.4814305,193.179472 26.1958,190.822874 C26.7870024,188.876833 27.4931607,186.963636 28.0145683,185.001173 C28.8356827,181.995894 29.7389085,179.031672 30.6216065,176.055132 C31.2990258,173.780645 31.8902282,171.477419 32.5635419,169.202933 C32.7482927,168.599413 33.0726328,168.020528 33.0479994,167.507331 Z M223.755917,205.036364 C223.775199,204.708277 223.677756,204.383952 223.480844,204.120821 C223.375618,203.931901 223.247366,203.756762 223.099026,203.599413 C220.767061,201.021114 217.687882,200.204106 214.391108,199.904399 C214.032261,199.891255 213.698046,200.086347 213.533043,200.405279 C212.301372,202.203519 210.400492,203.299707 208.823952,204.921408 C213.798829,204.649468 218.785818,204.687861 223.755917,205.036364 L223.755917,205.036364 Z M108.652105,95.3765396 C109.284363,95.5900293 109.818087,95.314956 110.37234,95.2492669 C111.657384,95.0973607 112.035096,94.5513196 111.398733,92.9912023 C110.942741,91.9610896 110.415968,90.9637875 109.822193,90.0064516 C109.651696,89.5758775 109.340617,89.2156045 108.939495,88.9841642 C108.631577,91.143695 108.902545,93.2416422 108.652105,95.3765396 Z M70.6837765,85.227566 C71.196973,84.201173 70.4908147,83.3882698 70.3758587,82.4932551 C70.3758587,82.3372434 70.1952135,82.197654 70.1007853,82.0539589 C70.1911079,82.255132 69.9529848,82.3906158 70.0309906,82.6246334 C70.3282556,83.2667848 70.3949579,83.9918094 70.2198469,84.6774194 C70.1828968,84.9607038 70.3717531,85.1249267 70.6837765,85.227566 L70.6837765,85.227566 Z M71.2092897,86.3648094 C71.1025449,86.2211144 71.1477062,85.9829912 70.9260053,85.9912023 C70.7043044,85.9994135 70.6755654,86.1882698 70.70841,86.3607038 C70.7437922,86.5272424 70.8872935,86.6487964 71.0573836,86.656305 C71.0984393,86.6604106 71.1559173,86.4674487 71.2092897,86.3648094 L71.2092897,86.3648094 Z M79.6503455,65.368915 C79.1782047,65.8123167 78.8292311,65.4304985 78.4186739,65.5577713 L79.6503455,65.368915 Z M112.905477,72.914956 C112.905477,72.7548387 112.815155,72.6809384 112.696093,72.713783 C112.379964,72.7917889 112.416914,73.0997067 112.367648,73.3337243 C112.338909,73.4733138 112.478498,73.5472141 112.601665,73.5266862 C112.967061,73.4897361 112.757677,73.1038123 112.905477,72.914956 Z" id="Shape" fill="#010101"></path>
                            <path d="M259.831577,138.074487 C258.145555,137.988268 256.455617,138.017074 254.773513,138.160704 C252.626299,138.308504 250.466768,138.390616 248.311343,138.452199 C245.195213,138.542522 242.087296,138.411144 238.979378,138.480938 C236.552985,138.538416 234.126592,138.554839 231.700199,138.56305 C230.791304,138.523641 229.88606,138.423515 228.990521,138.263343 C227.048586,138.012903 225.102545,138.308504 223.164715,138.078592 C222.864447,138.040387 222.57046,137.963095 222.290228,137.84868 C221.775905,137.691784 221.454373,137.181526 221.534803,136.649853 C221.596387,134.950147 221.990521,133.303812 222.282017,131.645161 C222.532457,130.195894 222.750052,128.734311 223.033337,127.297361 C223.489055,125.002346 223.63275,122.670381 224.067941,120.375367 C224.478498,118.162463 224.704304,115.91261 225.024539,113.683284 C225.361196,111.334897 225.775859,109.002933 226.317794,106.703812 C226.814568,104.564809 227.175859,102.388856 227.664422,100.237537 C228.038029,98.5953079 228.563542,96.9900293 228.896093,95.3313783 C229.134216,94.1407625 229.376445,92.9460411 229.499612,91.7390029 C229.676152,89.973607 230.218087,88.2697947 230.205771,86.4592375 C230.205771,85.1085044 231.343014,84.2750733 232.779964,84.4557185 C234.286709,84.6404692 235.813982,84.3695015 237.296093,84.7143695 C237.661489,84.7964809 237.751812,84.5337243 237.780551,84.2668622 C237.969407,82.6246334 238.655038,81.0932551 238.696093,79.4181818 C238.716621,78.4451613 239.016328,78.4041056 239.956504,77.9278592 C241.381137,77.201173 242.855038,77.4926686 244.291988,77.5173021 C249.374686,77.5870968 254.453278,77.4803519 259.535976,77.4146628 C262.130697,77.3818182 264.721313,77.5829912 267.336562,77.4146628 C269.097853,77.6815249 270.875565,77.4680352 272.645067,77.6322581 C273.765888,77.7390029 274.89492,77.7307918 276.019847,77.7677419 C276.647999,77.7882698 277.251518,77.940176 277.900199,77.6363636 C278.684363,77.2791789 279.439788,78.1618768 279.337149,79.2375367 C279.283777,79.7958944 279.127765,80.3419355 279.029231,80.8797654 C278.413395,84.3243402 277.727765,87.7565982 277.387002,91.2463343 C276.839462,96.0144989 276.034968,100.749636 274.977032,105.431085 C274.201079,109.1261 273.540082,112.821114 272.784656,116.516129 C272.316621,118.802933 272.123659,121.143109 271.721313,123.442229 C271.388762,125.322581 271.179378,127.211144 270.900199,129.095601 C270.79756,129.80176 270.723659,130.557185 269.668527,130.327273 C267.870287,131.435777 265.911929,130.73783 264.027472,130.791202 C263.017501,130.832258 262.7219,130.906158 262.750639,131.92434 C262.791694,133.385924 262.249759,134.732551 262.052692,136.144868 C261.835096,137.692669 261.43275,137.947214 259.831577,138.074487 Z M233.412222,128.093842 C235.465008,128.319648 237.312516,128.093842 239.160023,128.11437 C241.155331,128.134897 243.150639,128.11437 245.145947,128.069208 C247.141255,128.024047 249.08319,128.167742 251.05797,128.139003 C254.60929,128.077419 258.160609,128.139003 261.732457,128.167742 C263.674392,128.167742 265.616328,128.200587 267.562369,128.221114 C268.124832,128.221114 268.4697,128.163636 268.547706,127.4 C268.72014,125.568915 269.048586,123.750147 269.368821,121.935484 C269.779378,119.603519 270.284363,117.283871 270.707237,114.956012 C271.146533,112.53783 271.750052,110.152493 272.099026,107.709677 C272.333043,106.067449 272.739495,104.42522 273.072046,102.782991 C273.301958,101.645748 273.716621,100.529032 273.753571,99.3548387 C273.781504,98.486951 273.919459,97.6261161 274.164128,96.7929619 C274.453055,95.6615049 274.63586,94.5055737 274.71017,93.340176 C275.045542,89.3342717 275.655975,85.3561696 276.537149,81.4340176 C276.734216,80.6129032 276.652105,80.4856305 275.75709,80.3829912 C273.084363,80.08739 270.395213,80.1489736 267.71017,80.0914956 C266.030991,80.0504399 264.335389,80.0914956 262.664422,79.9560117 C261.149466,79.8164223 259.63451,79.7835777 258.148293,79.7835777 C256.33363,79.7835777 254.518967,79.8821114 252.700199,79.8246334 C251.05797,79.771261 249.415741,79.4140762 247.810463,79.9806452 C247.554795,80.0362058 247.290177,80.0362058 247.03451,79.9806452 C245.433337,79.8123167 243.828058,79.8615836 242.222779,79.8328446 C241.856507,79.751666 241.472972,79.8259947 241.163542,80.0381232 C241.237442,80.6170088 240.945947,81.1671554 240.830991,81.7542522 C240.293161,84.5542522 239.85797,87.3747801 239.213395,90.1501466 C238.655038,92.5560117 238.289642,94.9947214 237.981724,97.4293255 C237.63275,100.044575 237.201665,102.643402 236.811636,105.229912 C236.401079,108.009384 235.990521,110.792962 235.579964,113.572434 C235.439712,114.164435 235.330085,114.763275 235.251518,115.366569 C235.054635,118.126482 234.670565,120.869841 234.101958,123.577713 C233.814568,125.051613 233.642134,126.550147 233.412222,128.093842 Z M257.171167,135.483871 L257.171167,135.455132 L258.989935,135.455132 C259.248586,135.455132 259.515448,135.492082 259.589348,135.126686 C259.869608,134.081268 260.229205,133.058752 260.665008,132.068035 C260.825126,131.739589 260.611636,131.583578 260.336562,131.509677 C260.127154,131.447261 259.910425,131.41275 259.691988,131.407038 C258.049759,131.38651 256.40753,131.242815 254.765301,131.353666 C253.300285,131.518801 251.824335,131.565482 250.351812,131.493255 C245.728938,131.082698 241.081431,131.144282 236.454451,130.782991 C235.038029,130.672141 234.845067,130.725513 233.424539,130.676246 C232.004011,130.626979 230.961196,130.470968 230.70665,129.830499 C230.341255,127.904985 230.887296,126.032845 231.117208,124.185337 C231.379964,122.017595 231.404598,119.821114 231.913689,117.657478 C232.324246,115.830499 232.554158,113.933724 232.964715,112.082111 C233.404011,110.09912 233.826885,108.116129 234.130697,106.104399 C234.319554,104.872727 234.459143,103.612317 234.734216,102.388856 C235.181724,100.397654 235.395213,98.3653959 235.666181,96.3495601 C235.998733,93.8615836 236.023366,91.3366569 236.450345,88.8486804 C236.684363,87.4897361 236.618674,87.4815249 235.272046,87.3460411 C235.017501,87.3214076 233.539495,87.2187683 233.280844,87.173607 C232.701958,87.0709677 232.45973,87.231085 232.430991,87.91261 C232.361196,90.1706745 231.802838,92.371261 231.453865,94.5923754 C231.043307,97.3266862 230.090815,99.9542522 229.606357,102.688563 C228.961782,106.313783 228.107823,109.902053 227.500199,113.531378 C226.892574,117.160704 226.457384,120.720235 226.042721,124.329032 C225.93187,125.293842 225.480257,126.160117 225.426885,127.100293 C225.372638,128.222872 225.235412,129.3399 225.016328,130.442229 C224.704304,131.928446 224.535976,133.435191 224.150052,134.909091 C223.973513,135.574194 224.129524,135.680938 224.876738,135.730205 C226.346533,135.795894 227.824539,135.652199 229.294334,135.919062 C230.069191,136.029622 230.852232,136.072209 231.63451,136.046334 C233.880257,136.046334 236.1219,136.046334 238.367648,136.001173 C242.514275,135.906745 246.665008,136.062757 250.811636,135.8 C252.926005,135.619355 255.048586,135.54956 257.171167,135.451026 L257.171167,135.483871 Z" id="Shape" fill="#010101"></path>
                            <path d="M223.862662,176.859824 C223.557298,176.613018 223.364783,176.253163 223.328938,175.86217 C223.25643,175.379328 223.542584,174.914546 224.006357,174.761877 C226.527178,173.760117 228.933043,172.434018 231.556504,171.711437 C231.969164,171.804453 232.290003,172.129045 232.378215,172.542758 C232.466427,172.956471 232.30589,173.383702 231.967061,173.63695 C231.656804,173.869404 231.3099,174.048407 230.940668,174.166569 C228.997364,174.957576 227.060903,175.766373 225.131284,176.592962 C224.727441,176.755983 224.297958,176.846327 223.862662,176.859824 L223.862662,176.859824 Z" id="Path" fill="#010101"></path>
                            <path d="M225.447413,179.824047 C226.079671,180.02522 226.830991,180.234604 227.553571,180.497361 C228.982507,180.97443 230.438425,181.366514 231.913689,181.671554 C232.251643,181.743717 232.578742,181.859651 232.886709,182.016422 C233.457384,182.344868 233.461489,182.812903 233.231577,183.358944 C233.173268,183.58988 233.017554,183.784116 232.804833,183.891265 C232.592112,183.998413 232.343347,184.007914 232.123073,183.917302 C230.916035,183.580645 229.69668,183.297361 228.485536,182.964809 C227.274392,182.632258 226.174099,182.283284 225.012222,181.967155 C224.293747,181.770088 224.104891,181.478592 224.248586,180.653372 C224.355331,180.041642 224.687882,179.782991 225.447413,179.824047 Z" id="Path" fill="#010101"></path>
                            <path d="M171.43451,16.8328446 C171.701372,14.9237537 172.432164,13.1829912 172.514275,11.2985337 C172.543014,10.6087977 172.924832,10.2680352 173.65973,9.98064516 C175.663249,9.2170088 177.691401,9.57008798 179.69492,9.59472141 C184.083777,9.61524927 188.472633,9.50439883 192.861489,9.48797654 C196.145947,9.48797654 199.430404,9.56187683 202.714862,9.59882698 C205.401009,9.56593283 208.086725,9.69343237 210.757677,9.98064516 C211.102545,10.0258065 211.299612,9.73020528 211.578791,9.6686217 C211.828016,9.57494387 212.104412,9.58521476 212.345997,9.69713112 C212.587582,9.80904749 212.77414,10.013244 212.863835,10.2639296 C213.147676,10.9548971 213.169574,11.7257042 212.925419,12.4316716 C212.465595,14.3284457 212.206944,16.2580645 211.866181,18.1794721 C211.287296,21.4228739 210.913689,24.6909091 210.59756,27.9671554 C210.540082,28.5870968 210.256797,29.1331378 210.162369,29.7366569 C209.813395,32.0521994 209.341255,34.3472141 208.881431,36.6422287 C208.236856,39.7788856 207.649759,42.9237537 207.021606,46.085044 C206.512516,48.683871 206.04448,51.3196481 205.691401,54.0046921 C205.379378,56.4105572 205.001665,58.8082111 204.648586,61.2099707 C204.550052,61.8791789 204.430991,62.5524927 203.478498,62.3841642 C201.663835,63.3941349 199.713689,62.7947214 197.82102,62.8398827 C196.704304,62.8604106 196.552398,62.885044 196.515448,64.0715543 C196.470287,65.6439883 195.989935,67.1384164 195.694334,68.6697947 C195.505477,69.7331378 194.971753,70.0903226 193.855038,70.0739003 C190.948293,70.0369501 188.053865,70.3818182 185.167648,70.4392962 C181.714862,70.5131965 178.25797,70.7882698 174.792867,70.5583578 C172.715582,70.4742175 170.635316,70.4988847 168.560609,70.6322581 C166.435737,70.711428 164.307996,70.6070327 162.201079,70.3202346 C160.895507,70.1478006 159.606357,70.2791789 158.308996,70.229912 C158.181724,70.229912 158.04624,70.2914956 157.923073,70.2750733 C155.151812,69.9343109 155.020433,69.8234604 155.410463,67.1548387 C155.82102,64.2809384 156.428645,61.4357771 156.880257,58.5618768 C157.33187,55.6879765 157.586416,52.8140762 158.111929,49.9771261 C158.555331,47.628739 158.678498,45.2351906 159.146533,42.9032258 C159.425712,41.511437 159.684363,40.1032258 160.02102,38.7155425 C160.542428,36.5806452 160.903718,34.4046921 161.38407,32.2533724 C161.737149,30.685044 162.266768,29.1659824 162.578791,27.5853372 C162.890815,26.0046921 163.104304,24.4158358 163.362955,22.831085 C163.650123,21.3391542 163.844825,19.8309037 163.945947,18.314956 C163.995213,17.1284457 164.968234,16.3483871 166.310756,16.4920821 C168.030991,16.6768328 169.722486,16.3812317 171.43451,16.8328446 Z M175.002252,11.9061584 C174.612222,13.913783 174.230404,15.8187683 173.869114,17.7237537 C173.708996,18.5777126 173.610463,19.4398827 173.433923,20.2856305 C173.076738,22.0181818 172.633337,23.7302053 172.325419,25.4668622 C172.017501,27.2035191 171.820433,29.0715543 171.549466,30.8656891 C171.171753,33.3290323 170.75709,35.8293255 170.383483,38.3090909 C170.067354,40.3947214 169.862076,42.4967742 169.463835,44.5741935 C169.24047,45.49622 169.085407,46.4334636 168.999906,47.3782991 C168.865146,49.5274297 168.599156,51.6663148 168.203425,53.7829912 C167.895507,55.7002933 167.55885,57.6175953 167.226299,59.5307918 C167.144187,60.0070381 167.226299,60.228739 167.805184,60.2082111 C169.492574,60.1466276 171.179964,60.1630499 172.87146,60.1507331 C174.866768,60.1507331 176.866181,60.1260997 178.861489,60.0973607 C180.856797,60.0686217 182.880844,60.1917889 184.89668,60.171261 C188.493161,60.1302053 192.089642,60.2 195.686123,60.2205279 C197.547315,60.2205279 199.405771,60.228739 201.261489,60.2451613 C202.160609,60.2451613 202.152398,60.2451613 202.296093,59.3501466 C202.636856,57.2686217 203.035096,55.1953079 203.338909,53.1096774 C203.49492,52.0381232 203.749466,50.9953079 203.946533,49.9360704 C204.28319,48.0557185 204.615741,46.1794721 205.005771,44.311437 C205.293161,42.9237537 205.584656,41.5319648 205.789935,40.1237537 C206.056797,38.3337243 206.446826,36.5642229 206.836856,34.7865103 C207.091401,33.6123167 207.501958,32.4463343 207.526592,31.2269795 C207.57005,30.4024323 207.7078,29.5855751 207.937149,28.7923754 C208.098183,28.253914 208.222998,27.7052783 208.310756,27.1501466 C208.626885,24.5759531 208.721313,21.9730205 209.201665,19.4193548 C209.579378,17.4199413 209.743601,15.3794721 210.318381,13.4170088 C210.568821,12.5466276 210.507237,12.485044 209.583483,12.3741935 C206.90665,12.0621701 204.217501,12.1483871 201.532457,12.0744868 C199.849172,12.0293255 198.153571,12.1073314 196.482604,11.9431085 C194.967648,11.7912023 193.448586,11.7953079 191.937735,11.7747801 C190.082017,11.7501466 188.218087,11.8445748 186.354158,11.7994135 C184.773513,11.7624633 183.168234,11.343695 181.5958,11.9513196 C181.254276,12.0192371 180.90272,12.0192371 180.561196,11.9513196 C178.734216,11.9061584 176.915448,11.8076246 175.002252,11.9061584 Z M194.060316,63.8211144 C193.842297,63.5802823 193.526474,63.4518374 193.202252,63.4721408 C191.601079,63.4351906 189.999906,63.402346 188.398733,63.3900293 C186.345947,63.3900293 184.338322,63.6363636 182.293747,63.4639296 C179.748293,63.2545455 177.190521,63.1354839 174.636856,63.0533724 C171.524832,62.9753666 169.652692,62.6879765 166.540668,62.6756598 C165.553204,62.594548 164.710438,61.9297176 164.401665,60.9882698 C164.368821,59.1777126 164.861489,57.4246334 165.00929,55.6510264 C165.121066,53.6275229 165.341718,51.6115059 165.670287,49.6117302 C166.006944,47.8791789 166.253278,46.1260997 166.647413,44.4058651 C167.107237,42.3859238 167.509583,40.3577713 167.842134,38.3131965 C168.05973,36.9870968 168.301958,35.6692082 168.511343,34.3431085 C168.847999,32.2451613 169.274979,30.1554252 169.467941,28.0492669 C169.681431,25.6721408 169.816914,23.2950147 170.18231,20.9343109 C170.3958,19.5548387 170.362955,19.5548387 168.950639,19.3906158 C168.737149,19.3659824 167.30841,19.2756598 167.090815,19.2346041 C166.540668,19.1319648 166.2697,19.2346041 166.204011,19.9202346 C165.920727,22.3260997 165.538909,24.7196481 165.136562,27.1090909 C164.746533,29.4164223 163.904891,31.6252199 163.523073,33.9325513 C162.849759,37.9847507 161.769994,41.9630499 161.232164,46.0439883 C160.801079,49.2997067 160.259143,52.5431085 159.848586,55.8029326 C159.708996,56.9237537 159.368234,57.9994135 159.220433,59.08739 C159.072633,60.1753666 159.002838,61.3208211 158.785243,62.4252199 C158.493747,63.911437 158.202252,65.4017595 157.927178,66.8920821 C157.787589,67.6475073 157.882017,67.7131965 158.715448,67.7460411 C159.886455,67.7171551 161.05817,67.7500454 162.225712,67.8445748 C164.689055,68.1524927 167.152398,68.0909091 169.615741,68.0909091 C171.955917,68.0909091 174.291988,67.9554252 176.636269,68.0252199 C178.668527,68.0868035 180.708996,68.0621701 182.741255,67.9677419 C184.383483,67.8856305 186.025712,67.8322581 187.639202,67.7214076 C189.252692,67.6105572 191.009876,67.5366569 192.697266,67.4997067 C193.013395,67.4997067 193.284363,67.4997067 193.399319,67.0891496 C193.588175,66.3953079 193.838615,64.457478 194.060316,63.8046921 L194.060316,63.8211144 Z" id="Shape" fill="#010101"></path>
                            <path d="M173.795213,105.607625 C176.17234,105.607625 178.553571,105.697947 180.926592,105.57478 C182.265008,105.50088 183.595213,105.660997 184.93363,105.533724 C185.779378,105.451613 186.649759,105.632258 187.516035,105.562463 C190.180551,105.348974 192.853278,105.513196 195.5219,105.46393 C196.942428,105.439296 198.371167,105.595308 199.804011,105.529619 C200.917512,105.449549 202.034676,105.433082 203.150052,105.480352 C205.945947,105.673314 208.750052,105.443402 211.558263,105.570674 C212.985823,105.65278 214.416921,105.65278 215.84448,105.570674 C216.407583,105.558657 216.970691,105.594367 217.527765,105.677419 C217.92663,105.718651 218.280455,105.951471 218.476152,106.301466 C219.079671,107.319648 218.697853,108.136657 217.523659,108.231085 C215.899191,108.398712 214.263473,108.428927 212.633923,108.321408 C211.603425,108.235191 210.581137,108.321408 209.530111,108.321408 C206.245653,108.321408 202.940668,108.288563 199.643894,108.239296 C196.917794,108.202346 194.1958,108.280352 191.4697,108.239296 C188.000492,108.214663 184.531284,108.08739 181.062076,108.116129 C179.132457,108.116129 177.194627,108.091496 175.269114,108.042229 C171.984656,107.960117 168.67146,108.140762 165.382897,107.775367 C164.615155,107.68915 164.262076,107.364809 164.29492,106.757185 C164.327765,106.14956 164.762955,105.973021 165.341841,105.845748 C166.635096,105.566569 167.940668,105.706158 169.233923,105.636364 C170.748879,105.554252 172.276152,105.636364 173.795213,105.636364 L173.795213,105.607625 Z" id="Path" fill="#010101"></path>
                            <path d="M120.706064,40.2099707 C117.639202,40.2099707 114.568234,40.2961877 111.501372,40.1853372 C108.43451,40.0744868 105.269114,40.0826979 102.152985,40.0416422 C101.155331,40.0416422 100.174099,39.8322581 99.1723396,39.8363636 C98.3799642,39.8363636 98.0597296,39.4832845 98.0637963,38.855132 C98.0679408,38.2269795 98.4743924,38.0340176 99.0779114,37.9190616 C100.367061,37.6398827 101.672633,37.7302053 102.965888,37.7096774 C106.903131,37.656305 110.84448,37.6480938 114.781724,37.6398827 C117.150639,37.6398827 119.527765,37.7876833 121.888469,37.6193548 C124.351812,37.4428152 126.790521,37.6193548 129.241548,37.5331378 C130.666181,37.483871 132.090815,37.6932551 133.523659,37.5782991 C134.678676,37.4982261 135.837851,37.4982261 136.992867,37.5782991 C139.751812,37.7384164 142.50665,37.5002933 145.2697,37.6604106 C146.698688,37.7404594 148.131036,37.7404594 149.560023,37.6604106 C150.166378,37.6366316 150.773514,37.6793101 151.37058,37.7876833 C151.859616,37.8572191 152.254927,38.2214935 152.364128,38.7032258 C152.688469,39.7624633 152.421606,40.226393 151.304891,40.3167155 C149.680802,40.4904798 148.044554,40.5207044 146.415155,40.4070381 C145.384656,40.31261 144.362369,40.4070381 143.311343,40.4070381 C140.026885,40.3290323 136.7219,40.3331378 133.425126,40.3290323 C130.65797,40.3290323 127.890815,40.3577713 125.123659,40.370088 C123.649759,40.370088 122.179964,40.370088 120.706064,40.370088 L120.706064,40.2099707 Z" id="Path" fill="#010101"></path>
                            <path d="M193.144774,94.7442815 C196.265008,94.7442815 199.360609,94.4363636 202.464422,94.202346 C205.835965,93.9135838 209.227294,93.9452014 212.592867,94.2967742 C212.981378,94.3399099 213.372063,94.3604723 213.762955,94.3583578 C214.154717,94.3650914 214.539656,94.4620285 214.887882,94.6416422 C215.442134,94.9002933 215.528351,95.3970674 215.55709,95.9431085 C215.589935,96.5876833 215.068527,96.5178886 214.699026,96.686217 C214.130303,96.9094609 213.511785,96.9747174 212.908996,96.8750733 C210.334236,96.6008032 207.740053,96.558208 205.157677,96.7478006 C202.493161,96.9900293 199.820433,97.2527859 197.155917,97.4087977 C194.282017,97.5771261 191.379378,97.7454545 188.493161,97.3841642 C187.865008,97.3061584 187.261489,97.1912023 186.94536,96.6 C186.534803,95.8076246 186.994627,94.4897361 188.209876,94.6498534 C189.852105,94.8592375 191.502545,94.6785924 193.144774,94.7442815 Z" id="Path" fill="#010101"></path>
                            <path d="M126.864422,26.8134897 C129.988762,26.8134897 133.092574,26.5219941 136.204598,26.2715543 C138.757218,26.03409 141.325098,26.0079992 143.882017,26.1935484 C145.138322,26.3002933 146.398733,26.3372434 147.655038,26.4316716 C148.845653,26.5219941 149.362955,27.0392962 149.297266,28.0082111 C149.325269,28.3146102 149.121342,28.594131 148.82102,28.6609971 C148.125038,28.9130988 147.382635,29.011152 146.645067,28.9483871 C144.109268,28.6679413 141.553057,28.6212148 139.008703,28.8087977 C136.29492,29.0469208 133.572926,29.3014663 130.859143,29.4780059 C128.026299,29.6627566 125.160609,29.8064516 122.315448,29.4492669 C121.967391,29.4432097 121.62457,29.3634513 121.309583,29.2152493 C120.724165,28.9662858 120.416037,28.3200989 120.591108,27.7085044 C120.626026,27.3999361 120.786946,27.1195278 121.035748,26.9337031 C121.284551,26.7478785 121.599103,26.6731693 121.904891,26.7272727 C123.579964,26.88739 125.222193,26.743695 126.864422,26.8134897 Z" id="Path" fill="#010101"></path>
                            <path d="M209.439788,119.837537 C206.882017,119.837537 204.324246,119.837537 201.762369,119.837537 C198.354744,119.837537 194.943014,119.837537 191.531284,119.767742 C189.367648,119.726686 187.204011,119.615836 185.040375,119.492669 C184.112516,119.435191 183.525419,119.016422 183.500785,118.544282 C183.476152,118.072141 184.059143,117.784751 185.085536,117.751906 C188.452105,117.632845 191.818674,117.464516 195.189348,117.439883 C201.089055,117.398827 206.984656,117.439883 212.884363,117.439883 C213.273456,117.432759 213.662039,117.471341 214.042134,117.554839 C215.093161,117.805279 215.343601,118.207625 215.031577,119.221701 C214.971941,119.668476 214.563305,119.983657 214.116035,119.927859 C212.555917,119.878592 210.9958,119.927859 209.439788,119.927859 L209.439788,119.837537 Z" id="Path" fill="#010101"></path>
                            <path d="M143.225126,51.9026393 C140.663249,51.9026393 138.097266,51.9026393 135.535389,51.9026393 C132.119554,51.9026393 128.703718,51.9026393 125.27146,51.8328446 C123.148879,51.7958944 121.026299,51.6686217 118.899612,51.570088 C118.420009,51.5782233 117.95011,51.4345235 117.55709,51.1595308 C117.360509,51.0496671 117.245483,50.835769 117.262216,50.6111933 C117.278949,50.3866175 117.424404,50.1921278 117.635096,50.11261 C117.979525,49.9286433 118.361555,49.8261132 118.751812,49.8129032 C124.381919,49.5665689 130.012027,49.4735093 135.642134,49.5337243 C139.337149,49.5747801 143.032164,49.5337243 146.727178,49.5337243 C147.119074,49.5350403 147.509311,49.5846818 147.889055,49.6815249 C148.899026,49.9319648 149.223366,50.9131965 148.57058,51.7630499 C148.4065,51.9661543 148.147422,52.0676006 147.889055,52.029912 C146.328938,52.029912 144.768821,52.029912 143.208703,52.029912 L143.225126,51.9026393 Z" id="Path" fill="#010101"></path>
                            <path d="M222.979964,167.363636 C222.934803,167.659238 222.901958,167.958944 222.840375,168.254545 C222.577618,169.519062 222.302545,170.779472 222.01926,172.043988 C221.939598,172.511152 221.8271,172.972119 221.682604,173.42346 C221.526592,173.834018 221.391108,174.293842 220.861489,174.244575 C220.373641,174.166317 219.987526,173.79006 219.89668,173.304399 C219.829725,172.962843 219.849487,172.60995 219.954158,172.278006 C220.286709,170.76305 220.606944,169.248094 220.947706,167.737243 C221.000117,167.43866 221.099909,167.150372 221.243307,166.883284 C221.470441,166.448703 221.967906,166.228933 222.442134,166.353666 C223.049759,166.480938 222.98407,166.920235 222.979964,167.363636 Z" id="Path" fill="#010101"></path>
                            <path d="M111.649172,77.6568915 C111.801079,78.1906158 111.493161,78.5601173 111.148293,79.1759531 C111.063531,78.6201474 111.260474,78.0585511 111.673806,77.6774194 L111.649172,77.6568915 Z" id="Path" fill="#010101"></path>
                            <path d="M73.3441871,95.4791789 C73.3770317,95.4052786 73.4016651,95.2739003 73.4468264,95.2697947 C73.5107174,95.2592419 73.5761508,95.2751651 73.6280489,95.313895 C73.679947,95.3526249 73.7138334,95.410821 73.7218997,95.4750733 C73.7218997,95.5325513 73.6685273,95.6639296 73.6274716,95.6680352 C73.4977334,95.6909683 73.3729173,95.6077576 73.3441871,95.4791789 L73.3441871,95.4791789 Z" id="Path" fill="#010101"></path>
                            <polygon id="Path" fill="#010101" points="73.0362692 94.3583578 73.0362692 94.5636364 73.1265918 94.5184751 73.0198469 94.3378299"></polygon>
                            <path d="M260.706064,111.330792 C258.764128,111.277419 256.818087,111.441642 254.888469,111.519648 C252.835683,111.605865 250.745947,111.679765 248.676738,111.82346 C247.309583,111.913783 245.901372,112.057478 244.530111,111.729032 C243.856797,111.568915 243.191694,111.375953 243.006944,110.517889 C242.822193,109.659824 242.941255,109.397067 243.828058,109.339589 C244.554744,109.290323 245.293747,109.339589 246.024539,109.314956 C250.351812,109.130205 254.68319,108.904399 259.010463,108.748387 C261.243894,108.658065 263.478693,108.603324 265.714862,108.584164 C266.406616,108.606796 267.094339,108.698951 267.767648,108.859238 C268.420433,108.98651 268.588762,109.339589 268.404011,109.992375 C268.14536,110.88739 267.418674,111.339003 266.285536,111.334897 C264.425712,111.322581 262.561782,111.330792 260.706064,111.330792 Z" id="Path" fill="#010101"></path>
                            <path d="M254.814568,100.426393 C257.40929,100.303226 260.012222,100.451026 262.615155,100.237537 C264.331284,100.102053 266.067941,100.175953 267.796387,100.18827 C268.679084,100.18827 269.467354,101.419941 269.171753,102.241056 C269.107073,102.404866 268.965746,102.526223 268.79404,102.565396 C268.230275,102.780705 267.643317,102.929511 267.045067,103.008798 C264.581724,103.078592 262.118381,102.984164 259.655038,103.115543 C255.927178,103.308504 252.215741,102.943109 248.491988,103.021114 C247.716035,103.021114 246.93187,102.98827 246.155917,102.934897 C245.449759,102.889736 245.195213,102.577713 245.174686,101.830499 C245.150052,100.980645 245.330697,100.750733 246.127178,100.652199 C248.623366,100.33607 251.135976,100.47566 253.640375,100.430499 C254.03451,100.422287 254.424539,100.426393 254.814568,100.426393 Z" id="Path" fill="#010101"></path>
                            <path d="M265.694334,90.0269795 C263.793454,89.9818182 261.884363,90.0269795 259.987589,90.0516129 C257.470873,90.088563 254.950052,89.9900293 252.433337,90.1214076 C250.930697,90.1994135 249.415741,90.0557185 247.917208,90.0064516 C247.425951,90.0027703 246.983863,89.7075068 246.792281,89.255132 C246.381724,88.4093842 246.60753,87.9659824 247.523073,87.6539589 C248.902545,87.1900293 250.339495,87.3337243 251.747706,87.2967742 C254.161782,87.2269795 256.58407,87.2146628 258.99404,87.2146628 C261.547706,87.2146628 264.093161,86.9683284 266.642721,87.1284457 C268.046826,87.2146628 268.523073,87.6991202 268.60929,88.8733138 C268.64624,89.370088 268.498439,89.6944282 268.018087,89.8134897 C267.6421,89.9120884 267.259188,89.9820831 266.872633,90.0228739 C266.478498,90.0557185 266.084363,90.0269795 265.694334,90.0269795 Z" id="Path" fill="#010101"></path>
                            <path d="M251.23451,119.882698 L244.497266,119.882698 C244.193454,119.882698 243.889642,119.858065 243.589935,119.829326 C243.056211,119.771848 242.534803,119.706158 242.485536,118.987683 C242.432164,118.207625 242.744187,117.714956 243.442134,117.521994 C244.163584,117.358762 244.904008,117.295218 245.642721,117.333138 C247.453278,117.333138 249.25973,117.333138 251.074392,117.222287 C252.355331,117.148387 253.652692,117.189443 254.941841,117.156598 C255.575388,117.176337 256.090507,117.673694 256.132457,118.306158 C256.187708,118.620219 256.110503,118.943141 255.919173,119.198248 C255.727843,119.453355 255.439455,119.61789 255.122486,119.652786 C253.833337,119.808798 252.53187,119.808798 251.23451,119.882698 Z" id="Path" fill="#010101"></path>
                            <path d="M194.458557,43.4 C192.516621,43.3507331 190.57058,43.5026393 188.640961,43.5847507 C186.588175,43.6750733 184.498439,43.7530792 182.429231,43.8844575 C181.062076,43.9747801 179.65797,44.1061584 178.286709,43.802346 C177.252105,43.5765396 176.816914,43.1577713 176.718381,42.3243402 C176.64448,41.7454545 176.837442,41.4580645 177.465595,41.3800587 C178.249759,41.2897361 179.017501,41.4293255 179.79756,41.3800587 C184.124832,41.172043 188.454842,40.9804497 192.787589,40.8052786 C195.02102,40.714956 197.254451,40.6602151 199.487882,40.6410557 C200.179459,40.6628086 200.867134,40.7535817 201.540668,40.9120235 C202.144187,41.031085 202.341255,41.4375367 202.152398,42.0492669 C201.885536,42.9196481 201.204011,43.3876833 200.161196,43.3876833 C198.268527,43.4041056 196.363542,43.4 194.458557,43.4 Z" id="Path" fill="#010101"></path>
                            <path d="M188.575272,32.4914956 C191.174099,32.3683284 193.768821,32.516129 196.375859,32.3026393 C198.096093,32.1630499 199.83275,32.2410557 201.561196,32.2533724 C202.493161,32.2533724 203.240375,33.4193548 202.928351,34.3061584 C202.853077,34.5222279 202.665593,34.6797772 202.439788,34.7167155 C201.780503,34.9152764 201.104335,35.052709 200.419847,35.1272727 C198.64624,35.1888563 196.872633,35.1272727 195.082604,35.2093842 C192.935409,35.363345 190.779945,35.363345 188.63275,35.2093842 C186.949466,35.0451613 185.241548,35.1601173 183.550052,35.1354839 C182.375859,35.1354839 181.205771,35.0739003 180.031577,35.0246334 C179.230991,34.9917889 178.931284,34.6756598 178.910756,33.9202346 C178.890228,33.1648094 179.128351,32.8404692 179.883777,32.7460411 C182.379964,32.4340176 184.892574,32.573607 187.401079,32.5243402 C187.799319,32.4832845 188.185243,32.4914956 188.575272,32.4914956 Z" id="Path" fill="#010101"></path>
                            <path d="M199.39756,22.1167155 C197.537735,22.0633431 195.628645,22.1167155 193.723659,22.1167155 C191.260316,22.141349 188.760023,22.0797654 186.280257,22.170088 C184.773513,22.227566 183.262662,22.11261 181.764128,22.083871 C181.220611,22.1003565 180.726285,21.7708055 180.532457,21.2627566 C180.162955,20.4416422 180.384656,20.031085 181.222193,19.7190616 C181.923078,19.4788089 182.661693,19.3675299 183.402252,19.3906158 C186.29668,19.3495601 189.187002,19.3906158 192.081431,19.3454545 C194.544774,19.31261 197.008117,19.226393 199.47146,19.1607038 C200.036978,19.1450288 200.602573,19.1890653 201.15885,19.2920821 C201.73373,19.3846746 202.186877,19.8312305 202.287882,20.4046921 C202.575272,21.4187683 202.398733,21.6363636 201.384656,21.940176 C200.727765,22.1331378 200.079084,21.9812317 199.39756,22.1167155 Z" id="Path" fill="#010101"></path>
                            <path d="M184.995213,51.9354839 C182.749466,51.9354839 180.507823,51.9354839 178.262076,51.9354839 C177.917208,51.9354839 177.57234,51.886217 177.223366,51.8656891 C176.697853,51.8328446 176.295507,51.6645161 176.24624,51.0445748 C176.148247,50.4300967 176.48933,49.8297912 177.067354,49.5994135 C177.737925,49.4306719 178.429197,49.3587797 179.12014,49.3859238 C181.062076,49.4146628 182.9958,49.3859238 184.937735,49.2668622 C186.169407,49.201173 187.429818,49.2175953 188.677911,49.2093842 C188.983885,49.2071987 189.278194,49.3266542 189.49609,49.5414702 C189.713986,49.7562863 189.837618,50.0488651 189.839788,50.3548387 C189.905477,51.1759531 189.630404,51.5865103 188.858557,51.7055718 C187.589935,51.8821114 186.292574,51.8697947 184.995213,51.9354839 Z" id="Path" fill="#010101"></path>
                        </g>
                    </g>
                </g>
            </g>
        </g>
    </g>
</svg>
