<svg viewBox="0 0 223 265" xmlns="http://www.w3.org/2000/svg">
  <path
    d="M33,67.6 L32.71,98.42 L7.58,96.26 L7.58,255.46 L126.67,260.06 L126.67,234.75 L154.93,234.75 C154.93,234.75 157.79,185.48 155.16,151.19 C152.53,116.9 156.27,67.33 156.27,67.33 L33,67.6 Z"
    fill="#FFFFFF"
  />
  <path
    d="M123.39,254.94 C123.240438,254.267508 123.199921,253.575349 123.27,252.89 C123.684963,248.960926 123.684963,244.999074 123.27,241.07 C123.18,240.39 123.04,240.17 122.27,239.87 C119.27,238.81 116.27,239.19 113.27,238.77 C111.76,238.56 111.82,238.58 111.62,237.18 C111.31,235.06 111.71,232.91 111.23,230.8 C111.02,229.87 111.46,229.44 112.41,229.5 C116.34,229.72 120.27,229.62 124.18,230.28 C125.913388,230.515108 127.667653,230.555359 129.41,230.4 C130.6,230.33 131.74,230.57 132.91,230.55 C133.71,230.55 134,231.01 134,231.83 C133.970205,233.320546 134.050423,234.811259 134.24,236.29 C134.22908,237.323739 134.007927,238.344446 133.59,239.29 C133.457304,239.680986 133.054599,239.912327 132.65,239.83 C131.45,239.76 131.25,240.5 131.25,241.45 C131.170895,244.760589 131.398533,248.071391 131.93,251.34 C132.134956,252.164115 132.134956,253.025885 131.93,253.85 C131.790037,254.350397 131.790037,254.879603 131.93,255.38 C132.182869,256.331048 132.064908,257.34265 131.6,258.21 C131.346221,258.809214 131.203891,259.4497 131.18,260.1 C130.82,262.49 129.78,263.56 127.45,263.89 C123.610134,264.461206 119.715517,264.568643 115.85,264.21 C114.23,264.05 112.62,264.37 111,264.37 C106.78,264.37 102.57,264.14 98.36,264.12 C95.85,264.12 93.36,263.57 90.81,264.12 C90.6850377,264.149386 90.5549623,264.149386 90.43,264.12 C87.84,263.18 85.09,263.59 82.43,263.2 C78.5,262.62 74.6,261.48 70.49,262.12 C68.0634125,262.63409 65.5596425,262.668062 63.12,262.22 C62.6697764,262.143569 62.2080459,262.170931 61.77,262.3 C60.4266896,262.561066 59.0541404,262.638441 57.69,262.53 C56.481927,262.408641 55.2626552,262.462531 54.07,262.69 C52.23,263.15 50.32,262.69 48.45,262.69 C46.36,262.69 44.26,262.85 42.21,262.69 C38.21,262.28 34.21,263.11 30.21,262.69 C29.37,262.61 28.52,262.61 27.69,262.46 C27.0506502,262.324526 26.3853734,262.383739 25.78,262.63 C24.497858,263.101045 23.1027344,263.170802 21.78,262.83 C20.51,262.57 19.22,262.41 17.96,262.15 C15.9715408,261.866017 13.9545433,261.842485 11.96,262.08 C10.4229569,262.251184 8.87607931,262.318004 7.33,262.28 C3.59994344,261.927864 0.630247745,259.004113 0.22,255.28 C0.0349868115,251.885219 0.0550232349,248.482367 0.28,245.09 C0.41,242.73 0.28,240.33 0.53,237.98 C0.824412978,236.145458 0.901611993,234.282612 0.76,232.43 C0.44,230.05 1.03,227.74 0.66,225.35 C0.302960283,223.237366 0.398396506,221.073009 0.94,219 C1.25589788,217.932888 1.25589788,216.797112 0.94,215.73 C0.67,214.73 1.11,213.96 1.15,213.1 C1.19981653,210.668249 1.4844724,208.247 2,205.87 C2.06340362,205.535519 2.03577382,205.190147 1.92,204.87 C1.66957985,203.412314 1.77943751,201.915504 2.24,200.51 C2.36446082,199.948473 2.38479776,199.36887 2.3,198.8 C2.01026479,197.627636 2.01026479,196.402364 2.3,195.23 C2.44211287,194.319522 2.41499211,193.390636 2.22,192.49 C2.12738947,191.800074 2.0706465,191.105807 2.05,190.41 C2.05,188.76 2.05,187.11 2.05,185.41 C1.98887289,184.272754 2.0189692,183.132438 2.14,182 C2.35996883,179.451404 2.35996883,176.888596 2.14,174.34 C2.14,171.72 1.87,169.03 1.9,166.41 C1.9,162.29 1.54,158.16 1.82,154.07 C1.95,152.16 1.72,150.19 2.33,148.31 C2.38893657,147.979272 2.38893657,147.640728 2.33,147.31 C2.07451714,143.542976 2.10794825,139.761917 2.43,136 C2.62799104,132.791996 2.40950574,129.571859 1.78,126.42 C1.36,124.17 1.78,121.89 1.63,119.63 C1.53261882,118.3427 1.63038999,117.048074 1.92,115.79 C2.13228117,114.497085 2.15921866,113.180516 2,111.88 C1.65835067,107.083195 1.7219093,102.26612 2.19,97.48 C2.25744858,95.5421895 3.3402795,93.7830642 5.04,92.85 C5.48429535,92.5737301 5.88814031,92.2371927 6.24,91.85 C6.63403562,91.4016875 7.20314608,91.1463174 7.8,91.15 C9.41,91.25 10.98,90.56 12.6,90.96 C14.22,91.36 15.66,90.9 17.2,91.04 C20.2,91.31 23.2,91.04 26.2,91.7 C26.95,91.85 27.31,91.47 27.42,90.8 C27.49,90.36 27.32,89.91 27.48,89.45 C27.7,88.77 28.03,88.3 28.85,88.35 C30.6522999,88.4433902 32.4568855,88.2165473 34.18,87.68 C34.5087173,87.6080448 34.8435912,87.5678599 35.18,87.56 C37.18,87.39 37.6,87.9 37.49,89.84 C37.3733801,91.8125074 37.3967721,93.7908016 37.56,95.76 C37.6965462,98.0913357 37.6965462,100.428664 37.56,102.76 C37.56,103.51 37.31,104.04 36.51,104.14 C35.5056647,104.41069 34.4701733,104.548531 33.43,104.55 C32.0230901,104.296847 30.5844677,104.273207 29.17,104.48 C28.29,104.64 27.8,104.26 27.81,103.31 C27.7927051,102.921741 27.7559925,102.53459 27.7,102.15 C27.7113225,101.91742 27.6181414,101.691944 27.44593,101.535213 C27.2737186,101.378481 27.0404887,101.306886 26.81,101.34 C25.44,101.39 24.1,100.93 22.81,100.89 C21.2113282,100.910111 19.6126537,100.850036 18.02,100.71 C16.02,100.47 14.02,100.91 12.08,100.43 C11.42,100.26 11.08,100.7 11.08,101.43 C10.91,104.69 11.02,107.93 11.14,111.2 C11.3,115.2 11.43,119.31 11.43,123.37 C11.2867891,126.12946 11.3235336,128.895319 11.54,131.65 C11.6650905,133.514571 11.6650905,135.385429 11.54,137.25 C11.54,140.33 11.26,143.4 11.54,146.48 C11.72,148.35 11.21,150.23 11.54,152.1 C10.24,154.04 11.54,156.1 11.36,158.1 C11.2449728,160.171738 11.2449728,162.248262 11.36,164.32 C11.36,166.95 11.14,169.58 11.29,172.22 C11.38,173.73 11.53,175.22 11.47,176.78 C11.3966667,179.08 11.31,181.38 11.21,183.68 C10.9519133,186.422698 10.988791,189.185169 11.32,191.92 C11.5936249,193.908494 11.6338981,195.922155 11.44,197.92 C11.28,200.42 11.21,202.92 11.25,205.4 C11.1477948,207.253089 10.9441564,209.099188 10.64,210.93 C10.3216331,213.286309 10.2579326,215.670051 10.45,218.04 C10.7003992,219.174399 10.5667286,220.359847 10.07,221.41 C9.66246206,222.090924 9.56773509,222.91432 9.81,223.67 C10.7,225.95 10.26,228.3 10.19,230.61 C10.13,232.61 10.08,234.7 10.13,236.76 C10.18,239.2 9.9,241.65 9.83,244.1 C9.75,246.81 9.73,249.52 9.72,252.23 C9.72,253.23 10.23,253.61 11.46,253.48 C12.6167095,253.323263 13.7873236,253.29643 14.95,253.4 C16.4326327,253.426888 17.9052784,253.648793 19.33,254.06 C20.3429151,254.252391 21.381357,254.269303 22.4,254.11 C24.7884939,254.229994 27.1815061,254.229994 29.57,254.11 C31.9492048,253.878395 34.3415763,253.811569 36.73,253.91 C37.7469084,253.812141 38.7685512,253.772077 39.79,253.79 C41.79,254.15 43.66,253.62 45.58,253.79 C47.83,254.03 50.08,253.58 52.34,254.04 C53.49,254.28 54.78,253.7 56,253.73 C59.5,253.83 63,253.73 66.48,253.56 C67.71,253.51 68.92,253.29 70.15,253.24 C73.33,253.11 76.49,253.68 79.67,253.35 C79.7324597,253.335123 79.7975403,253.335123 79.86,253.35 C83.5,254.45 87.33,254.08 91.01,254.86 C92.0409188,254.959901 93.0790812,254.959901 94.11,254.86 C96.6257742,255.046474 99.1508431,255.073194 101.67,254.94 C103.797364,254.790148 105.932636,254.790148 108.06,254.94 C111.06,255.07 114.06,254.54 117.14,254.79 C119.217308,254.985317 121.305714,255.035439 123.39,254.94 L123.39,254.94 Z"
    fill="#000000"
  />
  <path
    d="M174.25,56.94 C173.792682,56.9856588 173.344884,56.7883242 173.07,56.42 C172.220221,55.5277393 171.444336,54.5679154 170.75,53.55 C170,52.6 169.28,51.55 168.57,50.55 C168.22,50.06 168.14,49.72 168.66,49.24 C169.71,48.24 170.46,47.01 171.74,46.24 C171.921063,46.1597038 172.074203,46.0274466 172.18,45.86 C173.33,43.41 176.08,42.5 177.52,40.45 C179.19,38.08 181.77,36.64 183.28,34.19 C184.96,33.46 185.52,31.54 187.08,30.68 C187.5,30.44 187.64,29.98 187.9,29.61 C188.177809,29.0972388 188.551193,28.6423891 189,28.27 C191.69,26.61 193.43,23.97 195.7,21.91 C197.5,20.28 198.7,17.91 201.12,17.02 C201.43,16.91 201.69,16.7 202,16.6 C204.59,15.68 207.12,16.82 208.74,19.14 C209.554931,20.3066203 209.770016,21.7899623 209.32,23.14 C209.051754,24.7178716 208.143413,26.1147632 206.81,27 C205.05,28 203.35,29.07 202.53,31.07 C202.473867,31.1876308 202.383156,31.285319 202.27,31.35 C198.71,33.35 196.82,37.11 193.78,39.64 C192.35,40.83 191.41,42.56 189.62,43.33 C188.71,45.33 186.62,46.26 185.23,47.8 C184.23,48.94 183.47,50.36 181.75,50.66 C181.48,50.66 181.23,51.04 181.03,51.29 C179.73,52.91 178.03,54.04 176.51,55.46 C175.8,56.11 174.78,56.31 174.25,56.94 Z"
    fill="#000000"
  />
  <path
    d="M180.73,74.9 C180.74999,74.6403842 180.74999,74.3796158 180.73,74.12 C180.61,73.26 180.84,72.78 181.85,72.77 C183.47,72.77 184.92,71.86 186.62,71.95 C189.172016,72.0594931 191.728547,71.9087147 194.25,71.5 C195.333587,71.291388 196.441284,71.2375182 197.54,71.34 C198.441415,71.5126181 199.373732,71.4152118 200.22,71.06 C201.3,70.54 202.48,70.95 203.62,70.81 C205.48,70.58 207.39,69.74 209.34,70.51 C209.854426,70.6349513 210.397637,70.5407947 210.84,70.25 C212.784395,69.1782999 215.083137,68.9505944 217.2,69.62 C217.568237,69.7369131 217.959044,69.7643381 218.34,69.7 C220.173466,69.5834479 221.839658,70.7622784 222.34,72.53 C223.1,74.98 222.34,77.08 221.15,79.14 C221.001424,79.4234801 220.718819,79.6118837 220.4,79.64 C217.49,80.25 214.69,81.22 211.65,81.35 C209.3,81.45 206.9,81.99 204.58,81.98 C201.03,81.98 197.58,82.78 193.98,82.47 C191.27817,82.3320034 188.569646,82.4089121 185.88,82.7 C184.88,82.77 183.83,82.37 182.81,82.83 C182.39,83.01 182.08,82.68 181.9,82.3 C181.741871,82.0137268 181.633657,81.7026113 181.58,81.38 C181.43,79.21 180.7,77.11 180.73,74.9 Z"
    fill="#000000"
  />
  <path
    d="M136.35,40.58 C136.375794,37.4221159 136.084331,34.269626 135.48,31.17 C135.344922,29.8969063 135.344922,28.6130937 135.48,27.34 C135.54,25.48 134.91,23.7 135.15,21.85 C135.22,21.3 135.1,20.73 135.15,20.15 C135.367745,19.0082402 135.267424,17.828593 134.86,16.74 C134.534105,15.8831794 134.427542,14.9584895 134.55,14.05 C134.601481,11.7951333 134.45761,9.54004347 134.12,7.31 C133.803196,5.72165738 133.966823,4.07494072 134.59,2.58 C135.88,-0.1 136.59,-0.33 139.9,0.27 C141.9,0.64 142.65,1.9 142.9,3.77 C143.21,5.88 143.63,7.97 143.9,10.1 C144.065003,10.7191961 144.065003,11.3708039 143.9,11.99 C143.781584,12.367374 143.799277,12.7743277 143.95,13.14 C145.03,15.69 144.58,18.45 145.07,21.07 C145.38,22.71 145.29,24.38 145.67,26.07 C145.93747,27.4601755 146.058133,28.8746071 146.03,30.29 C146.072156,31.5073573 146.256747,32.7155881 146.58,33.89 C146.9,35.22 146.9,36.64 147.16,38.01 C147.57,40.23 147.03,42.56 147.93,44.72 C148.23,45.41 147.84,45.72 147.35,45.91 C146.508399,46.3167975 145.513813,46.2443947 144.74,45.72 C143.02,44.43 140.92,44.56 139,44.3 C136.63,43.97 136.37,44.02 136.34,41.58 L136.35,40.58 Z"
    fill="#000000"
  />
  <path
    d="M157.83,80.26 C156.276732,80.1861416 154.72044,80.3138718 153.2,80.64 C151.63,80.92 151.2,80.51 151.32,78.91 C151.365933,77.7477162 151.503021,76.5908304 151.73,75.45 C151.852272,74.3707951 151.818593,73.2796103 151.63,72.21 C151.63,71.28 151.05,71.02 150.11,71.37 C147.95,72.17 145.76,71.81 143.59,71.61 C142.35,71.5 142.06,71.1 142.13,69.78 C142.26,67.45 142.4,65.13 142.31,62.78 C142.31,61.78 142.63,61.48 143.72,61.39 C145.46,61.25 147.19,61.59 148.95,61.39 C151.44096,61.288696 153.936033,61.3923787 156.41,61.7 C158.365024,61.728915 160.001456,63.1906237 160.25,65.13 C160.48,66.13 161.49,66.96 161.03,68.19 C159.95,71.13 160.92,74.19 160.64,77.19 C160.64,77.25 160.64,77.32 160.64,77.38 C160.73,80.27 160.61,80.39 157.83,80.26 Z"
    fill="#000000"
  />
  <path
    d="M160.08,224.15 C159.47,226.22 159.95,229.01 159.69,231.77 C159.56,233.22 159.8,234.77 159.79,236.36 C159.853751,237.40257 159.482104,238.424863 158.76369,239.183084 C158.045276,239.941305 157.044491,240.367488 156,240.36 C153.884163,240.635569 151.740271,240.615375 149.63,240.3 C149.060644,240.170144 148.469356,240.170144 147.9,240.3 C146.807675,240.470545 145.6922,240.419532 144.62,240.15 C143.25,239.87 142.95,239.64 142.88,238.23 C142.77,236.23 142.33,234.15 142.77,232.08 C143.06,230.72 143.37,230.17 144.61,230.41 C145.85,230.65 146.89,230.29 148.06,230.58 C149.54,230.95 150.48,230.02 150.43,228.4 C150.38,226.25 150.85,224.16 150.98,222.04 C151.03,221.22 151.31,220.77 152.3,220.8 C153.98,220.85 155.56,220.1 157.3,220.26 C160,220.6 160.2,220.69 160.08,224.15 Z"
    fill="#000000"
  />
  <path
    d="M31.49,139.31 C33.06,139.26 34.58,139.71 36.14,139.76 C36.5916244,139.768158 37.017222,139.972918 37.3054459,140.320708 C37.5936699,140.668498 37.7158424,141.124715 37.64,141.57 C37.33,145.09 37.75,148.57 37.81,152.11 C37.81,154.52 37.91,156.95 37.74,159.35 C37.805039,160.505752 37.805039,161.664248 37.74,162.82 C37.47,164.36 37.33,164.69 35.86,164.75 C33.68,164.84 31.49,164.83 29.31,164.75 C28.8354298,164.789831 28.3682106,164.613479 28.0383192,164.27 C27.7084279,163.926529 27.5510622,163.452578 27.61,162.98 C28.18,159.23 27.87,155.47 27.81,151.7 C27.7197261,150.629191 27.6930125,149.553971 27.73,148.48 C27.8405596,146.147374 27.8205283,143.810388 27.67,141.48 C27.67,140.01 28.48,139.3 29.98,139.27 L31.49,139.31 Z"
    fill="#000000"
  />
  <path
    d="M104.25,68.62 C104.32,69.46 104.11,70.28 104.25,71.14 C104.49,72.49 103.78,73.36 102.42,73.2 C99.52,72.86 96.59,73.2 93.72,72.7 C92.7647071,72.5452302 91.7976321,72.4749583 90.83,72.49 C89.2155175,72.6113396 87.5921272,72.5239521 86,72.23 C84.87,71.94 83.7,72.45 82.52,72.44 C81.34,72.43 81.08,72.07 81.01,71.13 C80.94,70.19 80.84,69.2 80.8,68.23 C80.8269241,67.1502452 80.766729,66.0700775 80.62,65 C80.41,63.93 80.82,63.62 81.98,63.3 C83.0021675,63.0846139 84.0526144,63.0373269 85.09,63.16 C88.02,63.31 90.94,62.97 93.89,63.27 C96.7782703,63.5669765 99.6885035,63.5837212 102.58,63.32 C104.09,63.18 104.25,63.32 104.37,64.8 C104.48,66.05 103.93,67.32 104.25,68.62 Z"
    fill="#000000"
  />
  <path
    d="M46,67.21 C46,68.21 46.08,69.29 46,70.31 C45.84,71.94 45.36,72.31 43.71,72.22 C42.415261,72.1200093 41.114739,72.1200093 39.82,72.22 C38.13,72.34 38.01,72.45 37.89,74.22 C37.83,74.93 37.89,75.65 37.89,76.36 C37.89,77.76 37.43,78.26 36.02,78.27 C34.61,78.28 33.29,78.16 31.94,78.04 C31.1795554,77.8913347 30.4023231,77.8475944 29.63,77.91 C28.75,78.06 28.21,77.62 28,76.66 C27.8091095,75.647553 27.7820988,74.6110148 27.92,73.59 C28.17,70.8 27.99,67.92 29.6,65.37 C30.37907,63.9412443 31.8537156,63.0290924 33.48,62.97 C35.76,62.77 38.07,62.97 40.36,62.37 C42.1092909,62.1237519 43.8925958,62.3696055 45.51,63.08 C46.21,63.32 46.27,63.92 46.26,64.51 C46.26,65.42 46.17,66.33 46.12,67.24 L46,67.21 Z"
    fill="#000000"
  />
  <path
    d="M112.31,68.16 C112.29557,66.8658747 112.375783,65.5724263 112.55,64.29 C112.78,63.29 113,62.96 114.11,62.85 C117.03,62.58 119.96,62.85 122.84,62.58 C126.01,62.28 129.19,62.36 132.34,61.89 C133.48,61.71 133.95,62.08 133.92,63.27 C133.92,65.73 133.73,68.19 133.54,70.64 C133.46,71.64 132.65,72.21 131.22,72.23 C128.01,72.23 124.81,72.73 121.59,72.44 C119.27,72.23 116.99,72.75 114.68,72.81 C112.78,72.81 112.34,72.58 112.31,70.69 C112.3,69.84 112.31,69 112.31,68.16 Z"
    fill="#000000"
  />
  <path
    d="M32.64,224.7 C34,224.7 35.37,224.82 36.72,224.85 C37.89,224.85 37.97,225.37 38.05,226.18 C38.2102451,227.206009 38.3004536,228.241737 38.32,229.28 C38.32,229.97 38.76,230.62 39.32,230.28 C40.49,229.61 41.6,230.11 42.73,230.13 C43.61,230.13 44.58,229.34 45.32,230.13 C46.06,230.92 45.32,231.74 45.41,232.58 C45.53,234.11 45.33,235.67 45.32,237.22 C45.3770653,237.575719 45.281582,237.939016 45.0569896,238.220708 C44.8323973,238.5024 44.4994931,238.676402 44.14,238.7 C44.0156065,238.74144 43.8886782,238.774842 43.76,238.8 C41.37,238.68 39.02,239.46 36.62,239.03 C35.5343287,238.955852 34.4570344,238.78857 33.4,238.53 C31.5668467,237.841817 30.0246323,236.54664 29.03,234.86 C28.3598835,233.819258 28.0280545,232.59673 28.08,231.36 C28.23,229.68 27.87,228.01 28.18,226.36 C28.42,225.01 28.54,224.8 29.87,224.72 C30.82,224.66 31.74,224.7 32.64,224.7 Z"
    fill="#000000"
  />
  <path
    d="M82,234.74 C82.07,233.74 81.93,232.8 81.91,231.82 C81.91,230.39 82.46,229.82 83.91,229.91 C85.97,230 88.02,230.17 90.07,230.27 C93.5504824,230.391652 97.0348801,230.338251 100.51,230.11 C102.19,230.02 102.15,230.11 102.06,231.84 C101.988111,232.841676 102.031732,233.848298 102.19,234.84 C102.39,235.84 101.96,237.09 101.92,238.24 C101.92,238.81 101.35,238.94 100.92,238.98 C96.3808402,239.568232 91.7927639,239.68218 87.23,239.32 C85.81,239.17 84.39,239.1 82.98,238.89 C82.21,238.77 81.86,238.47 81.98,237.59 C82.0544335,236.641684 82.0611171,235.689267 82,234.74 L82,234.74 Z"
    fill="#000000"
  />
  <path
    d="M27.89,182.61 C27.47,180.22 27.97,177.82 27.83,175.43 C27.7646762,175.005242 27.8798096,174.57251 28.1475779,174.236376 C28.4153462,173.900241 28.8113887,173.691284 29.24,173.66 C31.7813211,173.162384 34.3791362,173.017688 36.96,173.23 C37.66,173.23 37.73,173.79 37.68,174.36 C37.45,176.69 37.68,179.01 37.68,181.36 C37.6722543,182.447302 37.7457925,183.533661 37.9,184.61 C38.2,186.42 37.76,188.2 37.9,190 C37.9,190.31 37.68,190.44 37.42,190.52 C36.3968106,190.934686 35.312284,191.177944 34.21,191.24 C32.652992,191.126688 31.0878252,191.254869 29.57,191.62 C28.4,191.93 28.07,191.62 27.94,190.37 C27.81,189.12 28.02,187.67 27.94,186.37 C27.86,185.07 27.86,183.84 27.89,182.61 Z"
    fill="#000000"
  />
  <path
    d="M73.13,67.94 C72.9872252,69.0338374 72.9337152,70.1374809 72.97,71.24 C72.97,72.06 72.54,72.51 71.77,72.42 C68.89,72.09 66,73 63.09,72 C61.82,71.55 60.49,72.14 59.27,72.41 C58.05,72.68 56.87,71.94 55.64,72.23 C55.22,72.33 55,71.83 54.98,71.42 C54.88,69.09 54.44,66.77 54.55,64.42 C54.62,63.17 54.99,62.85 56.25,62.77 C56.3792368,62.750079 56.5107632,62.750079 56.64,62.77 C60.04,63.45 63.48,62.84 66.9,63.1 C68.6292268,63.3714388 70.3823778,63.4585935 72.13,63.36 C72.88,63.26 73.13,63.75 73.13,64.46 C73.11,65.54 73.13,66.64 73.13,67.94 Z"
    fill="#000000"
  />
  <path
    d="M32.3,130.75 C31.2228643,130.714093 30.1445688,130.737462 29.07,130.82 C28.3,130.93 27.81,130.63 27.94,129.71 C28.07,128.79 27.62,128.1 28.23,127.31 C28.4147518,126.89399 28.4431586,126.425278 28.31,125.99 C27.86,124.08 28.23,122.19 28.31,120.29 C28.39,118.39 28.21,116.57 28.31,114.71 C28.36,113.8 28.61,113.4 29.49,113.32 C30.6350824,113.124899 31.8049176,113.124899 32.95,113.32 C34.0954672,113.517582 35.2584759,113.594669 36.42,113.55 C37.42,113.55 37.97,114.04 37.95,115.11 C37.95,116.72 38.18,118.31 38.06,119.94 C37.84,122.86 37.87,125.8 37.7,128.72 C37.59,130.6 37.46,130.72 35.64,130.72 C34.57,130.78 33.47,130.75 32.3,130.75 Z"
    fill="#000000"
  />
  <path
    d="M27.92,205.62 C28.2,204.37 27.53,202.92 27.92,201.42 C27.9833611,200.9287 28.3468348,200.529278 28.83,200.42 C30.062127,199.993002 31.3747026,199.849439 32.67,200 C33.6295995,200.11995 34.6004005,200.11995 35.56,200 C36.1380271,199.878777 36.7391941,200.040823 37.1779883,200.436133 C37.6167825,200.831443 37.8404613,201.412501 37.78,202 C37.78,204.4 37.84,206.8 37.87,209.2 C37.87,210.8 37.19,212.37 37.63,214 C37.68,214.18 37.63,214.39 37.63,214.58 C37.69,215.13 38.32,215.64 37.85,216.22 C37.329029,216.74954 36.5827479,216.992081 35.85,216.87 C34.1175534,216.854534 32.3872332,216.995102 30.68,217.29 C28.44,217.6 27.59,216.83 27.83,214.58 C28.17,211.64 27.84,208.74 27.92,205.62 Z"
    fill="#000000"
  />
  <path
    d="M72.31,233.23 C72.3328621,234.396877 72.4163078,235.561779 72.56,236.72 C72.56,238.29 72.25,238.54 70.7,238.85 C68.02,239.39 65.33,238.68 62.7,238.96 C60.7,239.16 58.82,238.69 56.89,238.96 C55.82,239.1 55.47,238.62 55.43,237.68 C55.34,235.43 55.34,233.17 55.1,230.93 C55.0713532,230.657003 55.1674658,230.385662 55.3615637,230.191564 C55.5556616,229.997466 55.8270031,229.901353 56.1,229.93 C59.52,230.2 62.95,229.59 66.36,230.11 C67.0091595,230.177162 67.6648927,230.084466 68.27,229.84 C68.8800681,229.613443 69.5203709,229.478642 70.17,229.44 C70.7637771,229.363777 71.3604756,229.557548 71.7961847,229.968082 C72.2318938,230.378617 72.4607913,230.962742 72.42,231.56 C72.4150559,232.118303 72.3783298,232.675872 72.31,233.23 L72.31,233.23 Z"
    fill="#000000"
  />
  <path
    d="M159.84,120.83 C159.68,124.61 160.14,128.36 160.22,132.13 C160.277459,132.444296 160.202739,132.768375 160.013468,133.025785 C159.824196,133.283195 159.537133,133.451139 159.22,133.49 C157.41,133.93 155.62,133.49 153.82,133.49 C153.248096,133.387134 152.670289,133.320336 152.09,133.29 C151.14,133.4 150.75,132.81 150.82,131.99 C150.96,130.05 150.62,128.13 150.65,126.22 C150.65,124.05 150.59,121.88 150.57,119.71 C150.600424,119.322368 150.580254,118.932425 150.51,118.55 C150.29,117.71 150.79,117.33 151.42,117.08 C151.792303,116.965479 152.180575,116.911459 152.57,116.92 C153.97,116.86 155.39,117.27 156.8,116.82 C157.057884,116.781017 157.321268,116.801541 157.57,116.88 C159.42,117.2 160.01,117.88 160.02,119.7 C159.983896,120.080086 159.923776,120.457507 159.84,120.83 L159.84,120.83 Z"
    fill="#000000"
  />
  <path
    d="M159.57,93.59 C160.05,97.17 159.27,100.76 159.67,104.34 C159.680444,104.795286 159.62658,105.249768 159.51,105.69 C159.51,105.96 159.25,106.21 158.98,106.16 C157.03,105.79 155.15,106.8 153.21,106.38 C152.7,106.27 152.21,106.25 151.68,106.12 C150.46,105.78 150.44,105.58 150.41,104.19 C150.240478,102.943889 150.156947,101.687585 150.159919,100.43 C150.384985,97.9517625 150.384985,95.4582375 150.159919,92.98 C150.159919,92.31 150.53,91.77 150.54,91.09 C150.55,90.41 151.23,90.4 151.75,90.39 C152.912278,90.3199359 154.077722,90.3199359 155.24,90.39 C156.006304,90.490534 156.777373,90.5506173 157.55,90.57 C159.23,90.57 159.45,90.84 159.48,92.57 C159.47,93 159.54,93.27 159.57,93.59 Z"
    fill="#000000"
  />
  <path
    d="M150.52,154.49 C150.63,151.05 150.28,147.88 150.65,144.71 C150.8,143.39 150.97,143.13 152.28,143.09 C154.49,143.04 156.67,143.63 158.89,143.46 C159.42,143.41 159.71,143.77 159.79,144.29 C159.855545,144.541127 159.88252,144.800762 159.87,145.06 C159.34,148.4 160.12,151.75 159.81,155.06 C159.81,155.19 159.81,155.32 159.81,155.45 C159.44,159.29 159.37,158.87 156.34,158.88 C154.92,158.88 153.5,159.16 152.08,159.25 C150.66,159.34 150.5,159.09 150.59,157.88 C150.68,156.67 150.29,155.44 150.52,154.49 Z"
    fill="#000000"
  />
  <path
    d="M160.41,200.26 C160.173591,202.861734 160.23398,205.48192 160.59,208.07 C160.87,209.71 160.15,210.24 158.49,210.42 C156.83,210.6 154.9,210.23 153.09,210.64 C151.81,210.93 151.58,210.64 151.52,209.21 C151.190027,205.246857 151.190027,201.263143 151.52,197.3 C151.52,197.12 151.44,196.93 151.42,196.74 C151.26,195.19 151.52,194.98 152.99,194.74 C155.13,194.43 157.22,195.02 159.33,194.92 C160.43,194.87 160.33,195.92 160.33,196.49 C160.48,197.92 160.41,199.34 160.41,200.26 Z"
    fill="#000000"
  />
  <path
    d="M150.77,174.51 C150.77,173.08 150.77,171.66 150.77,170.24 C150.77,169.34 151.16,168.95 152.02,168.84 C154.135734,168.535038 156.284266,168.535038 158.4,168.84 C158.762404,168.843772 159.106506,168.99982 159.348113,169.269963 C159.589719,169.540106 159.706543,169.899423 159.67,170.26 C159.67,172.38 159.67,174.53 159.82,176.63 C159.96,178.47 159.61,180.38 160.19,182.17 C160.348244,182.463575 160.360551,182.814147 160.223284,183.118096 C160.086017,183.422045 159.814874,183.644608 159.49,183.72 C158.49,184.05 157.49,184.59 156.31,184.26 C155.328485,183.918376 154.252542,183.972173 153.31,184.41 C152.13,184.98 151.59,184.33 151.31,182.91 C150.793702,180.141798 150.612399,177.321524 150.77,174.51 L150.77,174.51 Z"
    fill="#000000"
  />
</svg>
