<svg viewBox="0 0 325 239" xmlns="http://www.w3.org/2000/svg">
  <path
    d="M27.41,225 C29.1885373,225.155098 30.9792085,224.909052 32.65,224.28 C33.86,223.82 34.92,223.05 36.15,222.71 C38.94,221.94 40.4,219.55 41.99,217.59 C44.26,214.78 44.66,211.19 44.39,207.59 C44.06,203.06 41.8,199.54 38.59,196.59 C36.96,195.11 34.68,194.59 32.86,193.35 C32.5595417,193.222746 32.23629,193.158095 31.91,193.16 C30.91,193.05 29.84,192.89 28.81,192.86 C27.4,192.86 25.94,192.4 24.59,193.13 C23.8444845,193.519144 22.9774272,193.605133 22.17,193.37 C20.8238242,193.050175 19.4093159,193.473384 18.46,194.48 C16.98,195.92 15.33,197.18 14.34,199.04 C13.64,200.34 12.34,201.31 12.21,202.92 C12.03,204.92 11.32,206.86 11.35,208.99 C11.3891267,210.838746 11.7268147,212.669014 12.35,214.41 C13.35,217.24 15.63,219.17 17.52,221.41 C18.291511,222.293656 19.2206438,223.026111 20.26,223.57 C20.99,223.96 21.82,223.64 22.53,224.03 C24.12,224.91 25.8,225.57 27.41,225 Z"
    fill="#FFFFFF"
  />
  <path
    d="M155.48,210.45 C155.76,211.82 155.69,213.45 156.39,214.53 C157.48,216.24 158.14,218.2 159.64,219.72 C161.39,221.5 162.64,223.84 165.43,224.24 C165.77,224.24 166.08,224.64 166.38,224.89 C166.788206,225.211956 167.274967,225.419088 167.79,225.49 C168.79,225.66 169.84,225.87 170.85,226.1 C171.483385,226.260004 172.146615,226.260004 172.78,226.1 C174.88,225.56 177.14,225.54 179.1,224.53 C180.87381,223.748899 182.519125,222.70372 183.98,221.43 C185.537805,219.871268 186.735803,217.99065 187.49,215.92 C188.619445,213.248629 189.052959,210.334456 188.75,207.45 C188.510891,206.582244 188.216968,205.730534 187.87,204.9 C187.006382,202.302189 185.483415,199.972944 183.45,198.14 C182.86926,197.360252 182.129629,196.712648 181.28,196.24 C179.83,195.66 178.44,194.98 176.95,194.48 C175.82,194.1 174.61,194.23 173.54,193.79 C172.07,193.18 170.54,193.26 169,192.79 C168.351326,192.651295 167.674305,192.796891 167.14,193.19 C165.27,194.36 163.31,195.41 161.54,196.71 C159.464014,198.202803 157.896666,200.297255 157.05,202.71 C156.26,205.2 155.08,207.69 155.48,210.45 Z"
    fill="#FFFFFF"
  />
  <path
    d="M312.47,210.9 C312.427784,207.919519 311.570093,205.00752 309.99,202.48 C309.308732,201.292261 308.194224,200.414273 306.88,200.03 C306.496218,199.946739 306.147196,199.747797 305.88,199.46 C304.196524,197.561525 301.689435,196.608756 299.17,196.91 C297.940498,196.844498 296.707956,196.955629 295.51,197.24 C294.5531,197.611262 293.536383,197.804438 292.51,197.81 C291.063185,197.685425 289.642759,198.252854 288.68,199.34 C287.77,200.51 286.75,201.6 285.82,202.76 C285.280854,203.339304 284.950102,204.081738 284.88,204.87 C284.88,206.61 283.88,208.16 284.09,209.99 C284.331708,210.776349 284.389865,211.607656 284.26,212.42 C283.944716,213.168189 284.151156,214.03443 284.77,214.56 C285.193878,214.968353 285.468527,215.507088 285.55,216.09 C285.95,218.64 288.32,219.64 289.69,221.43 C293.1,223.12 296.41,224.97 300.52,224.18 C303.603347,223.728741 306.443687,222.248663 308.58,219.98 C309.490002,218.961403 310.278618,217.84056 310.93,216.64 C312,214.88 312.82,213 312.47,210.9 Z"
    fill="#FFFFFF"
  />
  <path
    d="M133.2,14.62 C132.63,14.67 132.31,14.72 131.98,14.74 C128.91,14.94 128.64,15.18 129.16,18.37 C129.46,20.18 129.31,22.01 129.49,23.82 C129.445075,24.8145393 129.556429,25.8099705 129.82,26.77 C130.010627,27.249065 130.082671,27.7670988 130.03,28.28 C129.890933,30.1600258 129.937827,32.0491893 130.17,33.92 C130.45,36.29 130.17,38.65 130.52,40.99 C130.629663,41.7712334 130.455828,42.5659052 130.03,43.23 C129.45,44.15 130.75,44.62 130.53,45.55 C130.08,47.41 130.84,49.43 129.84,51.24 C129.770352,51.4167186 129.770352,51.6132814 129.84,51.79 C130.58,53.7 129.99,55.67 130.14,57.61 C130.35,60.44 129.44,63.21 129.67,66.1 C129.744879,67.3622238 129.744879,68.6277762 129.67,69.89 C129.61,71.1 130,72.46 129.58,73.49 C129.05,74.78 129.67,75.82 129.58,76.96 C129.58,77.34 129.41,77.71 129.37,78.1 C129.19,79.7 128.51,81.22 128.65,82.87 C128.74,83.87 129.58,84.8 128.65,85.79 C129.051952,87.9739762 129.028183,90.2150404 128.58,92.39 C128.543827,92.6463776 128.58564,92.9077077 128.7,93.14 C129.052758,93.768378 129.021821,94.5418051 128.62,95.14 C128.42,95.55 128.06,96.08 128.35,96.41 C128.94,97.09 128.58,97.76 128.59,98.41 C128.59,100.26 128.78,102.1 128.71,103.96 C128.64,105.82 128.97,107.91 128.84,109.9 C128.68,112.32 128.75,114.75 128.48,117.14 C128.23,119.31 129.09,121.42 128.58,123.59 C128.325956,124.189034 128.22956,124.843148 128.3,125.49 C128.782387,127.206448 128.9883,128.988776 128.91,130.77 C128.897562,131.356495 128.982031,131.94102 129.16,132.5 C129.36,133.17 129.8,133.77 130.57,133.5 C131.659577,133.346948 132.761743,133.303398 133.86,133.37 C136.86,133.12 139.8,133.15 142.76,133.15 C145.53,133.15 148.27,132.67 151.08,132.9 C153.49,133.09 156,132.9 158.46,132.9 C158.907421,132.914375 159.342693,133.049102 159.72,133.29 C160.821536,134.019915 161.500147,135.239178 161.54,136.56 C161.94,139.04 163.45,141.1 164.04,143.5 C164.12,143.84 164.54,144.09 164.77,144.4 C165.989976,145.835833 167.037145,147.409942 167.89,149.09 C168.79,151.15 170.52,152.5 172.01,154.09 C172.233321,154.327467 172.516629,154.500215 172.83,154.59 C173.377658,154.80334 173.999856,154.602901 174.32,154.11 C176.506964,151.411753 178.489154,148.553789 180.25,145.56 C181.07,144.08 182.25,142.79 183.02,141.35 C184.08,139.43 185.65,137.84 186.45,135.73 C187.1,134.03 188.36,133.67 190.09,134.13 C191.47,134.49 192.88,133.96 194.27,134.29 C194.46,134.29 194.73,134.08 194.95,133.95 C195.280864,133.73316 195.676675,133.637741 196.07,133.68 C199.42,134.01 202.8,132.89 206.14,133.89 C206.327778,133.955543 206.532222,133.955543 206.72,133.89 C209.24,132.72 211.94,133.78 214.52,133.25 C215.71,133 216.52,132.51 216.12,131.39 C215.58,129.72 216.26,128.11 216.12,126.39 C216.065707,124.538651 216.115786,122.685714 216.27,120.84 C216.451803,117.643673 216.307726,114.437142 215.84,111.27 C215.802848,110.937702 215.802848,110.602298 215.84,110.27 C215.97,108.85 216.47,107.43 215.69,106.04 C215.596246,105.903892 215.569984,105.732344 215.618725,105.574421 C215.667467,105.416499 215.785844,105.289593 215.94,105.23 C216.52,104.91 216.35,104.48 216.07,104.09 C215.898383,103.820196 215.801736,103.509545 215.79,103.19 C215.445144,100.91358 215.294601,98.6119454 215.34,96.31 C215.41,94.31 215,92.31 215.23,90.43 C215.46,88.55 215.8,86.43 215.06,84.37 C214.97,84.15 214.99,83.69 215.06,83.65 C216.16,83.16 215.46,82.58 215.25,81.94 C215.119239,81.3797895 215.088768,80.8008418 215.16,80.23 C215.321952,79.1547127 215.368884,78.065231 215.3,76.98 C215.293949,75.9774308 215.350727,74.9754675 215.47,73.98 C215.47,73.21 215.12,72.54 215.14,71.72 C215.19,69.84 215.54,67.96 215.41,66.11 C215.310219,65.1592776 215.310219,64.2007224 215.41,63.25 C215.55,62.37 214.75,61.16 216.06,60.53 C216.2,60.46 216.11,60.14 215.93,60.03 C215.32,59.62 215.6,59.18 215.79,58.67 C216.089076,58.1633333 216.168531,57.5565914 216.01,56.99 C215.564108,55.8491023 215.392829,54.6193187 215.51,53.4 C215.509697,52.5242162 215.563131,51.6492389 215.67,50.78 C215.83,50.02 215.02,49.05 215.84,48.2 C214.84,47.2 215.52,46.03 215.33,44.95 C215.021504,43.6405005 214.926949,42.2897078 215.05,40.95 C215.27,39.49 214.66,37.95 215.32,36.53 C214.53,34.53 214.94,32.36 214.5,30.33 C214.3,29.44 215.6,28.87 214.74,28.03 C215.12,26.53 214.11,25.2 214.27,23.66 C214.6,20.53 214.16,17.35 214.6,14.2 C214.77,12.98 214.23,12.59 212.95,12.86 C212.446871,12.9852924 211.927474,13.0325103 211.41,13 C209.3,12.77 207.14,13.69 205.05,12.73 C204.859255,12.685262 204.660745,12.685262 204.47,12.73 C202.05,12.99 199.63,13.3 197.25,12.37 C196.678811,12.2138921 196.071237,12.2598134 195.53,12.5 C192.67,13.5 189.7,13.29 186.74,13.29 C184.67,13.29 182.61,13.08 180.55,13.03 C178.32,12.96 176.08,13.6 173.81,13.12 C173.217824,13.0687882 172.62824,13.2438767 172.16,13.61 C171.360186,14.0661175 170.432152,14.2453968 169.52,14.12 C166.37,13.8 163.21,14.22 160.01,13.86 C157.19,13.55 154.24,14.22 151.35,14.57 C149.311967,14.9720418 147.209328,14.9070822 145.2,14.38 C144.846038,14.1950453 144.423962,14.1950453 144.07,14.38 C143.07,15.07 141.94,14.87 140.86,14.9 C139.57105,14.9931925 138.275976,14.8474119 137.04,14.47 C135.86,14.19 134.37,15.08 133.2,14.62 Z"
    fill="#FFFFFF"
  />
  <path
    d="M1,211.37 C1.38,209.2 0.63,206.9 1.2,204.7 C2.08,201.33 2.66,197.9 4.86,194.95 C5.9240604,193.650273 6.89959075,192.280522 7.78,190.85 C8.03287504,190.398578 8.43117549,190.046099 8.91,189.85 C9.15,189.75 9.47,189.68 9.59,189.49 C10.93,187.49 13.3,187.05 15.16,185.85 C15.4486204,185.699309 15.701098,185.487774 15.9,185.23 C16.9,183.62 18.62,182.89 20.07,181.84 C21.0887087,181.304178 22.2509083,181.104644 23.39,181.27 C25.01,181.27 26.58,180.94 28.17,180.85 C29.4576543,180.960017 30.7523457,180.960017 32.04,180.85 C32.2274622,180.797544 32.427906,180.81902 32.6,180.91 C33.6,181.8 34.92,181.67 36.08,182.07 C38.8235916,182.93234 41.4762282,184.061051 44,185.44 C45.4265208,186.338044 46.6438868,187.53154 47.57,188.94 C48.74,190.64 50.14,192.17 51.28,193.94 C52.1509053,195.283512 52.8244411,196.745084 53.28,198.28 C53.58,199.21 53.44,200.33 54.59,200.93 C55.11,201.2 54.83,202.02 55.01,202.58 C55.1404845,203.082622 55.2010547,203.600834 55.19,204.12 C55.25,206.63 55.85,207.45 58.26,207.2 C60.67,206.95 63.11,207.2 65.53,206.98 C66.94,206.85 68.46,206.98 69.92,206.98 C73.44,206.98 76.98,207.57 80.49,206.91 C81.05,206.8 81.49,207.13 82,207.08 C83.44,206.94 84.87,207.08 86.33,206.84 C87.79,206.6 89.21,207.36 90.74,207.14 C93.2528311,206.903414 95.7852382,206.977304 98.28,207.36 C100.9515,207.530744 103.633619,207.413401 106.28,207.01 C107.682288,206.75509 109.126054,206.854778 110.48,207.3 C110.894135,207.497898 111.363736,207.54733 111.81,207.44 C113.81,206.61 115.95,206.97 117.98,207.04 C119.67,207.1 121.3,206.75 122.98,206.8 C123.547058,206.789954 124.113576,206.840236 124.67,206.95 C125.67,207.21 126.67,207.56 127.67,206.95 C128.11,206.67 128.58,206.87 129,206.95 C130.723623,207.094982 132.456377,207.094982 134.18,206.95 C137.07,206.95 139.97,206.58 142.86,207.12 C143.627565,207.206518 144.396775,206.97211 144.985643,206.472235 C145.574511,205.972359 145.930722,205.251426 145.97,204.48 C146.17,202.36 147.57,200.66 147.73,198.56 C147.749586,198.430676 147.805014,198.309427 147.89,198.21 C149.89,195.75 150.98,192.74 153.36,190.5 C155.486444,188.614638 157.837568,186.99908 160.36,185.69 C161.913921,184.853323 163.609027,184.310889 165.36,184.09 C165.814894,184.090477 166.263565,183.984303 166.67,183.78 C168.34,182.65 170.3,182.51 172.14,181.94 C173.98,181.37 175.55,182.03 177.23,182.14 C177.85,182.14 178.46,182.53 179.13,182.32 C179.442642,182.215273 179.786815,182.271388 180.05,182.47 C181.56,183.38 183.38,183.73 184.83,184.57 C186.83,185.72 189.14,186.34 190.67,188.21 C190.964236,188.560041 191.324393,188.848846 191.73,189.06 C192.654621,189.631503 193.402396,190.448516 193.89,191.42 C195.12,193.42 196.06,195.66 197.79,197.37 C198.736859,198.436624 199.193813,199.851005 199.05,201.27 C198.95,204.69 201.05,206.4 204.56,206.02 C206.149911,205.800032 207.756954,205.729724 209.36,205.81 C209.743926,205.79661 210.125678,205.74638 210.5,205.66 C211.96,205.48 213.44,205.09 214.9,205.74 C215.068988,205.83859 215.266275,205.877343 215.46,205.85 C217.46,205.29 219.55,205.93 221.6,205.62 C223.532715,205.445031 225.477285,205.445031 227.41,205.62 C228.99,205.62 230.59,205.38 232.19,205.49 C233.79,205.6 235.56,205.25 237.19,205.66 C237.441908,205.729895 237.708092,205.729895 237.96,205.66 C239.54,205.09 241.16,205.59 242.75,205.5 C245.3,205.37 247.87,205.79 250.42,205.72 C252.137527,205.546679 253.865042,205.493216 255.59,205.56 C258.22,205.83 260.85,205.38 263.48,205.56 C263.999232,205.59998 264.520768,205.59998 265.04,205.56 C267.34,205.36 269.65,205.48 271.95,205.48 C273.7,205.48 274.25,204.87 274.55,203.13 C274.838655,202.180954 275.255861,201.275886 275.79,200.44 C276.037363,200.062402 276.264354,199.671844 276.47,199.27 C277.411382,196.777805 279.152113,194.667829 281.42,193.27 C282.169152,192.757404 282.819588,192.113744 283.34,191.37 C284.488851,189.898641 285.763668,188.530136 287.15,187.28 C288.387,186.290571 289.965074,185.83045 291.54,186 C292.511632,186.117712 293.49508,185.913998 294.34,185.42 C295.228851,185.003976 296.239626,184.929235 297.18,185.21 C298.884719,185.65262 300.664083,185.727613 302.4,185.43 C303.07,185.26 303.64,185.7 304.25,185.88 C305.85,186.32 307.63,186.17 308.94,187.47 C309.001661,187.490585 309.068339,187.490585 309.13,187.47 C310.7,187.2 311.62,188.04 312.34,189.29 C312.559448,189.631368 312.934274,189.841271 313.34,189.85 C313.986544,189.985832 314.555946,190.365434 314.93,190.91 C315.307631,191.439279 315.837977,191.840527 316.45,192.06 C316.641159,192.116126 316.804928,192.240733 316.91,192.41 C318.26,194.62 320.34,196.33 321.3,198.78 C321.57,199.46 322.1,199.94 322.3,200.65 C323.269323,203.464667 323.792314,206.413659 323.85,209.39 C323.85,210.21 324.35,210.95 324.1,211.86 C323.98,212.33 324.1,212.86 323.7,213.27 C323.3,213.68 323.11,214.16 323.7,214.61 C323.813217,214.758512 323.843342,214.954326 323.78,215.13 C322.9,216.98 322.7,219.04 322,220.96 C321.118727,223.401077 319.758796,225.641562 318,227.55 C316.7,228.95 315.58,230.55 313.8,231.66 C312.55,232.42 311.21,233.03 309.96,233.79 C309.513995,234.068155 308.995345,234.20739 308.47,234.19 C308.081794,234.139685 307.687177,234.184294 307.32,234.32 C303.96,236.25 300.15,235.81 296.55,236.19 C293.128342,236.452806 289.712226,235.615419 286.8,233.8 C285.09,232.8 283.07,231.97 281.8,230.18 C281.521572,229.813398 281.113919,229.56666 280.66,229.49 C280.266805,229.426438 279.926205,229.182094 279.74,228.83 C279.006511,227.556178 278.093859,226.394314 277.03,225.38 C275.905907,224.192259 275.255024,222.634407 275.2,221 C275.012779,219.709902 274.469027,218.497716 273.63,217.5 C273.513379,217.266295 273.288785,217.105336 273.03,217.07 C271.204495,216.695686 269.331003,216.61467 267.48,216.83 C266.009981,217.147402 264.478875,217.02213 263.08,216.47 C262.42,216.22 261.66,215.84 261.08,216.76 C260.91,217.03 260.48,216.86 260.16,216.86 C256.82,216.79 253.48,216.69 250.16,216.66 C246.27,216.66 242.38,216.78 238.51,216.75 C234.64,216.72 230.62,217.19 226.7,216.33 C225.53,216.07 224.34,216.89 223.08,216.84 C222.7,216.84 222.32,216.94 221.97,216.71 C221.18524,216.227419 220.213773,216.160163 219.37,216.53 C218.26,216.87 217.1,216.43 215.94,216.45 C212.06,216.54 208.17,216.27 204.29,216.3 C203.15,216.3 202.06,216.57 200.96,216.01 C200.47,215.76 199.96,215.92 199.96,216.71 C200.02698,217.476483 199.634662,218.210117 198.96,218.58 C198.73,218.69 198.69,219.28 198.64,219.66 C198.153707,222.404466 196.890422,224.95186 195,227 C193.881605,228.654458 192.534949,230.142513 191,231.42 C189.091745,232.82305 187.086755,234.089536 185,235.21 C183.24,236.09 181.32,236.34 179.56,237.16 C178.404609,237.794855 177.05962,237.993587 175.77,237.72 C175.708228,237.700113 175.641772,237.700113 175.58,237.72 C173.27,238.46 170.96,237.84 168.65,237.79 C167.806957,237.891535 166.952017,237.770879 166.17,237.44 C164.344944,236.445019 162.37911,235.733542 160.34,235.33 C158.461884,234.6949 156.773503,233.597968 155.43,232.14 C154.31,231.14 153.24,229.94 152.14,228.85 C150.705596,227.404754 149.609312,225.659579 148.93,223.74 C148.81514,223.437642 148.604394,223.181234 148.33,223.01 C147.656211,222.565286 147.244754,221.817183 147.23,221.01 C147.085054,220.447035 146.9081,219.892801 146.7,219.35 C146.4,218.2 145.7,217.93 144.55,217.89 C142.18,217.81 139.82,217.47 137.46,217.24 C137.268183,217.205754 137.071817,217.205754 136.88,217.24 C134.78,217.91 132.62,217.5 130.5,217.67 C128.79,217.8 127.16,217.38 125.5,217.47 C122.732925,217.650023 119.957075,217.650023 117.19,217.47 C114.03,217.25 110.88,217.77 107.73,217.38 C107.015469,217.361279 106.304891,217.267429 105.61,217.1 C104.98997,216.869544 104.304343,216.891083 103.7,217.16 C103.361095,217.354473 102.966336,217.42849 102.58,217.37 C100.66,216.91 98.73,217.24 96.81,217.28 C93.21,217.34 89.59,217.55 86.01,217.28 C83.5065634,217.100038 80.9934366,217.100038 78.49,217.28 C76.66,217.43 74.89,216.91 73.05,217.02 C70.6701632,217.231834 68.2752333,217.208387 65.9,216.95 C63.44,216.62 61,216.83 58.56,216.61 C57.392121,216.607951 56.2256626,216.691509 55.07,216.86 C54.13,216.92 52.7,218.74 52.75,219.93 C52.7709914,220.653385 52.5374157,221.36119 52.09,221.93 C50.83,223.78 49.89,225.81 48.09,227.38 C46.91,228.38 45.97,229.76 44.67,230.76 C43.8621184,231.511176 42.8894496,232.062584 41.83,232.37 C41.5745656,232.409927 41.335484,232.520805 41.14,232.69 C39.14,234.86 36.22,234.78 33.71,235.69 C32.37,236.18 30.98,235.64 29.66,235.84 C28.1220027,236.091152 26.5557264,236.118099 25.01,235.92 C22.9112866,235.632393 20.8382937,235.181016 18.81,234.57 C16.3155008,233.677982 13.9590339,232.439153 11.81,230.89 C9.3575674,229.314993 7.30377426,227.19274 5.81,224.69 C4.99,223.33 3.81,222.08 3.81,220.34 C2.1,218.89 2.42,216.66 1.5,214.9 C1,213.94 1.16,212.62 1,211.37 Z M27.41,225 C29.1885373,225.155098 30.9792085,224.909052 32.65,224.28 C33.86,223.82 34.92,223.05 36.15,222.71 C38.94,221.94 40.4,219.55 41.99,217.59 C44.26,214.78 44.66,211.19 44.39,207.59 C44.06,203.06 41.8,199.54 38.59,196.59 C36.96,195.11 34.68,194.59 32.86,193.35 C32.5595417,193.222746 32.23629,193.158095 31.91,193.16 C30.91,193.05 29.84,192.89 28.81,192.86 C27.4,192.86 25.94,192.4 24.59,193.13 C23.8444845,193.519144 22.9774272,193.605133 22.17,193.37 C20.8238242,193.050175 19.4093159,193.473384 18.46,194.48 C16.98,195.92 15.33,197.18 14.34,199.04 C13.64,200.34 12.34,201.31 12.21,202.92 C12.03,204.92 11.32,206.86 11.35,208.99 C11.3891267,210.838746 11.7268147,212.669014 12.35,214.41 C13.35,217.24 15.63,219.17 17.52,221.41 C18.291511,222.293656 19.2206438,223.026111 20.26,223.57 C20.99,223.96 21.82,223.64 22.53,224.03 C24.12,224.91 25.8,225.57 27.41,225 Z M155.48,210.42 C155.76,211.79 155.69,213.42 156.39,214.5 C157.48,216.21 158.14,218.17 159.64,219.69 C161.39,221.47 162.64,223.81 165.43,224.21 C165.77,224.21 166.08,224.61 166.38,224.86 C166.788206,225.181956 167.274967,225.389088 167.79,225.46 C168.79,225.63 169.84,225.84 170.85,226.07 C171.483385,226.230004 172.146615,226.230004 172.78,226.07 C174.88,225.53 177.14,225.51 179.1,224.5 C180.87381,223.718899 182.519125,222.67372 183.98,221.4 C185.537805,219.841268 186.735803,217.96065 187.49,215.89 C188.619445,213.218629 189.052959,210.304456 188.75,207.42 C188.510891,206.552244 188.216968,205.700534 187.87,204.87 C187.006382,202.272189 185.483415,199.942944 183.45,198.11 C182.86926,197.330252 182.129629,196.682648 181.28,196.21 C179.83,195.63 178.44,194.95 176.95,194.45 C175.82,194.07 174.61,194.2 173.54,193.76 C172.07,193.15 170.54,193.23 169,192.76 C168.351326,192.621295 167.674305,192.766891 167.14,193.16 C165.27,194.33 163.31,195.38 161.54,196.68 C159.464014,198.172803 157.896666,200.267255 157.05,202.68 C156.26,205.2 155.08,207.69 155.48,210.45 L155.48,210.42 Z M312.48,210.87 C312.437784,207.889519 311.580093,204.97752 310,202.45 C309.318732,201.262261 308.204224,200.384273 306.89,200 C306.506218,199.916739 306.157196,199.717797 305.89,199.43 C304.206524,197.531525 301.699435,196.578756 299.18,196.88 C297.950498,196.814498 296.717956,196.925629 295.52,197.21 C294.5631,197.581262 293.546383,197.774438 292.52,197.78 C291.073185,197.655425 289.652759,198.222854 288.69,199.31 C287.78,200.48 286.76,201.57 285.83,202.73 C285.290854,203.309304 284.960102,204.051738 284.89,204.84 C284.89,206.58 283.89,208.13 284.1,209.96 C284.341708,210.746349 284.399865,211.577656 284.27,212.39 C283.954716,213.138189 284.161156,214.00443 284.78,214.53 C285.203878,214.938353 285.478527,215.477088 285.56,216.06 C285.96,218.61 288.33,219.61 289.7,221.4 C293.11,223.09 296.42,224.94 300.53,224.15 C303.613347,223.698741 306.453687,222.218663 308.59,219.95 C309.500002,218.931403 310.288618,217.81056 310.94,216.61 C312,214.88 312.82,213 312.47,210.9 L312.48,210.87 Z"
    fill="#000000"
  />
  <path
    d="M225.24,11.74 C225.02,14.74 225.24,17.88 225.18,21.03 C225.18,23.8 225.53,26.53 225.48,29.29 C225.48,31.29 226.12,33.34 226.1,35.38 C226.1,37.73 226.6,40.07 226.1,42.44 C225.93,43.24 226.46,44.04 226.46,44.91 C226.46,48.76 226.3,52.63 226.61,56.45 C226.77,58.45 226.15,60.52 226.66,62.54 C225.4,63.69 226.79,64.95 226.51,66.2 C226.23,67.45 226.57,68.74 226.39,69.98 C226.1,71.98 226.81,73.98 226.44,76.1 C226.211691,77.6104459 226.238734,79.1485136 226.52,80.65 C226.71,81.81 226.33,82.9 226.46,84.06 C226.432107,84.7286539 226.468946,85.3984382 226.57,86.06 C226.86,87.06 226.22,87.95 226.32,89.06 C226.501128,90.4492636 226.477544,91.8575802 226.25,93.24 C225.933938,94.6919429 226.052184,96.2047971 226.59,97.59 C226.687906,97.8343527 226.712237,98.101998 226.66,98.36 C226.534834,99.7649874 226.55494,101.179139 226.72,102.58 C226.72,104.16 226.98,105.72 226.95,107.28 C226.87,110.48 227.1,113.66 227.11,116.85 C227.229903,118.821512 227.229903,120.798488 227.11,122.77 C227.103344,124.032355 227.003069,125.292479 226.81,126.54 C226.729364,126.924866 226.789696,127.325894 226.98,127.67 C227.61,128.67 227.17,129.76 227.21,130.81 C227.26,132.42 227.11,134.16 227.85,135.69 C228.51,137.05 228.53,138.56 228.97,139.98 C229.55,141.85 228.45,142.98 226.64,143.86 C225.142489,144.549473 223.493828,144.845475 221.85,144.72 C221.510076,144.704333 221.170368,144.755289 220.85,144.87 C217.14,146.22 213.33,145.41 209.56,145.41 C209.31,145.41 209,145.17 208.82,145.26 C206.68,146.26 204.32,145.26 202.15,145.96 C201.959297,146.005103 201.760703,146.005103 201.57,145.96 C198.24,145.34 194.9,146.43 191.57,145.88 C191.120456,145.753939 190.639244,145.811664 190.232269,146.040471 C189.825294,146.269277 189.525908,146.650413 189.4,147.1 C189.066146,148.696747 188.333368,150.182944 187.27,151.42 C186.17,152.91 185.35,154.58 184.17,156.04 C182.66,157.91 180.88,159.74 180.3,162.24 C180.219882,162.693644 180.003641,163.112176 179.68,163.44 C178.59,164.3 178.27,165.62 177.61,166.73 C177.22,167.39 176.83,168.06 176.43,168.73 C175.71,169.92 174.72,170.07 173.43,170.28 C168.43,171.03 166.54,167.64 164.63,164.23 C163.75,162.66 163.15,160.88 162.26,159.34 C160.79,156.83 159.68,154.12 158.03,151.71 C156.54673,149.587806 155.324588,147.29461 154.39,144.88 C153.99,143.83 153.75,143.79 152.62,144.13 C151.360192,144.689818 149.909594,144.619329 148.71,143.94 C148.270059,143.639801 147.699737,143.608972 147.23,143.86 C146.045513,144.44347 144.676212,144.526348 143.43,144.09 C143.244155,144.023865 143.044422,144.006646 142.85,144.04 C139.96,144.71 137.07,143.99 134.18,143.94 C131.52,143.94 128.86,144.12 126.18,144.04 C123.82,143.97 123.12,143.52 122.33,141.28 C122.17,140.82 122.03,140.34 121.56,140.28 C119.56,139.89 119.17,137.8 117.71,136.85 C117.3,136.59 117.71,135.85 117.5,135.19 C117.03705,134.03429 116.970233,132.757725 117.31,131.56 C117.71,130.63 117.31,130.26 117.16,129.56 C116.844006,128.198544 116.673053,126.807456 116.65,125.41 C116.620558,124.512901 116.680858,123.615105 116.83,122.73 C117,121.67 117.46,120.49 116.71,119.39 C116.4995,119.052548 116.444828,118.640683 116.56,118.26 C117.24,116.75 116.500868,115.13 117.02,113.59 C117.54,112.05 117.09,110.46 117.09,108.9 C117.146351,107.292724 117.112965,105.683556 116.99,104.08 C116.805333,102.972384 116.82567,101.840269 117.05,100.74 C117.05,100.61 117.17,100.44 117.12,100.37 C116.03,98.64 116.99,96.8 117.03,95.08 C117.11,92.22 116.48,89.3 117.43,86.47 C117.78,85.41 117.2,84.35 117.2,83.26 C117.181152,80.8856576 117.388758,78.5149277 117.82,76.18 C117.959873,75.608433 117.959873,75.011567 117.82,74.44 C117.82,74.32 117.63,74.15 117.67,74.1 C118.67,72.56 117.42,71.01 117.74,69.41 C118.06,67.81 117.74,66.06 117.9,64.41 C118.06,62.76 118.34,61.14 118.37,59.54 C118.492733,58.4780324 118.529519,57.4078887 118.48,56.34 C118.35,55.43 118.64,54.34 118.48,53.28 C118.25,51.21 118.78,49.16 118.7,47.12 C118.58,43.84 119.11,40.59 118.96,37.33 C118.88,35.63 118.74,33.91 118.7,32.2 C118.7,30.73 118.84,29.2 118.7,27.78 C118.49,25.2 118.7,22.63 118.4,20.08 C118.349997,19.4610082 118.349997,18.8389918 118.4,18.22 C118.53,16.36 118.18,14.46 118.4,12.63 C118.56,11.37 117.98,10.05 118.86,8.79 C119.39,8.04 118.79,6.96 119,5.99 C119.44,4.04 119.62,3.75 121.62,3.53 C122.207958,3.53853172 122.792017,3.43326532 123.34,3.22 C124.355405,2.5269804 125.73092,2.71730324 126.52,3.66 C126.958436,4.08598737 127.612585,4.20095905 128.17,3.95 C129.477921,3.62339054 130.83803,3.56218563 132.17,3.77 C133.193965,3.87533071 134.226035,3.87533071 135.25,3.77 C137.285585,3.5908272 139.334757,3.63778041 141.36,3.91 C143.27,4.01 145.05,3.25 146.83,3.52 C149.265447,3.75917729 151.721275,3.69198637 154.14,3.32 C155.93,3.15 157.74,3.44 159.52,2.96 C160.52,2.69 161.52,3.48 162.62,3.23 C164.568146,2.7551294 166.601854,2.7551294 168.55,3.23 C169.163037,3.31764976 169.788367,3.23818794 170.36,3 C173.56,2.06 176.86,2.12 180.13,2 C181.03,2 181.92,1.89 182.81,1.78 C183.19,1.73 183.64,1.56 183.95,1.69 C185.32,2.29 186.73,1.69 188.11,1.85 C188.491896,1.84579751 188.872426,1.89631031 189.24,2 C189.958639,2.3285114 190.799565,2.23635508 191.43,1.76 C191.934592,1.45603451 192.523711,1.32278136 193.11,1.38 C194.74,1.5 196.37,1.19 197.98,1.27 C200.35,1.34 202.71,1 205,1 C207.037109,0.868637092 209.082463,0.959169152 211.1,1.27 C212.69,1.64 214.1,0.81 215.61,1.27 C216.910284,1.65671458 218.288873,1.69807225 219.61,1.39 C221.14,1.06 222.09,2.08 223.25,2.62 C223.709757,2.88553061 224.009048,3.36065476 224.05,3.89 C224.59,6.46 225.38,8.94 225.24,11.74 Z M133.24,14.62 C132.67,14.67 132.35,14.72 132.02,14.74 C128.95,14.94 128.68,15.18 129.2,18.37 C129.5,20.18 129.35,22.01 129.53,23.82 C129.485075,24.8145393 129.596429,25.8099705 129.86,26.77 C130.050627,27.249065 130.122671,27.7670988 130.07,28.28 C129.930933,30.1600258 129.977827,32.0491893 130.21,33.92 C130.49,36.29 130.21,38.65 130.56,40.99 C130.669663,41.7712334 130.495828,42.5659052 130.07,43.23 C129.49,44.15 130.79,44.62 130.57,45.55 C130.12,47.41 130.88,49.43 129.88,51.24 C129.810352,51.4167186 129.810352,51.6132814 129.88,51.79 C130.62,53.7 130.03,55.67 130.18,57.61 C130.39,60.44 129.48,63.21 129.71,66.1 C129.784879,67.3622238 129.784879,68.6277762 129.71,69.89 C129.65,71.1 130.04,72.46 129.62,73.49 C129.09,74.78 129.71,75.82 129.62,76.96 C129.62,77.34 129.45,77.71 129.41,78.1 C129.23,79.7 128.55,81.22 128.69,82.87 C128.78,83.87 129.62,84.8 128.69,85.79 C129.091952,87.9739762 129.068183,90.2150404 128.62,92.39 C128.583827,92.6463776 128.62564,92.9077077 128.74,93.14 C129.092758,93.768378 129.061821,94.5418051 128.66,95.14 C128.46,95.55 128.1,96.08 128.39,96.41 C128.98,97.09 128.62,97.76 128.63,98.41 C128.63,100.26 128.82,102.1 128.75,103.96 C128.68,105.82 129.01,107.91 128.88,109.9 C128.72,112.32 128.79,114.75 128.52,117.14 C128.27,119.31 129.13,121.42 128.62,123.59 C128.365956,124.189034 128.26956,124.843148 128.34,125.49 C128.822387,127.206448 129.0283,128.988776 128.95,130.77 C128.937562,131.356495 129.022031,131.94102 129.2,132.5 C129.4,133.17 129.84,133.77 130.61,133.5 C131.699577,133.346948 132.801743,133.303398 133.9,133.37 C136.9,133.12 139.84,133.15 142.8,133.15 C145.57,133.15 148.31,132.67 151.12,132.9 C153.53,133.09 156.04,132.9 158.5,132.9 C158.947421,132.914375 159.382693,133.049102 159.76,133.29 C160.861536,134.019915 161.540147,135.239178 161.58,136.56 C161.98,139.04 163.49,141.1 164.08,143.5 C164.16,143.84 164.58,144.09 164.81,144.4 C166.029976,145.835833 167.077145,147.409942 167.93,149.09 C168.83,151.15 170.56,152.5 172.05,154.09 C172.273321,154.327467 172.556629,154.500215 172.87,154.59 C173.417658,154.80334 174.039856,154.602901 174.36,154.11 C176.546964,151.411753 178.529154,148.553789 180.29,145.56 C181.11,144.08 182.29,142.79 183.06,141.35 C184.12,139.43 185.69,137.84 186.49,135.73 C187.14,134.03 188.4,133.67 190.13,134.13 C191.51,134.49 192.92,133.96 194.31,134.29 C194.5,134.29 194.77,134.08 194.99,133.95 C195.320864,133.73316 195.716675,133.637741 196.11,133.68 C199.46,134.01 202.84,132.89 206.18,133.89 C206.367778,133.955543 206.572222,133.955543 206.76,133.89 C209.28,132.72 211.98,133.78 214.56,133.25 C215.75,133 216.56,132.51 216.16,131.39 C215.62,129.72 216.3,128.11 216.16,126.39 C216.105707,124.538651 216.155786,122.685714 216.31,120.84 C216.491803,117.643673 216.347726,114.437142 215.88,111.27 C215.842848,110.937702 215.842848,110.602298 215.88,110.27 C216.01,108.85 216.51,107.43 215.73,106.04 C215.636246,105.903892 215.609984,105.732344 215.658725,105.574421 C215.707467,105.416499 215.825844,105.289593 215.98,105.23 C216.56,104.91 216.39,104.48 216.11,104.09 C215.938383,103.820196 215.841736,103.509545 215.83,103.19 C215.485144,100.91358 215.334601,98.6119454 215.38,96.31 C215.45,94.31 215.04,92.31 215.27,90.43 C215.5,88.55 215.84,86.43 215.1,84.37 C215.01,84.15 215.03,83.69 215.1,83.65 C216.2,83.16 215.5,82.58 215.29,81.94 C215.159239,81.3797895 215.128768,80.8008418 215.2,80.23 C215.361952,79.1547127 215.408884,78.065231 215.34,76.98 C215.333949,75.9774308 215.390727,74.9754675 215.51,73.98 C215.51,73.21 215.16,72.54 215.18,71.72 C215.23,69.84 215.58,67.96 215.45,66.11 C215.350219,65.1592776 215.350219,64.2007224 215.45,63.25 C215.59,62.37 214.79,61.16 216.1,60.53 C216.24,60.46 216.15,60.14 215.97,60.03 C215.36,59.62 215.64,59.18 215.83,58.67 C216.129076,58.1633333 216.208531,57.5565914 216.05,56.99 C215.604108,55.8491023 215.432829,54.6193187 215.55,53.4 C215.549697,52.5242162 215.603131,51.6492389 215.71,50.78 C215.87,50.02 215.06,49.05 215.88,48.2 C214.88,47.2 215.56,46.03 215.37,44.95 C215.061504,43.6405005 214.966949,42.2897078 215.09,40.95 C215.31,39.49 214.7,37.95 215.36,36.53 C214.57,34.53 214.98,32.36 214.54,30.33 C214.34,29.44 215.64,28.87 214.78,28.03 C215.16,26.53 214.15,25.2 214.31,23.66 C214.64,20.53 214.2,17.35 214.64,14.2 C214.81,12.98 214.27,12.59 212.99,12.86 C212.486871,12.9852924 211.967474,13.0325103 211.45,13 C209.34,12.77 207.18,13.69 205.09,12.73 C204.899255,12.685262 204.700745,12.685262 204.51,12.73 C202.09,12.99 199.67,13.3 197.29,12.37 C196.718811,12.2138921 196.111237,12.2598134 195.57,12.5 C192.71,13.5 189.74,13.29 186.78,13.29 C184.71,13.29 182.65,13.08 180.59,13.03 C178.36,12.96 176.12,13.6 173.85,13.12 C173.257824,13.0687882 172.66824,13.2438767 172.2,13.61 C171.400186,14.0661175 170.472152,14.2453968 169.56,14.12 C166.41,13.8 163.25,14.22 160.05,13.86 C157.23,13.55 154.28,14.22 151.39,14.57 C149.351967,14.9720418 147.249328,14.9070822 145.24,14.38 C144.886038,14.1950453 144.463962,14.1950453 144.11,14.38 C143.11,15.07 141.98,14.87 140.9,14.9 C139.61105,14.9931925 138.315976,14.8474119 137.08,14.47 C135.86,14.19 134.37,15.08 133.2,14.62 L133.24,14.62 Z"
    fill="#000000"
  />
  <path
    d="M170.63,218.32 C169.960834,218.304719 169.293084,218.251299 168.63,218.16 C167.00947,217.880843 165.629801,216.822723 164.94,215.33 C163.72,213.04 162.82,210.74 163.6,208.12 C163.9,207.07 164.31,206.05 164.65,205.01 C164.76,204.69 164.86,204.34 165.23,204.32 C166.262636,204.127608 167.199985,203.59198 167.89,202.8 C169.84,201.13 172.18,201.2 174.36,201.8 C179.16,203.1 180.6,206.8 179.75,211.13 C179.177833,213.481261 177.862768,215.585364 176,217.13 C175.151128,217.738216 174.143336,218.085731 173.1,218.13 C172.280838,218.239196 171.456225,218.302627 170.63,218.32 L170.63,218.32 Z"
    fill="#000000"
  />
  <path
    d="M145.75,47.12 C145.599161,45.7608388 145.599161,44.3891612 145.75,43.03 C145.88,41.72 146.35,41.15 147.55,41.21 C149.10692,41.2314803 150.66,41.0499514 152.17,40.67 C152.351124,40.5986461 152.545703,40.5679231 152.74,40.58 C154.57,41.25 156.42,40.63 158.26,40.72 C160.853453,40.8852485 163.457009,40.7847251 166.03,40.42 C167.85,40.14 169.64,40.65 171.46,40.61 C174.75,40.54 178.03,40.74 181.32,40.74 C182.593551,40.5954147 183.881708,40.6459967 185.14,40.89 C186.43,41.29 187.85,41.16 189.14,41.83 C190.14,42.36 191.19,41.83 192.21,41.83 C193.428344,41.7401073 194.651656,41.7401073 195.87,41.83 C197.005409,41.9722229 198.156117,41.9351033 199.28,41.72 C200.989873,41.5361225 202.71722,41.5967311 204.41,41.9 C205,41.95 205.19,42.56 205.23,43.09 C205.41,45.81 205.76,48.53 205.67,51.27 C205.67,52.17 205.46,52.85 204.24,52.89 C203.24343,53.0071319 202.23657,53.0071319 201.24,52.89 C200.14,52.68 198.93,53.14 197.77,53.14 C195.96,53.14 194.14,53.05 192.33,52.98 C188.99,52.85 185.64,52.56 182.33,52.64 C179.74,52.71 177.16,52.64 174.58,52.64 C170.38,52.64 166.2,53.01 161.99,52.84 C159.322859,52.7196777 156.650756,52.7697797 153.99,52.99 C151.7,53.17 149.5,52.43 147.23,52.68 C146.23,52.79 145.87,52.08 145.87,51.17 L145.75,47.12 Z"
    fill="#000000"
  />
  <path
    d="M150.21,69.62 C151.46,69.78 153.32,69.35 155.21,69.42 C156.608251,69.387043 158.002106,69.2499973 159.38,69.01 C163.26,68.52 167.13,68.88 170.99,68.64 C173.54,68.47 176.16,69.18 178.61,67.93 C178.794476,67.8652041 178.995524,67.8652041 179.18,67.93 C181.39,68.44 183.56,67.53 185.71,67.72 C189.96,68.1 194.22,67.23 198.46,68.09 C199.449874,68.2284053 200.428909,68.4355731 201.39,68.71 C203.076016,69.2425097 204.315437,70.6833365 204.59,72.43 C205.064921,73.9913509 205.064921,75.6586491 204.59,77.22 C204.31,77.98 203.85,78.57 203.14,78.64 C201.91,78.75 200.75,79.14 199.51,79.24 C194.44,79.66 189.34,79.24 184.25,79.83 C181.944467,80.2278204 179.583326,80.1700659 177.3,79.66 C176.790267,79.540298 176.259733,79.540298 175.75,79.66 C173.395532,79.997644 171.018347,80.1514421 168.64,80.12 C166.32,80.21 164.04,79.9 161.75,79.78 C159.69,79.67 157.63,79.78 155.58,79.7 C153.14,79.61 150.71,79.82 148.29,79.15 C147.29,78.88 146.15,79.05 145.1,78.57 C144.341763,78.3093995 143.845326,77.5810203 143.88,76.78 C143.88,74.78 143.96,72.89 143.99,70.95 C143.99,70.19 144.2,69.87 145.12,69.8 C146.811732,69.6412079 148.511277,69.5811061 150.21,69.62 Z"
    fill="#000000"
  />
  <path
    d="M143.62,100 C143.62,99.77 143.62,99.57 143.62,99.38 C143.55,96.28 144.04,95.52 147.01,95.38 C150.4,95.23 153.78,94.38 157.19,95.21 C157.443721,95.2651838 157.708082,95.2443132 157.95,95.15 C159.30768,94.6958861 160.75209,94.562398 162.17,94.76 C163.502051,94.9233933 164.85137,94.8795404 166.17,94.63 C166.983203,94.350819 167.873384,94.4010712 168.65,94.77 C169.142291,94.9406861 169.677709,94.9406861 170.17,94.77 C172.332287,94.3547631 174.555695,94.3751614 176.71,94.83 C177.82,95.12 178.76,94.22 179.88,94.33 C181.59,94.5 183.31,93.99 185.03,94.33 C185.350985,94.440667 185.692634,94.4782484 186.03,94.44 C188.29,93.89 190.39,94.73 192.53,95.16 C193.406473,95.280701 194.184973,95.7821308 194.657348,96.5302184 C195.129723,97.2783059 195.247797,98.1967576 194.98,99.04 C194.679888,99.8142965 194.533823,100.639735 194.55,101.47 C194.7,102.96 193.77,103.67 192.84,104.29 C191.100224,105.427983 189.058575,106.016786 186.98,105.98 C184.636927,105.885561 182.300401,105.668598 179.98,105.33 C179.016599,105.169983 178.033401,105.169983 177.07,105.33 C176.946976,105.368591 176.818929,105.388809 176.69,105.39 C171.54,104.83 166.35,105.63 161.21,104.91 C159.916326,104.865175 158.621228,104.935451 157.34,105.12 C154.49,105.22 151.65,105.29 148.8,105.25 C147.25,105.25 145.96,104.32 144.44,104.36 C143.86,104.36 143.72,103.86 143.73,103.36 C143.76,102.31 143.31,101.16 143.62,100 Z"
    fill="#000000"
  />
</svg>
